<svg width="202" height="97" viewBox="0 0 202 97" version="1.1" xmlns="http://www.w3.org/2000/svg" xmlns:xlink="http://www.w3.org/1999/xlink">
<title>casa-ao-fundo</title>
<desc>Created using Figma</desc>
<g id="Canvas" transform="translate(2810 -2931)">
<g id="casa-ao-fundo">
<g id="Vector">
<use xlink:href="#path0_fill" transform="translate(-2809.27 2931.46)"/>
</g>
<g id="Vector">
<use xlink:href="#path1_fill" transform="translate(-2752.9 2958.3)" fill="#FFFFFF"/>
</g>
<g id="Vector">
<use xlink:href="#path2_fill" transform="translate(-2719.9 2985.7)" fill="#FFFFFF"/>
</g>
<g id="Vector">
<use xlink:href="#path3_fill" transform="translate(-2688.37 2996.5)" fill="#FFFFFF"/>
</g>
<g id="Vector">
<use xlink:href="#path4_fill" transform="translate(-2714.2 3005.4)" fill="#FFFFFF"/>
</g>
<g id="Vector">
<use xlink:href="#path5_fill" transform="translate(-2722.7 2982.19)" fill="#FFFFFF"/>
</g>
<g id="Vector">
<use xlink:href="#path6_fill" transform="translate(-2800.1 2943.03)" fill="#FFFFFF"/>
</g>
<g id="Vector">
<use xlink:href="#path7_fill" transform="translate(-2801.92 2957.65)" fill="#FFFFFF"/>
</g>
<g id="Vector">
<use xlink:href="#path8_fill" transform="translate(-2749.5 2989.2)" fill="#FFFFFF"/>
</g>
<g id="Vector">
<use xlink:href="#path9_fill" transform="translate(-2793.5 2972.09)" fill="#FFFFFF"/>
</g>
<g id="Vector">
<use xlink:href="#path10_fill" transform="translate(-2695.83 2988.68)"/>
</g>
<g id="Vector">
<use xlink:href="#path11_fill" transform="translate(-2744.8 2992.9)" fill="#FFFFFF"/>
</g>
<g id="Vector">
<use xlink:href="#path12_fill" transform="translate(-2781.1 2948)" fill="#FFFFFF"/>
</g>
<g id="Vector">
<use xlink:href="#path13_fill" transform="translate(-2792.7 2958.29)" fill="#FFFFFF"/>
</g>
<g id="Vector">
<use xlink:href="#path14_fill" transform="translate(-2786 2964.6)" fill="#FFFFFF"/>
</g>
<g id="Vector">
<use xlink:href="#path15_fill" transform="translate(-2731.71 2999.6)" fill="#FFFFFF"/>
</g>
<g id="Vector">
<use xlink:href="#path16_fill" transform="translate(-2781.8 2955.27)" fill="#FFFFFF"/>
</g>
<g id="Vector">
<use xlink:href="#path17_fill" transform="translate(-2788.61 2936.59)" fill="#FFFFFF"/>
</g>
<g id="Vector">
<use xlink:href="#path18_fill" transform="translate(-2789.36 2950.9)" fill="#FFFFFF"/>
</g>
<g id="Vector">
<use xlink:href="#path19_fill" transform="translate(-2792.9 2965.79)" fill="#FFFFFF"/>
</g>
<g id="Vector">
<use xlink:href="#path20_fill" transform="translate(-2696.84 3013.8)" fill="#FFFFFF"/>
</g>
<g id="Vector">
<use xlink:href="#path21_fill" transform="translate(-2798.1 2937.9)" fill="#FFFFFF"/>
</g>
<g id="Vector">
<use xlink:href="#path22_fill" transform="translate(-2797.8 2950.99)" fill="#FFFFFF"/>
</g>
<g id="Vector">
<use xlink:href="#path23_fill" transform="translate(-2787.51 2942.69)" fill="#FFFFFF"/>
</g>
<g id="Vector">
<use xlink:href="#path24_fill" transform="translate(-2697.47 3005)" fill="#FFFFFF"/>
</g>
<g id="Vector">
<use xlink:href="#path25_fill" transform="translate(-2702.74 2988.5)"/>
</g>
<g id="Vector">
<use xlink:href="#path26_fill" transform="translate(-2684.61 3006)"/>
</g>
</g>
</g>
<defs>
<path id="path0_fill" d="M 173.972 84.4445C 181.172 84.4445 188.472 84.4445 196.172 84.4445C 195.472 88.0445 192.972 89.0447 190.272 89.6447C 186.872 90.3447 183.372 90.6448 179.872 91.2448C 174.072 92.2448 168.272 93.5444 162.472 94.3444C 157.172 95.0444 151.772 95.8446 146.572 95.5446C 133.872 94.7446 121.272 93.2446 108.572 92.0446C 107.272 91.9446 105.972 91.5448 104.772 91.7448C 98.3718 92.9448 92.2718 91.4446 86.1718 90.0446C 81.1718 88.9446 77.7718 86.3447 77.8718 80.6447C 77.8718 78.1447 76.6719 77.1445 74.0719 76.9445C 68.3719 76.6445 62.7718 76.0445 57.0718 75.4445C 41.6718 74.0445 26.2718 72.6448 10.7718 71.2448C 7.67182 70.9448 4.57181 70.7444 2.07181 67.3444C 4.67181 65.8444 6.87182 63.9448 9.27182 63.2448C 12.6718 62.1448 13.9718 59.9444 14.6718 56.8444C 15.7718 51.6444 15.4718 47.3444 10.2718 43.8444C 5.57182 40.6444 4.07183 34.8448 1.97183 29.7448C 1.47183 28.5448 1.27179 27.2446 0.871793 26.0446C -0.528207 22.5446 -0.228158 19.2445 1.67184 15.9445C 3.77184 12.3445 6.07179 8.84454 6.87179 4.44454C 7.17179 2.84454 9.87182 1.24474 11.7718 0.644738C 18.9718 -1.65526 28.1718 2.44464 32.0718 9.04464C 33.0718 10.7446 34.4718 12.2448 35.8718 13.7448C 38.7718 16.9448 39.5718 20.3444 37.3718 24.3444C 35.2718 28.2444 33.6718 32.3444 31.7718 36.3444C 31.2718 37.4444 30.5718 38.8445 29.5718 39.4445C 25.7718 41.9445 24.1718 45.9447 22.2718 49.6447C 21.2718 51.5447 20.8718 53.8445 20.7718 55.9445C 20.7718 61.1445 22.5718 62.7447 27.6718 63.1447C 32.4718 63.5447 37.1718 64.1444 41.9718 64.8444C 46.1718 65.4444 46.7718 65.1447 47.6718 61.1447C 48.3718 57.9447 49.3718 54.7446 50.2718 51.5446C 50.9718 48.8446 51.9718 46.3446 50.2718 43.5446C 49.7718 42.6446 50.1718 40.6447 50.8718 39.6447C 54.1718 34.7447 57.8718 30.1444 61.1718 25.3444C 62.6718 23.1444 64.3718 23.1444 66.3718 23.8444C 72.2718 25.9444 78.0719 28.2448 84.0719 30.2448C 88.4719 31.6448 92.6718 33.4448 96.3718 36.2448C 99.6718 38.7448 101.772 41.5445 101.572 45.9445C 101.372 50.1445 102.872 51.4444 107.372 50.8444C 113.072 50.2444 118.772 49.5444 124.272 48.3444C 127.672 47.6444 129.972 48.4444 132.172 50.8444C 133.672 52.4444 135.272 54.0444 137.072 55.3444C 142.572 59.2444 144.672 64.6446 144.572 71.0446C 144.572 75.2446 144.372 79.5448 144.272 83.7448C 144.172 87.8448 145.072 88.7444 149.072 88.3444C 152.872 87.8444 156.772 87.2448 160.572 86.7448C 165.972 86.1448 166.772 81.4447 168.272 77.6447C 169.572 74.4447 167.872 72.0444 165.472 69.8444C 159.972 64.9444 159.772 62.8448 163.972 56.7448C 169.872 47.9448 169.972 47.9448 178.172 54.2448C 181.472 56.8448 185.072 58.6444 189.172 58.8444C 195.372 59.2444 198.072 63.5445 200.072 68.4445C 200.872 70.4445 200.372 72.0444 198.172 72.8444C 194.372 74.2444 190.672 76.0446 186.772 77.0446C 184.772 77.5446 182.472 76.6445 180.272 76.4445C 174.772 76.3445 172.572 78.9445 173.972 84.4445ZM 117.072 60.3444C 119.572 58.9444 122.472 58.2448 123.672 54.7448C 122.672 54.4448 122.072 54.0446 121.472 54.0446C 116.372 54.1446 111.272 54.2448 106.172 54.7448C 104.972 54.8448 103.572 56.0447 102.872 57.1447C 101.372 59.3447 100.472 62.0448 99.0719 64.2448C 97.8719 66.0448 96.4719 65.8445 95.0719 63.9445C 96.1719 61.6445 100.672 60.3448 96.9718 56.7448C 91.8718 58.5448 92.5718 64.5444 89.3718 67.8444C 92.5718 68.3444 95.8719 69.0446 98.5719 68.0446C 100.972 67.1446 102.672 64.3448 104.872 62.2448C 108.172 61.9448 110.872 63.0445 111.472 67.4445C 112.772 64.1445 117.272 63.8445 117.272 59.9445L 117.072 60.3444ZM 79.4718 35.0446C 78.9718 34.2446 78.5718 32.6447 77.9718 32.6447C 74.3718 32.5447 71.8718 30.4447 69.3718 28.1447C 68.7718 27.5447 67.5718 27.4444 65.9718 26.8444C 67.4718 31.6444 70.8718 33.8446 73.6718 36.0446C 76.4718 38.1446 80.3718 38.8447 83.7718 40.1447C 82.8718 41.3447 82.0718 41.7444 81.2718 41.8444C 74.2718 42.1444 67.2718 42.3446 60.2718 42.5446C 58.7718 42.5446 56.8718 41.9446 56.1718 44.5446C 58.6718 46.6446 61.6718 46.2448 64.4718 46.2448C 67.7718 46.2448 71.0718 46.0447 74.3718 45.6447C 77.0718 45.3447 77.9718 46.6447 77.9718 49.1447C 77.9718 52.2447 78.1718 55.3445 78.4718 58.4445C 78.5718 59.2445 79.3718 60.0445 79.9718 60.9445C 82.3718 58.3445 80.7719 55.9448 80.5719 53.7448C 79.6719 45.7448 79.9718 45.2447 88.1718 45.1447C 91.1718 45.1447 94.0719 45.0445 96.0719 42.4445C 95.1719 37.8445 92.2718 40.8446 89.9718 41.0446C 90.9718 39.5446 91.6718 38.4448 92.3718 37.2448C 92.2718 36.8448 92.2718 36.3445 92.1718 35.9445C 88.2718 38.0445 85.2718 36.9447 82.3718 34.6447C 81.9718 34.1447 80.3718 34.9446 79.4718 35.0446ZM 136.872 65.0446C 135.972 65.7446 134.872 66.1445 134.272 66.9445C 131.772 70.4445 128.972 73.0446 124.272 72.5446C 123.472 72.4446 121.972 73.4447 121.772 74.1447C 120.872 78.1447 120.172 82.2445 122.072 86.4445C 124.172 85.1445 126.072 83.0448 127.572 83.2448C 129.472 83.4448 130.972 85.7448 133.472 87.7448C 133.472 84.1448 133.672 81.2445 133.472 78.4445C 133.172 75.0445 133.672 72.4447 137.072 70.6447C 139.672 69.2447 139.072 67.0446 136.872 65.0446ZM 99.8718 82.1447C 102.872 82.2447 104.272 81.1447 104.372 78.6447C 104.472 75.7447 102.772 74.0446 99.5719 74.0446C 96.5719 74.0446 95.1719 75.4444 95.0719 78.3444C 94.9719 80.8444 96.4718 82.0447 99.8718 82.1447ZM 97.6718 50.7448C 92.2718 50.6448 87.2719 55.1447 86.5719 61.1447C 90.3719 57.5447 93.7718 54.3448 97.6718 50.7448ZM 19.4718 16.5446C 16.4718 14.7446 14.5718 13.6444 12.6718 12.3444C 10.6718 11.0444 10.1718 11.3446 9.17184 14.5446C 11.3718 15.6446 13.5718 16.8447 15.9718 17.6447C 16.7718 17.9447 17.9718 17.0446 19.4718 16.5446ZM 11.3718 26.3444C 7.27179 25.9444 6.67182 26.2446 7.77182 28.5446C 8.57182 30.2446 7.97181 31.2447 7.57181 32.6447C 7.37181 33.2447 8.07181 34.3444 8.57181 34.8444C 8.9718 35.1444 10.0718 34.9446 10.4718 34.5446C 10.9718 34.1446 11.3718 32.8448 11.1718 32.7448C 8.67184 30.6448 11.6718 28.7444 11.3718 26.3444ZM 64.3718 64.0446C 62.3718 61.3446 61.2718 59.8444 59.7718 57.8444C 59.7718 61.2444 59.7718 63.8445 59.7718 66.4445C 60.2718 66.7445 60.6718 66.9448 61.1718 67.2448C 62.1718 66.2448 63.1718 65.2446 64.3718 64.0446ZM 21.1718 42.4445C 19.8718 41.5445 18.9718 40.5446 18.1718 40.5446C 17.3718 40.5446 16.5718 41.5447 15.7718 42.1447C 16.5718 42.9447 17.3718 44.0448 18.2718 44.2448C 18.9718 44.4448 19.8718 43.3445 21.1718 42.4445ZM 64.4718 62.5446C 66.0718 65.1446 67.4718 65.5444 68.6718 63.8444C 68.9718 63.3444 68.4718 62.2445 68.3718 61.4445C 67.0718 61.7445 65.7718 62.1446 64.4718 62.5446ZM 33.4718 19.0446C 33.1718 18.5446 32.9718 18.1447 32.6718 17.6447C 31.7718 17.2447 30.8718 16.4445 30.0718 16.4445C 29.4718 16.4445 28.7718 17.4446 28.1718 18.0446C 29.0718 18.7446 29.9718 19.6445 30.9718 19.9445C 31.7718 20.2445 32.6718 19.4446 33.4718 19.0446ZM 21.0718 29.2448C 20.1718 28.0448 19.7718 26.8444 19.1718 26.8444C 18.2718 26.7444 17.3718 27.4444 16.4718 27.8444C 16.8718 28.5444 17.0718 29.7445 17.5718 29.9445C 18.5718 30.1445 19.5718 29.5448 21.0718 29.2448ZM 25.3718 33.1447C 24.4718 34.3447 23.8718 35.1445 23.2718 35.9445C 23.9718 36.3445 24.6718 37.2447 25.2718 37.1447C 25.9718 37.0447 26.8718 36.1445 26.9718 35.4445C 27.0718 34.9445 26.1718 34.2447 25.3718 33.1447ZM 80.2718 68.1447C 76.8718 70.2447 76.7718 71.7446 79.6718 74.5446C 79.8718 72.1446 79.9718 70.6447 80.2718 68.1447ZM 31.7718 25.2448C 30.6718 24.5448 29.7718 23.6444 29.2718 23.8444C 28.4718 24.1444 28.0718 25.1444 27.4718 25.8444C 28.1718 26.2444 28.8718 27.1446 29.4718 27.0446C 30.1718 27.0446 30.7718 26.1448 31.7718 25.2448ZM 24.6718 6.84445C 23.5718 5.94445 22.8718 5.04474 22.2718 5.14474C 21.6718 5.24474 20.9718 6.24454 20.7718 6.94454C 20.6718 7.24454 21.6718 8.24484 22.1718 8.24484C 22.7718 8.24484 23.4718 7.54445 24.6718 6.84445ZM 23.7718 21.5446C 22.9718 19.6446 21.9718 18.8445 20.4718 19.9445C 20.1718 20.1445 19.8718 21.0444 20.0718 21.3444C 20.9718 23.0444 22.1718 22.7446 23.7718 21.5446ZM 21.2718 35.5446C 19.7718 34.9446 18.9718 34.2445 18.3718 34.4445C 17.6718 34.5445 17.1718 35.4446 16.4718 36.0446C 17.0718 36.6446 17.7718 37.7447 18.2718 37.6447C 19.1718 37.3447 19.8718 36.5446 21.2718 35.5446ZM 113.472 82.4445C 113.172 82.4445 112.772 82.4444 112.472 82.3444C 112.472 83.2444 112.472 84.0445 112.472 84.9445C 112.472 84.9445 113.072 85.0446 113.472 85.0446C 113.472 84.1446 113.472 83.3445 113.472 82.4445ZM 11.1718 6.84445C 11.2718 7.34445 11.3718 7.84445 11.4718 8.34445C 12.3718 8.14445 13.2718 8.04445 14.2718 7.84445C 14.1718 7.34445 14.0718 6.44454 13.9718 6.44454C 12.9718 6.44454 12.0718 6.64445 11.1718 6.84445ZM 15.4718 21.0446C 14.5718 20.3446 13.8718 19.4446 13.5718 19.5446C 12.7718 19.7446 12.1718 20.4445 11.5718 20.9445C 12.0718 21.4445 12.4718 22.3444 12.9718 22.3444C 13.6718 22.3444 14.3718 21.7446 15.4718 21.0446ZM 25.3718 12.4445C 24.3718 11.8445 23.5718 11.1448 23.3718 11.2448C 22.6718 11.6448 22.1718 12.4447 21.7718 13.1447C 21.6718 13.2447 22.8718 14.4444 23.1718 14.3444C 23.8718 14.1444 24.3718 13.3445 25.3718 12.4445ZM 111.872 73.5446C 111.772 73.5446 111.772 73.5446 111.872 73.5446C 111.872 74.2446 111.872 74.9447 111.972 75.6447C 111.872 74.9447 111.872 74.2446 111.872 73.5446Z"/>
<path id="path1_fill" d="M 23.1 8.2C 24 8.1 25.6 7.3001 26.2 7.8001C 29.1 10.0001 32.2 11.0999 36 9.0999C 36.1 9.4999 36.1001 10.0002 36.2001 10.4002C 35.5 11.5002 34.7 12.7 33.8 14.2C 36.1 14 39.1 10.9999 39.9 15.5999C 37.8 18.2999 34.9 18.3001 32 18.3001C 23.9 18.4001 23.5 18.9002 24.4 26.9002C 24.7 29.2002 26.2 31.4999 23.8 34.0999C 23.2 33.0999 22.4 32.3999 22.3 31.5999C 22 28.4999 21.8 25.4001 21.8 22.3001C 21.8 19.8001 20.9 18.5001 18.2 18.8001C 14.9 19.1001 11.6 19.4002 8.30002 19.4002C 5.50002 19.4002 2.49998 19.7 -2.44141e-05 17.7C 0.699976 15.1 2.49995 15.8 4.09995 15.7C 11.1 15.5 18.1 15.2998 25.1 14.9998C 25.9 14.9998 26.7 14.5001 27.6 13.3001C 24.2 12.0001 20.2 11.3 17.5 9.2C 14.7 7 11.3 4.7998 9.80002 -0.000195313C 11.4 0.599805 12.6 0.700098 13.2 1.3001C 15.7 3.6001 18.1 5.7001 21.8 5.8001C 22.2 5.8001 22.6 7.4 23.1 8.2Z"/>
<path id="path2_fill" d="M 27.9 5.9001C 27.9 9.8001 23.4 10.0001 22.1 13.4001C 21.5 9.0001 18.8 7.8999 15.5 8.1999C 13.3 10.2999 11.6 13.1002 9.20005 14.0002C 6.50005 15.0002 3.19998 14.2 -2.44141e-05 13.8C 3.29998 10.4 2.49995 4.4999 7.59995 2.6999C 11.3 6.3999 6.80005 7.7001 5.70005 9.9001C 7.10005 11.7001 8.50005 11.9999 9.70005 10.1999C 11.1 7.8999 12 5.2998 13.5 3.0998C 14.2 1.9998 15.6 0.799902 16.8 0.699902C 21.9 0.299902 27 0.200195 32.1 0.000195313C 32.7 0.000195313 33.4 0.399902 34.3 0.699902C 33.1 4.1999 30.1 4.9 27.7 6.3C 28.6 4.5 27.7 3.2999 26 3.1999C 24.2 3.0999 23.5 4.3001 24.3 6.4001C 25.5 6.1001 26.7 6.0001 27.9 5.9001ZM 18.1 2.8C 17.6 3.7 17.1 4.2999 17.2 4.6999C 17.4 5.1999 18.2 5.7999 18.6 5.6999C 19.1 5.5999 19.7 4.8 19.7 4.3C 19.7 3.9 18.8 3.5 18.1 2.8Z"/>
<path id="path3_fill" d="M 15.9656 0C 18.1656 2.1 18.7656 4.2001 16.1656 5.6001C 12.6656 7.4001 12.2655 10.0999 12.5655 13.3999C 12.7655 16.1999 12.5655 19.1002 12.5655 22.7002C 10.0655 20.7002 8.46563 18.4002 6.66563 18.2002C 5.06563 18.0002 3.26563 20.0999 1.16563 21.3999C -0.63437 17.2999 -0.0344186 13.2001 0.865581 9.1001C 1.06558 8.4001 2.56558 7.4 3.36558 7.5C 8.06558 8 10.9656 5.3999 13.3656 1.8999C 13.9656 1.0999 15.0656 0.6 15.9656 0ZM 5.96556 15.6001C 7.46556 14.1001 8.36561 13.2002 9.26561 12.2002C 8.06561 11.3002 6.86563 10.3999 5.66563 9.3999C 4.96563 10.2999 3.76561 11.2002 3.76561 12.2002C 3.66561 13.2002 4.86556 14.1001 5.96556 15.6001Z"/>
<path id="path4_fill" d="M 4.80465 8.2001C 1.40465 8.1001 -0.0952728 6.9002 0.00472721 4.3002C 0.00472721 1.4002 1.50473 -9.76563e-05 4.50473 -9.76563e-05C 7.70473 -9.76563e-05 9.40465 1.7 9.30465 4.6C 9.20465 7.2 7.80465 8.3001 4.80465 8.2001Z"/>
<path id="path5_fill" d="M 11.1 0.0064764C 7.30002 3.60648 3.80005 6.80638 4.88281e-05 10.4064C 0.600049 4.40638 5.70002 -0.193524 11.1 0.0064764Z"/>
<path id="path6_fill" d="M 10.3 4.96573C 8.80001 5.46573 7.60001 6.36583 6.80001 6.06583C 4.50001 5.26583 2.30002 4.06573 2.44141e-05 2.96573C 1.00002 -0.234268 1.60002 -0.634464 3.50002 0.765536C 5.40002 1.96554 7.30001 3.06573 10.3 4.96573Z"/>
<path id="path7_fill" d="M 4.02463 0.150276C 4.22463 2.55028 1.22468 4.45057 3.82468 6.45057C 4.02468 6.55057 3.62467 7.85037 3.12467 8.25037C 2.62467 8.65037 1.52465 8.85067 1.22465 8.55067C 0.624647 8.05067 0.0246466 6.95047 0.224647 6.35047C 0.624647 4.95047 1.22466 3.95037 0.424659 2.25037C -0.575341 0.0503733 0.0246344 -0.249724 4.02463 0.150276Z"/>
<path id="path8_fill" d="M 4.59998 6.3C 3.39998 7.5 2.40002 8.5001 1.40002 9.4001C 0.900024 9.1001 0.5 8.89981 1.13687e-13 8.5998C 1.13687e-13 5.9998 1.13687e-13 3.5002 1.13687e-13 0.000195313C 1.6 2.1002 2.69998 3.6 4.59998 6.3Z"/>
<path id="path9_fill" d="M 5.40002 1.80684C 4.10002 2.70684 3.1 3.80674 2.5 3.70674C 1.5 3.50674 0.8 2.30713 0 1.60713C 0.8 1.00713 1.60002 0.00703295 2.40002 0.00703295C 3.30002 -0.0929671 4.10002 0.906838 5.40002 1.80684Z"/>
<path id="path10_fill" d="M 3.82802 2.92031C 2.62802 3.02031 1.42802 3.12011 0.328021 3.22011C -0.471979 1.12011 0.227972 -0.179592 2.02797 0.0204077C 3.72797 0.120408 4.52805 1.32002 3.72805 3.12002C 3.62805 3.12002 3.82802 2.92031 3.82802 2.92031Z"/>
<path id="path11_fill" d="M -4.88281e-05 1.1C 1.29995 0.7 2.59998 0.399902 3.89998 -9.76563e-05C 3.99998 0.799902 4.50002 1.8998 4.20002 2.3998C 3.10002 4.0998 1.69995 3.7 -4.88281e-05 1.1Z"/>
<path id="path12_fill" d="M 5.30001 2.5C 4.50001 2.9 3.50001 3.6 2.80001 3.5C 1.80001 3.2 0.900024 2.3001 2.44141e-05 1.6001C 0.600024 1.0001 1.29999 0 1.89999 0C 2.79999 0 3.70002 0.700195 4.50002 1.2002C 4.80002 1.6002 5.10001 2.1 5.30001 2.5Z"/>
<path id="path13_fill" d="M 4.49999 2.40986C 2.89999 2.80986 1.90002 3.30956 1.10002 3.10956C 0.600024 3.00956 0.299988 1.80947 -1.2207e-05 1.00947C 0.899988 0.609467 1.8 -0.0905328 2.7 0.00946721C 3.2 0.00946721 3.69999 1.20986 4.49999 2.40986Z"/>
<path id="path14_fill" d="M 2.09998 9.76563e-05C 2.89998 1.0001 3.80001 1.7999 3.70001 2.2999C 3.50001 2.9999 2.7 3.9001 2 4.0001C 1.4 4.1001 0.7 3.1999 0 2.7999C 0.6 1.9999 1.19998 1.2001 2.09998 9.76563e-05Z"/>
<path id="path15_fill" d="M 2.70528 9.76563e-05C 2.50528 2.4001 2.30531 3.9 2.10531 6.4C -0.794694 3.6 -0.794719 2.1001 2.70528 9.76563e-05Z"/>
<path id="path16_fill" d="M 4.3 1.42853C 3.3 2.22853 2.70001 3.12834 2.00001 3.22834C 1.40001 3.32834 0.700012 2.42814 1.2207e-05 2.02814C 0.600012 1.32814 1.1 0.328143 1.8 0.0281425C 2.3 -0.171857 3.2 0.728533 4.3 1.42853Z"/>
<path id="path17_fill" d="M 4.007 1.70675C 2.807 2.40675 2.10696 3.10714 1.40696 3.10714C 0.906964 3.10714 -0.0929992 2.10685 0.00700084 1.80685C 0.207001 1.10685 0.907001 0.107043 1.507 0.00704313C 2.207 -0.0929569 2.907 0.90675 4.007 1.70675Z"/>
<path id="path18_fill" d="M 3.86476 2.09906C 2.26476 3.29906 0.96477 3.59887 0.0647702 1.89887C -0.13523 1.59887 0.164734 0.798966 0.464734 0.498966C 2.16473 -0.601034 3.16476 0.199063 3.86476 2.09906Z"/>
<path id="path19_fill" d="M 4.9 1.21094C 3.4 2.21094 2.70002 3.11094 1.80002 3.21094C 1.30002 3.31094 0.599976 2.21085 -2.44141e-05 1.61085C 0.599976 1.11085 1.2 0.210748 1.9 0.0107483C 2.7 -0.0892517 3.5 0.510944 4.9 1.21094Z"/>
<path id="path20_fill" d="M 1.0444 0.0999023C 1.0444 0.999902 1.0444 1.8 1.0444 2.7C 0.744396 2.7 0.0443956 2.6999 0.0443956 2.5999C -0.0556044 1.6999 0.0443956 0.899805 0.0443956 -0.000195313C 0.444396 0.0998047 0.744396 0.0999023 1.0444 0.0999023Z"/>
<path id="path21_fill" d="M 2.44141e-05 0.399805C 0.900024 0.299805 1.79998 0.0999023 2.69998 -9.76563e-05C 2.79998 -9.76563e-05 2.90002 0.899805 3.00002 1.3998C 2.10002 1.5998 1.19998 1.6998 0.199976 1.8998C 0.199976 1.3998 0.100024 0.899805 2.44141e-05 0.399805Z"/>
<path id="path22_fill" d="M 4.00001 1.50766C 2.80001 2.10766 2.09998 2.80746 1.39998 2.80746C 0.999976 2.80746 0.500012 1.90756 1.2207e-05 1.40756C 0.700012 0.90756 1.30001 0.207657 2.00001 0.00765719C 2.50001 -0.0923428 3.10001 0.807657 4.00001 1.50766Z"/>
<path id="path23_fill" d="M 3.60588 1.20951C 2.60588 2.10951 2.10593 2.80941 1.40593 3.10941C 1.10593 3.20941 -0.0940991 2.1097 0.00590094 1.9097C 0.405901 1.2097 0.905877 0.409803 1.60588 0.00980251C 1.80588 -0.0901975 2.60588 0.609509 3.60588 1.20951Z"/>
<path id="path24_fill" d="M 0.0749756 0C 0.0749756 0.7 0.174951 1.4001 0.174951 2.1001C 0.0749512 1.4001 -0.0250244 0.7 0.0749756 0C -0.0250244 0 -0.0250244 0 0.0749756 0Z"/>
<path id="path25_fill" d="M 0.939426 0C 1.73943 0.7 2.53952 1.1 2.53952 1.5C 2.53952 2 1.93943 2.7999 1.43943 2.8999C 1.03943 2.9999 0.139523 2.3999 0.0395233 1.8999C -0.160477 1.4999 0.439426 0.9 0.939426 0Z"/>
<path id="path26_fill" d="M 2.20583 6.1001C 1.10583 4.6001 -0.0941241 3.6998 0.00587588 2.7998C 0.00587588 1.7998 1.2059 0.9 1.9059 0C 3.1059 0.9 4.30588 1.7998 5.50588 2.7998C 4.60588 3.6998 3.70583 4.7001 2.20583 6.1001Z"/>
</defs>
</svg>
