<svg width="255" height="193" viewBox="0 0 255 193" version="1.1" xmlns="http://www.w3.org/2000/svg" xmlns:xlink="http://www.w3.org/1999/xlink">
<title>casas</title>
<desc>Created using Figma</desc>
<g id="Canvas" transform="translate(3065 -2895)">
<g id="casas">
<g id="Vector">
<use xlink:href="#path0_fill" transform="translate(-3064.19 2895.69)"/>
</g>
<g id="Vector">
<use xlink:href="#path1_fill" transform="translate(-3063.13 2972)"/>
</g>
<g id="Vector">
<use xlink:href="#path2_fill" transform="translate(-3058.8 2921.9)" fill="#FFFFFF"/>
</g>
<g id="Vector">
<use xlink:href="#path3_fill" transform="translate(-2990.8 2994.91)" fill="#FFFFFF"/>
</g>
<g id="Vector">
<use xlink:href="#path4_fill" transform="translate(-2855.6 2954)" fill="#FFFFFF"/>
</g>
<g id="Vector">
<use xlink:href="#path5_fill" transform="translate(-2970 2968.4)" fill="#FFFFFF"/>
</g>
<g id="Vector">
<use xlink:href="#path6_fill" transform="translate(-3025.2 2962.79)" fill="#FFFFFF"/>
</g>
<g id="Vector">
<use xlink:href="#path7_fill" transform="translate(-2913.7 2958.31)" fill="#FFFFFF"/>
</g>
<g id="Vector">
<use xlink:href="#path8_fill" transform="translate(-2996.05 2965.39)" fill="#FFFFFF"/>
</g>
<g id="Vector">
<use xlink:href="#path9_fill" transform="translate(-2907.92 3030.49)" fill="#FFFFFF"/>
</g>
<g id="Vector">
<use xlink:href="#path10_fill" transform="translate(-2910.5 2938.06)" fill="#FFFFFF"/>
</g>
<g id="Vector">
<use xlink:href="#path11_fill" transform="translate(-2849.08 2909.6)" fill="#FFFFFF"/>
</g>
<g id="Vector">
<use xlink:href="#path12_fill" transform="translate(-2978.2 3021.79)" fill="#FFFFFF"/>
</g>
<g id="Vector">
<use xlink:href="#path13_fill" transform="translate(-2931.92 3033.1)" fill="#FFFFFF"/>
</g>
<g id="Vector">
<use xlink:href="#path14_fill" transform="translate(-2869.2 2933.57)" fill="#FFFFFF"/>
</g>
<g id="Vector">
<use xlink:href="#path15_fill" transform="translate(-2982.9 2979.4)" fill="#FFFFFF"/>
</g>
<g id="Vector">
<use xlink:href="#path16_fill" transform="translate(-2867.28 2985.2)" fill="#FFFFFF"/>
</g>
<g id="Vector">
<use xlink:href="#path17_fill" transform="translate(-2857.2 3023.27)" fill="#FFFFFF"/>
</g>
<g id="Vector">
<use xlink:href="#path18_fill" transform="translate(-2914.9 3070.8)" fill="#FFFFFF"/>
</g>
<g id="Vector">
<use xlink:href="#path19_fill" transform="translate(-2856.3 2932.16)" fill="#FFFFFF"/>
</g>
<g id="Vector">
<use xlink:href="#path20_fill" transform="translate(-2866.1 2971.8)" fill="#FFFFFF"/>
</g>
<g id="Vector">
<use xlink:href="#path21_fill" transform="translate(-2977.3 2980.8)" fill="#FFFFFF"/>
</g>
<g id="Vector">
<use xlink:href="#path22_fill" transform="translate(-3038.2 2946.45)"/>
</g>
<g id="Vector">
<use xlink:href="#path23_fill" transform="translate(-3047.8 2946.59)"/>
</g>
<g id="Vector">
<use xlink:href="#path24_fill" transform="translate(-3030.97 2938.99)"/>
</g>
<g id="Vector">
<use xlink:href="#path25_fill" transform="translate(-2840.21 2957.2)"/>
</g>
<g id="Vector">
<use xlink:href="#path26_fill" transform="translate(-2848.23 2958.88)"/>
</g>
<g id="Vector">
<use xlink:href="#path27_fill" transform="translate(-2953.5 2987.1)"/>
</g>
<g id="Vector">
<use xlink:href="#path28_fill" transform="translate(-2961.35 2985.69)"/>
</g>
<g id="Vector">
<use xlink:href="#path29_fill" transform="translate(-2945.08 2977.44)"/>
</g>
<g id="Vector">
<use xlink:href="#path30_fill" transform="translate(-3019.33 2989.3)"/>
</g>
<g id="Vector">
<use xlink:href="#path31_fill" transform="translate(-3018.93 2966.88)"/>
</g>
<g id="Vector">
<use xlink:href="#path32_fill" transform="translate(-2896.84 2969.54)"/>
</g>
<g id="Vector">
<use xlink:href="#path33_fill" transform="translate(-2992.4 2968.8)"/>
</g>
<g id="Vector">
<use xlink:href="#path34_fill" transform="translate(-2880 2942.8)"/>
</g>
<g id="Vector">
<use xlink:href="#path35_fill" transform="translate(-2887.3 2943.99)"/>
</g>
<g id="Vector">
<use xlink:href="#path36_fill" transform="translate(-2973.9 3024.76)"/>
</g>
</g>
</g>
<defs>
<path id="path0_fill" d="M 192.189 134.409C 191.689 135.409 191.189 135.909 191.189 136.409C 191.089 147.309 190.989 158.109 190.889 169.009C 190.889 171.809 191.589 174.009 193.789 175.909C 194.789 176.709 195.689 177.708 196.289 178.808C 197.089 180.408 196.889 182.109 194.989 183.009C 194.189 183.409 193.289 183.809 192.389 184.009C 184.889 185.909 177.489 187.709 169.589 187.909C 158.889 188.209 148.289 189.209 137.589 190.009C 131.489 190.509 125.489 191.308 119.389 191.708C 117.889 191.808 116.189 191.009 114.689 190.409C 113.889 190.109 113.189 189.308 112.489 188.708C 101.489 178.608 90.3894 168.609 79.5894 158.409C 75.6894 154.809 72.1894 150.708 68.6894 146.708C 65.7894 143.408 65.9894 141.508 69.0894 138.708C 73.9894 134.208 74.0894 133.908 71.1894 126.708C 70.4894 126.608 69.7894 126.409 69.0894 126.409C 53.5894 126.209 38.0894 126.009 22.5894 125.909C 17.3894 125.909 12.2894 126.409 7.08939 126.409C 1.08939 126.309 -0.410612 124.409 0.089388 118.509C 0.689388 111.709 0.989376 104.908 1.38938 98.1082C 1.48938 97.0082 1.68938 96.0082 1.88938 94.6082C 5.68938 94.9082 9.28938 95.4086 12.8894 95.5086C 18.2894 95.7086 18.2894 95.6082 18.3894 90.1082C 18.4894 86.4082 18.7894 82.7082 18.9894 79.1082C 19.2894 73.9082 19.1893 73.7084 14.2893 73.3084C 11.3893 73.1084 8.38935 73.0083 5.48935 72.7083C 2.08935 72.3083 1.58936 71.4082 1.68936 68.1082C 1.78936 60.9082 1.78936 53.8082 1.68936 46.6082C 1.58936 42.5082 2.28936 41.7085 6.18936 40.4085C 11.3894 38.6085 16.4894 36.5086 21.5894 34.5086C 27.7894 32.0086 33.9894 29.7085 39.9894 26.9085C 44.7894 24.7085 49.3894 21.9085 54.0894 19.4085C 58.4894 17.0085 60.3894 17.1083 64.0894 20.2083C 71.1894 26.3083 78.1894 32.6082 85.3894 38.6082C 90.8894 43.2082 96.5894 47.6084 102.389 51.8084C 105.189 53.9084 106.189 56.7083 106.889 59.7083C 107.889 64.3083 108.589 69.1084 109.389 73.8084C 114.489 75.3084 135.789 71.4085 145.889 66.9085C 145.889 65.0085 145.989 62.6084 145.889 60.3084C 145.589 53.2084 148.389 48.2086 155.389 46.0086C 161.189 44.2086 166.889 42.1083 172.789 40.7083C 182.989 38.2083 193.189 36.1086 203.489 34.0086C 208.889 32.9086 212.589 30.6082 213.389 24.6082C 214.189 18.4082 215.389 12.3082 216.489 6.10823C 216.889 3.60823 216.489 0.208625 219.889 0.00862544C 223.589 -0.191375 222.889 3.20843 223.189 5.80843C 223.389 7.60843 224.189 9.40862 224.889 11.0086C 228.489 18.5086 232.789 25.6082 233.989 34.1082C 234.189 35.7082 235.189 37.2084 235.689 38.8084C 236.489 41.2084 237.789 43.0082 240.789 43.1082C 243.689 43.2082 244.889 45.2085 245.089 47.9085C 245.189 48.6085 245.289 49.4082 245.289 50.1082C 244.889 58.2082 244.389 66.3085 244.089 74.4085C 243.989 78.4085 244.089 82.5086 244.189 86.5086C 244.489 97.2086 245.089 107.809 244.989 118.509C 244.989 123.209 246.289 126.109 250.689 128.009C 254.889 129.909 255.189 133.309 250.889 134.909C 245.789 136.909 240.289 138.308 234.889 138.608C 227.189 139.108 219.489 138.409 211.789 138.509C 205.789 138.609 200.089 137.608 194.589 135.208C 193.889 134.608 193.189 134.609 192.189 134.409ZM 111.389 104.808L 111.189 104.708C 112.389 106.008 113.589 107.308 114.789 108.608C 117.089 107.508 117.089 107.508 119.689 103.808C 120.189 103.108 121.489 102.909 122.389 102.509C 122.689 103.609 123.189 104.808 123.089 105.808C 122.989 106.508 121.689 107.109 121.389 107.909C 120.789 109.309 119.889 110.909 121.789 112.909C 132.289 101.709 140.289 89.1083 148.689 76.7083C 149.289 75.8083 149.389 74.4082 149.889 72.6082C 146.489 73.0082 143.689 73.2082 140.489 73.6082C 142.189 75.5082 143.289 76.8082 144.389 78.1082C 142.789 79.8082 140.789 81.0082 140.289 82.6082C 138.989 87.3082 135.989 90.1082 131.189 92.1082C 132.789 95.6082 129.989 97.5085 128.389 99.9085C 127.289 101.409 125.689 102.109 124.089 100.909C 122.289 99.6085 122.089 97.7082 123.589 96.1082C 125.289 94.3082 127.289 92.9085 129.589 90.9085C 128.089 85.7085 132.089 83.3085 136.589 80.9085C 135.889 79.3085 135.289 77.9085 134.689 76.4085C 129.289 80.2085 129.289 80.2086 121.689 77.0086C 120.789 77.4086 119.789 77.9085 118.789 78.4085C 117.889 78.8085 116.889 79.3083 115.989 79.7083C 117.289 83.8083 116.789 86.5082 114.389 87.6082C 110.889 89.3082 108.689 87.2083 107.089 84.2083C 104.889 85.7083 103.089 86.9086 102.189 87.5086C 101.189 90.4086 100.889 93.7082 99.6894 94.1082C 95.4894 95.6082 96.0893 99.2085 94.2893 102.409C 100.289 103.509 105.589 105.708 111.389 104.808ZM 5.38938 55.6082C 5.48938 56.1082 5.48939 56.7083 5.58939 57.2083C 10.1894 59.6083 15.0893 60.2085 20.2893 58.9085C 23.5893 58.1085 26.7893 57.9086 29.7893 60.0086C 29.3893 63.8086 28.5894 67.5082 28.5894 71.1082C 28.5894 82.9082 28.8894 94.7085 28.9894 106.409C 28.9894 109.309 29.8894 112.408 27.0894 114.608C 14.9894 113.208 12.1894 113.509 8.88938 116.909C 17.6894 117.409 25.7894 116.308 34.0894 117.208C 31.1894 96.9083 32.4894 77.5084 34.1894 58.3084C 42.7894 58.5084 50.6894 58.6083 58.4894 58.7083C 61.0894 58.7083 63.6894 58.4085 66.1894 58.4085C 77.1894 58.6085 88.2893 58.8086 99.2893 59.0086C 101.089 59.0086 103.089 58.9084 103.489 55.8084C 92.3894 54.1084 81.3894 56.0083 70.3894 55.2083C 59.2894 54.4083 48.0894 55.0086 36.6894 55.0086C 36.9894 53.8086 36.9893 53.1084 37.2893 52.8084C 42.1893 47.6084 47.1894 42.4083 52.0894 37.2083C 54.0894 35.1083 55.9894 32.8086 57.8894 30.5086C 59.3894 28.7086 58.9893 27.2082 56.7893 26.1082C 51.1893 30.9082 46.7894 36.9083 40.1894 40.7083C 38.9894 39.1083 37.9894 37.8084 36.8894 36.3084C 35.0894 37.8084 33.5894 39.0082 32.3894 40.1082C 30.1894 39.5082 27.3894 38.0083 26.6894 38.7083C 24.3894 40.9083 20.4894 41.4085 19.4894 44.9085C 18.6894 47.6085 16.7894 47.6083 14.6894 46.7083C 13.5894 46.2083 12.5894 45.3082 11.5894 44.6082C 9.38939 46.2082 7.38938 47.6086 5.38938 49.0086C 7.48938 53.1086 13.3894 47.7086 14.5894 54.0086C 11.3894 54.6086 8.38938 55.1082 5.38938 55.6082ZM 74.5894 140.308C 74.1894 140.708 73.7894 141.109 73.3894 141.509C 75.5894 143.709 77.6894 146.208 80.0894 148.208C 91.8894 158.308 103.789 168.208 115.489 178.208C 117.589 180.008 119.789 181.008 122.589 180.608C 128.989 179.808 135.389 179.008 141.789 178.208C 143.289 178.008 144.789 177.709 146.189 177.509C 146.189 177.009 146.089 176.509 146.089 176.009C 138.489 175.909 130.789 177.408 122.889 177.208C 122.389 167.208 122.089 157.809 121.589 148.409C 121.189 140.509 120.789 132.608 120.189 124.708C 119.889 120.808 120.689 119.808 124.689 119.808C 130.589 119.808 136.389 120.008 142.289 120.108C 155.389 120.508 168.489 120.408 181.489 118.708C 182.589 118.608 183.589 118.009 185.289 117.509C 182.789 115.109 180.489 116.108 178.489 116.108C 160.389 116.108 142.389 116.209 124.289 116.009C 120.789 116.009 117.089 114.808 113.689 113.608C 107.589 111.508 101.689 109.008 95.7893 106.608C 90.3893 104.308 85.0894 101.809 79.6894 99.4085C 79.1894 99.2085 78.3894 99.4086 77.3894 99.5086C 78.2894 102.509 80.6894 103.308 82.6894 104.208C 92.8894 108.908 103.189 113.508 113.389 118.108C 115.989 119.308 117.489 121.009 117.489 124.009C 117.489 127.109 117.689 130.309 117.789 133.409C 118.189 147.009 118.489 160.608 118.789 175.108C 102.789 164.208 89.6894 150.908 74.5894 140.308ZM 208.589 123.909C 209.289 124.009 209.989 124.008 210.689 124.108C 211.889 118.708 213.189 113.208 213.189 107.608C 213.189 103.208 213.489 98.8084 213.689 94.3084C 213.889 89.7084 213.989 85.1086 214.289 80.5086C 214.489 77.8086 214.889 75.2085 215.289 72.4085C 218.489 72.4085 221.089 72.4085 223.589 72.4085C 230.789 72.3085 231.189 72.5083 230.989 79.7083C 230.689 92.4083 230.189 105.109 229.589 117.909C 229.389 122.209 230.089 126.709 226.289 130.409C 230.189 131.609 233.289 131.709 237.289 129.909C 233.289 127.809 232.889 124.808 233.089 121.608C 233.589 110.708 234.389 99.9086 234.489 89.0086C 234.489 81.5086 233.789 73.9085 232.689 66.4085C 231.889 60.6085 228.089 58.2084 221.489 58.3084C 215.189 58.4084 212.189 60.7083 211.189 66.7083C 210.489 70.7083 209.889 74.7084 209.789 78.8084C 209.289 92.1084 208.989 105.408 208.589 118.608C 208.489 120.408 208.589 122.209 208.589 123.909ZM 63.2893 119.009C 62.5893 116.509 61.7893 114.808 61.7893 113.208C 61.9893 104.008 62.4893 94.8082 62.7893 85.6082C 62.8893 81.7082 62.8893 77.9086 62.7893 74.0086C 62.6893 69.6086 62.1894 68.7083 57.9894 68.2083C 53.3894 67.6083 48.7893 67.5083 44.2893 67.2083C 41.6893 67.0083 40.5894 68.2084 40.5894 70.8084C 40.6894 75.2084 40.6894 79.6082 40.5894 84.1082C 40.2894 95.2082 41.9894 106.409 38.9894 118.009C 47.0894 119.309 54.8893 119.009 63.2893 119.009ZM 150.489 68.4085C 152.489 70.0085 154.389 71.0085 155.589 72.4085C 162.589 81.0085 169.389 89.7085 176.189 98.4085C 180.089 103.309 183.789 108.408 187.689 113.308C 189.489 115.608 190.089 118.009 189.689 121.009C 189.289 123.609 189.789 126.309 189.889 129.409C 194.189 129.109 197.689 132.008 201.989 129.608C 197.089 125.108 200.489 119.008 197.889 114.108C 197.189 115.808 196.989 117.508 196.989 119.208C 196.889 121.208 197.089 123.308 196.789 125.308C 196.689 126.108 195.389 126.608 194.589 127.308C 193.989 126.508 192.889 125.809 192.789 125.009C 192.589 123.809 192.789 122.408 193.189 121.208C 194.589 116.308 192.389 112.808 189.289 109.308C 184.089 103.508 179.089 97.6084 174.089 91.8084C 172.689 90.2084 171.289 88.5084 168.989 85.8084C 172.389 85.7084 174.489 85.5082 176.489 85.6082C 184.189 86.0082 185.389 85.0084 186.089 77.3084C 186.189 76.2084 186.289 75.1086 186.289 74.0086C 186.089 70.0086 184.189 66.9082 181.189 64.6082C 179.089 63.0082 176.589 62.1085 173.989 63.9085C 174.689 69.5085 174.289 70.1082 169.689 70.1082C 170.289 68.2082 170.789 66.5082 171.389 64.6082C 165.789 65.7082 165.289 66.5086 163.189 77.0086C 161.889 75.9086 160.789 75.2082 159.889 74.1082C 158.389 72.3082 157.089 70.2084 155.589 68.3084C 153.789 65.9084 152.189 66.2085 150.489 68.4085ZM 70.9893 122.909C 71.4893 122.809 72.0894 122.708 72.5894 122.708C 72.3894 120.208 72.1893 117.708 71.9893 115.308C 71.3894 106.808 70.6894 98.2084 78.0894 91.8084C 78.7894 91.2084 78.9893 90.2085 79.4893 89.4085C 83.3894 83.0085 88.1894 78.2082 96.5894 78.6082C 98.2894 78.7082 100.089 77.7082 101.789 77.1082C 102.589 76.8082 103.289 76.0085 104.089 75.4085C 103.989 75.0085 103.789 74.7084 103.689 74.3084C 101.589 74.6084 99.4893 74.7083 97.4893 75.2083C 94.6893 76.0083 92.3894 76.1084 91.1894 72.8084C 90.4894 70.8084 88.6894 70.3084 86.6894 70.3084C 82.0894 70.2084 77.4894 69.9083 72.8894 69.7083C 68.8894 69.5083 68.4894 69.9086 68.3894 74.0086C 68.2894 76.2086 68.3894 78.4082 68.3894 80.6082C 68.3894 84.9082 68.5894 89.1082 74.1894 90.6082C 72.8894 92.6082 71.6894 94.0082 70.8894 95.6082C 69.9894 97.3082 68.7894 99.2082 68.5894 101.108C 68.2894 105.508 68.1894 110.009 68.6894 114.409C 68.8894 117.309 68.5893 120.609 70.9893 122.909ZM 175.189 166.909C 177.789 157.409 176.089 147.708 176.189 138.108C 176.189 137.208 174.389 135.609 173.289 135.509C 169.289 135.009 165.189 134.909 161.189 134.909C 157.789 134.909 157.189 135.508 157.189 138.608C 157.089 147.208 157.189 155.809 157.089 164.509C 156.989 167.809 156.489 171.108 156.189 174.308C 156.189 174.808 156.489 175.308 156.689 176.208C 158.289 176.008 159.789 175.908 160.989 175.808C 159.789 168.608 157.289 162.009 162.689 155.509C 159.389 154.009 159.689 150.809 159.389 147.909C 158.589 140.009 159.489 139.008 167.189 138.608C 167.889 138.608 168.689 138.608 169.389 138.608C 171.989 138.808 173.489 140.008 173.489 142.808C 173.489 147.008 174.289 151.308 172.089 154.108C 173.289 158.908 174.189 162.909 175.189 166.909ZM 153.689 52.3084C 153.789 52.7084 153.889 53.2082 153.989 53.6082C 167.189 53.9082 180.289 54.3084 193.389 53.3084C 193.389 50.9084 193.389 49.3083 193.389 47.7083C 193.489 43.1083 190.289 41.0084 186.289 43.3084C 184.389 44.4084 182.889 45.2083 180.689 44.2083C 179.789 43.8083 178.589 44.0083 177.489 44.2083C 174.989 44.6083 172.489 45.1082 169.989 45.6082C 168.689 45.9082 167.089 45.9082 166.289 46.6082C 163.289 49.6082 159.589 50.5084 155.589 50.8084C 154.889 50.8084 154.289 51.8084 153.689 52.3084ZM 222.589 13.9085C 222.189 13.9085 221.689 13.9085 221.289 13.9085C 220.789 15.2085 220.289 16.5084 219.889 17.8084C 217.989 24.3084 219.089 31.4086 215.489 37.5086C 214.489 39.1086 215.889 40.2085 217.689 40.4085C 220.189 40.7085 222.789 40.8083 225.389 41.2083C 229.689 41.8083 230.689 40.7084 229.489 36.3084C 227.789 29.7084 225.889 23.1082 224.089 16.6082C 223.689 15.7082 222.989 14.9085 222.589 13.9085ZM 100.189 142.808C 100.189 142.608 100.189 142.508 100.289 142.308C 100.989 142.308 101.789 142.308 102.489 142.308C 106.789 142.208 106.889 142.208 107.489 138.208C 107.889 135.708 108.089 133.109 108.189 130.509C 108.289 128.309 107.289 127.009 105.089 126.909C 100.889 126.609 96.6893 126.008 92.4893 126.108C 90.6893 126.108 87.7894 127.108 87.3894 128.308C 86.3894 131.708 86.1894 135.508 86.1894 139.108C 86.1894 139.808 87.8894 141.008 88.9893 141.208C 92.5893 141.908 96.3894 142.308 100.189 142.808ZM 134.589 141.909C 137.789 141.709 139.989 141.309 142.089 141.409C 145.389 141.509 146.389 142.408 146.389 145.808C 146.389 148.808 145.689 151.808 145.289 154.808C 148.489 155.708 149.589 155.408 149.689 152.308C 149.889 148.408 149.789 144.608 149.689 140.708C 149.689 138.508 148.289 137.309 146.089 137.409C 141.589 137.509 137.089 137.608 132.189 137.808C 132.189 143.508 131.989 148.409 132.289 153.409C 132.389 155.609 133.689 155.808 136.389 154.608C 135.889 150.708 135.289 146.709 134.589 141.909ZM 198.189 69.2083C 198.589 69.5083 198.789 69.7083 198.889 69.7083C 198.989 69.7083 199.289 69.6085 199.289 69.4085C 199.689 67.8085 200.189 66.2082 200.289 64.6082C 200.389 59.3082 200.589 54.0083 200.089 48.7083C 199.789 44.8083 199.589 41.7083 204.689 41.2083C 205.189 41.2083 206.089 39.8084 205.989 39.3084C 205.889 38.7084 204.789 37.9084 204.089 37.8084C 201.589 37.5084 198.089 39.8085 196.889 42.4085C 196.389 43.5085 195.589 44.5082 194.989 45.6082C 195.689 46.8082 196.989 48.1084 196.889 49.3084C 196.289 56.1084 198.889 62.6083 198.189 69.2083ZM 89.1894 99.3084C 91.6894 97.3084 93.6894 95.9086 94.0894 93.0086C 94.3894 90.5086 96.1894 88.8086 98.6894 88.0086C 99.0894 87.9086 99.3894 87.3083 99.8894 86.7083C 99.0894 85.6083 98.2894 84.7082 97.4893 83.6082C 95.4893 84.9082 93.5894 86.0082 91.8894 87.1082C 92.0894 92.9082 90.7894 93.8083 85.6894 91.7083C 82.8894 90.5083 81.7893 91.4086 81.2893 95.5086C 83.0893 95.3086 84.8894 95.1085 86.6894 94.9085C 87.4894 96.3085 88.1894 97.6084 89.1894 99.3084ZM 199.289 89.5086C 198.889 89.5086 198.489 89.5086 197.989 89.5086C 195.389 94.4086 198.289 99.2086 198.389 104.009C 198.689 99.2086 198.989 94.3086 199.289 89.5086ZM 212.589 130.909C 210.589 126.609 210.089 126.509 206.989 130.409C 208.889 130.909 210.489 132.509 212.589 130.909ZM 149.289 175.808C 149.389 176.308 149.489 176.808 149.589 177.308C 151.289 177.808 152.989 178.509 154.389 175.009C 152.189 175.409 150.689 175.608 149.289 175.808ZM 211.489 37.5086C 210.289 37.0086 209.489 36.3086 209.289 36.5086C 208.689 37.0086 208.289 37.8085 207.889 38.4085C 208.289 38.7085 208.789 39.2082 209.089 39.1082C 209.789 38.8082 210.289 38.3086 211.489 37.5086ZM 199.089 76.2083C 198.889 76.1083 198.589 76.1086 198.389 76.0086C 198.289 77.0086 198.189 78.0085 198.089 78.9085C 198.189 78.9085 198.289 78.9085 198.389 78.9085C 198.689 78.1085 198.889 77.2083 199.089 76.2083ZM 89.5894 86.5086C 89.0894 85.8086 88.6893 85.1083 88.4893 85.2083C 87.8894 85.4083 87.2894 85.8084 86.8894 86.3084C 86.7894 86.4084 87.3894 87.4084 87.5894 87.3084C 88.1894 87.2084 88.7894 86.8086 89.5894 86.5086Z"/>
<path id="path1_fill" d="M 1.02843 0C 4.82843 0.3 8.02838 0.4 11.2284 1C 12.2284 1.2 13.0284 2.9001 13.6284 4.1001C 13.9284 4.6001 13.5284 5.4998 13.5284 6.2998C 13.3284 15.5998 13.3284 15.5999 4.22838 15.3999C 0.628382 15.2999 -0.171569 14.4998 0.0284312 10.7998C 0.228431 7.4998 0.628431 4.2 1.02843 0Z"/>
<path id="path2_fill" d="M 1.2207e-05 29.3998C 3.00001 28.8998 6.10002 28.3998 9.20002 27.8998C 8.00002 21.5998 2.10001 26.9998 1.2207e-05 22.8998C 1.90001 21.4998 3.90002 20.0999 6.20002 18.4999C 7.20002 19.1999 8.2 20 9.3 20.6C 11.4 21.6 13.3 21.5002 14.1 18.8002C 15.2 15.2002 19 14.7 21.3 12.6C 22.1 11.9 24.9 13.3999 27 13.9999C 28.2 12.9999 29.7 11.7001 31.5 10.2001C 32.6 11.7001 33.6 12.9 34.8 14.6C 41.4 10.7 45.8 4.7999 51.4 -9.76563e-05C 53.6 1.0999 54 2.5998 52.5 4.3998C 50.6 6.6998 48.7 8.9 46.7 11.1C 41.8 16.3 36.8 21.5001 31.9 26.7001C 31.6 27.0001 31.6 27.6998 31.3 28.8998C 42.7 28.8998 53.9 28.3 65 29.1C 75.9 29.8 87 28.0001 98.1 29.7001C 97.7 32.9001 95.7 32.9998 93.9 32.8998C 82.9 32.6998 71.8 32.5002 60.8 32.3002C 58.2 32.3002 55.6 32.6 53.1 32.6C 45.2 32.5 37.3 32.3001 28.8 32.2001C 27.1 51.4001 25.8 70.8 28.7 91.1C 20.3 90.2 12.3 91.3002 3.50001 90.8002C 6.90001 87.4002 9.70002 87.1999 21.7 88.4999C 24.5 86.2999 23.6 83.1002 23.6 80.3002C 23.5 68.5002 23.2 56.6999 23.2 44.9999C 23.2 41.3999 24 37.6998 24.4 33.8998C 21.3 31.8998 18.1 32.0002 14.9 32.8002C 9.69998 34.1002 4.90002 33.5 0.200024 31.1C 0.100024 30.5 1.2207e-05 29.8998 1.2207e-05 29.3998ZM 20.6 26.4999C 23.3 29.9999 25.7 29.5999 27.5 25.4999C 24.2 24.0999 24.2 24.0999 20.6 26.4999ZM 11 26.7001C 12.3 28.9001 13.8 29.2001 15.5 27.7001C 15.9 27.3001 15.9 25.7002 15.5 25.3002C 13.6 23.8002 12.4 25.2001 11 26.7001ZM 33.1 17.7001C 32 17.4001 31.3 17 30.7 17.1C 29.7 17.3 28.8 17.8999 28 18.4999C 27.8 18.5999 28.1 19.8998 28.3 19.8998C 29.5 20.0998 30.7 20.4 31.9 20.1C 32.3 20 32.5 18.8001 33.1 17.7001Z"/>
<path id="path3_fill" d="M 1.20002 41.0856C 16.4 51.6856 29.5 64.9858 45.4 75.7858C 45 61.1858 44.7 47.6856 44.4 34.0856C 44.3 30.9856 44 27.7857 44.1 24.6857C 44.1 21.6857 42.6 19.8858 40 18.7858C 29.8 14.1858 19.5 9.58538 9.3 4.88538C 7.3 3.98538 4.90001 3.18567 4.00001 0.185673C 5.00001 0.0856732 5.8 -0.114424 6.3 0.0855755C 11.7 2.48558 17 4.98577 22.4 7.28577C 28.3 9.78577 34.3 12.1858 40.3 14.2858C 43.7 15.4858 47.3 16.5857 50.9 16.6857C 69 16.8857 87 16.7858 105.1 16.7858C 107.1 16.7858 109.4 15.7857 111.9 18.1857C 110.2 18.6857 109.2 19.2854 108.1 19.3854C 95.1 21.0854 82 21.1858 68.9 20.7858C 63 20.5858 57.2 20.4855 51.3 20.4855C 47.3 20.4855 46.5 21.4854 46.8 25.3854C 47.4 33.2854 47.8 41.1856 48.2 49.0856C 48.7 58.4856 49.1 67.7854 49.5 77.8854C 57.4 78.0854 65 76.5857 72.7 76.6857C 72.7 77.1857 72.8 77.6857 72.8 78.1857C 71.3 78.4857 69.9 78.7854 68.4 78.8854C 62 79.6854 55.6 80.4858 49.2 81.2858C 46.5 81.5858 44.3 80.6854 42.1 78.8854C 30.3 68.7854 18.4 58.8854 6.70002 48.8854C 4.30002 46.8854 2.20001 44.3857 1.2207e-05 42.1857C 0.400012 41.8857 0.800024 41.4856 1.20002 41.0856Z"/>
<path id="path4_fill" d="M 2.44141e-05 65.6031C 2.44141e-05 63.8031 2.44141e-05 62.1028 2.44141e-05 60.3028C 0.400024 47.0028 0.699976 33.703 1.19998 20.503C 1.39998 16.503 1.9 12.4029 2.6 8.40289C 3.6 2.40289 6.59999 0.102993 12.9 0.00299284C 19.4 -0.0970072 23.3 2.30309 24.1 8.10309C 25.1 15.6031 25.9 23.1032 25.9 30.7032C 25.9 41.6032 25.1 52.4028 24.5 63.3028C 24.3 66.5028 24.7 69.6031 28.7 71.6031C 24.7 73.4031 21.6 73.3031 17.7 72.1031C 21.5 68.3031 20.8 63.8031 21 59.6031C 21.6 46.9031 22.1 34.2029 22.4 21.4029C 22.6 14.2029 22.2 14.0031 15 14.1031C 12.5 14.1031 9.89998 14.1031 6.69998 14.1031C 6.39998 16.9031 5.89998 19.5032 5.69998 22.2032C 5.39998 26.8032 5.3 31.403 5.1 36.003C 4.9 40.403 4.6 44.8028 4.6 49.3028C 4.5 55.0028 3.2 60.4028 2.1 65.8028C 1.4 65.8028 0.700024 65.7031 2.44141e-05 65.6031ZM 17.6 3.20319C 16.4 5.10319 15.3 6.20309 15.5 6.60309C 16.1 7.90309 17.3 9.00299 18.4 10.003C 18.5 10.103 20.3 8.80299 20.2 8.50299C 19.6 7.10299 18.8 5.60319 17.6 3.20319ZM 7.69998 10.1031C 10.5 10.2031 12.2 9.30289 12.3 6.90289C 12.3 6.2029 10.5 4.7029 9.80001 4.90289C 7.30001 5.50289 7.09998 7.50309 7.69998 10.1031Z"/>
<path id="path5_fill" d="M 17.2 32.1C 11.4 33 6.1 30.8002 0 29.8002C 1.9 26.6002 1.30002 22.8999 5.40002 21.4999C 6.60002 21.0999 6.90002 17.7998 7.90002 14.8998C 8.80002 14.2998 10.6 13.1 12.8 11.6C 14.4 14.6 16.6 16.5999 20.1 14.9999C 22.5 13.8999 23 11.1 21.7 7.1C 22.6 6.7 23.6 6.3002 24.5 5.8002C 25.5 5.3002 26.5 4.8998 27.4 4.3998C 35 7.6998 35 7.7002 40.4 3.8002C 41 5.3002 41.6 6.7002 42.3 8.3002C 37.8 10.8002 33.8 13.2002 35.3 18.3002C 33 20.2002 31 21.6999 29.3 23.4999C 27.8 25.0999 27.9 27.0002 29.8 28.3002C 31.4 29.4002 33 28.8002 34.1 27.3002C 35.8 25.0002 38.5 23.0999 36.9 19.4999C 41.6 17.4999 44.7 14.7999 46 9.9999C 46.4 8.3999 48.4 7.1999 50.1 5.4999C 49 4.2999 47.9 2.9999 46.2 0.999902C 49.5 0.699902 52.2 0.399902 55.6 -9.76563e-05C 55.1 1.8999 55 3.2 54.4 4.1C 46.1 16.5 38 29.1002 27.5 40.3002C 25.6 38.2002 26.5 36.7002 27.1 35.3002C 27.5 34.5002 28.7 34.0001 28.8 33.2001C 28.9 32.1001 28.4 30.9998 28.1 29.8998C 27.2 30.2998 25.9 30.5001 25.4 31.2001C 22.7 34.8001 22.8 34.8999 20.5 35.9999C 19.3 34.7999 18.1 33.4 16.9 32.1C 19.3 31.6 22.2 32.0001 22.4 28.2001C 22.4 27.6001 23.7 27.0999 24.4 26.4999C 28 23.1999 27.6 21.3998 22.2 18.8998C 20.4 22.0998 18.5 25.4 16.4 29.1C 16.7 29.6 16.9 30.8 17.2 32.1ZM 18 19.6C 13.8 16.9 12.9 16.8 11.3 18.1C 9.39999 19.7 8.00001 26.1002 9.20001 28.3002C 9.30001 28.5002 9.79999 28.5 10.3 28.6C 12.8 25.8 15.2 22.9 18 19.6ZM 33.6 9.6C 28.8 8.3 26.7 9.19981 25.2 12.8998C 24.4 14.8998 25 16.1 27.1 16.6C 30.7 17.7 33.5 14.7 33.6 9.6Z"/>
<path id="path6_fill" d="M 24.3 51.9064C 16 51.9064 8.09999 52.2063 -1.2207e-05 50.8063C 3.09999 39.2063 1.40002 28.0064 1.60002 16.9064C 1.70002 12.5064 1.60002 8.10613 1.60002 3.60613C 1.60002 1.00613 2.69998 -0.0939668 5.29998 0.00603315C 9.89997 0.306033 14.5 0.406033 19 1.00603C 23.2 1.50603 23.8 2.40633 23.8 6.80633C 23.9 10.7063 23.9 14.5064 23.8 18.4064C 23.5 27.6064 23 36.806 22.8 46.006C 22.7 47.706 23.6 49.4064 24.3 51.9064ZM 5.99999 26.506C 5.99999 32.706 6.09999 37.8064 5.99999 42.9064C 5.79999 48.3064 5.69998 48.3062 11.3 48.7062C 12.2 48.8062 13.1 48.9064 14.1 48.9064C 17.5 48.9064 18.3 48.2063 18.6 44.8063C 18.9 40.8063 19 36.7062 19.1 32.7062C 19.3 27.6062 18.5 26.7062 13.2 26.7062C 11.1 26.5062 9.09999 26.506 5.99999 26.506ZM 19 21.9064C 19 16.6064 19.1 11.7063 18.9 6.80633C 18.9 6.10633 18 4.80623 17.5 4.70623C 14.6 4.30623 11.7 3.90603 8.79998 4.00603C 7.99998 4.00603 6.49999 5.60603 6.49999 6.50603C 6.29999 10.706 6.3 15.0062 6.7 19.2062C 6.8 20.2062 8.6 21.6062 9.7 21.7062C 12.5 22.2062 15.4 21.9064 19 21.9064Z"/>
<path id="path7_fill" d="M -1.2207e-05 5.79273C 1.69999 3.59273 3.29999 3.29282 4.99999 5.39282C 6.49999 7.29282 7.79998 9.29263 9.29998 11.1926C 10.2 12.1926 11.3 12.9925 12.6 14.0925C 14.7 3.59253 15.2 2.79263 20.8 1.69263C 20.2 3.59263 19.7 5.29263 19.1 7.19263C 23.7 7.19263 24.1 6.59243 23.4 0.992434C 26 -0.807566 28.5 0.0926292 30.6 1.69263C 33.7 3.99263 35.6 7.09253 35.7 11.0925C 35.7 12.1925 35.6 13.2928 35.5 14.3928C 34.8 22.0928 33.6 23.0926 25.9 22.6926C 23.9 22.5926 21.8 22.7928 18.4 22.8928C 20.8 25.6928 22.1 27.2928 23.5 28.8928C 28.6 34.7928 33.5 40.6928 38.7 46.3928C 41.8 49.8928 44 53.3927 42.6 58.2927C 42.2 59.4927 42 60.8925 42.2 62.0925C 42.4 62.9925 43.4 63.6928 44 64.3928C 44.8 63.6928 46 63.1928 46.2 62.3928C 46.5 60.3928 46.3 58.3927 46.4 56.2927C 46.5 54.5927 46.6 52.8926 47.3 51.1926C 49.9 56.0926 46.6 62.1926 51.4 66.6926C 47.1 69.0926 43.6 66.0924 39.3 66.4924C 39.2 63.4924 38.7 60.7925 39.1 58.0925C 39.6 55.0925 39 52.6928 37.1 50.3928C 33.2 45.4928 29.4 40.4924 25.6 35.4924C 18.8 26.7924 11.9 18.0924 4.99999 9.49243C 3.89999 8.39243 1.99999 7.39273 -1.2207e-05 5.79273ZM 17.3 18.5925C 20.6 18.5925 23.9 18.6925 27.1 18.5925C 29.4 18.4925 30.4 16.8928 30.4 14.8928C 30.4 13.6928 29.5 11.4928 28.8 11.3928C 25.7 11.0928 22.6 10.9926 19.6 11.6926C 17 12.1926 16.3 15.3925 17.3 18.5925Z"/>
<path id="path8_fill" d="M 2.84999 53.2149C 0.449988 50.9149 0.749988 47.6149 0.349988 44.7149C -0.150012 40.3149 -0.0499878 35.8146 0.250012 31.4146C 0.350012 29.5146 1.55 27.7146 2.55 25.9146C 3.45 24.3146 4.54999 22.9146 5.84999 20.9146C 0.249988 19.3146 0.05 15.1146 0.05 10.9146C 0.05 8.71461 -0.05 6.515 0.05 4.315C 0.15 0.214997 0.55 -0.085296 4.55 0.014704C 9.15 0.214704 13.75 0.514802 18.35 0.614802C 20.35 0.714802 22.05 1.1148 22.85 3.1148C 24.05 6.4148 26.35 6.3147 29.15 5.5147C 31.15 4.9147 33.35 4.9148 35.35 4.6148C 35.45 5.0148 35.65 5.3149 35.75 5.7149C 35.05 6.3149 34.35 7.01461 33.45 7.41461C 31.75 8.11461 29.95 9.01461 28.25 8.91461C 19.95 8.41461 15.05 13.2149 11.15 19.7149C 10.65 20.5149 10.45 21.5148 9.75001 22.1148C 2.35001 28.6148 3.04998 37.1148 3.64998 45.6148C 3.84998 48.1148 4.05001 50.6147 4.25001 53.0147C 3.95001 53.0147 3.44999 53.1149 2.84999 53.2149ZM 4.45002 3.41461C 4.15002 6.91461 3.74998 10.115 3.64998 13.315C 3.64998 15.815 5.15 17.2147 7.55 16.5147C 9.35 16.0147 11.05 14.7147 12.55 13.5147C 15.25 11.2147 17.65 8.7148 20.25 6.1148C 18.85 3.6148 18.85 3.61461 4.45002 3.41461Z"/>
<path id="path9_fill" d="M 18.9196 32.1091C 18.0196 28.1091 17.0196 24.1092 15.9196 19.2092C 18.2196 16.4092 17.4196 12.1089 17.3196 7.90892C 17.3196 5.20892 15.8196 3.90921 13.2196 3.70921C 12.5196 3.70921 11.7196 3.70921 11.0196 3.70921C 3.31959 4.00921 2.3196 5.10902 3.2196 13.009C 3.5196 15.809 3.21959 19.1091 6.51959 20.6091C 1.11959 27.1091 3.61964 33.8089 4.81964 40.9089C 3.61964 41.0089 2.11959 41.2088 0.519591 41.3088C 0.219591 40.4088 -0.0804092 39.9089 0.0195908 39.4089C 0.319591 36.1089 0.819615 32.8091 0.919615 29.6091C 1.01962 21.0091 1.01959 12.4092 1.01959 3.70921C 1.01959 0.609212 1.61959 -0.090983 5.01959 0.00901699C 9.01959 0.00901699 13.1196 0.209115 17.1196 0.609115C 18.2196 0.709115 20.0196 2.30921 20.0196 3.20921C 19.8196 12.9092 21.5196 22.6091 18.9196 32.1091Z"/>
<path id="path10_fill" d="M 0 9.93887C 0.6 9.43887 1.20002 8.43887 1.90002 8.43887C 5.90002 8.13887 9.59998 7.23868 12.6 4.23868C 13.4 3.43868 15 3.43868 16.3 3.23868C 18.8 2.73868 21.3 2.23878 23.8 1.83878C 24.8 1.63877 26.1 1.43878 27 1.83878C 29.2 2.83878 30.7 2.03887 32.6 0.938873C 36.6 -1.36113 39.8 0.738775 39.7 5.33878C 39.7 6.93878 39.7 8.53887 39.7 10.9389C 26.6 12.0389 13.5 11.6387 0.299988 11.2387C 0.199988 10.8387 0.1 10.4389 0 9.93887ZM 30.5 5.63907C 30.5 6.03907 30.6 6.53887 30.6 6.93887C 33.6 8.73887 33.6 8.73868 35.7 4.73868C 33.5 5.13868 32 5.33907 30.5 5.63907ZM 26.6 7.33878C 25.6 6.63878 25 5.83887 24.6 5.93887C 24.1 6.03887 23.7 6.73868 23.2 7.23868C 23.6 7.53868 23.9 8.23868 24.3 8.23868C 24.8 8.23868 25.4 7.83878 26.6 7.33878Z"/>
<path id="path11_fill" d="M 7.48145 9.76563e-05C 7.98145 0.900098 8.68142 1.7999 8.88142 2.7999C 10.7814 9.3999 12.5814 15.9001 14.2814 22.5001C 15.4814 26.9001 14.4814 28 10.1814 27.4C 7.68141 27 5.08145 26.9002 2.48145 26.6002C 0.781453 26.4002 -0.618559 25.2998 0.281441 23.6998C 3.98144 17.5998 2.7814 10.4001 4.6814 4.0001C 5.0814 2.7001 5.58143 1.4002 6.08143 0.100195C 6.58143 0.00019531 6.98145 9.76563e-05 7.48145 9.76563e-05Z"/>
<path id="path12_fill" d="M 14.2 16.7111C 10.4 16.2111 6.59998 15.811 2.79998 15.111C 1.69998 14.911 -1.2207e-05 13.7109 -1.2207e-05 13.0109C 0.0999878 9.41092 0.2 5.61111 1.2 2.21111C 1.6 1.01111 4.49998 0.0109145 6.29998 0.0109145C 10.5 -0.0890855 14.7 0.511207 18.9 0.811207C 21.2 1.01121 22.2 2.2113 22 4.4113C 21.8 7.0113 21.6 9.51101 21.3 12.111C 20.7 16.111 20.6 16.1111 16.3 16.2111C 15.6 16.2111 14.8 16.2111 14.1 16.2111C 14.3 16.4111 14.3 16.5111 14.2 16.7111ZM 4.29998 12.611C 8.59998 12.911 12.2 13.3111 15.9 13.2111C 16.8 13.2111 18.1 11.5113 18.5 10.4113C 18.9 9.31131 18.6 7.91101 18.5 6.61101C 18.3 4.31101 16.6 3.31101 14.6 3.61101C 11.5 4.11101 7.69999 1.01111 5.49999 4.71111C 4.29999 6.71111 4.69998 9.61101 4.29998 12.611Z"/>
<path id="path13_fill" d="M 2.32502 4.5001C 3.02502 9.3001 3.62499 13.2998 4.22499 17.1998C 1.52499 18.3998 0.225012 18.2001 0.125012 16.0001C -0.0749878 11.1001 0.0249756 6.2 0.0249756 0.4C 4.92498 0.3 9.425 0.100098 13.925 9.76563e-05C 16.125 9.76563e-05 17.425 1.0999 17.525 3.2999C 17.625 7.1999 17.725 11.1 17.525 14.9C 17.325 17.9 16.325 18.3 13.125 17.4C 13.525 14.3 14.225 11.3 14.225 8.4C 14.225 5 13.225 4.1001 9.925 4.0001C 7.725 3.9001 5.52502 4.3001 2.32502 4.5001Z"/>
<path id="path14_fill" d="M 3.2 31.3263C 3.9 24.8263 1.20001 18.3265 1.90001 11.5265C 2.00001 10.3265 0.599988 9.02632 -1.2207e-05 7.82632C 0.599988 6.72632 1.40001 5.72662 1.90001 4.62662C 3.10001 2.02662 6.60002 -0.273481 9.10002 0.0265187C 9.80002 0.126519 10.9 0.826519 11 1.52652C 11.1 2.02652 10.2 3.42642 9.7 3.42642C 4.7 3.92642 4.80002 7.02642 5.10002 10.9264C 5.60002 16.2264 5.39998 21.5263 5.29998 26.8263C 5.29998 28.4263 4.69998 30.0266 4.29998 31.6266C 4.29998 31.7266 4.00001 31.9264 3.90001 31.9264C 3.80001 31.8264 3.6 31.6263 3.2 31.3263Z"/>
<path id="path15_fill" d="M 7.9 15.6C 6.9 13.9 6.2 12.7002 5.4 11.3002C 3.5 11.5002 1.79998 11.6998 -2.44141e-05 11.8998C 0.499976 7.79981 1.6 6.9 4.4 8.1C 9.5 10.2 10.8 9.2999 10.6 3.4999C 12.3 2.3999 14.1 1.2999 16.2 -9.76563e-05C 17 1.0999 17.8 2 18.6 3.1C 18.1 3.6 17.8 4.1998 17.4 4.3998C 14.9 5.1998 13.1 6.79981 12.8 9.39981C 12.4 12.1998 10.4 13.6 7.9 15.6Z"/>
<path id="path16_fill" d="M 2.37963 0.000195313C 2.07963 4.8002 1.77967 9.7002 1.47967 14.5002C 1.37967 9.7002 -1.52036 4.9002 1.07964 0.000195313C 1.47964 0.000195313 1.97963 0.000195313 2.37963 0.000195313Z"/>
<path id="path17_fill" d="M 5.60002 3.32921C 3.50002 4.92921 1.89999 3.32921 -1.2207e-05 2.82921C 3.09999 -1.07079 3.60002 -0.970785 5.60002 3.32921Z"/>
<path id="path18_fill" d="M -2.44141e-05 0.7C 1.49998 0.5 2.90001 0.299805 5.10001 -0.000195313C 3.70001 3.3998 2.00002 2.7001 0.300024 2.3001C 0.100024 1.7001 -2.44141e-05 1.2 -2.44141e-05 0.7Z"/>
<path id="path19_fill" d="M 3.59999 1.03943C 2.39999 1.83943 1.90002 2.43904 1.20002 2.63904C 0.900024 2.73904 0.400012 2.23933 1.2207e-05 1.93933C 0.500012 1.23933 0.799976 0.439426 1.39998 0.0394258C 1.59998 -0.160574 2.39999 0.439426 3.59999 1.03943Z"/>
<path id="path20_fill" d="M 1.00002 0.0999023C 0.800024 0.999902 0.500012 2.0002 0.300012 2.9002C 0.200012 2.9002 0.100024 2.9002 2.44141e-05 2.9002C 0.100024 1.9002 0.200012 0.899805 0.300012 -0.000195313C 0.600012 -0.000195313 0.800024 0.0999023 1.00002 0.0999023Z"/>
<path id="path21_fill" d="M 2.70002 1.4002C 1.90002 1.7002 1.30002 2.0999 0.700024 2.0999C 0.500024 2.0999 1.2207e-05 1.0999 1.2207e-05 1.0999C 0.500012 0.699902 0.999988 0.299805 1.59999 -0.000195313C 1.79999 -0.000195313 2.20002 0.700195 2.70002 1.4002Z"/>
<path id="path22_fill" d="M -1.2207e-05 1.94987C 3.49999 -0.450134 3.50001 -0.450134 6.90001 0.949866C 5.10001 5.04987 2.79999 5.44987 -1.2207e-05 1.94987Z"/>
<path id="path23_fill" d="M 1.2207e-05 2.00972C 1.30001 0.509717 2.50001 -0.890576 4.50001 0.709424C 4.90001 1.00942 4.90001 2.70981 4.50001 3.10981C 2.80001 4.50981 1.30001 4.10972 1.2207e-05 2.00972Z"/>
<path id="path24_fill" d="M 5.26594 0.613174C 4.76594 1.61317 4.46596 2.91308 3.96596 3.01308C 2.86596 3.31308 1.56598 3.01288 0.365981 2.81288C 0.165981 2.81288 -0.134068 1.51298 0.0659321 1.41298C 0.865932 0.812979 1.86594 0.313077 2.76594 0.0130768C 3.46594 -0.0869232 4.16594 0.413175 5.26594 0.613174Z"/>
<path id="path25_fill" d="M 2.20633 0.000195313C 3.40633 2.4002 4.20633 3.8001 4.70633 5.4001C 4.80633 5.7001 3.00634 6.9001 2.90634 6.9001C 1.80634 5.9001 0.70632 4.8002 0.00631974 3.5002C -0.0936803 3.0002 1.00633 1.9002 2.20633 0.000195313Z"/>
<path id="path26_fill" d="M 0.330276 5.21829C -0.369724 2.51829 -0.0697238 0.518094 2.33028 0.0180945C 3.03028 -0.181906 4.83028 1.31809 4.83028 2.01809C 4.93028 4.41809 3.23028 5.41829 0.330276 5.21829Z"/>
<path id="path27_fill" d="M 0.700012 13.4C 0.400012 12.2 0.2 10.8998 0 10.1998C 2.1 6.4998 3.89999 3.3001 5.79999 9.76563e-05C 11.2 2.5001 11.6 4.3002 8 7.6002C 7.3 8.2002 6.1 8.6999 6 9.2999C 5.9 13.0999 2.9 12.6998 0.5 13.1998L 0.700012 13.4Z"/>
<path id="path28_fill" d="M 9.34567 2.31126C 6.54567 5.61126 4.04568 8.51126 1.54568 11.3113C 1.14568 11.2113 0.545642 11.2115 0.445642 11.0115C -0.754358 8.81145 0.645679 2.41126 2.54568 0.811257C 4.24568 -0.488742 5.24567 -0.388742 9.34567 2.31126Z"/>
<path id="path29_fill" d="M 8.68075 0.561528C 8.58075 5.66153 5.88075 8.56153 2.18075 7.56153C 0.180746 6.96153 -0.419217 5.86133 0.280783 3.86133C 1.68078 0.161333 3.88075 -0.738472 8.68075 0.561528Z"/>
<path id="path30_fill" d="M 0.131833 -0.000195313C 3.23183 -0.000195313 5.23187 -0.000195313 7.23187 -0.000195313C 12.6319 -0.000195313 13.4318 0.899805 13.1318 5.9998C 12.9318 9.9998 12.9318 14.0999 12.6318 18.0999C 12.3318 21.5999 11.5318 22.2 8.13183 22.2C 7.23183 22.2 6.33184 22.0998 5.33184 21.9998C -0.268155 21.5998 -0.068143 21.6 0.031857 16.2C 0.231857 11.3 0.131833 6.1998 0.131833 -0.000195313Z"/>
<path id="path31_fill" d="M 12.7314 17.8157C 9.13136 17.8157 6.2314 18.0156 3.3314 17.7156C 2.2314 17.6156 0.431395 16.1156 0.331395 15.2156C -0.0686047 11.0156 -0.0686169 6.81544 0.131383 2.51544C 0.131383 1.61544 1.63137 0.0154441 2.43137 0.0154441C 5.33137 -0.0845559 8.23138 0.315639 11.1314 0.715639C 11.7314 0.815639 12.5313 2.01574 12.5313 2.81574C 12.8313 7.71574 12.7314 12.6157 12.7314 17.8157Z"/>
<path id="path32_fill" d="M 0.436191 7.35475C -0.563809 4.15475 0.13624 1.05485 2.73624 0.454845C 5.73624 -0.145155 8.93619 -0.0449593 11.9362 0.155041C 12.6362 0.255041 13.5362 2.45504 13.5362 3.65504C 13.5362 5.65504 12.5362 7.25475 10.2362 7.35475C 6.93624 7.35475 3.73619 7.35475 0.436191 7.35475Z"/>
<path id="path33_fill" d="M 0.804459 -0.000195313C 15.2045 0.199805 15.2044 0.200098 16.6044 2.8001C 14.0044 5.3001 11.5044 7.9 8.90444 10.2C 7.40444 11.5 5.70443 12.7 3.90443 13.2C 1.50443 13.8 -0.0955895 12.3998 0.00441052 9.9998C 0.104411 6.6998 0.504459 3.4998 0.804459 -0.000195313Z"/>
<path id="path34_fill" d="M 0 0.900195C 1.5 0.600195 3.10001 0.399805 5.20001 -0.000195313C 3.10001 3.9998 3.09998 4 0.0999756 2.2C -2.44156e-05 1.8 0 1.3002 0 0.900195Z"/>
<path id="path35_fill" d="M 3.39998 1.40946C 2.19998 1.90946 1.59999 2.30936 1.09999 2.30936C 0.699988 2.30936 0.400012 1.70936 1.2207e-05 1.30936C 0.500012 0.809358 0.899976 0.109553 1.39998 0.00955332C 1.69998 -0.0904467 2.29998 0.609456 3.39998 1.40946Z"/>
<path id="path36_fill" d="M -2.44141e-05 9.64311C 0.399976 6.64311 -1.22786e-05 3.74331 1.19999 1.84331C 3.39999 -1.85669 7.20002 1.24321 10.3 0.743211C 12.3 0.443211 13.9 1.34321 14.2 3.74321C 14.3 5.04321 14.6 6.44302 14.2 7.54302C 13.7 8.64302 12.5 10.3433 11.6 10.3433C 7.90001 10.4433 4.29998 9.94311 -2.44141e-05 9.64311Z"/>
</defs>
</svg>
