<svg width="107" height="168" viewBox="0 0 107 168" version="1.1" xmlns="http://www.w3.org/2000/svg" xmlns:xlink="http://www.w3.org/1999/xlink">
<title>casa-com-arvore</title>
<desc>Created using Figma</desc>
<g id="Canvas" transform="translate(2694 -3031)">
<g id="casa-com-arvore">
<g id="Vector">
<use xlink:href="#path0_fill" transform="translate(-2693.02 3031.1)"/>
</g>
<g id="Vector">
<use xlink:href="#path1_fill" transform="translate(-2657.5 3154.43)" fill="#FFFFFF"/>
</g>
<g id="Vector">
<use xlink:href="#path2_fill" transform="translate(-2666.1 3145.2)" fill="#FFFFFF"/>
</g>
</g>
</g>
<defs>
<path id="path0_fill" d="M 76.3167 113.196C 71.0167 114.696 70.5167 118.196 70.4167 122.196C 70.2167 131.796 69.9166 141.396 69.6166 150.896C 69.6166 152.896 69.1166 155.597 71.6166 156.097C 73.8166 156.497 76.3167 155.696 78.5167 154.996C 79.1167 154.796 79.5167 153.097 79.5167 152.097C 80.2167 139.397 80.9166 126.697 81.6166 114.097C 81.7166 111.697 82.3166 109.396 82.6166 106.996C 83.7166 98.7964 84.9167 90.5963 85.8167 82.3963C 86.4167 77.0963 85.7167 75.6962 80.9167 73.7962C 76.6167 72.0962 74.4167 69.0962 73.8167 64.7962C 73.1167 59.7962 71.4167 55.2961 69.3167 50.6961C 67.9167 47.6961 67.6167 43.7964 67.9167 40.4964C 68.5167 33.8964 70.0167 27.4963 71.0167 20.8963C 71.2167 19.7963 71.3166 18.6965 71.2166 17.5965C 70.8166 13.1965 73.2167 10.8964 76.8167 8.99643C 80.3167 7.09643 83.8167 4.99643 87.0167 2.49643C 89.7167 0.396432 92.4166 -1.00367 95.6166 0.896334C 99.1166 2.89633 102.917 4.99624 102.917 9.79624C 102.917 13.6962 102.817 17.4962 102.217 21.2962C 101.517 26.6962 101.517 31.9964 103.917 36.9964C 107.817 45.2964 105.517 53.2964 102.317 60.9964C 101.017 64.1964 100.117 66.9964 100.917 70.4964C 101.717 73.7964 101.217 76.6963 97.2166 77.8963C 94.9166 78.5963 94.0167 80.5965 93.8167 83.0965C 92.4167 97.8965 90.8167 112.797 89.5167 127.597C 88.8167 135.297 88.5167 142.996 87.9167 150.796C 87.7167 154.096 88.6166 156.296 92.1166 157.496C 95.3166 158.596 98.2167 160.497 102.317 162.597C 100.117 163.997 98.9167 165.296 97.8167 165.196C 84.9167 164.696 72.2167 169.396 59.3167 167.296C 51.9167 166.096 44.4167 165.996 37.0167 163.896C 26.4167 160.896 15.4167 159.696 4.51667 157.796C 4.01667 157.696 3.41669 157.797 2.91669 157.597C 1.41669 156.997 -0.683382 156.196 0.216618 154.196C 0.716618 152.996 2.51669 152.197 3.91669 151.597C 4.61669 151.297 5.61667 151.997 6.51667 152.097C 8.51667 152.297 10.6166 152.596 12.6166 152.396C 17.3166 152.096 19.0166 150.896 19.7166 146.296C 21.0166 137.396 21.8167 128.396 22.9167 119.396C 23.4167 115.296 20.3166 114.696 17.1166 113.296C 24.5166 100.996 35.1167 91.7962 44.0167 80.7962C 55.4167 91.0962 66.2167 101.496 76.3167 113.196ZM 39.4167 156.996C 39.3167 152.296 38.8166 148.296 39.1166 144.396C 39.4166 140.396 38.7167 136.096 41.8167 132.196C 45.9167 136.996 40.8166 142.996 45.6166 148.396C 46.0166 145.296 46.3167 143.497 46.5167 141.597C 46.8167 138.497 47.1167 135.396 47.4167 132.396C 47.5167 131.396 47.6166 129.696 47.2166 129.496C 46.2166 129.096 44.9167 129.296 43.8167 129.396C 43.1167 129.496 42.5167 129.896 41.4167 130.296C 41.4167 128.896 41.4167 127.896 41.4167 127.396C 43.9167 126.996 45.9167 126.596 48.0167 126.296C 49.7167 125.996 51.0166 126.596 51.1166 128.496C 51.4166 132.296 51.6166 136.196 51.7166 139.996C 51.7166 143.796 51.4167 147.696 51.5167 151.496C 51.5167 153.596 51.0167 155.096 48.8167 155.796C 47.3167 154.996 45.8167 154.196 44.3167 153.396C 43.0167 155.596 42.9167 156.996 45.4167 157.296C 48.2167 157.596 51.1166 157.596 53.6166 157.696C 53.6166 155.196 53.5166 152.996 53.6166 150.896C 54.0166 142.996 54.5167 135.096 54.9167 127.196C 55.0167 124.996 53.9166 123.697 51.7166 123.597C 48.4166 123.497 45.1167 123.396 41.8167 123.496C 38.9167 123.596 37.8166 125.296 37.6166 128.196C 37.3166 133.196 36.5166 138.096 36.1166 142.996C 35.8166 147.496 35.7167 152.096 35.4167 156.896C 37.4167 156.896 38.6167 156.896 39.4167 156.996ZM 26.9167 115.196C 27.4167 115.796 27.6167 116.296 27.9167 116.296C 40.2167 117.696 52.5167 118.096 64.8167 116.796C 65.5167 116.696 66.0166 115.896 67.6166 114.696C 54.0166 114.496 41.6166 114.297 29.1166 114.097C 28.4166 114.097 27.7167 114.796 26.9167 115.196ZM 88.1166 47.8963C 87.1166 50.3963 85.7166 52.0963 86.2166 52.8963C 87.1166 54.5963 87.0167 55.7964 86.5167 57.4964C 86.2167 58.2964 86.9167 59.3961 87.4167 60.1961C 87.6167 60.4961 89.0167 60.3964 89.3167 59.9964C 90.0167 59.2964 90.9166 57.8963 90.6166 57.3963C 89.4166 55.3963 89.9166 53.6961 90.6166 51.6961C 90.9166 51.0961 89.6166 49.9963 88.1166 47.8963ZM 91.4167 38.1961C 89.1167 39.1961 87.3167 40.1961 88.4167 42.6961C 88.6167 43.1961 90.5166 43.5961 91.2166 43.1961C 93.4166 41.9961 93.1167 40.2961 91.4167 38.1961ZM 93.7166 73.8963C 92.6166 72.7963 91.8167 71.4965 91.3167 71.5965C 90.3167 71.7965 89.5166 72.8965 88.6166 73.5965C 89.3166 74.2965 90.0167 75.3964 90.8167 75.4964C 91.6167 75.5964 92.5166 74.6963 93.7166 73.8963ZM 88.1166 19.8963C 86.1166 22.1963 85.2166 22.9965 84.7166 24.0965C 84.6166 24.3965 86.1166 25.7962 86.2166 25.7962C 87.3166 25.0962 88.5166 24.2961 89.2166 23.1961C 89.4166 22.6961 88.6166 21.4963 88.1166 19.8963ZM 78.6166 20.6961C 80.2166 18.3961 81.0167 17.4964 81.4167 16.4964C 81.5167 16.2964 79.9166 14.9965 79.6166 15.0965C 78.6166 15.5965 77.7166 16.4964 77.2166 17.4964C 77.0166 18.0964 77.9166 19.0961 78.6166 20.6961ZM 101.017 13.0965C 99.4167 12.3965 98.4167 11.5963 97.8167 11.8963C 96.8167 12.2963 96.1166 13.2964 95.2166 13.9964C 95.8166 14.4964 96.5167 15.5964 97.0167 15.4964C 97.9167 15.3964 98.7167 14.5965 101.017 13.0965ZM 82.2166 62.8963C 81.3166 64.1963 80.2167 65.0962 80.3167 65.7962C 80.4167 66.4962 81.7167 67.0961 82.4167 67.6961C 83.0167 66.9961 84.1166 66.1964 84.1166 65.4964C 84.2166 64.7964 83.1166 63.9963 82.2166 62.8963ZM 94.1166 27.3963C 95.2166 26.0963 96.1167 25.2962 96.4167 24.2962C 96.5167 23.8962 95.5167 23.0963 94.9167 22.3963C 94.0167 23.1963 93.0167 23.7962 92.4167 24.7962C 92.3167 25.0962 93.3166 26.0963 94.1166 27.3963ZM 77.9167 27.9964C 78.8167 26.8964 79.9167 25.9962 79.8167 25.2962C 79.7167 24.5962 78.4166 23.5965 77.7166 23.5965C 77.0166 23.5965 75.8167 24.7964 75.8167 25.4964C 75.7167 26.2964 76.9167 26.9964 77.9167 27.9964ZM 98.8167 44.3963C 97.9167 45.5963 96.9167 46.3961 96.9167 47.1961C 96.9167 47.7961 98.3167 48.9963 98.9167 48.8963C 99.7167 48.7963 100.717 47.6963 100.817 46.8963C 100.917 46.2963 99.8167 45.4963 98.8167 44.3963ZM 91.4167 67.8963C 93.1167 65.6963 93.7167 64.8965 94.3167 64.0965C 93.6167 63.5965 92.8167 62.5961 92.3167 62.6961C 91.5167 62.9961 90.6167 63.8961 90.3167 64.6961C 90.1167 65.3961 90.9167 66.3963 91.4167 67.8963ZM 95.2166 36.8963C 96.1166 35.6963 96.9166 34.9961 97.1166 34.1961C 97.2166 33.6961 95.8167 32.4965 95.5167 32.5965C 94.7167 32.9965 93.8167 33.6964 93.5167 34.4964C 93.4167 34.8964 94.4166 35.6963 95.2166 36.8963ZM 87.1166 33.4964C 87.3166 33.0964 87.6167 32.6962 87.8167 32.2962C 87.0167 31.9962 86.2167 31.1963 85.5167 31.3963C 84.7167 31.4963 84.0166 32.3963 83.2166 32.8963C 83.8166 33.3963 84.3167 34.2963 85.0167 34.3963C 85.6167 34.5963 86.4166 33.8964 87.1166 33.4964ZM 90.8167 6.39633C 89.9167 7.29633 89.3167 7.89643 88.8167 8.49643C 89.4167 8.99643 90.0166 9.99643 90.6166 9.99643C 91.3166 9.99643 91.9166 9.09653 92.6166 8.59653C 92.0166 7.99653 91.5167 7.29633 90.8167 6.39633ZM 83.8167 43.7962C 82.4167 43.2962 81.5167 42.5962 80.9167 42.7962C 80.3167 42.9962 80.0166 43.9961 79.6166 44.6961C 80.2166 44.9961 80.9167 45.6965 81.4167 45.5965C 82.1167 45.3965 82.7167 44.6962 83.8167 43.7962ZM 82.3167 55.2962C 81.2167 54.5962 80.5166 53.9963 79.7166 53.8963C 79.3166 53.8963 78.8167 54.7962 78.4167 55.2962C 79.0167 55.7962 79.6167 56.4961 80.4167 56.6961C 80.7167 56.7961 81.3167 55.9962 82.3167 55.2962ZM 99.8167 54.5965C 98.9167 53.9965 98.1167 53.1963 97.9167 53.3963C 97.3167 53.7963 96.9167 54.5961 96.5167 55.1961C 97.0167 55.4961 97.6166 56.0965 98.1166 56.0965C 98.6166 55.9965 99.0167 55.2965 99.8167 54.5965Z"/>
<path id="path1_fill" d="M 3.90002 33.6658C 3.10002 33.6658 1.9 33.5656 0 33.4656C 0.2 28.6656 0.299951 24.0657 0.699951 19.5657C 1.09995 14.5657 1.89995 9.66588 2.19995 4.76588C 2.39995 1.86588 3.50002 0.165685 6.40002 0.0656854C 9.70002 -0.0343146 13 -0.0342169 16.3 0.165783C 18.5 0.265783 19.7 1.56588 19.5 3.76588C 19.1 11.6659 18.6 19.5656 18.2 27.4656C 18.1 29.5656 18.2 31.7659 18.2 34.2659C 15.7 34.1659 12.9 34.0655 10 33.8655C 7.5 33.6655 7.60002 32.1656 8.90002 29.9656C 10.4 30.7656 11.9 31.5655 13.4 32.3655C 15.6 31.6655 16.1 30.2657 16.1 28.0657C 16 24.2657 16.4 20.3657 16.3 16.5657C 16.3 12.7657 16 8.86569 15.7 5.06569C 15.6 3.16569 14.3 2.66549 12.6 2.86549C 10.5 3.16549 8.5 3.56559 6 3.96559C 6 4.56559 6 5.46549 6 6.86549C 7.1 6.46549 7.70002 6.06559 8.40002 5.96559C 9.50002 5.86559 10.8 5.66569 11.8 6.06569C 12.2 6.26569 12.1 7.96559 12 8.96559C 11.8 12.0656 11.5 15.1658 11.1 18.1658C 10.9 20.0658 10.6 21.9656 10.2 24.9656C 5.49995 19.5656 10.5 13.5659 6.40002 8.76588C 3.20002 12.6659 3.99995 17.0656 3.69995 20.9656C 3.29995 24.8656 3.80002 28.8658 3.90002 33.6658Z"/>
<path id="path2_fill" d="M 2.44141e-05 1.0998C 0.800024 0.699805 1.49998 0.000195313 2.19998 0.000195313C 14.6 0.100195 27 0.399805 40.7 0.599805C 39.1 1.7998 38.5 2.5999 37.9 2.6999C 25.6 3.9999 13.3 3.6999 1.00002 2.1999C 0.700024 2.1999 0.500024 1.6998 2.44141e-05 1.0998Z"/>
</defs>
</svg>
