<svg width="202" height="238" viewBox="0 0 202 238" version="1.1" xmlns="http://www.w3.org/2000/svg" xmlns:xlink="http://www.w3.org/1999/xlink">
<title>igreja</title>
<desc>Created using Figma</desc>
<g id="Canvas" transform="translate(3313 -2849)">
<g id="igreja">
<g id="rodape-igreja">
<use xlink:href="#path0_fill" transform="translate(-3312.38 2849.2)"/>
</g>
<g id="Vector">
<use xlink:href="#path1_fill" transform="translate(-3287.8 2962.8)"/>
</g>
<g id="Vector">
<use xlink:href="#path2_fill" transform="translate(-3271.86 2963.3)"/>
</g>
<g id="Vector">
<use xlink:href="#path3_fill" transform="translate(-3241.02 2955.8)"/>
</g>
<g id="Vector">
<use xlink:href="#path4_fill" transform="translate(-3227.75 2957.58)"/>
</g>
<g id="Vector">
<use xlink:href="#path5_fill" transform="translate(-3219.2 2958.39)"/>
</g>
<g id="Vector">
<use xlink:href="#path6_fill" transform="translate(-3211.72 2958.9)"/>
</g>
<g id="Vector">
<use xlink:href="#path7_fill" transform="translate(-3177.01 2959.3)"/>
</g>
<g id="Vector">
<use xlink:href="#path8_fill" transform="translate(-3197.9 2959.79)"/>
</g>
<g id="Vector">
<use xlink:href="#path9_fill" transform="translate(-3204.6 2959.5)"/>
</g>
<g id="Vector">
<use xlink:href="#path10_fill" transform="translate(-3190.2 2960.5)"/>
</g>
<g id="Vector">
<use xlink:href="#path11_fill" transform="translate(-3286.54 2893.2)" fill="#FFFFFF"/>
</g>
<g id="Vector">
<use xlink:href="#path12_fill" transform="translate(-3227.61 2970.75)" fill="#FFFFFF"/>
</g>
<g id="Vector">
<use xlink:href="#path13_fill" transform="translate(-3185.72 2973.69)" fill="#FFFFFF"/>
</g>
<g id="Vector">
<use xlink:href="#path14_fill" transform="translate(-3211.38 2901.9)" fill="#FFFFFF"/>
</g>
<g id="Vector">
<use xlink:href="#path15_fill" transform="translate(-3133.55 2896.87)" fill="#FFFFFF"/>
</g>
<g id="Vector">
<use xlink:href="#path16_fill" transform="translate(-3182.1 2910.69)" fill="#FFFFFF"/>
</g>
<g id="Vector">
<use xlink:href="#path17_fill" transform="translate(-3155.54 2878.8)" fill="#FFFFFF"/>
</g>
<g id="Vector">
<use xlink:href="#path18_fill" transform="translate(-3207.91 2885.25)" fill="#FFFFFF"/>
</g>
<g id="Vector">
<use xlink:href="#path19_fill" transform="translate(-3144.95 2905.3)" fill="#FFFFFF"/>
</g>
<g id="Vector">
<use xlink:href="#path20_fill" transform="translate(-3164.8 2870.6)" fill="#FFFFFF"/>
</g>
<g id="Vector">
<use xlink:href="#path21_fill" transform="translate(-3135.54 2915.92)" fill="#FFFFFF"/>
</g>
<g id="Vector">
<use xlink:href="#path22_fill" transform="translate(-3197.35 2907.27)" fill="#FFFFFF"/>
</g>
<g id="Vector">
<use xlink:href="#path23_fill" transform="translate(-3150.91 2918.6)" fill="#FFFFFF"/>
</g>
<g id="Vector">
<use xlink:href="#path24_fill" transform="translate(-3166.53 2914.8)" fill="#FFFFFF"/>
</g>
<g id="Vector">
<use xlink:href="#path25_fill" transform="translate(-3196.11 2877.78)" fill="#FFFFFF"/>
</g>
<g id="Vector">
<use xlink:href="#path26_fill" transform="translate(-3191.5 2892.88)" fill="#FFFFFF"/>
</g>
<g id="Vector">
<use xlink:href="#path27_fill" transform="translate(-3142.52 2869.58)" fill="#FFFFFF"/>
</g>
<g id="Vector">
<use xlink:href="#path28_fill" transform="translate(-3151.72 2861.08)" fill="#FFFFFF"/>
</g>
<g id="Vector">
<use xlink:href="#path29_fill" transform="translate(-3212.36 2864.5)" fill="#FFFFFF"/>
</g>
<g id="Vector">
<use xlink:href="#path30_fill" transform="translate(-3185.02 2861.27)" fill="#FFFFFF"/>
</g>
<g id="Vector">
<use xlink:href="#path31_fill" transform="translate(-3175.55 2871.2)" fill="#FFFFFF"/>
</g>
<g id="Vector">
<use xlink:href="#path32_fill" transform="translate(-3138.01 2884.85)" fill="#FFFFFF"/>
</g>
<g id="Vector">
<use xlink:href="#path33_fill" transform="translate(-3160.7 2900.5)" fill="#FFFFFF"/>
</g>
<g id="Vector">
<use xlink:href="#path34_fill" transform="translate(-3162.71 2888.69)" fill="#FFFFFF"/>
</g>
<g id="Vector">
<use xlink:href="#path35_fill" transform="translate(-3171.84 2857.6)" fill="#FFFFFF"/>
</g>
<g id="Vector">
<use xlink:href="#path36_fill" transform="translate(-3148.8 2893.5)" fill="#FFFFFF"/>
</g>
<g id="Vector">
<use xlink:href="#path37_fill" transform="translate(-3179 2882.78)" fill="#FFFFFF"/>
</g>
<g id="Vector">
<use xlink:href="#path38_fill" transform="translate(-3175.85 2897.41)" fill="#FFFFFF"/>
</g>
<g id="Vector">
<use xlink:href="#path39_fill" transform="translate(-3212.25 2874.66)" fill="#FFFFFF"/>
</g>
<g id="Vector">
<use xlink:href="#path40_fill" transform="translate(-3193.55 2866.24)" fill="#FFFFFF"/>
</g>
<g id="Vector">
<use xlink:href="#path41_fill" transform="translate(-3195.93 2857)" fill="#FFFFFF"/>
</g>
<g id="Vector">
<use xlink:href="#path42_fill" transform="translate(-3221.8 2902.15)" fill="#FFFFFF"/>
</g>
<g id="Vector">
<use xlink:href="#path43_fill" transform="translate(-3205.52 2857.4)" fill="#FFFFFF"/>
</g>
<g id="Vector">
<use xlink:href="#path44_fill" transform="translate(-3219.5 2888.39)" fill="#FFFFFF"/>
</g>
<g id="Vector">
<use xlink:href="#path45_fill" transform="translate(-3139.91 2923.8)" fill="#FFFFFF"/>
</g>
<g id="Vector">
<use xlink:href="#path46_fill" transform="translate(-3224.46 2865.4)" fill="#FFFFFF"/>
</g>
<g id="Vector">
<use xlink:href="#path47_fill" transform="translate(-3230.8 2889.9)" fill="#FFFFFF"/>
</g>
<g id="Vector">
<use xlink:href="#path48_fill" transform="translate(-3225.51 2876.8)" fill="#FFFFFF"/>
</g>
<g id="Vector">
<use xlink:href="#path49_fill" transform="translate(-3216.3 2859.14)" fill="#FFFFFF"/>
</g>
<g id="Vector">
<use xlink:href="#path50_fill" transform="translate(-3223.3 2981.76)"/>
</g>
<g id="Vector">
<use xlink:href="#path51_fill" transform="translate(-3216.4 2974.97)"/>
</g>
<g id="Vector">
<use xlink:href="#path52_fill" transform="translate(-3222.13 2976.19)"/>
</g>
<g id="Vector">
<use xlink:href="#path53_fill" transform="translate(-3182.57 2982.98)"/>
</g>
<g id="Vector">
<use xlink:href="#path54_fill" transform="translate(-3174.7 2977.7)"/>
</g>
</g>
</g>
<defs>
<path id="path0_fill" d="M 18.285 216.501C 19.685 216.501 20.885 216.501 21.985 216.501C 22.185 216.001 22.485 215.601 22.385 215.401C 21.985 213.601 21.285 211.901 21.285 210.201C 21.285 195.101 21.385 180.001 21.485 164.901C 21.585 155.301 21.585 145.701 21.885 136.101C 22.085 130.501 22.585 129.801 28.385 129.701C 35.685 129.501 43.085 129.901 50.485 130.001C 52.785 130.001 53.685 131.201 53.785 133.501C 53.885 145.701 54.185 157.901 54.085 170.001C 54.085 178.701 53.685 187.301 53.385 196.001C 53.285 201.001 52.985 205.901 52.985 210.901C 52.985 213.301 51.885 214.301 49.685 214.401C 45.785 214.601 41.985 214.601 38.085 214.801C 36.185 214.901 34.285 215.201 32.385 215.401C 32.385 215.801 32.385 216.101 32.385 216.501C 33.385 216.801 34.285 217.401 35.285 217.501C 49.085 217.901 62.885 218.601 76.785 218.501C 83.785 218.501 90.485 216.601 96.785 213.001C 107.185 207.001 117.985 201.801 128.385 196.001C 141.285 188.801 153.985 181.301 166.685 173.901C 168.885 172.601 170.685 171.201 171.785 168.401C 172.385 166.801 175.385 166.101 178.085 164.401C 175.585 163.601 173.785 163.001 171.885 162.401C 171.285 159.901 170.685 157.301 169.985 154.301C 167.085 156.301 167.585 158.601 167.485 160.701C 167.385 162.501 167.685 164.401 167.685 166.201C 167.685 168.601 166.785 170.401 164.585 171.701C 156.885 176.401 149.185 181.201 141.585 186.101C 126.685 195.701 110.085 202.101 94.885 211.101C 89.485 214.301 83.585 215.301 77.385 215.101C 73.885 214.901 73.085 214.301 73.085 210.901C 73.085 189.301 73.085 167.701 72.985 146.101C 72.885 136.701 72.585 127.301 72.285 117.301C 74.185 117.201 76.185 116.901 78.085 117.001C 99.785 117.901 121.485 118.501 143.285 117.001C 148.585 116.601 153.985 117.301 159.285 117.401C 160.885 117.401 162.685 117.601 163.185 115.101C 160.785 114.101 158.485 113.201 155.985 112.201C 155.185 112.801 154.085 113.501 152.985 114.301C 152.385 113.101 151.685 111.901 151.185 110.701C 150.785 109.701 150.685 108.601 150.285 107.101C 151.785 106.801 152.985 106.401 154.085 106.501C 159.485 106.601 163.185 110.301 167.085 113.101C 168.085 113.801 168.485 115.701 168.685 117.001C 169.485 126.001 170.085 135.001 170.685 144.001C 170.885 146.101 170.285 148.501 172.885 149.901C 175.685 149.101 175.485 146.701 175.385 144.601C 175.185 136.701 174.985 128.701 174.685 120.801C 174.385 111.001 173.985 101.301 173.685 91.5012C 173.485 86.6012 168.685 81.8012 162.985 83.0012C 155.785 84.6012 150.785 81.6011 145.985 77.4011C 143.585 75.4011 141.585 74.8009 138.485 75.7009C 133.885 77.1009 129.385 76.5011 125.185 73.9011C 124.385 73.4011 123.485 73.1008 122.785 72.6008C 117.485 68.8008 112.085 67.3008 105.285 69.1008C 99.085 70.8008 92.185 66.5012 89.385 60.5012C 87.485 56.5012 84.885 53.4008 81.185 51.1008C 74.985 47.2008 72.785 41.7012 74.685 34.5012C 75.385 31.6012 75.185 28.3009 74.885 25.2009C 74.585 21.7009 75.185 19.3011 78.585 17.4011C 82.085 15.5011 84.985 13.101 87.285 9.30102C 89.385 5.90102 93.385 3.50083 97.085 1.60083C 98.785 0.700827 101.885 1.60083 103.885 2.60083C 107.285 4.30083 110.185 4.40112 113.085 1.90112C 115.385 0.00112045 117.885 0.101023 120.385 1.30102C 122.585 2.30102 124.685 3.40083 126.785 4.60083C 128.885 5.80083 130.385 5.50102 132.185 3.80102C 137.785 -1.89898 144.885 -1.09917 149.085 5.60083C 151.885 10.0008 153.285 11.1011 158.185 8.90112C 165.285 5.80112 171.285 6.80122 177.085 11.5012C 180.185 14.0012 183.785 15.9011 186.885 18.4011C 189.485 20.5011 189.785 24.0008 188.385 26.6008C 185.185 32.5008 186.985 37.6009 189.885 42.7009C 191.785 46.1009 192.385 49.7011 191.285 53.4011C 190.285 56.8011 190.685 60.0008 192.085 63.1008C 193.285 65.9008 193.385 68.6012 191.485 71.0012C 185.985 77.8012 187.085 86.0009 186.285 93.7009C 185.885 97.7009 185.785 101.801 185.785 105.801C 185.885 118.901 186.985 132.101 185.885 145.101C 185.285 152.501 188.285 155.901 193.485 159.301C 195.085 160.301 196.685 161.201 197.985 162.501C 199.085 163.601 200.085 165.101 200.385 166.601C 200.985 169.301 199.385 170.601 196.585 170.301C 195.485 170.201 194.385 169.801 193.285 169.801C 189.685 169.701 185.985 169.801 181.985 169.801C 180.785 177.201 174.385 180.101 168.985 183.701C 151.985 195.101 134.785 206.201 117.585 217.401C 115.885 218.501 114.085 219.401 112.185 220.301C 104.785 223.701 97.385 226.901 90.085 230.501C 87.485 231.801 85.285 234.001 82.685 235.301C 80.785 236.301 78.585 237.201 76.585 237.101C 66.785 236.601 57.085 235.701 47.385 235.201C 34.085 234.401 20.885 233.901 7.585 233.201C 1.085 232.801 -1.81502 227.701 1.18498 221.901C 2.78498 218.801 4.48498 215.701 6.28498 212.701C 9.38498 207.601 10.485 202.201 9.68498 196.301C 9.38498 193.801 9.48499 191.101 9.48499 188.601C 9.38499 171.101 8.68499 153.501 9.38499 136.001C 9.98499 119.401 9.68499 102.801 9.38499 86.2009C 9.38499 84.1009 8.985 81.901 12.085 81.801C 14.685 81.701 15.885 82.9011 16.185 85.9011C 16.385 88.4011 15.785 91.0008 17.485 93.1008C 20.285 92.6008 20.385 90.7011 20.785 88.9011C 23.485 76.7011 26.485 64.5008 28.885 52.1008C 30.285 45.1008 30.585 37.8009 31.485 30.7009C 31.785 28.3009 32.485 26.0008 32.785 23.6008C 33.285 19.5008 32.885 19.0011 28.985 16.9011C 28.485 16.7011 28.185 16.201 27.285 15.301C 29.385 13.101 31.485 11.001 33.685 8.80102C 35.985 10.101 37.985 11.1009 39.785 12.2009C 42.685 14.1009 42.685 15.3012 39.885 17.5012C 39.185 18.1012 38.485 18.6012 37.085 19.5012C 43.885 44.7012 50.685 70.001 57.485 95.301C 60.285 94.601 60.085 92.7009 60.285 91.2009C 60.485 89.7009 60.385 88.201 60.485 86.801C 60.785 83.601 61.485 83.1009 64.685 83.2009C 65.785 83.3009 66.885 83.3012 67.985 83.5012C 70.185 83.8012 71.285 85.0009 71.185 87.2009C 71.185 89.0009 71.085 90.9009 71.185 92.7009C 71.485 96.6009 71.785 97.1008 75.685 97.6008C 82.285 98.4008 88.885 99.1009 95.485 99.7009C 100.785 100.201 106.185 100.401 111.485 101.101C 115.985 101.801 120.385 103.201 124.885 104.101C 126.585 104.501 128.385 104.701 130.185 104.701C 136.185 104.801 142.285 104.701 148.185 106.101C 148.185 108.501 148.485 110.401 148.085 112.101C 147.885 113.101 146.685 113.801 145.885 114.701C 145.085 113.901 143.685 113.201 143.385 112.301C 142.285 108.601 142.385 108.701 138.585 109.101C 137.585 109.201 136.585 108.601 135.485 108.501C 134.185 108.301 132.885 108.301 130.585 108.201C 131.785 110.401 132.485 111.601 133.385 113.301C 132.285 113.801 131.185 114.701 130.285 114.501C 128.585 114.101 128.485 112.701 128.785 111.001C 129.385 107.601 128.685 107.401 125.185 107.401C 121.485 107.401 117.685 108.101 113.985 106.601C 112.185 105.901 109.785 106.501 107.685 106.201C 104.985 105.801 101.985 107.801 99.385 105.201C 98.985 104.801 96.785 106.101 95.285 106.801C 94.385 106.101 93.385 105.301 92.085 104.201C 88.785 107.601 84.685 103.201 80.985 105.101C 78.085 102.201 72.785 106.001 70.685 101.101C 68.185 102.801 68.885 105.001 68.885 106.901C 69.285 140.101 69.785 173.301 70.185 206.601C 70.185 208.101 70.285 209.601 70.085 211.001C 69.785 214.401 69.085 215.001 65.585 215.001C 65.385 215.001 65.185 215.001 64.985 215.001C 55.985 214.801 55.885 214.801 55.985 205.901C 56.285 187.401 56.885 169.001 56.985 150.501C 57.085 142.001 56.285 133.601 55.985 125.101C 55.885 120.401 53.485 117.101 49.585 114.801C 48.285 114.001 46.785 113.501 45.785 112.501C 41.985 108.601 37.785 109.301 33.485 111.101C 30.585 112.301 27.885 113.901 25.185 115.501C 22.385 117.201 20.785 119.701 19.885 122.901C 17.485 132.101 17.285 141.601 17.285 151.001C 17.385 166.901 17.785 182.701 18.085 198.601C 18.385 204.001 18.285 209.901 18.285 216.501ZM 37.585 44.1008C 36.985 44.1008 36.285 44.1008 35.685 44.1008C 34.985 46.5008 34.185 48.801 33.685 51.301C 33.085 54.001 32.785 56.7012 32.285 59.5012C 30.185 70.7012 28.085 81.9009 26.085 93.2009C 25.485 96.3009 26.385 97.2009 29.585 97.2009C 33.485 97.3009 37.285 97.301 41.185 97.301C 46.185 97.301 47.385 96.1011 46.585 90.9011C 44.285 76.8011 41.785 62.6012 39.285 48.5012C 38.885 46.9012 38.185 45.5008 37.585 44.1008ZM 96.685 145.101C 96.685 145.001 96.685 144.901 96.685 144.801C 98.485 144.801 100.385 144.901 102.185 144.801C 105.485 144.501 106.485 143.501 106.185 140.201C 105.885 137.101 105.185 134.001 104.885 130.901C 103.985 120.301 101.185 120.501 91.785 122.901C 90.885 123.101 89.885 123.401 89.285 124.001C 87.885 125.601 86.085 127.201 85.685 129.101C 84.885 132.801 84.985 136.801 84.685 140.601C 84.585 142.801 85.585 144.101 87.885 144.301C 90.885 144.501 93.785 144.801 96.685 145.101ZM 148.185 140.701C 148.185 139.601 148.285 138.501 148.185 137.401C 147.785 133.301 146.585 129.501 142.985 126.801C 138.185 123.301 133.885 123.701 129.985 128.101C 126.785 131.801 126.585 136.101 126.585 140.501C 126.585 144.601 127.285 145.401 131.285 145.601C 135.285 145.801 139.385 145.801 143.385 145.901C 147.885 146.001 148.385 145.401 148.185 140.701ZM 109.385 58.5012C 109.385 56.0012 106.185 52.7009 103.685 52.7009C 101.785 52.7009 100.385 54.3012 101.285 56.0012C 102.185 57.9012 103.685 59.7011 105.385 60.9011C 107.285 62.4011 109.285 61.0012 109.385 58.5012ZM 182.385 57.2009C 185.885 54.1009 186.485 51.6008 184.285 49.1008C 183.485 48.3008 181.985 47.4009 181.085 47.7009C 180.185 47.9009 179.285 49.4012 178.985 50.5012C 178.385 53.3012 179.585 55.4009 182.385 57.2009ZM 134.985 69.9011C 136.885 69.8011 137.385 68.6012 137.385 67.0012C 137.485 64.1012 135.585 61.6012 133.185 61.5012C 131.085 61.4012 130.285 62.8008 130.285 64.6008C 130.285 67.1008 132.785 69.9011 134.985 69.9011ZM 162.685 34.7009C 162.585 33.9009 162.785 32.6011 162.185 31.9011C 161.485 30.9011 160.185 29.7008 158.985 29.6008C 157.185 29.4008 156.585 31.1009 156.885 32.7009C 157.185 34.5009 157.685 36.201 158.385 37.801C 158.685 38.401 160.085 39.1011 160.585 38.9011C 161.385 38.5011 161.985 37.5008 162.485 36.6008C 162.785 36.2008 162.685 35.5009 162.685 34.7009ZM 110.885 41.801C 110.785 38.601 110.085 36.7009 107.885 36.2009C 106.885 35.9009 104.685 36.401 104.585 36.801C 104.285 38.501 104.685 40.2012 104.785 42.0012C 104.785 42.2012 104.985 42.3012 104.985 42.5012C 105.785 44.0012 106.685 45.801 108.585 44.801C 109.785 44.101 110.385 42.401 110.885 41.801ZM 168.185 56.1008C 166.685 62.1008 167.185 63.801 171.285 66.301C 175.285 61.901 174.185 57.8008 168.185 56.1008ZM 155.685 24.801C 155.585 23.201 152.985 21.3011 150.685 21.4011C 148.885 21.5011 147.485 22.201 147.585 24.301C 147.685 26.401 149.785 29.1008 151.385 29.1008C 152.985 29.1008 155.685 26.401 155.685 24.801ZM 181.085 76.5012C 184.685 72.4012 184.585 69.701 181.185 67.301C 180.285 66.701 178.485 66.5012 177.785 67.0012C 177.085 67.5012 176.585 69.401 176.985 70.301C 177.985 72.301 179.585 74.1012 181.085 76.5012ZM 122.585 64.0012C 122.585 60.9012 119.785 57.7008 117.785 58.1008C 116.685 58.3008 115.285 59.6009 115.085 60.7009C 114.685 62.6009 118.185 66.9011 119.885 66.4011C 121.085 66.1011 121.985 64.5012 122.585 64.0012ZM 163.585 69.4011C 161.285 72.4011 160.785 75.0008 162.485 77.1008C 163.085 77.8008 164.385 78.5011 165.185 78.4011C 165.985 78.3011 166.985 77.3011 167.385 76.4011C 168.685 73.4011 167.385 71.3011 163.585 69.4011ZM 147.185 65.6008C 146.785 66.4008 145.985 67.601 145.885 68.801C 145.685 71.401 147.685 74.201 149.485 74.301C 151.185 74.401 152.685 72.5012 152.585 70.5012C 152.485 68.3012 149.985 65.6008 147.185 65.6008ZM 120.785 37.2009C 122.085 35.4009 122.785 33.4008 122.185 31.1008C 121.585 29.0008 119.785 28.0009 117.985 28.7009C 117.085 29.0009 116.285 31.0008 116.385 32.1008C 116.485 34.3008 117.085 36.6009 120.785 37.2009ZM 120.885 45.5012C 120.785 49.3012 122.485 52.0012 124.385 52.0012C 126.585 52.0012 126.985 50.4008 127.085 48.6008C 127.285 45.8008 125.485 43.4009 123.285 43.7009C 122.185 43.9009 121.285 45.2012 120.885 45.5012ZM 176.185 25.1008C 176.085 21.8008 175.085 20.501 172.885 20.301C 170.985 20.201 169.785 21.8012 169.885 24.0012C 170.085 26.2012 172.085 28.8008 173.485 28.1008C 174.885 27.5008 175.685 25.7008 176.185 25.1008ZM 168.685 15.0012C 166.485 13.6012 165.185 12.0011 163.785 11.9011C 161.785 11.7011 160.485 13.5008 160.785 15.6008C 160.985 17.4008 161.685 19.7009 163.885 19.2009C 165.385 18.8009 166.585 16.9012 168.685 15.0012ZM 102.985 23.9011C 105.785 21.5011 106.585 19.3012 105.385 17.0012C 104.985 16.2012 103.785 15.301 102.985 15.301C 102.185 15.301 100.885 16.2012 100.585 17.0012C 99.385 19.9012 100.285 22.3011 102.985 23.9011ZM 128.185 12.2009C 127.185 14.6009 126.785 16.901 128.885 18.801C 129.385 19.301 131.285 19.2009 131.685 18.7009C 132.685 17.4009 134.185 15.4009 133.885 14.2009C 133.085 11.7009 130.585 12.0009 128.185 12.2009ZM 138.985 22.0012C 138.485 22.8012 137.185 23.9009 136.885 25.2009C 136.485 27.1009 138.585 29.301 140.385 29.301C 142.585 29.401 143.085 27.8008 143.285 26.1008C 143.485 24.0008 141.885 22.0012 138.985 22.0012ZM 177.585 43.6008C 180.185 42.2008 180.685 40.0011 180.085 37.9011C 179.785 36.9011 178.185 35.9009 177.085 35.7009C 175.585 35.4009 174.285 36.501 174.385 38.301C 174.485 40.501 174.785 42.6008 177.585 43.6008ZM 157.585 56.9011C 157.685 53.3011 156.085 51.301 154.085 51.301C 152.085 51.301 151.785 52.701 151.685 54.301C 151.585 56.901 153.185 59.6009 154.785 59.2009C 155.985 58.9009 156.985 57.4011 157.585 56.9011ZM 153.385 47.2009C 154.085 45.8009 155.185 44.401 155.485 42.801C 155.885 41.001 154.785 39.6011 152.785 39.4011C 150.785 39.3011 149.785 40.6011 149.585 42.4011C 149.585 44.7011 150.485 46.3009 153.385 47.2009ZM 142.285 8.40112C 139.585 10.6011 140.685 12.801 141.285 14.801C 141.485 15.501 142.685 16.5011 143.185 16.4011C 144.085 16.2011 145.185 15.4008 145.585 14.6008C 146.785 11.5008 144.985 9.90112 142.285 8.40112ZM 165.485 51.801C 165.985 51.801 166.485 51.801 166.985 51.801C 167.585 50.501 168.385 49.201 168.585 47.801C 168.885 46.001 167.985 44.301 166.085 44.301C 165.185 44.301 163.385 46.001 163.485 46.801C 163.685 48.501 164.785 50.201 165.485 51.801ZM 133.385 36.301C 134.385 38.701 133.785 41.5012 136.585 41.5012C 138.885 41.5012 138.885 39.0009 138.985 37.2009C 139.085 34.9009 137.485 33.1009 135.885 33.7009C 134.785 34.1009 134.085 35.501 133.385 36.301ZM 140.785 55.4011C 141.185 54.6011 142.085 53.501 142.285 52.301C 142.485 50.101 140.485 47.701 138.985 48.301C 137.885 48.701 136.785 50.101 136.585 51.301C 136.185 53.401 138.185 55.5011 140.785 55.4011ZM 102.885 33.301C 103.485 33.201 104.185 33.2008 104.785 33.1008C 105.085 31.3008 105.885 29.4009 105.685 27.7009C 105.385 26.0009 103.685 25.101 101.785 25.801C 100.085 26.401 99.685 27.9011 100.385 29.4011C 101.085 30.8011 102.085 32.001 102.885 33.301ZM 123.685 21.9011C 124.285 18.9011 123.885 17.5008 121.685 17.1008C 119.885 16.8008 118.985 17.5011 118.785 19.4011C 118.585 22.1011 119.685 24.5008 121.185 24.1008C 122.485 23.8008 123.285 22.2011 123.685 21.9011ZM 117.985 7.80102C 117.585 8.60102 116.585 9.60102 116.485 10.801C 116.185 13.301 117.985 15.501 119.585 14.801C 120.785 14.201 121.985 12.601 122.185 11.301C 122.485 9.20102 121.085 8.00102 117.985 7.80102ZM 94.985 60.301C 96.785 54.201 95.685 52.4008 90.585 53.1008C 90.685 56.1008 90.685 59.201 94.985 60.301ZM 109.485 15.5012C 110.785 13.0012 111.785 11.501 112.385 9.80102C 112.485 9.60102 110.985 8.20092 110.185 8.20092C 108.085 8.20092 106.685 9.50093 106.885 11.7009C 106.985 12.7009 108.085 13.6012 109.485 15.5012ZM 99.385 41.9011C 97.485 40.7011 96.385 39.701 94.985 39.301C 94.485 39.101 93.585 40.4008 92.785 41.1008C 93.885 42.3008 94.985 43.6009 96.285 44.7009C 96.385 44.7009 97.885 43.2011 99.385 41.9011ZM 174.885 74.6008C 173.585 76.4008 172.385 77.401 172.485 78.301C 172.585 79.401 173.585 81.1012 174.485 81.5012C 176.185 82.1012 177.285 80.7012 177.085 79.0012C 176.885 77.7012 175.985 76.6008 174.885 74.6008ZM 89.985 16.2009C 88.985 18.0009 88.085 19.0012 87.885 20.0012C 87.585 21.6012 88.485 23.2011 90.185 22.9011C 91.185 22.7011 92.685 21.1008 92.685 20.1008C 92.785 19.1008 91.385 18.0009 89.985 16.2009ZM 82.985 40.7009C 80.885 42.6009 81.285 44.4009 83.285 45.7009C 83.785 46.0009 85.685 45.5012 85.885 45.0012C 86.785 42.4012 85.085 41.5009 82.985 40.7009ZM 91.785 30.2009C 90.285 29.1009 89.385 28.3009 88.285 27.7009C 88.185 27.6009 86.785 29.1012 86.885 29.5012C 87.385 30.7012 88.285 31.6009 88.985 32.7009C 89.785 32.0009 90.485 31.4009 91.785 30.2009ZM 100.785 11.4011C 99.385 10.6011 98.285 9.80112 98.085 9.90112C 97.285 10.6011 96.685 11.6008 96.085 12.6008C 95.985 12.7008 97.285 13.9009 97.585 13.7009C 98.485 13.3009 99.385 12.5011 100.785 11.4011Z"/>
<path id="path1_fill" d="M 1.2207e-05 11.4002C 1.50001 3.8002 4.3 1.2998 12.3 -0.000195313C 12.5 2.8998 13 5.6998 12.8 8.4998C 12.7 9.4998 11.2 11.1 10.1 11.2C 6.99999 11.6 3.80001 11.4002 1.2207e-05 11.4002Z"/>
<path id="path2_fill" d="M 1.46144 -0.000195313C 6.06144 1.6998 10.3615 3.2001 11.7615 8.3001C 12.4615 10.9001 11.4614 12.0999 8.76143 12.0999C 8.56143 12.0999 8.36143 12.0999 8.26143 12.0999C -0.438572 11.4999 -1.43856 9.9998 1.46144 -0.000195313Z"/>
<path id="path3_fill" d="M 12.8154 5.4002C 10.7154 5.7002 9.01548 5.9998 7.41548 5.9998C 6.01548 5.9998 4.61545 5.8999 3.31545 5.5999C 2.21545 5.2999 0.615471 5.0001 0.215471 4.3001C -0.284529 3.3001 0.215483 1.8998 0.415483 -0.000195313C 3.41548 1.0998 5.21546 3.0002 8.01546 1.4002C 9.61546 0.300195 11.7154 1.8002 12.8154 5.4002Z"/>
<path id="path4_fill" d="M 6.44914 2.32027C 4.94914 3.62027 3.94913 4.92027 3.24913 4.82027C 2.04913 4.72027 0.549155 3.72018 0.149155 2.72018C -0.450845 1.12018 0.849143 -0.179532 2.44914 0.0204682C 3.64914 0.120468 4.64914 1.22027 6.44914 2.32027Z"/>
<path id="path5_fill" d="M 5.40001 2.60588C 4.00001 3.40588 2.79998 4.50608 2.29998 4.30608C 1.39998 3.90608 0.799988 2.60598 -1.2207e-05 1.70598C 0.799988 1.10598 1.7 -0.0942155 2.2 0.00578451C 3.4 0.305785 4.10001 1.40588 5.40001 2.60588Z"/>
<path id="path6_fill" d="M 5.32224 1.90458C 3.72224 2.90458 2.92229 3.90497 2.12229 3.80497C 1.32229 3.70497 0.422251 2.70497 0.0222507 1.80497C -0.177749 1.40497 1.02225 -0.0953243 1.52225 0.00467568C 2.62225 0.204676 3.62224 1.00458 5.32224 1.90458Z"/>
<path id="path7_fill" d="M 5.30544 2.10467C 3.80544 3.10467 2.90543 4.00457 2.10543 4.00457C 1.30543 3.90457 0.105457 2.90467 0.00545687 2.10467C -0.0945431 1.40467 1.20544 -0.0954319 1.80544 0.00456813C 2.80544 0.00456813 3.80544 1.00467 5.30544 2.10467Z"/>
<path id="path8_fill" d="M 4.49998 1.70695C 3.39998 2.50695 2.59999 3.50714 2.19999 3.40714C 1.39999 3.10714 0.699976 2.20675 -2.44141e-05 1.50675C 0.799976 1.00675 1.5 0.10675 2.4 0.00675016C 2.9 -0.0932498 3.59998 0.906945 4.49998 1.70695Z"/>
<path id="path9_fill" d="M 2.00002 3.8999C 1.20002 2.7999 0.600024 1.9998 2.44141e-05 1.2998C 0.700024 0.799805 1.40002 9.09495e-13 2.00002 9.09495e-13C 2.70002 0.1 3.59998 1.0001 3.69998 1.6001C 3.89998 2.2001 2.90002 2.8999 2.00002 3.8999Z"/>
<path id="path10_fill" d="M 3.29998 1.5C 2.19998 2 1.6 2.5999 1.2 2.3999C 0.7 2.1999 0.399988 1.5 -1.2207e-05 1C 0.499988 0.6 0.999988 0 1.49999 0C 1.89999 0.1 2.39998 0.8 3.29998 1.5Z"/>
<path id="path11_fill" d="M 11.7372 0.0998047C 12.2372 1.4998 13.0372 2.9001 13.3372 4.4001C 15.8372 18.5001 18.3372 32.6 20.6372 46.8C 21.4372 52 20.2372 53.1999 15.2372 53.1999C 11.3372 53.1999 7.53724 53.1998 3.63724 53.0998C 0.437238 53.0998 -0.362762 52.1998 0.137238 49.0998C 2.13724 37.8998 4.33722 26.7001 6.33722 15.4001C 6.83722 12.7001 7.13724 9.8999 7.73724 7.1999C 8.23724 4.7999 9.03724 2.4002 9.73724 0.000195313C 10.4372 0.100195 11.1372 0.0998047 11.7372 0.0998047Z"/>
<path id="path12_fill" d="M 11.9068 23.548C 9.00679 23.248 6.10678 22.9482 3.20678 22.7482C 0.906775 22.5482 -0.0931761 21.248 0.00682393 19.048C 0.206824 15.248 0.206824 11.248 1.00682 7.54803C 1.40682 5.64803 3.2068 4.04842 4.6068 2.44842C 5.1068 1.84842 6.2068 1.54832 7.1068 1.34832C 16.5068 -1.05168 19.3068 -1.25168 20.2068 9.34832C 20.5068 12.4483 21.2068 15.5481 21.5068 18.6481C 21.8068 21.9481 20.8068 22.9482 17.5068 23.2482C 15.7068 23.4482 13.8068 23.2482 12.0068 23.2482C 12.0068 23.3482 12.0068 23.448 11.9068 23.548ZM 11.7068 11.2482C 10.3068 11.2482 9.2068 11.1482 8.1068 11.2482C 5.7068 11.4482 4.30681 12.548 4.30681 15.048C 4.30681 17.648 5.50681 19.1482 8.30681 19.2482C 10.5068 19.3482 12.7068 19.3481 14.9068 19.1481C 16.9068 18.9481 17.8068 17.6482 17.7068 15.7482C 17.4068 12.5482 16.7068 10.2482 11.7068 11.2482ZM 11.2068 5.64812C 12.4068 6.74812 13.0068 7.64832 13.8068 7.84832C 14.3068 7.94832 15.7068 6.94803 15.7068 6.54803C 15.6068 5.64803 15.0068 4.34812 14.3068 4.14812C 13.6068 4.04812 12.6068 4.94812 11.2068 5.64812ZM 8.90679 7.04803C 8.10679 6.34803 7.50678 5.34842 7.20678 5.44842C 6.50678 5.64842 5.80682 6.34842 5.50682 6.94842C 5.40682 7.24842 6.3068 8.44842 6.6068 8.44842C 7.3068 8.34842 7.90679 7.64803 8.90679 7.04803Z"/>
<path id="path13_fill" d="M 21.5155 16.2138C 21.7155 20.9138 21.2155 21.514 16.8155 21.414C 12.7155 21.414 8.71553 21.4137 4.71553 21.1137C 0.715529 20.9137 0.0155168 20.1141 0.0155168 16.0141C -0.0844832 11.6141 0.215541 7.21371 3.41554 3.61371C 7.21554 -0.686291 11.6155 -1.1861 16.4155 2.3139C 20.0155 5.0139 21.2156 8.714 21.6156 12.914C 21.6156 14.014 21.5155 15.1138 21.5155 16.2138ZM 10.5155 17.6137C 12.5155 17.6137 13.2155 17.6137 13.9155 17.6137C 17.4155 17.5137 18.5155 16.7138 18.3155 14.2138C 18.1155 11.0138 16.6155 9.61371 13.4155 9.61371C 11.6155 9.61371 9.81552 9.514 8.01552 9.414C 5.41552 9.214 3.61553 10.3137 3.21553 12.6137C 2.81553 15.0137 4.1155 16.5137 6.3155 17.1137C 8.0155 17.5137 9.91552 17.5137 10.5155 17.6137ZM 14.2155 5.3139C 13.2155 4.6139 12.7155 3.9141 12.2155 4.0141C 11.7155 4.0141 11.3155 4.7139 11.0155 5.3139C 10.9155 5.4139 11.6155 6.21381 12.0155 6.21381C 12.5155 6.21381 13.1155 5.8139 14.2155 5.3139Z"/>
<path id="path14_fill" d="M 8.37945 5.8002C 8.37945 8.3002 6.37945 9.7001 4.37945 8.2001C 2.67945 7.0001 1.17947 5.2002 0.279474 3.3002C -0.620526 1.6002 0.779438 -9.76563e-05 2.67944 -9.76563e-05C 5.17944 -9.76563e-05 8.37945 3.3002 8.37945 5.8002Z"/>
<path id="path15_fill" d="M 3.55094 9.53099C 0.750939 7.73099 -0.449085 5.63128 0.150915 2.83128C 0.350915 1.73128 1.35095 0.230986 2.25095 0.0309858C 3.15095 -0.169014 4.75096 0.630888 5.45096 1.43089C 7.65096 3.93089 7.05094 6.43099 3.55094 9.53099Z"/>
<path id="path16_fill" d="M 4.69998 8.40549C 2.49998 8.40549 2.44141e-05 5.6052 2.44141e-05 3.1052C 2.44141e-05 1.2052 0.799988 -0.0944105 2.89999 0.00558947C 5.29999 0.105589 7.2 2.60559 7.1 5.50559C 7.1 7.20559 6.59998 8.40549 4.69998 8.40549Z"/>
<path id="path17_fill" d="M 5.84124 5.10411C 5.74124 6.00411 5.94123 6.60402 5.64123 7.00402C 5.14123 7.90402 4.54126 8.90431 3.74126 9.30431C 3.24126 9.50431 1.84125 8.80421 1.54125 8.20421C 0.841251 6.60421 0.341251 4.80411 0.0412513 3.10411C -0.158749 1.60411 0.341227 -0.0959848 2.14123 0.00401525C 3.24123 0.104015 4.54124 1.20431 5.34124 2.30431C 5.94124 3.00431 5.74124 4.30411 5.84124 5.10411Z"/>
<path id="path18_fill" d="M 6.40964 5.7532C 6.00964 6.3532 5.30965 8.0531 4.10965 8.6531C 2.20965 9.6531 1.30961 7.85329 0.509614 6.35329C 0.409614 6.1533 0.309663 6.05329 0.309663 5.85329C 0.209663 4.15329 -0.19035 2.3531 0.10965 0.6531C 0.20965 0.2531 2.30964 -0.146998 3.40964 0.053002C 5.60964 0.653002 6.30964 2.5532 6.40964 5.7532Z"/>
<path id="path19_fill" d="M 0.752425 -0.000195313C 6.75243 1.6998 7.85246 5.8 3.85246 10.2C -0.147538 7.7 -0.747575 5.9998 0.752425 -0.000195313Z"/>
<path id="path20_fill" d="M 8.10503 3.40398C 8.20503 5.00398 5.40504 7.80379 3.80504 7.70379C 2.20504 7.70379 0.105054 5.00398 0.00505371 2.90398C -0.0949463 0.703984 1.30503 0.104082 3.10503 0.00408225C 5.30503 -0.0959177 8.00503 1.70398 8.10503 3.40398Z"/>
<path id="path21_fill" d="M 4.24224 9.78358C 2.64224 7.48358 1.1422 5.68339 0.142203 3.58339C -0.257797 2.78339 0.242252 0.883581 0.942252 0.283581C 1.64225 -0.216419 3.44222 -0.0166141 4.34222 0.583386C 7.84222 2.98339 7.94224 5.68358 4.24224 9.78358Z"/>
<path id="path22_fill" d="M 7.5472 5.93419C 6.9472 6.53419 6.04719 8.03409 4.84719 8.33409C 3.14719 8.73409 -0.452796 4.5339 0.0472043 2.6339C 0.247204 1.6339 1.74722 0.233801 2.74722 0.0338013C 4.74722 -0.366199 7.5472 2.83419 7.5472 5.93419Z"/>
<path id="path23_fill" d="M 2.10962 9.76563e-05C 5.90962 1.9001 7.10961 4.0001 5.90961 7.0001C 5.60961 7.9001 4.50959 8.9001 3.70959 9.0001C 2.80959 9.1001 1.50958 8.4998 1.00958 7.6998C -0.690419 5.5998 -0.190382 3.0001 2.10962 9.76563e-05Z"/>
<path id="path24_fill" d="M 1.32881 -0.000195313C 4.12881 -0.000195313 6.62883 2.6001 6.72883 4.8001C 6.82883 6.8001 5.3288 8.6999 3.6288 8.5999C 1.8288 8.4999 -0.271178 5.6999 0.0288216 3.0999C 0.128822 1.9999 0.928809 0.899805 1.32881 -0.000195313Z"/>
<path id="path25_fill" d="M 4.5085 8.62162C 0.8085 8.02162 0.2085 5.72162 0.00850027 3.62162C -0.0914997 2.42162 0.708476 0.521721 1.60848 0.221721C 3.50848 -0.478279 5.30849 0.521623 5.80849 2.62162C 6.60849 4.72162 5.9085 6.82162 4.5085 8.62162Z"/>
<path id="path26_fill" d="M 0.00420161 1.82472C 0.404202 1.42472 1.30423 0.124425 2.40423 0.0244249C 4.70423 -0.275575 6.40421 2.22433 6.20421 4.92433C 6.10421 6.72433 5.6042 8.32472 3.5042 8.32472C 1.6042 8.32472 -0.0957984 5.62472 0.00420161 1.82472Z"/>
<path id="path27_fill" d="M 6.32026 4.71666C 5.82026 5.31666 5.02025 7.11676 3.62025 7.81676C 2.22025 8.51676 0.220275 5.91667 0.020275 3.71667C -0.179725 1.41667 1.12028 -0.183042 3.02028 0.0169579C 5.32028 0.0169579 6.32026 1.41666 6.32026 4.71666Z"/>
<path id="path28_fill" d="M 8.02164 3.11541C 5.92164 5.01541 4.72168 6.91512 3.12168 7.31512C 0.921677 7.81512 0.22164 5.51502 0.0216402 3.71502C -0.17836 1.61502 1.02164 -0.184683 3.02164 0.0153172C 4.52164 0.115317 5.82164 1.71541 8.02164 3.11541Z"/>
<path id="path29_fill" d="M 2.95797 8.6001C 0.257973 6.9001 -0.642027 4.6002 0.457973 1.7002C 0.757973 0.900195 2.058 -9.09495e-13 2.858 -9.09495e-13C 3.658 -9.09495e-13 4.85802 0.900195 5.25802 1.7002C 6.55802 4.0002 5.75797 6.3001 2.95797 8.6001Z"/>
<path id="path30_fill" d="M 0.815237 0.131367C 3.21524 -0.0686332 5.71525 -0.368731 6.51525 2.03127C 6.91525 3.23127 5.41524 5.23127 4.31524 6.53127C 3.91524 7.03127 2.01525 7.13137 1.51525 6.63137C -0.584751 4.83137 -0.184763 2.53137 0.815237 0.131367Z"/>
<path id="path31_fill" d="M 2.15153 0.000195313C 4.95153 0.000195313 6.65157 1.8998 6.45157 4.0998C 6.35157 5.89981 5.75155 7.4 3.55155 7.3C 1.65155 7.2 -0.34845 5.0999 0.0515501 3.1999C 0.45155 1.8999 1.65153 0.800195 2.15153 0.000195313Z"/>
<path id="path32_fill" d="M 3.20583 7.94892C 0.405834 6.94892 0.105821 4.84911 0.00582149 2.64911C -0.0941785 0.849112 1.10583 -0.250986 2.70583 0.0490142C 3.80583 0.249014 5.50583 1.34921 5.70583 2.24921C 6.30583 4.34921 5.80583 6.54892 3.20583 7.94892Z"/>
<path id="path33_fill" d="M 5.90447 5.6001C 5.30447 6.1001 4.40448 7.4999 3.10448 7.8999C 1.50448 8.2999 -0.0955562 5.6 0.00444379 3C 0.104444 1.5 0.404468 0.1 2.40447 -9.09495e-13C 4.40447 -1.81899e-12 6.00447 2.1001 5.90447 5.6001Z"/>
<path id="path34_fill" d="M 3.70738 7.7053C 0.807379 6.8053 -0.0926327 5.20559 0.00736726 3.00559C 0.207367 1.20559 1.20738 -0.0944058 3.20738 0.00559418C 5.20738 0.105594 6.20739 1.6055 5.90739 3.4055C 5.60739 4.9055 4.50738 6.3053 3.70738 7.7053Z"/>
<path id="path35_fill" d="M 1.73781 9.76563e-05C 4.43781 1.4001 6.23779 3.0998 5.03779 6.1998C 4.73779 6.9998 3.53777 7.8001 2.63777 8.0001C 2.13777 8.1001 1.03781 7.1 0.737807 6.4C 0.137807 4.4 -0.962193 2.2001 1.73781 9.76563e-05Z"/>
<path id="path36_fill" d="M 1.90398 7.5C 1.20398 5.8 0.104012 4.2 0.00401215 2.5C -0.0959879 1.7 1.70399 0 2.60399 0C 4.50399 0 5.40399 1.7 5.10399 3.5C 4.90399 4.9 4.00401 6.2 3.50401 7.5C 2.80401 7.5 2.40398 7.5 1.90398 7.5Z"/>
<path id="path37_fill" d="M 0 2.71652C 0.7 1.91652 1.4 0.51642 2.5 0.11642C 4.2 -0.48358 5.69998 1.31642 5.59998 3.61642C 5.49998 5.41642 5.50001 7.91671 3.20001 7.91671C 0.300012 8.01671 1 5.11652 0 2.71652Z"/>
<path id="path38_fill" d="M 4.25112 7.19358C 1.65112 7.29358 -0.348894 5.19349 0.051106 3.09349C 0.251106 1.99349 1.35107 0.493487 2.45107 0.0934873C 3.95107 -0.506513 5.95112 1.89349 5.75112 4.09349C 5.55112 5.29349 4.55112 6.39358 4.25112 7.19358Z"/>
<path id="path39_fill" d="M 2.74847 7.83883C 1.94847 6.53883 0.948442 5.23883 0.348442 3.83883C -0.351558 2.33883 -0.0515339 0.838737 1.74847 0.238737C 3.64847 -0.461263 5.34849 0.438639 5.64849 2.13864C 5.94849 3.83864 5.14847 5.73903 4.74847 7.53903C 4.04847 7.73903 3.34847 7.83883 2.74847 7.83883Z"/>
<path id="path40_fill" d="M 4.84627 4.86172C 4.54627 5.16172 3.6463 6.76142 2.4463 7.06142C 0.946303 7.46142 -0.253722 5.06172 0.0462784 2.36172C 0.246278 0.561717 1.1463 -0.238576 2.9463 0.0614243C 4.9463 0.461424 5.44627 1.76172 4.84627 4.86172Z"/>
<path id="path41_fill" d="M 1.53301 0C 4.53301 0.2 6.03302 1.4 5.73302 3.5C 5.53302 4.8 4.33305 6.5 3.13305 7C 1.53305 7.8 -0.26699 5.5 0.0330101 3C 0.13301 1.9 1.13301 0.8 1.53301 0Z"/>
<path id="path42_fill" d="M 4.39998 7.34717C -2.43187e-05 6.24717 0.100012 3.14697 1.2207e-05 0.146971C 5.20001 -0.553029 6.29998 1.14717 4.39998 7.34717Z"/>
<path id="path43_fill" d="M 2.61895 7.3002C 1.31895 5.4002 0.118976 4.4999 0.0189757 3.4999C -0.181024 1.3999 1.21896 0.0999023 3.31896 -9.76563e-05C 4.11896 -9.76563e-05 5.61898 1.3 5.51898 1.6C 4.81898 3.3 3.91895 4.8002 2.61895 7.3002Z"/>
<path id="path44_fill" d="M 6.5 2.70555C 5 4.10555 3.6 5.50526 3.5 5.40526C 2.2 4.30526 1.1 3.00565 0 1.80565C 0.7 1.20565 1.70001 -0.0946408 2.20001 0.00535921C 3.40001 0.405359 4.6 1.40555 6.5 2.70555Z"/>
<path id="path45_fill" d="M 2.40543 -0.000195313C 3.40543 1.9998 4.40544 3.1002 4.60544 4.4002C 4.80544 6.10019 3.7054 7.5002 2.0054 6.9002C 1.0054 6.60019 0.105403 4.9 0.0054031 3.7C -0.0945969 2.8 1.20543 1.7998 2.40543 -0.000195313Z"/>
<path id="path46_fill" d="M 2.05703 -9.76563e-05C 3.45703 1.7999 4.85708 2.8999 4.85708 3.9999C 4.85708 4.9999 3.35708 6.6002 2.35708 6.8002C 0.657081 7.1002 -0.242968 5.4998 0.0570323 3.8998C 0.157032 2.6998 1.05703 1.7999 2.05703 -9.76563e-05Z"/>
<path id="path47_fill" d="M 1.39861 -9.76563e-05C 3.49861 0.799902 5.29864 1.7001 4.29864 4.2001C 4.09864 4.7001 2.19866 5.2998 1.69866 4.8998C -0.30134 3.6998 -0.701389 1.9999 1.39861 -9.76563e-05Z"/>
<path id="path48_fill" d="M 4.9055 2.5999C 3.6055 3.7999 2.90545 4.3998 2.10545 4.9998C 1.40545 3.8998 0.405477 3.0001 0.00547685 1.8001C -0.0945232 1.4001 1.2055 -0.000195313 1.4055 -0.000195313C 2.5055 0.599805 3.5055 1.4999 4.9055 2.5999Z"/>
<path id="path49_fill" d="M 4.70002 1.45919C 3.30002 2.55919 2.40001 3.35909 1.50001 3.85909C 1.20001 3.95909 1.2207e-05 2.85899 1.2207e-05 2.75899C 0.500012 1.75899 1.10001 0.759284 2.00001 0.0592839C 2.20001 -0.240716 3.30002 0.659186 4.70002 1.45919Z"/>
<path id="path50_fill" d="M 7.39998 0.236398C 12.5 -0.763602 13.2 1.5364 13.4 4.7364C 13.5 6.6364 12.5 8.0363 10.6 8.1363C 8.39999 8.3363 6.20001 8.3364 4.00001 8.2364C 1.30001 8.0364 1.2207e-05 6.5362 1.2207e-05 4.0362C 1.2207e-05 1.5362 1.5 0.436398 3.8 0.236398C 4.8 0.236398 5.89998 0.236398 7.39998 0.236398Z"/>
<path id="path51_fill" d="M -2.44141e-05 1.42824C 1.39998 0.72824 2.40001 -0.171662 3.10001 0.0283378C 3.80001 0.228338 4.39998 1.52824 4.49998 2.42824C 4.59998 2.82824 3.10001 3.82853 2.60001 3.72853C 1.80001 3.42853 1.19998 2.52824 -2.44141e-05 1.42824Z"/>
<path id="path52_fill" d="M 3.42621 1.60745C 2.42621 2.30745 1.82623 2.90784 1.12623 3.00784C 0.826225 3.10784 -0.17375 1.80784 0.0262498 1.50784C 0.32625 0.807839 1.0262 0.207839 1.7262 0.00783882C 2.0262 -0.0921612 2.62621 0.807448 3.42621 1.60745Z"/>
<path id="path53_fill" d="M 7.37194 8.32293C 6.77194 8.22293 4.87192 8.22332 3.17192 7.72332C 0.971924 7.12332 -0.328052 5.72332 0.0719482 3.22332C 0.471948 0.923318 2.17194 -0.176877 4.87194 0.0231226C 6.67194 0.223123 8.47196 0.223318 10.272 0.223318C 13.472 0.323318 14.9719 1.62293 15.1719 4.82293C 15.3719 7.32293 14.272 8.12332 10.772 8.22332C 10.072 8.32332 9.27194 8.32293 7.37194 8.32293Z"/>
<path id="path54_fill" d="M 3.2 1.3C 2.1 1.8 1.49999 2.1999 0.999988 2.1999C 0.699988 2.1999 -1.2207e-05 1.4 -1.2207e-05 1.3C 0.299988 0.8 0.8 0.100195 1.2 0.000195313C 1.7 0.000195313 2.2 0.6 3.2 1.3Z"/>
</defs>
</svg>
