<svg width="72" height="72" viewBox="0 0 72 72" version="1.1" xmlns="http://www.w3.org/2000/svg" xmlns:xlink="http://www.w3.org/1999/xlink">
<title>instagram</title>
<desc>Created using Figma</desc>
<g id="Canvas" transform="translate(3062 -2629)">
<g id="instagram">
<g id="Group">
<g id="Group">
<g id="Vector">
<use xlink:href="#path0_fill" transform="translate(-3059.3 2631.3)" fill="#7C5641"/>
</g>
<g id="Group">
<g id="Group">
<g id="Vector">
<use xlink:href="#path1_fill" transform="translate(-3061.14 2629.1)" fill="#8B6956"/>
</g>
</g>
</g>
</g>
<g id="Vector">
<use xlink:href="#path2_fill" transform="translate(-3038.4 2652.1)" fill="#FFFFFF"/>
</g>
</g>
</g>
</g>
<defs>
<path id="path0_fill" d="M 34.3 68.5999C 53.2434 68.5999 68.6 53.2435 68.6 34.3001C 68.6 15.3567 53.2434 -0.000195313 34.3 -0.000195313C 15.3566 -0.000195313 1.2207e-05 15.3567 1.2207e-05 34.3001C 1.2207e-05 53.2435 15.3566 68.5999 34.3 68.5999Z"/>
<path id="path1_fill" d="M 63.1444 12.7999C 63.1444 12.7999 62.7445 12.3001 62.0445 11.5001C 61.7445 11.1001 61.2444 10.6002 60.6444 10.1002C 60.0444 9.60019 59.5444 9 58.7444 8.4C 55.9444 6 51.6444 3.2999 46.9444 1.7999C 45.7444 1.4999 44.5445 1.0999 43.3445 0.799902C 42.1445 0.599902 40.8444 0.399805 39.6444 0.199805C 38.5444 0.0998047 37.4444 9.76563e-05 36.4444 9.76563e-05L 36.2444 9.76563e-05L 36.1444 9.76563e-05L 35.9444 9.76563e-05L 35.5445 9.76563e-05C 35.2445 9.76563e-05 35.0444 9.76563e-05 34.7444 9.76563e-05C 34.2444 9.76563e-05 33.7444 9.76563e-05 33.2444 9.76563e-05C 32.3444 9.76563e-05 31.4444 0.0998047 30.6444 0.199805C 29.8444 0.299805 29.2444 0.400098 28.6444 0.500098C 27.5444 0.700098 26.9444 0.9 26.9444 0.9C 26.9444 0.9 26.5445 0.999805 25.8445 1.1998C 25.1445 1.3998 24.1445 1.6998 22.8445 2.1998C 21.6445 2.5998 20.2445 3.3001 18.8445 4.0001C 18.1445 4.3001 17.4444 4.7998 16.6444 5.1998C 15.9444 5.5998 15.1445 6.1002 14.5445 6.6002C 13.8445 7.1002 13.1444 7.60019 12.4444 8.10019C 11.8444 8.7002 11.2444 9.1999 10.6444 9.7999C 10.3444 10.0999 10.0444 10.3002 9.74442 10.6002C 9.44442 10.9002 9.24443 11.2 8.94443 11.4C 8.44443 11.9 7.94447 12.5 7.54447 12.9C 6.74447 13.9 6.14444 14.8 5.64444 15.4C 5.44444 15.7 5.24444 15.9002 5.14444 16.1002C 5.04444 16.3002 4.94443 16.4 4.94443 16.4C 4.94443 16.4 4.74446 16.8001 4.34446 17.5001C 4.14446 17.8001 3.94444 18.2998 3.64444 18.6998C 3.34444 19.1998 3.14443 19.8 2.94443 20.4C 2.64443 21 2.44444 21.7 2.14444 22.4C 1.94444 23.1 1.64443 23.8998 1.44443 24.6998C 1.14443 25.4998 1.04446 26.2998 0.844457 27.1998C 0.744457 28.0998 0.444457 28.8999 0.344457 29.7999C 0.244457 30.6999 0.144469 31.6001 0.0444689 32.5001C -0.0555311 33.4001 0.0444689 34.1 0.0444689 34.9C 0.0444689 35.3 0.0444689 35.7002 0.0444689 36.1002L 0.0444689 36.4L 0.0444689 36.5001L 0.0444689 36.6002L 0.0444689 36.6998C 0.0444689 36.8998 0.0444444 37.0999 0.144444 37.2999C 0.244444 37.9999 0.344457 38.7 0.344457 39.4C 0.344457 40 0.544444 40.6002 0.644444 41.1002C 0.744444 41.6002 0.844432 42.1 0.944432 42.4C 1.14443 43.1 1.14444 43.6002 1.14444 43.6002C 1.14444 43.6002 1.44443 45.0001 1.94443 47.0001C 2.24443 48.0001 2.64444 49.2 3.14444 50.4C 3.44444 51 3.74443 51.5998 3.94443 52.1998C 4.24443 52.7998 4.54446 53.5002 4.84446 54.1002C 5.54446 55.3002 6.24447 56.5002 7.04447 57.6002C 7.44447 58.1002 7.84444 58.7002 8.14444 59.1002C 8.54444 59.6002 8.94442 60 9.24442 60.4C 9.94442 61.2 10.5444 61.8999 10.9444 62.2999C 11.3444 62.6999 11.6444 63.0001 11.6444 63.0001C 11.6444 63.0001 11.8445 63.2002 12.3445 63.6002C 12.7445 64.0002 13.3444 64.5001 14.1444 65.0001C 14.5444 65.3001 14.9445 65.6 15.3445 65.9C 15.7445 66.2 16.3445 66.4999 16.8445 66.7999C 17.3445 67.0999 17.8444 67.3999 18.4444 67.7999C 19.0444 68.0999 19.5444 68.4002 20.1444 68.6002C 20.7444 68.9002 21.2445 69.2 21.8445 69.4C 22.4445 69.6 23.0445 69.8001 23.5445 70.0001C 24.6445 70.5001 25.7444 70.7001 26.6444 71.0001C 27.5444 71.2001 28.3444 71.5001 28.9444 71.5001C 29.5444 71.6001 29.8445 71.6002 29.8445 71.6002C 29.8445 71.6002 30.6444 71.5998 31.9444 71.6998C 32.5444 71.6998 33.2445 71.6002 34.0445 71.6002C 34.4445 71.6002 34.8444 71.5001 35.2444 71.5001C 35.7444 71.5001 36.0444 71.3999 36.4444 71.2999C 37.2444 71.1999 38.0445 71 38.8445 70.9C 39.5445 70.7 40.2445 70.5 40.8445 70.4C 41.4445 70.2 41.9444 70.1001 42.2444 70.0001C 42.5444 69.9001 42.7444 69.7999 42.7444 69.7999C 42.7444 69.7999 43.5444 69.7001 44.7444 69.5001C 45.0444 69.5001 45.3444 69.4 45.7444 69.4C 46.0444 69.3 46.4445 69.2002 46.8445 69.1002C 47.5445 68.9002 48.3444 68.7001 49.1444 68.5001C 50.6444 67.9001 52.2444 67.5 53.4444 66.9C 54.5444 66.4 55.3445 66.0001 55.3445 66.0001C 55.3445 66.0001 55.4444 65.8999 55.6444 65.7999C 55.8444 65.5999 56.1445 65.4002 56.5445 65.1002C 56.9445 64.8002 57.3444 64.5002 57.9444 64.1002C 58.4444 63.7002 59.0444 63.2002 59.6444 62.6002C 62.0444 60.4002 64.9444 56.9998 66.9444 53.1998C 69.0444 49.3998 70.2444 45.0999 70.6444 41.7999C 70.7444 40.9999 70.9444 40.2002 70.9444 39.6002C 70.9444 39.0002 71.0445 38.4 71.0445 37.9C 71.0445 37 71.1444 36.5001 71.1444 36.5001C 71.1444 36.5001 71.0445 37.2 70.8445 38.4C 70.7445 39 70.7445 39.7001 70.5445 40.5001C 70.3445 41.3001 70.1445 42.2999 69.8445 43.2999C 69.5445 44.2999 69.1444 45.4001 68.7444 46.5001C 68.2444 47.6001 67.7444 48.7 67.1444 49.9C 66.8444 50.5 66.4445 51.0002 66.1444 51.6002C 65.8444 52.2002 65.5445 52.6999 65.0445 53.2999C 64.2445 54.3999 63.5445 55.5001 62.5445 56.5001C 59.0445 60.6001 54.5444 63.5001 50.9444 65.0001C 49.1444 65.7001 47.6445 66.3001 46.5445 66.5001C 45.4445 66.8001 44.8445 66.9 44.8445 66.9C 44.8445 66.9 44.4444 66.9998 43.6444 67.1998C 42.8444 67.3998 41.7444 67.7 40.4444 67.9C 39.7444 68 39.0444 68.1998 38.2444 68.1998C 37.4444 68.1998 36.6444 68.2999 35.7444 68.2999L 35.4444 68.2999C 35.6444 68.2999 35.5445 68.2999 35.5445 68.2999L 35.4444 68.2999L 35.2444 68.2999L 34.5445 68.2999C 34.0445 68.2999 33.5444 68.2998 33.1444 68.1998C 32.1444 68.1998 31.3444 68 30.4444 67.9C 26.9444 67.3 23.3444 66.0999 20.9444 64.7999C 20.3444 64.4999 19.7445 64.2 19.3445 63.9C 18.8445 63.6 18.4444 63.4002 18.1444 63.1002C 17.7444 62.9002 17.5445 62.7002 17.3445 62.6002C 17.1445 62.5002 17.0445 62.4 17.0445 62.4C 17.0445 62.4 16.5444 62 15.6444 61.4C 15.1444 61.1 14.7444 60.6998 14.1444 60.1998C 13.5444 59.6998 12.8444 59.2001 12.2444 58.5001C 9.54442 55.9001 6.64446 51.8002 4.84446 47.1002L 4.44443 46.1998L 4.14444 45.2999C 3.94444 44.6999 3.84444 44.1001 3.64444 43.5001C 3.34444 42.3001 3.14443 41.1 2.94443 39.9C 2.84443 38.7 2.74444 37.6002 2.64444 36.6002C 2.64444 35.5002 2.74442 34.4 2.74442 33.4C 2.84442 32.4 2.94447 31.6 3.04447 30.9C 3.14447 30.5 3.14444 30.1999 3.14444 29.7999C 3.24444 29.4999 3.24446 29.2 3.34446 28.9C 3.54446 27.8 3.74442 27.1998 3.74442 27.1998C 3.74442 27.1998 3.84447 26.8002 4.04447 26.1002C 4.24447 25.4002 4.44443 24.3998 4.94443 23.1998C 5.74443 20.7998 7.24442 17.8001 9.24442 15.0001C 11.2444 12.2001 13.7445 9.80019 15.8445 8.10019C 16.8445 7.30019 17.8444 6.6998 18.4444 6.1998C 18.7444 5.9998 19.0444 5.7998 19.2444 5.6998C 19.4444 5.5998 19.5445 5.5001 19.5445 5.5001C 19.5445 5.5001 19.9444 5.3002 20.6444 5.1002C 20.9444 5.0002 21.4445 4.8002 21.8445 4.6002C 22.3445 4.4002 22.9445 4.3002 23.5445 4.1002C 25.9445 3.3002 29.3445 2.9 32.5445 2.9C 33.3445 2.9 34.1444 3.0001 34.9444 3.0001C 35.1444 3.0001 35.3445 3.0001 35.5445 3.0001L 36.1444 3.1002C 36.5444 3.2002 36.9445 3.1999 37.3445 3.2999C 38.9445 3.3999 40.2444 3.9002 41.4444 4.1002C 42.0444 4.2002 42.5445 4.4002 43.0445 4.6002C 43.5445 4.8002 43.9444 4.9001 44.2444 5.0001C 44.9444 5.2001 45.2444 5.4 45.2444 5.4C 45.2444 5.4 45.8444 5.6001 46.9444 6.0001C 48.0444 6.3001 49.5445 6.9999 51.3445 7.7999C 54.8445 9.4999 59.1444 12.7 62.4444 16.9C 63.3444 17.9 64.0444 19.0002 64.7444 20.1002C 65.1444 20.6002 65.4444 21.1999 65.7444 21.7999C 66.0444 22.3999 66.3444 22.9001 66.6444 23.5001C 67.1444 24.7001 67.6444 25.7999 67.9444 26.7999C 68.2444 27.8999 68.5445 28.9 68.8445 29.9C 69.0445 30.9 69.2445 31.8002 69.3445 32.6002C 69.5445 33.4002 69.5445 34.0998 69.5445 34.6998C 69.6445 35.8998 69.7444 36.6002 69.7444 36.6002C 69.7444 36.6002 69.7445 35.2001 69.8445 33.0001C 69.7445 31.9001 69.7445 30.6999 69.5445 29.2999C 69.4445 28.5999 69.3444 27.8998 69.1444 27.1998C 69.0444 26.7998 69.0444 26.5002 68.9444 26.1002L 68.6444 25.1002C 68.4445 24.4002 68.2445 23.7001 68.0445 23.0001C 67.8445 22.3001 67.5445 21.7001 67.3445 21.0001C 66.8445 19.7001 66.2444 18.5002 65.7444 17.6002C 65.2444 16.6002 64.7444 15.7999 64.4444 15.2999C 64.1444 14.6999 63.9444 14.4 63.9444 14.4"/>
<path id="path2_fill" fill-rule="evenodd" d="M 22.7 9.76563e-05L 4.19999 9.76563e-05C 1.89999 9.76563e-05 -2.44141e-05 1.8998 -2.44141e-05 4.1998L -2.44141e-05 22.6998C -2.44141e-05 24.9998 1.89999 26.9 4.19999 26.9L 22.7 26.9C 25 26.9 26.9 24.9998 26.9 22.6998L 26.9 4.1998C 26.9 1.8998 25 9.76563e-05 22.7 9.76563e-05ZM 19.2 3.6998C 19.2 3.2998 19.5 2.9 20 2.9L 23.3 2.9C 23.7 2.9 24.1 3.1998 24.1 3.6998L 24.1 7.0001C 24.1 7.4001 23.8 7.7999 23.3 7.7999L 20 7.7999C 19.6 7.7999 19.2 7.5001 19.2 7.0001L 19.2 3.6998ZM 8.4 11.5001C 9.2 9.5001 11.1 8.10019 13.4 8.10019C 15.7 8.10019 17.6 9.5001 18.4 11.5001C 18.6 12.1001 18.8 12.8 18.8 13.4C 18.8 16.3 16.4 18.6998 13.5 18.6998C 10.6 18.6998 8.19999 16.3 8.19999 13.4C 8.09999 12.8 8.2 12.1001 8.4 11.5001ZM 24 22.7999C 24 23.5999 23.4 24.1998 22.6 24.1998L 4.10001 24.1998C 3.30001 24.1998 2.69999 23.5999 2.69999 22.7999L 2.69999 11.6002L 5.4 11.6002C 5.2 12.2002 5.19999 12.9001 5.19999 13.5001C 5.19999 18.0001 8.9 21.6998 13.4 21.6998C 17.9 21.6998 21.6 18.0001 21.6 13.5001C 21.6 12.8001 21.5 12.2002 21.4 11.6002L 24.1 11.6002L 24.1 22.7999L 24 22.7999Z"/>
</defs>
</svg>
