<svg width="265" height="64" viewBox="0 0 265 64" version="1.1" xmlns="http://www.w3.org/2000/svg" xmlns:xlink="http://www.w3.org/1999/xlink">
<title>local</title>
<desc>Created using Figma</desc>
<g id="Canvas" transform="translate(3306 -1998)">
<g id="local">
<g id="Group">
<g id="Vector">
<use xlink:href="#path0_fill" transform="translate(-3305 1998.15)"/>
</g>
<g id="Vector">
<use xlink:href="#path1_fill" transform="translate(-3297.1 2059.34)"/>
</g>
<g id="Vector">
<use xlink:href="#path2_fill" transform="translate(-3255.2 2018.74)"/>
</g>
<g id="Vector">
<use xlink:href="#path3_fill" transform="translate(-3080.9 2006.38)"/>
</g>
<g id="Vector">
<use xlink:href="#path4_fill" transform="translate(-3050 2006.9)"/>
</g>
<g id="Vector">
<use xlink:href="#path5_fill" transform="translate(-3244.6 2030.4)"/>
</g>
<g id="Vector">
<use xlink:href="#path6_fill" transform="translate(-3294.1 2059.5)"/>
</g>
<g id="Vector">
<use xlink:href="#path7_fill" transform="translate(-3062.2 2021.88)"/>
</g>
<g id="Vector">
<use xlink:href="#path8_fill" transform="translate(-3041.54 2030.8)"/>
</g>
<g id="Vector">
<use xlink:href="#path9_fill" transform="translate(-3132.6 2010.8)"/>
</g>
<g id="Vector">
<use xlink:href="#path10_fill" transform="translate(-3119.4 2053.13)"/>
</g>
<g id="Vector">
<use xlink:href="#path11_fill" transform="translate(-3185.8 2001.7)"/>
</g>
<g id="Vector">
<use xlink:href="#path12_fill" transform="translate(-3110.4 2039.08)"/>
</g>
<g id="Vector">
<use xlink:href="#path13_fill" transform="translate(-3258.9 2021.46)"/>
</g>
<g id="Vector">
<use xlink:href="#path14_fill" transform="translate(-3078.7 2003.82)"/>
</g>
<g id="Vector">
<use xlink:href="#path15_fill" transform="translate(-3204.8 2030.71)"/>
</g>
<g id="Vector">
<use xlink:href="#path16_fill" transform="translate(-3116.8 2023.45)"/>
</g>
<g id="Vector">
<use xlink:href="#path17_fill" transform="translate(-3163.04 2001.76)"/>
</g>
<g id="Vector">
<use xlink:href="#path18_fill" transform="translate(-3285.2 2002.65)"/>
</g>
<g id="Vector">
<use xlink:href="#path19_fill" transform="translate(-3245.7 2055.4)"/>
</g>
<g id="Vector">
<use xlink:href="#path20_fill" transform="translate(-3203.7 2041.43)"/>
</g>
<g id="Vector">
<use xlink:href="#path21_fill" transform="translate(-3245.8 2021.01)"/>
</g>
<g id="Vector">
<use xlink:href="#path22_fill" transform="translate(-3119.3 2014.56)"/>
</g>
<g id="Vector">
<use xlink:href="#path23_fill" transform="translate(-3095.7 2057.56)"/>
</g>
<g id="Vector">
<use xlink:href="#path24_fill" transform="translate(-3128.9 2055.1)"/>
</g>
<g id="Vector">
<use xlink:href="#path25_fill" transform="translate(-3274.7 2002.8)"/>
</g>
<g id="Vector">
<use xlink:href="#path26_fill" transform="translate(-3146.3 2016.3)"/>
</g>
<g id="Vector">
<use xlink:href="#path27_fill" transform="translate(-3192.4 2056.5)"/>
</g>
<g id="Vector">
<use xlink:href="#path28_fill" transform="translate(-3277.8 2051.57)"/>
</g>
<g id="Vector">
<use xlink:href="#path29_fill" transform="translate(-3139.5 2002.8)"/>
</g>
<g id="Vector">
<use xlink:href="#path30_fill" transform="translate(-3245.6 2000.7)"/>
</g>
<g id="Vector">
<use xlink:href="#path31_fill" transform="translate(-3264 2034.5)"/>
</g>
<g id="Vector">
<use xlink:href="#path32_fill" transform="translate(-3171.2 2019.8)"/>
</g>
<g id="Vector">
<use xlink:href="#path33_fill" transform="translate(-3170.4 2035.02)"/>
</g>
<g id="Vector">
<use xlink:href="#path34_fill" transform="translate(-3122.2 2046.2)"/>
</g>
<g id="Vector">
<use xlink:href="#path35_fill" transform="translate(-3261 2043.7)"/>
</g>
<g id="Vector">
<use xlink:href="#path36_fill" transform="translate(-3235.7 2000.49)"/>
</g>
<g id="Vector">
<use xlink:href="#path37_fill" transform="translate(-3287.4 2046.82)"/>
</g>
<g id="Vector">
<use xlink:href="#path38_fill" transform="translate(-3237.6 2003.2)"/>
</g>
<g id="Vector">
<use xlink:href="#path39_fill" transform="translate(-3252.4 2023.9)"/>
</g>
<g id="Vector">
<use xlink:href="#path40_fill" transform="translate(-3195.7 2055.5)"/>
</g>
<g id="Vector">
<use xlink:href="#path41_fill" transform="translate(-3140 2054.24)"/>
</g>
<g id="Vector">
<use xlink:href="#path42_fill" transform="translate(-3100 2054.47)"/>
</g>
<g id="Vector">
<use xlink:href="#path43_fill" transform="translate(-3286.13 2059.1)"/>
</g>
<g id="Vector">
<use xlink:href="#path44_fill" transform="translate(-3257.7 2037.5)"/>
</g>
<g id="Vector">
<use xlink:href="#path45_fill" transform="translate(-3134.2 2053)"/>
</g>
<g id="Vector">
<use xlink:href="#path46_fill" transform="translate(-3208.7 2053.45)"/>
</g>
<g id="Vector">
<use xlink:href="#path47_fill" transform="translate(-3196.5 2041.35)"/>
</g>
<g id="Vector">
<use xlink:href="#path48_fill" transform="translate(-3199.1 2055.7)"/>
</g>
<g id="Vector">
<use xlink:href="#path49_fill" transform="translate(-3243.4 2058.7)"/>
</g>
<g id="Vector">
<use xlink:href="#path50_fill" transform="translate(-3255.4 2024)"/>
</g>
<g id="Vector">
<use xlink:href="#path51_fill" transform="translate(-3256.8 2016.35)"/>
</g>
<g id="Vector">
<use xlink:href="#path52_fill" transform="translate(-3198 2011.9)"/>
</g>
<g id="Vector">
<use xlink:href="#path53_fill" transform="translate(-3112.8 2056.8)"/>
</g>
<g id="Vector">
<use xlink:href="#path54_fill" transform="translate(-3267.1 2035)"/>
</g>
<g id="Vector">
<use xlink:href="#path55_fill" transform="translate(-3116 2056.09)"/>
</g>
<g id="Vector">
<use xlink:href="#path56_fill" transform="translate(-3101.6 2015.75)"/>
</g>
<g id="Vector">
<use xlink:href="#path57_fill" transform="translate(-3247.7 2055.8)"/>
</g>
<g id="Vector">
<use xlink:href="#path58_fill" transform="translate(-3144.1 2013.41)"/>
</g>
<g id="Vector">
<use xlink:href="#path59_fill" transform="translate(-3266.8 2010.66)"/>
</g>
<g id="Vector">
<use xlink:href="#path60_fill" transform="translate(-3226.3 2047.5)"/>
</g>
<g id="Vector">
<use xlink:href="#path61_fill" transform="translate(-3124.1 2016.7)"/>
</g>
<g id="Vector">
<use xlink:href="#path62_fill" transform="translate(-3236.8 2020.7)"/>
</g>
<g id="Vector">
<use xlink:href="#path63_fill" transform="translate(-3223.1 2058.81)"/>
</g>
<g id="Vector">
<use xlink:href="#path64_fill" transform="translate(-3105.9 2053.8)"/>
</g>
<g id="Vector">
<use xlink:href="#path65_fill" transform="translate(-3290.4 2059.6)"/>
</g>
<g id="Vector">
<use xlink:href="#path66_fill" transform="translate(-3105.4 2035.1)"/>
</g>
<g id="Vector">
<use xlink:href="#path67_fill" transform="translate(-3137.8 2033.61)"/>
</g>
<g id="Vector">
<use xlink:href="#path68_fill" transform="translate(-3269 2035.6)"/>
</g>
<g id="Vector">
<use xlink:href="#path69_fill" transform="translate(-3122.1 2056.2)"/>
</g>
<g id="Vector">
<use xlink:href="#path70_fill" transform="translate(-3084.85 2016.5)"/>
</g>
<g id="Vector">
<use xlink:href="#path71_fill" transform="translate(-3186.2 2010.7)"/>
</g>
<g id="Vector">
<use xlink:href="#path72_fill" transform="translate(-3286.91 2059.1)"/>
</g>
<g id="Vector">
<use xlink:href="#path73_fill" transform="translate(-3157.1 2023.56)"/>
</g>
<g id="Vector">
<use xlink:href="#path74_fill" transform="translate(-3093.2 2054.66)"/>
</g>
<g id="Vector">
<use xlink:href="#path75_fill" transform="translate(-3161.2 2035.3)"/>
</g>
</g>
<g id="local">
<use xlink:href="#path76_fill" transform="translate(-3202.63 1996.61)" fill="#FFFFFF"/>
</g>
<g id="Group">
<g id="Group">
<g id="Vector">
<use xlink:href="#path77_fill" transform="translate(-3243.9 2010.8)" fill="#E42513"/>
</g>
</g>
<g id="Group">
<g id="Group">
<g id="Vector">
<use xlink:href="#path78_fill" transform="translate(-3236 2018.86)" fill="#E73E2E"/>
</g>
</g>
<g id="Group">
<g id="Vector">
<use xlink:href="#path79_fill" transform="translate(-3245 2010.7)" fill="#E73E2E"/>
</g>
</g>
</g>
</g>
</g>
</g>
<defs>
<path id="path0_fill" fill-rule="evenodd" d="M 255.403 10.7488C 254.103 13.4488 251.303 14.6491 249.103 16.5491C 249.003 15.8491 249.003 15.3489 247.903 15.3489C 244.303 15.2489 240.703 15.7489 237.603 15.3489C 241.103 15.4489 245.003 15.9488 248.903 16.7488C 249.903 17.3488 250.003 17.9489 249.203 18.8489C 247.803 20.4489 246.603 22.1489 245.403 23.8489C 244.703 24.1489 243.903 23.7491 243.003 24.0491C 242.903 24.0491 243.203 24.4487 243.203 24.1487C 243.203 24.0487 243.203 23.949 243.303 23.949C 243.903 24.049 244.803 23.3491 245.103 24.5491C 244.903 24.8491 244.703 25.149 244.603 25.449C 243.503 27.949 241.803 28.949 239.103 27.949C 238.403 27.649 237.503 27.6488 236.903 28.7488C 238.603 28.8488 240.203 28.849 242.103 28.949C 238.003 33.749 242.003 36.8491 244.003 40.5491C 236.503 40.4491 229.003 40.2487 221.603 40.1487C 220.703 40.3487 219.803 40.1491 218.803 40.0491C 220.303 40.1491 221.703 40.5489 223.103 40.8489C 229.803 42.1489 236.603 41.5491 243.303 41.5491C 244.103 41.5491 244.803 41.4488 245.403 42.2488C 250.103 48.6488 255.703 54.1487 260.903 60.1487C 261.203 60.5487 261.503 60.949 261.803 61.449C 261.103 61.949 260.503 61.7488 259.803 61.7488C 249.103 61.4488 238.503 60.8488 227.803 60.7488C 211.203 60.6488 194.703 60.5488 178.103 60.7488C 167.603 60.9488 157.003 61.149 146.503 61.449C 134.103 61.749 121.603 61.6489 109.103 61.8489C 92.7033 62.1489 76.3033 62.4489 59.8033 62.8489C 56.7033 62.9489 53.7033 62.8488 50.7033 62.7488C 40.2033 62.3488 29.8033 61.3487 19.3033 62.1487C 18.1033 62.7487 17.0033 61.6489 15.7033 61.8489C 15.4033 61.8489 15.1033 61.8489 14.8033 61.8489C 13.9033 61.5489 13.1033 62.049 12.2033 61.949C 11.7033 61.949 11.2033 61.7489 10.8033 61.3489C 10.2033 60.4489 9.00329 61.0488 8.30329 60.2488C 11.6033 55.6488 15.0033 51.1491 18.3033 46.5491C 18.8033 45.8491 19.4033 45.9489 20.0033 45.8489C 25.4033 45.7489 30.6033 44.5489 35.9033 43.8489C 30.9033 43.6489 25.9033 43.3487 20.7033 43.1487C 21.9033 41.3487 23.1033 39.5487 24.3033 37.6487C 24.7033 36.9487 25.3033 36.9489 26.0033 36.8489C 35.6033 35.4489 45.3033 34.549 55.0033 33.449C 56.9033 33.249 58.8033 33.0489 60.7033 32.8489C 61.3033 32.4489 62.1033 32.4489 62.5033 32.3489C 62.0033 32.3489 61.2033 32.5489 60.4033 32.3489C 49.5033 32.1489 38.6033 32.4489 27.8033 34.3489C 26.8033 34.5489 25.9033 34.7491 26.5033 33.0491C 27.1033 31.4491 26.5033 30.0489 25.4033 28.8489C 23.9033 27.3489 22.3033 25.7488 20.8033 24.2488C 20.9033 24.0488 21.1033 23.8491 21.2033 23.5491C 31.5033 22.7491 41.9033 21.9487 52.2033 21.1487C 53.5033 20.6487 54.8033 20.6488 55.7033 20.7488C 54.1033 21.0488 52.0033 20.3487 49.9033 20.6487C 39.7033 20.4487 29.5033 20.2491 19.3033 20.0491C 17.6033 20.0491 16.6033 19.3489 15.8033 17.8489C 43.6033 16.2489 71.2033 14.9487 98.8033 14.1487C 101.503 13.5487 104.203 13.949 106.903 13.949C 108.103 14.149 109.203 13.6487 110.303 13.6487C 109.103 13.6487 108.003 14.149 106.803 13.949C 102.903 13.749 99.0033 13.6491 95.1033 13.5491C 86.7033 13.0491 78.4033 13.9488 70.1033 14.2488C 62.2033 14.5488 54.4033 14.949 46.5033 15.449C 36.3033 16.049 26.0033 16.1487 15.8033 17.1487C 15.0033 17.2487 14.5033 16.8489 13.9033 16.3489C 11.8033 14.4489 9.50331 12.6487 7.60331 10.6487C 6.50331 9.44867 5.70331 8.04886 4.00331 7.34886C 3.10331 6.94886 3.4033 5.94906 4.4033 5.54906C 5.1033 5.24906 6.00332 5.34867 6.70332 5.14867C 8.50332 4.54867 10.5033 4.94867 12.3033 4.64867C 14.8033 4.74867 17.3033 4.54877 19.8033 4.74877C 22.5033 4.24877 25.3033 4.74867 28.1033 4.64867C 25.3033 4.74867 22.5033 4.14877 19.8033 4.74877C 16.9033 4.54877 13.9033 4.54877 11.0033 4.74877C 7.90331 5.04877 4.90329 4.14906 1.80329 4.54906C 1.50329 4.54906 1.10329 4.44896 0.803294 4.44896C -0.0967064 4.24896 0.00330579 3.54886 0.00330579 2.84886C 0.00330579 1.94886 0.603312 2.14867 1.10331 2.14867C 11.0033 2.24867 20.8033 1.74896 30.7033 1.44896C 40.1033 1.24896 49.5033 0.749058 58.9033 0.549058C 65.9033 0.349059 72.9033 0.248668 80.0033 0.148668C 101.803 -0.251332 123.603 0.249058 145.403 0.549058C 159.703 0.749058 173.903 0.849058 188.103 2.04906C 198.303 2.84906 208.303 2.34867 218.503 2.14867C 226.803 1.94867 235.203 2.14877 243.503 2.24877C 249.203 2.34877 254.903 3.04877 260.603 2.74877C 259.603 6.04877 258.803 6.74886 255.603 6.84886C 246.703 7.24886 237.703 7.64906 228.803 8.04906C 227.403 8.14906 226.003 8.44906 224.603 8.54906C 224.403 8.64906 224.803 8.84867 224.603 8.64867C 225.503 8.44867 226.303 8.14867 227.203 8.64867C 233.403 8.94867 239.503 10.4489 245.703 10.3489C 246.803 10.3489 248.003 10.6489 247.903 8.84886C 247.903 8.24886 248.503 7.84886 249.203 7.84886C 249.903 7.74886 250.603 8.04906 250.703 8.54906C 251.103 11.1491 252.903 10.1487 254.403 10.1487C 254.603 10.1487 254.803 10.0491 255.003 10.0491C 255.403 10.2491 255.503 10.3488 255.403 10.7488Z"/>
<path id="path1_fill" fill-rule="evenodd" d="M 7.80001 0.362023C 9.20001 -0.637977 10.1 1.56163 11.4 0.961632C 7.59999 1.46163 3.79999 1.96202 -6.10352e-06 1.36202C 0.899994 0.562023 1.89999 0.461632 2.89999 0.461632C 3.39999 0.461632 4.09999 1.06193 4.49999 0.261925C 5.29999 0.561925 6.09999 -0.537977 6.89999 0.362023C 6.99999 0.862023 7.50001 0.561828 7.80001 0.661828C 8.00001 0.761828 8.00001 0.36173 7.80001 0.56173C 7.70001 0.66173 7.80001 0.162023 7.80001 0.362023Z"/>
<path id="path2_fill" fill-rule="evenodd" d="M -1.2207e-05 0.263108C 2.29999 -0.336892 4.49998 0.263206 6.79998 0.363206C 5.29998 0.463206 3.90001 1.06311 2.40001 0.763108C 1.60001 0.163108 0.699988 0.563108 -1.2207e-05 0.263108Z"/>
<path id="path3_fill" fill-rule="evenodd" d="M 3.10001 0.724362C 2.10001 0.824362 1.19998 0.824069 -2.44141e-05 0.424069C 1.69998 0.124069 3.19999 -0.175736 4.69999 0.124264C 4.19999 0.324264 3.70001 0.524362 3.10001 0.724362Z"/>
<path id="path4_fill" fill-rule="evenodd" d="M 0.400024 1.9999C 0.300024 1.8999 0.1 1.7 0 1.6C 0.6 0.9 1.19999 0.199902 2.29999 -9.76563e-05C 1.59999 0.599902 1.00002 1.2999 0.400024 1.9999Z"/>
<path id="path5_fill" fill-rule="evenodd" d="M 2.44141e-05 0.301108C 0.800024 -0.298892 1.59999 0.200913 2.39999 0.100913C 1.79999 0.600913 1.10001 0.901011 0.300012 0.701011C 0.200012 0.501011 0.100024 0.401108 2.44141e-05 0.301108Z"/>
<path id="path6_fill" fill-rule="evenodd" d="M 1.6 0.100098C 1.6 0.400098 2.40001 0.599805 1.70001 0.799805C 1.10001 0.899805 0.399994 0.999805 -6.10352e-06 0.299805C -6.10352e-06 0.199805 -6.10352e-06 0.1 -6.10352e-06 0C 0.499994 0.1 1.1 0.100098 1.6 0.100098Z"/>
<path id="path7_fill" fill-rule="evenodd" d="M 2.10002 0.915275C 1.60002 0.115275 0.599988 0.71547 -1.2207e-05 0.11547C 0.899988 -0.08453 1.69999 0.0154701 2.49999 0.11547C 2.39999 0.41547 2.20002 0.715275 2.10002 0.915275Z"/>
<path id="path8_fill" fill-rule="evenodd" d="M 0.239308 1.4002C -0.160692 0.900195 0.0392712 0.399805 0.139271 -0.000195313C 0.639271 0.299805 0.439308 0.800195 0.239308 1.4002Z"/>
<path id="path9_fill" fill-rule="evenodd" d="M 5.1 0.900195C 3.5 -0.0998047 1.60002 0.799805 2.44141e-05 -0.000195313C 4.50002 0.199805 9.00002 0.399902 13.5 0.599902C 10.7 0.599902 7.9 1.4002 5.1 0.900195Z"/>
<path id="path10_fill" fill-rule="evenodd" d="M 5.9 0.966764C 4 0.0667644 1.89998 0.766569 -2.44141e-05 0.266569C 2.59998 -0.333431 5.20002 0.266569 7.80002 0.266569C 9.70002 0.266569 11.6 0.466862 13.5 0.566862C 13.7 0.666862 13.7 0.766569 13.6 0.766569C 13.5 0.866569 13.5 0.866667 13.4 0.866667C 11 0.966667 8.4 0.966764 5.9 0.966764Z"/>
<path id="path11_fill" fill-rule="evenodd" d="M 13.4 0.400098C 8.89998 0.800098 4.40001 0.400195 1.2207e-05 0.000195313C 4.50001 0.200195 9.00001 -0.100195 13.5 0.0998047C 13.6 0.199805 13.7 0.3 13.6 0.3C 13.5 0.4 13.5 0.400098 13.4 0.400098Z"/>
<path id="path12_fill" fill-rule="evenodd" d="M -2.44141e-05 0.42376C 1.39998 -0.0762396 2.90002 0.423663 4.30002 0.323663C 5.00002 0.223663 5.7 0.623858 6.4 0.0238581C 8.2 -0.0761419 9.89997 0.12376 11.5 0.92376C 7.69998 0.82376 3.79998 0.62376 -2.44141e-05 0.42376Z"/>
<path id="path13_fill" fill-rule="evenodd" d="M 13.1 0.439133C 8.70001 0.639133 4.39998 0.83923 -2.44141e-05 1.03923C 4.39998 0.43923 8.70001 -0.16077 13.1 0.0392305C 13.2 0.13923 13.2 0.239035 13.2 0.339035C 13.2 0.339035 13.2 0.439133 13.1 0.439133Z"/>
<path id="path14_fill" fill-rule="evenodd" d="M 12.9 0.279428C 8.60001 0.379428 4.29999 0.579331 -1.2207e-05 0.679331C 4.19999 0.379331 8.50001 -0.420572 12.9 0.279428Z"/>
<path id="path15_fill" fill-rule="evenodd" d="M 3.09999 0.691956C 2.09999 -0.00804371 1.00001 0.491956 1.2207e-05 0.191956C 3.20001 -0.308044 6.39999 0.291859 9.59999 0.591859C 7.39999 0.591859 5.29999 0.591956 3.09999 0.691956Z"/>
<path id="path16_fill" fill-rule="evenodd" d="M 1.2207e-05 0.348376C 3.10001 -0.451624 6.09999 0.348571 9.09999 0.548571C 6.09999 0.048571 3.00001 1.34838 1.2207e-05 0.348376Z"/>
<path id="path17_fill" fill-rule="evenodd" d="M 0.241434 0.339433C 1.74143 -0.360567 3.2414 0.239335 4.6414 0.239335C 5.5414 0.739335 6.54145 0.139335 7.44145 0.739335C 5.04145 1.23934 2.6414 0.739238 0.141397 0.639238C 0.0413969 0.539237 -0.0585786 0.43953 0.0414214 0.43953C 0.141421 0.43953 0.141434 0.339433 0.241434 0.339433Z"/>
<path id="path18_fill" fill-rule="evenodd" d="M -1.2207e-05 0.648376C -1.2207e-05 0.548376 -1.2207e-05 0.448571 -1.2207e-05 0.348571C 2.79999 -0.451429 5.60001 0.348766 8.30001 0.548766C 5.60001 0.548766 2.79999 0.548376 -1.2207e-05 0.648376Z"/>
<path id="path19_fill" fill-rule="evenodd" d="M 8.40001 -9.76563e-05C 8.00001 0.399902 7.29999 0.200195 6.99999 0.800195C 4.79999 0.300195 2.60001 1.2002 0.400012 0.800195C 1.21891e-05 0.900195 -0.0999756 0.799805 0.100024 0.399805C 2.80002 0.299805 5.60001 0.0999023 8.40001 -9.76563e-05Z"/>
<path id="path20_fill" fill-rule="evenodd" d="M 0.799976 0.666764C 0.499976 0.566764 0.299988 0.366862 -1.2207e-05 0.266862C 2.39999 -0.333138 4.8 0.266862 7.2 0.266862C 7.3 0.366862 7.39998 0.466569 7.29998 0.466569C 7.19998 0.566569 7.20002 0.566667 7.10002 0.566667C 5.00002 0.566667 2.89998 0.666764 0.799976 0.666764Z"/>
<path id="path21_fill" fill-rule="evenodd" d="M 1.2207e-05 0.888791C 1.2207e-05 0.788791 1.2207e-05 0.588889 1.2207e-05 0.488889C 2.50001 0.0888889 5.00001 -0.210916 7.50001 0.189084C 5.10001 0.489084 2.50001 0.688791 1.2207e-05 0.888791Z"/>
<path id="path22_fill" fill-rule="evenodd" d="M 2.59999 0.135195C 3.99999 1.1352 5.8 0.235098 7.3 1.0351C 4.9 0.935098 2.60001 0.834805 1.2207e-05 0.734805C 0.900012 0.0348047 1.69999 -0.164805 2.59999 0.135195Z"/>
<path id="path23_fill" fill-rule="evenodd" d="M 6.49999 0.536437C 4.29999 1.13644 2.19999 0.536241 -1.2207e-05 0.336241C 1.99999 0.536241 3.99999 -0.163563 5.99999 0.0364367C 6.29999 0.236437 6.39999 0.336437 6.49999 0.536437Z"/>
<path id="path24_fill" fill-rule="evenodd" d="M 6.69999 0.299902C 4.49999 0.999902 2.29998 0.400195 -2.44141e-05 0.100195C 2.19998 0.100195 4.49999 9.76563e-05 6.69999 9.76563e-05C 6.79999 0.100098 6.80002 0.199805 6.80002 0.199805L 6.69999 0.299902Z"/>
<path id="path25_fill" fill-rule="evenodd" d="M 7.40001 0.499805C 4.90001 0.399805 2.49999 0.3 -1.2207e-05 0.2C -1.2207e-05 0.1 -1.2207e-05 0.0998047 -1.2207e-05 -0.000195313C 2.49999 0.0998047 4.90001 0.200098 7.40001 0.300098C 7.40001 0.400098 7.40001 0.399805 7.40001 0.499805Z"/>
<path id="path26_fill" fill-rule="evenodd" d="M 4.00001 -0.000195313C 4.50001 0.599805 5.30001 0.199805 6.00001 0.499805C 4.00001 0.999805 2.00001 0.600098 1.2207e-05 0.300098C 1.30001 0.100098 2.60001 0.0998047 4.00001 -0.000195313Z"/>
<path id="path27_fill" fill-rule="evenodd" d="M 5.99998 0C 5.99998 0.1 5.99998 0.199805 5.99998 0.299805C 3.99998 0.999805 1.99998 0.399805 -2.44141e-05 0.299805C 1.99998 0.299805 3.99998 0.1 5.99998 0Z"/>
<path id="path28_fill" fill-rule="evenodd" d="M 1.2207e-05 0.225932C 1.60001 -0.274068 3.20001 0.226322 5.00001 0.126322C 3.90001 1.12632 2.90001 0.725932 1.90001 0.725932C 1.40001 0.325932 0.500012 0.925932 1.2207e-05 0.225932Z"/>
<path id="path29_fill" fill-rule="evenodd" d="M 0.0999756 -0.000195313C 2.49998 0.0998047 4.80001 0.200098 7.20001 0.300098C 7.20001 0.400098 7.20001 0.499902 7.20001 0.599902C 4.80001 0.499902 2.49998 0.400098 0.0999756 0.300098C -2.44156e-05 0.200098 0 0.0999023 0 0.0999023L 0.0999756 -0.000195313Z"/>
<path id="path30_fill" fill-rule="evenodd" d="M 4.80001 0.3C 3.20001 1.1 1.60002 0.399902 2.44141e-05 0.199902C 1.60002 0.0999023 3.20001 0.000195313 4.80001 0.000195313C 4.90001 0.100195 4.89999 0.2 4.89999 0.3L 4.80001 0.3Z"/>
<path id="path31_fill" fill-rule="evenodd" d="M 5.70001 0.399902C 3.90001 0.999902 2.00001 1.0999 0.100006 0.899902C 6.10203e-06 0.799902 0 0.700098 0 0.600098C 0 0.500098 0.100006 0.5 0.100006 0.5C 2.00001 0.3 3.80001 0.2 5.70001 9.09495e-13C 5.80001 0.1 5.79999 0.200195 5.79999 0.200195C 5.79999 0.400195 5.70001 0.399902 5.70001 0.399902Z"/>
<path id="path32_fill" fill-rule="evenodd" d="M -1.2207e-05 -0.000195313C 1.89999 0.0998047 3.89998 0.200098 5.79998 0.300098C 5.79998 0.400098 5.79998 0.399805 5.79998 0.499805C 3.89998 0.399805 1.89999 0.3 -1.2207e-05 0.2C -1.2207e-05 0.1 -1.2207e-05 -0.000195313 -1.2207e-05 -0.000195313Z"/>
<path id="path33_fill" fill-rule="evenodd" d="M 4.10001 0.480766C 3.00001 1.08077 1.90002 0.680962 0.800024 0.680962C 0.600024 0.480962 0.199976 0.580571 -2.44141e-05 0.280571C 1.19998 -0.219429 2.39999 0.0809617 3.69999 0.180962C 3.89999 0.180962 4.00001 0.280766 4.10001 0.480766Z"/>
<path id="path34_fill" fill-rule="evenodd" d="M 3.60002 0.199902C 3.80002 0.399902 4.09998 0.700098 4.29998 0.900098C 2.79998 1.1001 1.39999 0.600195 -1.2207e-05 0.000195313C 1.29999 0.100195 2.40002 0.199902 3.60002 0.199902Z"/>
<path id="path35_fill" fill-rule="evenodd" d="M 4 0.000195313C 4.2 0.100195 4.50001 0.300098 4.70001 0.400098C 3.10001 1.0001 1.5 0.599902 0 0.199902C 1.3 0.199902 2.6 0.100195 4 0.000195313Z"/>
<path id="path36_fill" fill-rule="evenodd" d="M -1.2207e-05 0.310966C 1.59999 -0.289034 3.19998 0.111063 4.79998 0.411063C 3.49998 0.511063 2.09998 0.611356 0.799976 0.711356C 0.599976 0.511356 0.0999878 0.710966 -1.2207e-05 0.310966Z"/>
<path id="path37_fill" fill-rule="evenodd" d="M 6.10352e-06 0.380251C 1.50001 0.380251 2.9 -0.319945 4.4 0.180055C 2.8 0.780055 1.40001 0.980251 6.10352e-06 0.380251Z"/>
<path id="path38_fill" fill-rule="evenodd" d="M 2.44141e-05 0.000195313C 1.70002 0.100195 3.30002 0.199902 5.00002 0.199902C 5.00002 0.299902 5.00002 0.300098 5.00002 0.400098C 3.30002 0.300098 1.70002 0.299902 2.44141e-05 0.199902C 2.44141e-05 0.199902 2.44141e-05 0.100195 2.44141e-05 0.000195313Z"/>
<path id="path39_fill" fill-rule="evenodd" d="M 4.9 0.300195C 3.3 1.0002 1.70001 0.499902 0.100012 0.499902C 1.22041e-05 0.399902 -2.44141e-05 0.300195 -2.44141e-05 0.300195C -2.44141e-05 0.200195 0.100012 0.200098 0.100012 0.200098C 1.70001 0.100098 3.3 0.0999023 4.9 -9.76563e-05C 5 0.0999023 4.99998 0.200098 4.99998 0.200098C 4.99998 0.300098 5 0.300195 4.9 0.300195Z"/>
<path id="path40_fill" fill-rule="evenodd" d="M 4.2 0C 4.2 0.1 4.20002 0.299902 4.10002 0.399902C 2.80002 1.0999 1.40002 0.600098 0.100024 0.600098C 2.44156e-05 0.500098 -1.2207e-05 0.399805 -1.2207e-05 0.299805C -1.2207e-05 0.199805 0.100024 0.200195 0.100024 0.200195C 1.50002 0.100195 2.9 0 4.2 0Z"/>
<path id="path41_fill" fill-rule="evenodd" d="M 3.09998 0.0624509C 3.29998 0.162451 3.59999 0.362842 3.79999 0.462842C 2.69999 1.06284 1.5 0.562549 -1.13687e-13 0.662549C 1.3 0.162549 2.19998 -0.137549 3.09998 0.0624509Z"/>
<path id="path42_fill" fill-rule="evenodd" d="M 0.0999756 0.330417C 0.999976 -0.269583 2.00002 0.13071 2.90002 0.13071C 3.00002 0.23071 3.1 0.330515 3 0.430515C 2.9 0.530515 2.90002 0.530612 2.90002 0.530612C 2.00002 1.13061 0.999976 0.830808 0.0999756 0.730808C -2.44156e-05 0.630808 0 0.530515 0 0.430515C 0 0.330515 -2.44156e-05 0.330417 0.0999756 0.330417Z"/>
<path id="path43_fill" fill-rule="evenodd" d="M 0.831842 9.76563e-05C 2.13184 0.100098 3.43184 0.0998047 4.73184 0.199805C 4.73184 0.299805 4.73184 0.4 4.73184 0.4C 3.13184 0.5 1.63182 0.599805 0.0318239 0.699805C -0.168176 -0.000195324 0.631842 0.400098 0.831842 9.76563e-05Z"/>
<path id="path44_fill" fill-rule="evenodd" d="M 3.29998 0C 3.39998 0.1 3.50002 0.299902 3.60002 0.399902C 2.40002 0.999902 1.19999 0.599805 -1.2207e-05 0.299805C 1.19999 0.199805 2.19998 0.1 3.29998 0Z"/>
<path id="path45_fill" fill-rule="evenodd" d="M -1.2207e-05 0.600098C -1.2207e-05 0.500098 -1.2207e-05 0.399805 -1.2207e-05 0.299805C 1.29999 -0.100195 2.69999 -0.100195 3.99999 0.299805C 2.69999 0.399805 1.39999 0.500098 -1.2207e-05 0.600098Z"/>
<path id="path46_fill" fill-rule="evenodd" d="M 0.100024 0.346215C 1.30002 -0.253785 2.5 0.0462148 3.7 0.346215C 2.5 0.446215 1.30002 0.546508 0.100024 0.646508C 2.44156e-05 0.546508 -1.2207e-05 0.446215 -1.2207e-05 0.346215C -1.2207e-05 0.446215 0.100024 0.346215 0.100024 0.346215Z"/>
<path id="path47_fill" fill-rule="evenodd" d="M 0 0.64641C 0 0.54641 0 0.446605 0 0.346605C 1.2 -0.253395 2.39998 0.0466055 3.59998 0.346605C 2.39998 0.446605 1.2 0.54641 0 0.64641Z"/>
<path id="path48_fill" fill-rule="evenodd" d="M 3.6 0.000195313C 3.6 0.100195 3.6 0.200098 3.6 0.400098C 2.4 1.2001 1.20002 0.500098 2.44141e-05 0.400098C 1.20002 0.200098 2.4 0.100195 3.6 0.000195313Z"/>
<path id="path49_fill" fill-rule="evenodd" d="M -2.44141e-05 0.000195313C 1.19998 0.100195 2.29998 0.0999023 3.49998 0.199902C 2.29998 0.499902 1.09998 0.400195 -2.44141e-05 0.000195313Z"/>
<path id="path50_fill" fill-rule="evenodd" d="M 3.19999 0C 3.19999 0.1 3.19999 0.199805 3.19999 0.299805C 2.19999 1.0998 1.09998 0.499902 -2.44141e-05 0.399902C 1.09998 0.299902 2.09999 0.2 3.19999 0Z"/>
<path id="path51_fill" fill-rule="evenodd" d="M 3.00001 0.0544108C 3.00001 0.154411 3.00001 0.254704 3.00001 0.354704C 2.10001 0.854704 1.10001 0.854313 1.2207e-05 0.454313C 1.10001 0.254313 2.00001 -0.145589 3.00001 0.0544108Z"/>
<path id="path52_fill" fill-rule="evenodd" d="M 0 0.598962C 0 0.498962 0 0.399157 0 0.299157C 1.1 0.299157 2.10002 -0.30094 3.40002 0.19906C 2.20002 0.49906 1.1 0.798962 0 0.598962Z"/>
<path id="path53_fill" fill-rule="evenodd" d="M 2.89998 -0.000195313C 2.99998 0.0998047 3.10002 0.300195 3.20002 0.400195C 2.20002 1.1002 1.10001 0.600195 1.2207e-05 0.400195C 1.00001 0.200195 1.99998 0.0998047 2.89998 -0.000195313Z"/>
<path id="path54_fill" fill-rule="evenodd" d="M 3.20001 0C 3.20001 0.1 3.20001 0.199902 3.20001 0.399902C 2.20001 1.0999 1.09999 0.600098 -6.10352e-06 0.600098C 0.999994 9.76324e-05 2.20001 0.4 3.20001 0Z"/>
<path id="path55_fill" fill-rule="evenodd" d="M 0 0.709701C 0 0.609701 0.0999756 0.509896 0.0999756 0.409896C 0.999976 -0.390104 2.00002 0.209799 2.90002 0.309799C 1.90002 0.409799 1 0.609701 0 0.709701Z"/>
<path id="path56_fill" fill-rule="evenodd" d="M 2.30001 0.0457323C 2.30001 0.245732 2.30001 0.545928 2.30001 0.745928C 1.50001 0.745928 0.800024 0.64583 2.44141e-05 0.64583C 0.700024 0.34583 1.40001 -0.154268 2.30001 0.0457323Z"/>
<path id="path57_fill" fill-rule="evenodd" d="M 2.10002 -0.000195313C 2.20002 0.0998047 2.30001 0.200195 2.40001 0.400195C 1.70001 1.1002 0.799988 0.600195 -1.2207e-05 0.400195C 0.699988 0.200195 1.40002 0.0998047 2.10002 -0.000195313Z"/>
<path id="path58_fill" fill-rule="evenodd" d="M 3.1 0.0894427C 3.1 0.189443 3.1 0.289247 3.1 0.389247C 2.1 0.389247 1.00002 0.289638 2.44141e-05 0.289638C 1.00002 -0.110362 2 -0.0105573 3.1 0.0894427Z"/>
<path id="path59_fill" fill-rule="evenodd" d="M 1.2207e-05 0.63834C 1.2207e-05 0.53834 1.2207e-05 0.438535 1.2207e-05 0.338535C 0.900012 -0.161465 1.9 -0.0614647 2.8 0.338535C 1.9 0.438535 0.900012 0.53834 1.2207e-05 0.63834Z"/>
<path id="path60_fill" fill-rule="evenodd" d="M 1.2207e-05 0.696428C 1.2207e-05 0.596428 -1.22115e-05 0.496135 0.0999878 0.396135C 0.899988 -0.303865 1.70001 0.0960376 3.00001 0.296038C 1.70001 0.496038 0.800012 0.596428 1.2207e-05 0.696428Z"/>
<path id="path61_fill" fill-rule="evenodd" d="M 2.44141e-05 0.3C 2.44141e-05 0.2 2.44141e-05 0.100195 2.44141e-05 0.000195313C 0.900024 0.000195313 1.79998 0.0998047 2.69998 0.0998047C 1.79998 0.499805 0.900024 0.4 2.44141e-05 0.3Z"/>
<path id="path62_fill" fill-rule="evenodd" d="M 1.2207e-05 0.000195313C 0.600012 0.100195 1.20002 0.0999023 2.20002 0.199902C 1.10002 0.499902 0.500012 0.500195 1.2207e-05 0.000195313Z"/>
<path id="path63_fill" fill-rule="evenodd" d="M 2.44141e-05 0.189339C 1.00002 -0.110661 1.70001 -0.0106609 2.80001 0.189339C 1.60001 0.489339 1.00002 0.389339 2.44141e-05 0.189339Z"/>
<path id="path64_fill" fill-rule="evenodd" d="M -2.44141e-05 0.300098C -2.44141e-05 0.200098 -2.44141e-05 0.0998047 -2.44141e-05 -0.000195313C 0.799976 -0.000195313 1.50002 0.0999023 2.30002 0.0999023C 2.30002 0.199902 2.30002 0.300195 2.30002 0.400195C 1.60002 0.300195 0.799976 0.300098 -2.44141e-05 0.300098Z"/>
<path id="path65_fill" fill-rule="evenodd" d="M 1.10001 0.100195C 1.30001 0.100195 1.60001 0.199805 2.00001 0.199805C 1.30001 0.699805 0.700012 0.4 0.100012 0.4L 6.10352e-06 0.299902C 0.100006 0.199902 0.3 0.100098 0.4 9.76563e-05C 0.6 0.100098 0.800012 0.100195 1.10001 0.100195Z"/>
<path id="path66_fill" fill-rule="evenodd" d="M -2.44141e-05 9.76563e-05C 0.699976 9.76563e-05 1.4 0.100195 2.4 0.100195C 1.4 0.500195 0.699976 0.299902 -2.44141e-05 0.299902C -2.44141e-05 0.199902 -2.44141e-05 0.100098 -2.44141e-05 9.76563e-05Z"/>
<path id="path67_fill" fill-rule="evenodd" d="M 2.20002 0.0894515C 2.20002 0.189452 2.20002 0.289256 2.20002 0.389256C 1.60002 0.389256 0.900012 0.289159 1.2207e-05 0.289159C 0.900012 -0.210841 1.60002 0.0894515 2.20002 0.0894515Z"/>
<path id="path68_fill" fill-rule="evenodd" d="M 1.89999 0.100195C 1.29999 0.800195 0.6 0.300098 0 9.76563e-05C 0.6 9.76563e-05 1.29999 0.00019531 1.89999 0.100195Z"/>
<path id="path69_fill" fill-rule="evenodd" d="M 1.89999 0.0998047C 1.89999 0.199805 1.89999 0.300098 1.89999 0.400098C 1.29999 0.400098 0.600024 0.3 2.44141e-05 0.3C 2.44141e-05 0.2 2.44141e-05 0.100195 2.44141e-05 0.000195313C 0.500024 0.000195313 1.19999 0.0998047 1.89999 0.0998047Z"/>
<path id="path70_fill" fill-rule="evenodd" d="M 0.645915 0C 0.845915 0.1 1.14593 0.299902 1.34593 0.399902C 0.845928 0.799902 0.34594 0.899902 0.0459398 0.399902C -0.15406 -9.76622e-05 0.345915 0 0.645915 0Z"/>
<path id="path71_fill" fill-rule="evenodd" d="M 1.90001 0.0998047C 1.90001 0.199805 1.90001 0.300098 1.90001 0.400098C 1.30001 0.400098 0.599988 0.3 -1.2207e-05 0.3C -1.2207e-05 0.2 -1.2207e-05 0.100195 -1.2207e-05 0.000195313C 0.599988 0.000195313 1.30001 0.0998047 1.90001 0.0998047Z"/>
<path id="path72_fill" fill-rule="evenodd" d="M 1.61112 9.76563e-05C 1.31112 0.200098 1.0111 0.499805 0.811104 0.699805C 0.511104 0.699805 -0.0888841 0.600098 0.0111159 0.500098C 0.311116 9.76324e-05 1.01112 9.76563e-05 1.61112 9.76563e-05Z"/>
<path id="path73_fill" fill-rule="evenodd" d="M 2.1 0.139491C 2.1 0.239491 2.1 0.339296 2.1 0.439296C 1.4 0.439296 0.700024 0.5391 2.44141e-05 0.2391C 0.700024 -0.1609 1.4 0.0394909 2.1 0.139491Z"/>
<path id="path74_fill" fill-rule="evenodd" d="M -1.2207e-05 0.339506C -1.2207e-05 0.239506 -1.2207e-05 0.139701 -1.2207e-05 0.0397015C 0.599988 0.0397015 1.10002 -0.160494 1.60002 0.339506C 1.10002 0.639506 0.599988 0.439506 -1.2207e-05 0.339506Z"/>
<path id="path75_fill" fill-rule="evenodd" d="M -1.2207e-05 0.300098C -1.2207e-05 0.200098 -1.2207e-05 0.0998047 -1.2207e-05 -0.000195313C 0.599988 -0.000195313 1.10001 -9.76548e-05 1.90001 0.0999023C 1.10001 0.599902 0.499988 0.400098 -1.2207e-05 0.300098Z"/>
<path id="path76_fill" d="M 12.096 43L 2.4 43L 2.4 8.92L 5.952 8.92L 5.952 37.96L 6.672 39.064L 12.096 39.688L 12.096 43ZM 19.6373 43C 18.3253 43 17.4133 42.792 16.9013 42.376C 16.3893 41.96 16.1333 41.272 16.1333 40.312L 16.1333 10.072C 16.8373 9.688 17.7492 9.4 18.8693 9.208C 20.0213 9.016 21.5412 8.92 23.4292 8.92C 24.2933 8.92 24.9972 9.144 25.5412 9.592C 26.0852 10.008 26.3573 10.552 26.3573 11.224L 26.0213 43L 19.6373 43ZM 22.6133 40.264L 23.0452 39.832L 23.3332 12.424C 23.3332 12.264 23.1893 12.168 22.9013 12.136L 19.9252 11.992L 19.4932 12.28L 19.2052 39.976L 22.6133 40.264ZM 42.8464 43L 35.9824 43C 34.3504 43 33.1344 42.728 32.3344 42.184C 31.5344 41.608 31.1344 40.888 31.1344 40.024L 31.1344 11.608C 31.1344 10.84 31.4704 10.2 32.1424 9.688C 32.8144 9.176 33.7584 8.92 34.9744 8.92L 42.8464 8.92L 42.8464 11.608L 42.0784 17.608L 38.9104 17.608L 38.4304 12.184C 38.4304 11.896 38.2384 11.752 37.8544 11.752L 35.8384 11.752C 35.2304 11.752 34.7824 12.008 34.4944 12.52C 34.2384 13 34.1104 13.544 34.1104 14.152C 34.1104 14.504 34.1584 14.712 34.2544 14.776L 35.2144 38.728C 35.1184 38.76 35.0704 38.808 35.0704 38.872C 35.0704 38.968 35.2144 39.016 35.5024 39.016L 38.3344 39.016C 38.7184 39.016 38.9104 38.92 38.9104 38.728L 39.8704 34.984L 42.8464 34.984L 42.8464 43ZM 56.9576 43L 54.1736 43L 52.9256 29.656L 50.4776 29.656L 48.2696 43L 46.0136 43L 48.1736 8.92L 56.9576 8.92L 56.9576 43ZM 53.9336 10.744C 53.9336 10.552 53.8376 10.456 53.6456 10.456L 51.5816 10.456C 51.3896 10.456 51.2936 10.552 51.2936 10.744L 51.2936 27.16C 51.2936 27.32 51.3896 27.4 51.5816 27.4L 53.6456 27.4C 53.8376 27.4 53.9336 27.304 53.9336 27.112L 53.9336 10.744ZM 71.4398 43L 61.7437 43L 61.7437 8.92L 65.2957 8.92L 65.2957 37.96L 66.0157 39.064L 71.4398 39.688L 71.4398 43Z"/>
<path id="path77_fill" d="M 13.3 -0.000195313C 5.90002 -0.000195313 -2.44141e-05 6.0001 -2.44141e-05 13.3001C -2.44141e-05 20.7001 13.3 37.8001 13.3 37.8001C 13.3 37.8001 26.6 20.6001 26.6 13.3001C 26.7 6.0001 20.7 -0.000195313 13.3 -0.000195313ZM 13.3 18.9998C 10.4 18.9998 7.99998 16.6 7.99998 13.7C 7.99998 10.8 10.4 8.4002 13.3 8.4002C 16.2 8.4002 18.6 10.8 18.6 13.7C 18.6 16.6 16.2 18.9998 13.3 18.9998Z"/>
<path id="path78_fill" d="M 9.09998 9.74454C 9.09998 9.74454 9.39999 9.54435 9.79999 9.04435C 10.2 8.64435 10.6 7.94454 10.8 7.24454C 10.9 6.84454 11 6.54444 11 6.14444C 11 5.94444 11 5.84444 11 5.64444C 11 5.44444 11 5.34444 11 5.14444C 11 4.54444 10.9 4.14444 10.9 4.14444C 10.9 4.14444 10.7 3.04454 10 2.24454C 9.7 1.84454 9.3 1.44444 9 1.14444C 8.7 0.944444 8.5 0.744542 8.5 0.744542C 8.5 0.744542 7.5 0.144347 6.5 0.0443468C 5.9 -0.0556532 5.4 0.0443468 5 0.0443468C 4.6 0.144347 4.40002 0.144444 4.40002 0.144444C 4.40002 0.144444 4.20002 0.144542 3.90002 0.244542C 3.60002 0.344542 3.19999 0.444542 2.79999 0.744542C 1.99999 1.14454 1.40002 1.84464 1.40002 1.84464C 1.40002 1.84464 0.9 2.44444 0.5 3.14444C 0.1 3.84444 -1.13687e-13 4.64444 -1.13687e-13 4.64444C -1.13687e-13 4.64444 -1.13687e-13 4.74425 -1.13687e-13 4.94425C -1.13687e-13 5.14425 -2.44156e-05 5.34444 0.0999756 5.64444C 0.199976 6.14444 0.299988 6.64444 0.299988 6.64444C 0.299988 6.64444 0.3 7.14444 0.5 7.64444C 0.6 8.14444 0.900024 8.54435 0.900024 8.54435C 0.900024 8.54435 0.9 8.64454 1 8.74454C 1.1 8.84454 1.20002 9.04454 1.40002 9.24454C 1.70002 9.64454 2.29999 10.0446 2.79999 10.3446C 3.39999 10.6446 4 10.8442 4.5 10.9442C 4.8 10.9442 4.99998 11.0443 5.09998 11.0443C 5.19998 11.0443 5.29999 11.0443 5.29999 11.0443C 5.29999 11.0443 5.2 11.0443 5 11.0443C 4.8 11.0443 4.60001 10.9446 4.20001 10.8446C 3.60001 10.6446 2.80001 10.3445 2.20001 9.74454C 1.60001 9.24454 1.10002 8.54425 0.900024 7.94425C 0.800024 7.64425 0.700012 7.44454 0.700012 7.24454C 0.700012 7.04454 0.599976 6.94425 0.599976 6.94425C 0.599976 6.94425 0.599976 6.84454 0.599976 6.74454C 0.599976 6.64454 0.5 6.44454 0.5 6.24454C 0.4 5.84454 0.4 5.24444 0.5 4.64444C 0.6 4.14444 0.8 3.54444 1 3.14444C 1.2 2.74444 1.40002 2.54435 1.40002 2.54435C 1.40002 2.54435 1.6 2.24464 2 1.84464C 2.4 1.44464 2.99999 0.944542 3.79999 0.744542C 4.49999 0.444542 5.30002 0.344249 5.90002 0.444249C 6.50002 0.444249 6.90002 0.644444 6.90002 0.644444C 6.90002 0.644444 7.1 0.74464 7.5 0.84464C 7.9 0.94464 8.29999 1.24435 8.79999 1.54435C 9.19999 1.84435 9.60002 2.24435 9.90002 2.54435C 10.1 2.84435 10.3 3.14444 10.3 3.14444C 10.3 3.14444 10.7 4.14444 10.7 5.14444C 10.7 6.14444 10.3 7.04435 10.3 7.04435C 10.3 7.04435 10.2 7.44425 9.90002 7.94425C 9.60002 8.44425 9.1 9.14444 8.5 9.64444C 7.9 10.1444 7.1 10.4444 6.5 10.6444C 6.2 10.7444 5.89999 10.7445 5.79999 10.7445C 5.59999 10.7445 5.5 10.7445 5.5 10.7445C 5.5 10.7445 5.7 10.7445 6 10.7445C 6.3 10.7445 6.80001 10.7443 7.20001 10.5443C 8.10001 10.3443 8.79999 9.84464 8.79999 9.84464"/>
<path id="path79_fill" d="M 23.8 5.0998C 23.8 5.0998 23.8 5.0999 23.9 5.1999C 24 5.2999 24.1 5.39981 24.2 5.5998C 24.5 5.9998 24.8 6.4998 25.2 7.0998C 25.9 8.39981 26.6 10.4 26.7 12.3L 26.7 13.0998L 26.7 13.3C 26.7 13.3 26.7 13.4 26.7 13.3L 26.7 13.4001L 26.7 13.6999C 26.6 14.1999 26.6 14.5998 26.5 15.0998C 26.3 15.9998 26 16.7998 25.7 17.5998C 25.1 18.9998 24.6 20.0002 24.6 20.0002C 24.6 20.0002 24.3 20.5998 23.8 21.5998C 23.3 22.5998 22.6 23.7998 21.9 25.0998C 20.4 27.5998 18.8 30.0002 18.8 30.0002C 17.3 32.6002 15.7 35.0998 14 37.5998L 15 37.5998C 14.3 36.7998 13.6 35.9999 13 35.1999C 13 35.1999 11.6 33.1998 10.2 31.0998C 8.80001 28.9998 7.59998 26.9001 7.59998 26.9001C 7.59998 26.9001 6.39999 25.0002 5.29999 23.0002C 4.69999 22.0002 4.30002 21 3.90002 20.3C 3.50002 19.5 3.29999 19.0002 3.29999 19.0002C 3.29999 19.0002 3.09999 18.6999 2.79999 18.1999C 2.59999 17.6999 2.20002 17.1001 1.90002 16.4001C 1.70002 15.7001 1.30001 15.1002 1.20001 14.5002C 1.10001 14.0002 1 13.5998 1 13.5998C 1 13.5998 1 13.5 1 13.3C 1 13.1 1.09998 12.8998 1.09998 12.5998C 1.19998 12.0998 1.39998 11.2999 1.59998 10.6999C 1.89998 9.9999 2.10002 9.4001 2.40002 8.9001C 2.50002 8.7001 2.60001 8.5 2.70001 8.3C 2.80001 8.2 2.79999 8.0998 2.79999 8.0998C 2.79999 8.0998 2.89998 7.9002 3.09998 7.5002C 3.29998 7.1002 3.60002 6.6998 3.90002 6.0998C 4.70002 4.9998 5.9 3.5998 7.5 2.5998C 9 1.5998 10.8 1 12.1 0.8C 12.4 0.7 12.7 0.699902 13 0.699902C 13.3 0.699902 13.5 0.699902 13.8 0.699902C 14.2 0.699902 14.5 0.699902 14.5 0.699902C 14.5 0.699902 14.2 0.699902 13.6 0.699902C 13.3 0.699902 13 0.699902 12.6 0.699902C 12.2 0.699902 11.8 0.7 11.4 0.8C 9.60002 1 7.20001 1.9001 5.20001 3.4001C 3.10001 4.9001 1.70002 7.2002 0.900024 9.0002C 0.500024 9.9002 0.300012 10.7 0.200012 11.3C 0.100012 11.9 2.27374e-13 12.1999 2.27374e-13 12.1999C 2.27374e-13 12.1999 2.27374e-13 12.4001 2.27374e-13 12.9001C 2.27374e-13 13.0001 2.27374e-13 13.1 2.27374e-13 13.3L 2.27374e-13 13.4001L 2.27374e-13 13.5002L 2.27374e-13 13.5998C 2.27374e-13 13.6998 2.27374e-13 13.7 2.27374e-13 13.8C 2.27374e-13 14.1 0.0999756 14.3999 0.0999756 14.6999C 0.0999756 14.9999 0.199988 15.4001 0.299988 15.9001C 0.399988 16.3001 0.500012 16.7999 0.700012 17.1999C 1.00001 17.9999 1.30001 18.9 1.70001 19.8C 2.40001 21.5 3.3 23.1 4 24.3C 4.3 24.9 4.59999 25.3999 4.79999 25.6999C 4.99999 25.9999 5.09998 26.1999 5.09998 26.1999C 7.79998 30.3999 10.7 34.5001 13.9 38.4001L 14.5 39.1999L 15 38.4001C 15.9 37.2001 16.8 35.8999 17.6 34.6999C 17.6 34.6999 19.3 31.9999 20.8 29.1999C 21.6 27.7999 22.3 26.4001 22.8 25.4001C 23.3 24.3001 23.7 23.5998 23.7 23.5998C 23.7 23.5998 24.1 23.0002 24.7 22.0002C 25 21.5002 25.3 20.9 25.7 20.3C 26 19.7 26.4 19 26.8 18.3C 27.5 16.9 28.1 15.4999 28.3 14.1999C 28.4 13.8999 28.4 13.6001 28.4 13.4001C 28.4 13.2001 28.4 12.9 28.4 12.8C 28.4 12.5 28.4 12.3 28.4 12.3C 28.4 12.3 28.4 12.1998 28.4 12.0998C 28.4 11.9998 28.3 11.7001 28.3 11.4001C 28.2 10.8001 28 9.9998 27.7 9.0998C 27 7.2998 25.7 5 23.7 3.3C 21.8 1.6 19.3 0.6 17.5 0.3C 17 0.2 16.6 0.199805 16.2 0.0998047C 15.8 -0.000195317 15.5 0.000195313 15.2 0.000195313C 14.7 0.000195313 14.3 0.000195313 14.3 0.000195313C 14.3 0.000195313 14.5 -0.000195317 14.7 0.0998047C 15 0.0998047 15.4 0.2 15.9 0.3C 16.9 0.5 18.1 0.900195 19.2 1.5002C 20.3 2.1002 21.3 2.8002 22 3.5002C 22.4 3.8002 22.6 4.1 22.8 4.3C 23 4.5 23.1 4.5998 23.1 4.5998"/>
</defs>
</svg>
