<svg width="72" height="72" viewBox="0 0 72 72" version="1.1" xmlns="http://www.w3.org/2000/svg" xmlns:xlink="http://www.w3.org/1999/xlink">
<title>twitter</title>
<desc>Created using Figma</desc>
<g id="Canvas" transform="translate(3157 -2629)">
<g id="twitter">
<g id="Group">
<g id="Vector">
<use xlink:href="#path0_fill" transform="translate(-3154.4 2631.3)" fill="#00C7FF"/>
</g>
<g id="Group">
<g id="Group">
<g id="Vector">
<use xlink:href="#path1_fill" transform="translate(-3156.24 2629.1)" fill="#1DCDFF"/>
</g>
</g>
</g>
</g>
<g id="Vector">
<use xlink:href="#path2_fill" transform="translate(-3134.4 2653.22)" fill="#FFFFFF"/>
</g>
</g>
</g>
<defs>
<path id="path0_fill" d="M 34.3 68.5999C 53.2434 68.5999 68.6 53.2435 68.6 34.3001C 68.6 15.3567 53.2434 -0.000195313 34.3 -0.000195313C 15.3567 -0.000195313 -2.44141e-05 15.3567 -2.44141e-05 34.3001C -2.44141e-05 53.2435 15.3567 68.5999 34.3 68.5999Z"/>
<path id="path1_fill" d="M 63.1445 12.7999C 63.1445 12.7999 62.7444 12.3001 62.0444 11.5001C 61.7444 11.1001 61.2445 10.6002 60.6445 10.1002C 60.0445 9.60019 59.5444 9 58.7444 8.4C 55.9444 6 51.6445 3.2999 46.9445 1.7999C 45.7445 1.4999 44.5444 1.0999 43.3444 0.799902C 42.1444 0.599902 40.8445 0.399805 39.6445 0.199805C 38.5445 0.0998047 37.4445 9.76563e-05 36.4445 9.76563e-05L 36.2444 9.76563e-05L 36.1445 9.76563e-05L 35.9445 9.76563e-05L 35.5444 9.76563e-05C 35.2444 9.76563e-05 35.0444 9.76563e-05 34.7444 9.76563e-05C 34.2444 9.76563e-05 33.7444 9.76563e-05 33.2444 9.76563e-05C 32.3444 9.76563e-05 31.4445 0.0998047 30.6445 0.199805C 29.8445 0.299805 29.2445 0.400098 28.6445 0.500098C 27.5445 0.700098 26.9445 0.9 26.9445 0.9C 26.9445 0.9 26.5444 0.999805 25.8444 1.1998C 25.1444 1.3998 24.1444 1.6998 22.8444 2.1998C 21.6444 2.5998 20.2444 3.3001 18.8444 4.0001C 18.1444 4.3001 17.4445 4.7998 16.6445 5.1998C 15.9445 5.5998 15.1444 6.1002 14.5444 6.6002C 13.8444 7.1002 13.1445 7.60019 12.4445 8.10019C 11.8445 8.7002 11.2445 9.1999 10.6445 9.7999C 10.3445 10.0999 10.0444 10.3002 9.74444 10.6002C 9.44444 10.9002 9.24446 11.2 8.94446 11.4C 8.44446 11.9 7.94443 12.5 7.54443 12.9C 6.74443 13.9 6.14447 14.8 5.64447 15.4C 5.44447 15.7 5.24447 15.9002 5.14447 16.1002C 5.04447 16.3002 4.94446 16.4 4.94446 16.4C 4.94446 16.4 4.74442 16.8001 4.34442 17.5001C 4.14442 17.8001 3.94447 18.2998 3.64447 18.6998C 3.34447 19.1998 3.14446 19.8 2.94446 20.4C 2.64446 21 2.44447 21.7 2.14447 22.4C 1.94447 23.1 1.64446 23.8998 1.44446 24.6998C 1.14446 25.4998 1.04442 26.2998 0.84442 27.1998C 0.74442 28.0998 0.44442 28.8999 0.34442 29.7999C 0.24442 30.6999 0.144432 31.6001 0.0444322 32.5001C -0.0555678 33.4001 0.0444322 34.1 0.0444322 34.9C 0.0444322 35.3 0.0444322 35.7002 0.0444322 36.1002L 0.0444322 36.4L 0.0444322 36.5001L 0.0444322 36.6002L 0.0444322 36.6998C 0.0444322 36.8998 0.0444689 37.0999 0.144469 37.2999C 0.244469 37.9999 0.34442 38.7 0.34442 39.4C 0.34442 40 0.544469 40.6002 0.644469 41.1002C 0.744469 41.6002 0.844457 42.1 0.944457 42.4C 1.14446 43.1 1.14447 43.6002 1.14447 43.6002C 1.14447 43.6002 1.44446 45.0001 1.94446 47.0001C 2.24446 48.0001 2.64447 49.2 3.14447 50.4C 3.44447 51 3.74446 51.5998 3.94446 52.1998C 4.24446 52.7998 4.54442 53.5002 4.84442 54.1002C 5.54442 55.3002 6.24443 56.5002 7.04443 57.6002C 7.44443 58.1002 7.84447 58.7002 8.14447 59.1002C 8.54447 59.6002 8.94444 60 9.24444 60.4C 9.94444 61.2 10.5445 61.8999 10.9445 62.2999C 11.3445 62.6999 11.6445 63.0001 11.6445 63.0001C 11.6445 63.0001 11.8444 63.2002 12.3444 63.6002C 12.7444 64.0002 13.3445 64.5001 14.1445 65.0001C 14.5445 65.3001 14.9444 65.6 15.3444 65.9C 15.7444 66.2 16.3444 66.4999 16.8444 66.7999C 17.3444 67.0999 17.8445 67.3999 18.4445 67.7999C 19.0445 68.0999 19.5445 68.4002 20.1445 68.6002C 20.7445 68.9002 21.2444 69.2 21.8444 69.4C 22.4444 69.6 23.0444 69.8001 23.5444 70.0001C 24.6444 70.5001 25.7445 70.7001 26.6445 71.0001C 27.5445 71.2001 28.3445 71.5001 28.9445 71.5001C 29.5445 71.6001 29.8444 71.6002 29.8444 71.6002C 29.8444 71.6002 30.6445 71.5998 31.9445 71.6998C 32.5445 71.6998 33.2444 71.6002 34.0444 71.6002C 34.4444 71.6002 34.8444 71.5001 35.2444 71.5001C 35.7444 71.5001 36.0445 71.3999 36.4445 71.2999C 37.2445 71.1999 38.0444 71 38.8444 70.9C 39.5444 70.7 40.2444 70.5 40.8444 70.4C 41.4444 70.2 41.9444 70.1001 42.2444 70.0001C 42.5444 69.9001 42.7444 69.7999 42.7444 69.7999C 42.7444 69.7999 43.5444 69.7001 44.7444 69.5001C 45.0444 69.5001 45.3444 69.4 45.7444 69.4C 46.0444 69.3 46.4444 69.2002 46.8444 69.1002C 47.5444 68.9002 48.3445 68.7001 49.1445 68.5001C 50.6445 67.9001 52.2445 67.5 53.4445 66.9C 54.5445 66.4 55.3444 66.0001 55.3444 66.0001C 55.3444 66.0001 55.4445 65.8999 55.6445 65.7999C 55.8445 65.5999 56.1444 65.4002 56.5444 65.1002C 56.9444 64.8002 57.3445 64.5002 57.9445 64.1002C 58.4445 63.7002 59.0445 63.2002 59.6445 62.6002C 62.0445 60.4002 64.9445 56.9998 66.9445 53.1998C 69.0445 49.3998 70.2445 45.0999 70.6445 41.7999C 70.7445 40.9999 70.9445 40.2002 70.9445 39.6002C 70.9445 39.0002 71.0444 38.4 71.0444 37.9C 71.0444 37 71.1445 36.5001 71.1445 36.5001C 71.1445 36.5001 71.0444 37.2 70.8444 38.4C 70.7444 39 70.7444 39.7001 70.5444 40.5001C 70.3444 41.3001 70.1444 42.2999 69.8444 43.2999C 69.5444 44.2999 69.1444 45.4001 68.7444 46.5001C 68.2444 47.6001 67.7445 48.7 67.1445 49.9C 66.8445 50.5 66.4445 51.0002 66.1445 51.6002C 65.8445 52.2002 65.5444 52.6999 65.0444 53.2999C 64.2444 54.3999 63.5444 55.5001 62.5444 56.5001C 59.0444 60.6001 54.5445 63.5001 50.9445 65.0001C 49.1445 65.7001 47.6444 66.3001 46.5444 66.5001C 45.4444 66.8001 44.8444 66.9 44.8444 66.9C 44.8444 66.9 44.4445 66.9998 43.6445 67.1998C 42.8445 67.3998 41.7445 67.7 40.4445 67.9C 39.7445 68 39.0444 68.1998 38.2444 68.1998C 37.4444 68.1998 36.6444 68.2999 35.7444 68.2999L 35.4445 68.2999C 35.6445 68.2999 35.5444 68.2999 35.5444 68.2999L 35.4445 68.2999L 35.2444 68.2999L 34.5444 68.2999C 34.0444 68.2999 33.5445 68.2998 33.1445 68.1998C 32.1445 68.1998 31.3445 68 30.4445 67.9C 26.9445 67.3 23.3445 66.0999 20.9445 64.7999C 20.3445 64.4999 19.7444 64.2 19.3444 63.9C 18.8444 63.6 18.4445 63.4002 18.1445 63.1002C 17.7445 62.9002 17.5444 62.7002 17.3444 62.6002C 17.1444 62.5002 17.0444 62.4 17.0444 62.4C 17.0444 62.4 16.5445 62 15.6445 61.4C 15.1445 61.1 14.7445 60.6998 14.1445 60.1998C 13.5445 59.6998 12.8444 59.2001 12.2444 58.5001C 9.54445 55.9001 6.64442 51.8002 4.84442 47.1002L 4.44446 46.1998L 4.14447 45.2999C 3.94447 44.6999 3.84447 44.1001 3.64447 43.5001C 3.34447 42.3001 3.14446 41.1 2.94446 39.9C 2.84446 38.7 2.74447 37.6002 2.64447 36.6002C 2.64447 35.5002 2.74444 34.4 2.74444 33.4C 2.84444 32.4 2.94443 31.6 3.04443 30.9C 3.14443 30.5 3.14447 30.1999 3.14447 29.7999C 3.24447 29.4999 3.24442 29.2 3.34442 28.9C 3.54442 27.8 3.74444 27.1998 3.74444 27.1998C 3.74444 27.1998 3.84443 26.8002 4.04443 26.1002C 4.24443 25.4002 4.44446 24.3998 4.94446 23.1998C 5.74446 20.7998 7.24444 17.8001 9.24444 15.0001C 11.2444 12.2001 13.7444 9.80019 15.8444 8.10019C 16.8444 7.30019 17.8445 6.6998 18.4445 6.1998C 18.7445 5.9998 19.0444 5.7998 19.2444 5.6998C 19.4444 5.5998 19.5444 5.5001 19.5444 5.5001C 19.5444 5.5001 19.9445 5.3002 20.6445 5.1002C 20.9445 5.0002 21.4444 4.8002 21.8444 4.6002C 22.3444 4.4002 22.9444 4.3002 23.5444 4.1002C 25.9444 3.3002 29.3444 2.9 32.5444 2.9C 33.3444 2.9 34.1445 3.0001 34.9445 3.0001C 35.1445 3.0001 35.3444 3.0001 35.5444 3.0001L 36.1445 3.1002C 36.5445 3.2002 36.9444 3.1999 37.3444 3.2999C 38.9444 3.3999 40.2445 3.9002 41.4445 4.1002C 42.0445 4.2002 42.5444 4.4002 43.0444 4.6002C 43.5444 4.8002 43.9444 4.9001 44.2444 5.0001C 44.9444 5.2001 45.2444 5.4 45.2444 5.4C 45.2444 5.4 45.8445 5.6001 46.9445 6.0001C 48.0445 6.3001 49.5444 6.9999 51.3444 7.7999C 54.8444 9.4999 59.1445 12.7 62.4445 16.9C 63.3445 17.9 64.0444 19.0002 64.7444 20.1002C 65.1444 20.6002 65.4444 21.1999 65.7444 21.7999C 66.0444 22.3999 66.3445 22.9001 66.6445 23.5001C 67.1445 24.7001 67.6445 25.7999 67.9445 26.7999C 68.2445 27.8999 68.5444 28.9 68.8444 29.9C 69.0444 30.9 69.2444 31.8002 69.3444 32.6002C 69.5444 33.4002 69.5444 34.0998 69.5444 34.6998C 69.6444 35.8998 69.7444 36.6002 69.7444 36.6002C 69.7444 36.6002 69.7444 35.2001 69.8444 33.0001C 69.7444 31.9001 69.7444 30.6999 69.5444 29.2999C 69.4444 28.5999 69.3445 27.8998 69.1445 27.1998C 69.0445 26.7998 69.0445 26.5002 68.9445 26.1002L 68.6445 25.1002C 68.4445 24.4002 68.2444 23.7001 68.0444 23.0001C 67.8444 22.3001 67.5444 21.7001 67.3444 21.0001C 66.8444 19.7001 66.2444 18.5002 65.7444 17.6002C 65.2444 16.6002 64.7445 15.7999 64.4445 15.2999C 64.1445 14.6999 63.9445 14.4 63.9445 14.4"/>
<path id="path2_fill" fill-rule="evenodd" d="M 9.19999 19.2755C 5.99999 19.1755 4 16.8757 3.4 14.9757C 4.3 15.1757 5.20001 15.0756 6.10001 14.8756C 6.10001 14.8756 6.09999 14.8756 6.19999 14.8756C 4.49999 14.4756 3.09999 13.5757 2.19999 11.9757C 1.59999 10.9757 1.30002 9.87537 1.30002 8.67537C 2.20002 9.17537 3.10001 9.37566 4.10001 9.47567C 2.80001 8.57567 1.89998 7.27537 1.49998 5.67537C 1.09998 4.07537 1.39999 2.57537 2.19999 1.17537C 5.59999 5.17537 9.79998 7.27537 15 7.67537C 15 7.47537 14.9 7.17566 14.9 6.97566C 14.7 5.47566 15 4.17557 15.8 2.87557C 16.8 1.27557 18.2 0.375274 20 0.0752742C 22.1 -0.224726 23.9 0.37547 25.4 1.77547C 25.5 1.87547 25.6 1.87557 25.7 1.87557C 27 1.57557 28.2 1.17566 29.3 0.475665L 29.4 0.475665C 28.9 1.87566 28 3.07557 26.7 3.87557C 27.9 3.77557 29.1 3.37566 30.2 2.97566C 30 3.27566 29.7 3.57557 29.5 3.87557C 28.8 4.67557 28.1 5.37566 27.2 5.97566C 27.1 6.07566 27.1 6.07537 27.1 6.17537C 27.1 7.07537 27.1 7.97567 27 8.97567C 26.8 10.8757 26.2 12.7757 25.4 14.4757C 24.5 16.2757 23.4 17.9756 22 19.3756C 19.6 21.7756 16.8 23.3754 13.5 24.1754C 12.4 24.4754 11.2 24.5753 9.99998 24.5753C 6.39998 24.6753 3.10001 23.7756 0.100012 21.8756L -2.44141e-05 21.7755C 2.19998 21.9755 4.19999 21.7756 6.19999 20.8756C 7.29999 20.5756 8.19999 20.0755 9.19999 19.2755Z"/>
</defs>
</svg>
