<svg width="72" height="72" viewBox="0 0 72 72" version="1.1" xmlns="http://www.w3.org/2000/svg" xmlns:xlink="http://www.w3.org/1999/xlink">
<title>youtube</title>
<desc>Created using Figma</desc>
<g id="Canvas" transform="translate(3257 -2629)">
<g id="youtube">
<g id="Group">
<g id="Vector">
<use xlink:href="#path0_fill" transform="translate(-3254.6 2631.3)" fill="#FD3832"/>
</g>
<g id="Group">
<g id="Group">
<g id="Vector">
<use xlink:href="#path1_fill" transform="translate(-3256.44 2629.1)" fill="#FD4E49"/>
</g>
</g>
</g>
</g>
<g id="Vector">
<use xlink:href="#path2_fill" transform="translate(-3235.69 2654.81)" fill="#FFFFFF"/>
</g>
</g>
</g>
<defs>
<path id="path0_fill" d="M 34.3 68.5999C 53.2434 68.5999 68.6 53.2435 68.6 34.3001C 68.6 15.3567 53.2434 -0.000195313 34.3 -0.000195313C 15.3566 -0.000195313 2.44141e-05 15.3567 2.44141e-05 34.3001C 2.44141e-05 53.2435 15.3566 68.5999 34.3 68.5999Z"/>
<path id="path1_fill" d="M 63.1445 12.7999C 63.1445 12.7999 62.7444 12.3001 62.0444 11.5001C 61.7444 11.1001 61.2445 10.6002 60.6445 10.1002C 60.0445 9.60019 59.5444 9 58.7444 8.4C 55.9444 6 51.6444 3.2999 46.9444 1.7999C 45.7444 1.4999 44.5445 1.0999 43.3445 0.799902C 42.1445 0.599902 40.8445 0.399805 39.6445 0.199805C 38.5445 0.0998047 37.4444 9.76563e-05 36.4444 9.76563e-05L 36.2444 9.76563e-05L 36.1445 9.76563e-05L 35.9444 9.76563e-05L 35.5444 9.76563e-05C 35.2444 9.76563e-05 35.0444 9.76563e-05 34.7444 9.76563e-05C 34.2444 9.76563e-05 33.7444 9.76563e-05 33.2444 9.76563e-05C 32.3444 9.76563e-05 31.4445 0.0998047 30.6445 0.199805C 29.8445 0.299805 29.2445 0.400098 28.6445 0.500098C 27.5445 0.700098 26.9444 0.9 26.9444 0.9C 26.9444 0.9 26.5445 0.999805 25.8445 1.1998C 25.1445 1.3998 24.1445 1.6998 22.8445 2.1998C 21.6445 2.5998 20.2445 3.3001 18.8445 4.0001C 18.1445 4.3001 17.4445 4.7998 16.6445 5.1998C 15.9445 5.5998 15.1444 6.1002 14.5444 6.6002C 13.8444 7.1002 13.1444 7.60019 12.4444 8.10019C 11.8444 8.7002 11.2445 9.1999 10.6445 9.7999C 10.3445 10.0999 10.0444 10.3002 9.74443 10.6002C 9.44443 10.9002 9.24444 11.2 8.94444 11.4C 8.44444 11.9 7.94442 12.5 7.54442 12.9C 6.74442 13.9 6.14446 14.8 5.64446 15.4C 5.44446 15.7 5.24446 15.9002 5.14446 16.1002C 5.04446 16.3002 4.94444 16.4 4.94444 16.4C 4.94444 16.4 4.74447 16.8001 4.34447 17.5001C 4.14447 17.8001 3.94446 18.2998 3.64446 18.6998C 3.34446 19.1998 3.14444 19.8 2.94444 20.4C 2.64444 21 2.44446 21.7 2.14446 22.4C 1.94446 23.1 1.64444 23.8998 1.44444 24.6998C 1.14444 25.4998 1.04447 26.2998 0.844469 27.1998C 0.744469 28.0998 0.444469 28.8999 0.344469 29.7999C 0.244469 30.6999 0.14442 31.6001 0.04442 32.5001C -0.05558 33.4001 0.04442 34.1 0.04442 34.9C 0.04442 35.3 0.04442 35.7002 0.04442 36.1002L 0.04442 36.4L 0.04442 36.5001L 0.04442 36.6002L 0.04442 36.6998C 0.04442 36.8998 0.0444567 37.0999 0.144457 37.2999C 0.244457 37.9999 0.344469 38.7 0.344469 39.4C 0.344469 40 0.544457 40.6002 0.644457 41.1002C 0.744457 41.6002 0.844444 42.1 0.944444 42.4C 1.14444 43.1 1.14446 43.6002 1.14446 43.6002C 1.14446 43.6002 1.44444 45.0001 1.94444 47.0001C 2.24444 48.0001 2.64446 49.2 3.14446 50.4C 3.44446 51 3.74444 51.5998 3.94444 52.1998C 4.24444 52.7998 4.54447 53.5002 4.84447 54.1002C 5.54447 55.3002 6.24442 56.5002 7.04442 57.6002C 7.44442 58.1002 7.84446 58.7002 8.14446 59.1002C 8.54446 59.6002 8.94443 60 9.24443 60.4C 9.94443 61.2 10.5444 61.8999 10.9444 62.2999C 11.3444 62.6999 11.6445 63.0001 11.6445 63.0001C 11.6445 63.0001 11.8445 63.2002 12.3445 63.6002C 12.7445 64.0002 13.3445 64.5001 14.1445 65.0001C 14.5445 65.3001 14.9445 65.6 15.3445 65.9C 15.7445 66.2 16.3445 66.4999 16.8445 66.7999C 17.3445 67.0999 17.8444 67.3999 18.4444 67.7999C 19.0444 68.0999 19.5445 68.4002 20.1445 68.6002C 20.7445 68.9002 21.2445 69.2 21.8445 69.4C 22.4445 69.6 23.0444 69.8001 23.5444 70.0001C 24.6444 70.5001 25.7445 70.7001 26.6445 71.0001C 27.5445 71.2001 28.3444 71.5001 28.9444 71.5001C 29.5444 71.6001 29.8445 71.6002 29.8445 71.6002C 29.8445 71.6002 30.6444 71.5998 31.9444 71.6998C 32.5444 71.6998 33.2444 71.6002 34.0444 71.6002C 34.4444 71.6002 34.8444 71.5001 35.2444 71.5001C 35.7444 71.5001 36.0444 71.3999 36.4444 71.2999C 37.2444 71.1999 38.0445 71 38.8445 70.9C 39.5445 70.7 40.2445 70.5 40.8445 70.4C 41.4445 70.2 41.9444 70.1001 42.2444 70.0001C 42.5444 69.9001 42.7444 69.7999 42.7444 69.7999C 42.7444 69.7999 43.5444 69.7001 44.7444 69.5001C 45.0444 69.5001 45.3444 69.4 45.7444 69.4C 46.0444 69.3 46.4445 69.2002 46.8445 69.1002C 47.5445 68.9002 48.3445 68.7001 49.1445 68.5001C 50.6445 67.9001 52.2444 67.5 53.4444 66.9C 54.5444 66.4 55.3445 66.0001 55.3445 66.0001C 55.3445 66.0001 55.4445 65.8999 55.6445 65.7999C 55.8445 65.5999 56.1444 65.4002 56.5444 65.1002C 56.9444 64.8002 57.3444 64.5002 57.9444 64.1002C 58.4444 63.7002 59.0445 63.2002 59.6445 62.6002C 62.0445 60.4002 64.9444 56.9998 66.9444 53.1998C 69.0444 49.3998 70.2445 45.0999 70.6445 41.7999C 70.7445 40.9999 70.9444 40.2002 70.9444 39.6002C 70.9444 39.0002 71.0444 38.4 71.0444 37.9C 71.0444 37 71.1445 36.5001 71.1445 36.5001C 71.1445 36.5001 71.0445 37.2 70.8445 38.4C 70.7445 39 70.7444 39.7001 70.5444 40.5001C 70.3444 41.3001 70.1445 42.2999 69.8445 43.2999C 69.5445 44.2999 69.1444 45.4001 68.7444 46.5001C 68.2444 47.6001 67.7445 48.7 67.1445 49.9C 66.8445 50.5 66.4445 51.0002 66.1445 51.6002C 65.8445 52.2002 65.5444 52.6999 65.0444 53.2999C 64.2444 54.3999 63.5444 55.5001 62.5444 56.5001C 59.0444 60.6001 54.5444 63.5001 50.9444 65.0001C 49.1444 65.7001 47.6444 66.3001 46.5444 66.5001C 45.4444 66.8001 44.8445 66.9 44.8445 66.9C 44.8445 66.9 44.4445 66.9998 43.6445 67.1998C 42.8445 67.3998 41.7444 67.7 40.4444 67.9C 39.7444 68 39.0444 68.1998 38.2444 68.1998C 37.4444 68.1998 36.6444 68.2999 35.7444 68.2999L 35.4444 68.2999C 35.6444 68.2999 35.5444 68.2999 35.5444 68.2999L 35.4444 68.2999L 35.2444 68.2999L 34.5444 68.2999C 34.0444 68.2999 33.5445 68.2998 33.1445 68.1998C 32.1445 68.1998 31.3444 68 30.4444 67.9C 26.9444 67.3 23.3444 66.0999 20.9444 64.7999C 20.3444 64.4999 19.7445 64.2 19.3445 63.9C 18.8445 63.6 18.4445 63.4002 18.1445 63.1002C 17.7445 62.9002 17.5445 62.7002 17.3445 62.6002C 17.1445 62.5002 17.0444 62.4 17.0444 62.4C 17.0444 62.4 16.5445 62 15.6445 61.4C 15.1445 61.1 14.7445 60.6998 14.1445 60.1998C 13.5445 59.6998 12.8444 59.2001 12.2444 58.5001C 9.54443 55.9001 6.64447 51.8002 4.84447 47.1002L 4.44444 46.1998L 4.14446 45.2999C 3.94446 44.6999 3.84446 44.1001 3.64446 43.5001C 3.34446 42.3001 3.14444 41.1 2.94444 39.9C 2.84444 38.7 2.74446 37.6002 2.64446 36.6002C 2.64446 35.5002 2.74443 34.4 2.74443 33.4C 2.84443 32.4 2.94442 31.6 3.04442 30.9C 3.14442 30.5 3.14446 30.1999 3.14446 29.7999C 3.24446 29.4999 3.24447 29.2 3.34447 28.9C 3.54447 27.8 3.74443 27.1998 3.74443 27.1998C 3.74443 27.1998 3.84442 26.8002 4.04442 26.1002C 4.24442 25.4002 4.44444 24.3998 4.94444 23.1998C 5.74444 20.7998 7.24443 17.8001 9.24443 15.0001C 11.2444 12.2001 13.7445 9.80019 15.8445 8.10019C 16.8445 7.30019 17.8444 6.6998 18.4444 6.1998C 18.7444 5.9998 19.0444 5.7998 19.2444 5.6998C 19.4444 5.5998 19.5444 5.5001 19.5444 5.5001C 19.5444 5.5001 19.9445 5.3002 20.6445 5.1002C 20.9445 5.0002 21.4445 4.8002 21.8445 4.6002C 22.3445 4.4002 22.9444 4.3002 23.5444 4.1002C 25.9444 3.3002 29.3444 2.9 32.5444 2.9C 33.3444 2.9 34.1444 3.0001 34.9444 3.0001C 35.1444 3.0001 35.3444 3.0001 35.5444 3.0001L 36.1445 3.1002C 36.5445 3.2002 36.9445 3.1999 37.3445 3.2999C 38.9445 3.3999 40.2444 3.9002 41.4444 4.1002C 42.0444 4.2002 42.5444 4.4002 43.0444 4.6002C 43.5444 4.8002 43.9444 4.9001 44.2444 5.0001C 44.9444 5.2001 45.2444 5.4 45.2444 5.4C 45.2444 5.4 45.8444 5.6001 46.9444 6.0001C 48.0444 6.3001 49.5445 6.9999 51.3445 7.7999C 54.8445 9.4999 59.1444 12.7 62.4444 16.9C 63.3444 17.9 64.0444 19.0002 64.7444 20.1002C 65.1444 20.6002 65.4444 21.1999 65.7444 21.7999C 66.0444 22.3999 66.3445 22.9001 66.6445 23.5001C 67.1445 24.7001 67.6444 25.7999 67.9444 26.7999C 68.2444 27.8999 68.5445 28.9 68.8445 29.9C 69.0445 30.9 69.2445 31.8002 69.3445 32.6002C 69.5445 33.4002 69.5444 34.0998 69.5444 34.6998C 69.6444 35.8998 69.7444 36.6002 69.7444 36.6002C 69.7444 36.6002 69.7445 35.2001 69.8445 33.0001C 69.7445 31.9001 69.7444 30.6999 69.5444 29.2999C 69.4444 28.5999 69.3445 27.8998 69.1445 27.1998C 69.0445 26.7998 69.0444 26.5002 68.9444 26.1002L 68.6445 25.1002C 68.4445 24.4002 68.2444 23.7001 68.0444 23.0001C 67.8444 22.3001 67.5445 21.7001 67.3445 21.0001C 66.8445 19.7001 66.2444 18.5002 65.7444 17.6002C 65.2444 16.6002 64.7444 15.7999 64.4444 15.2999C 64.1444 14.6999 63.9444 14.4 63.9444 14.4"/>
<path id="path2_fill" fill-rule="evenodd" d="M 3.19044 20.8942C 1.99044 20.4942 1.29041 19.7939 0.790412 18.5939C -0.209588 15.7939 -0.509552 4.09407 1.39045 1.79407C 2.09045 0.994069 2.89042 0.494167 3.99042 0.394167C 9.29042 -0.205833 25.5904 -0.106126 27.4904 0.593874C 28.5904 0.993874 29.3904 1.69407 29.7904 2.79407C 30.8904 5.69407 30.9904 16.1938 29.6904 18.9938C 29.2904 19.7938 28.7904 20.294 27.9904 20.694C 26.0904 21.794 5.79044 21.6942 3.19044 20.8942ZM 11.5905 15.3942C 14.7905 13.7942 17.8905 12.0938 21.0905 10.4938C 17.8905 8.79378 14.7905 7.19378 11.5905 5.49378C 11.5905 8.79378 11.5905 12.0942 11.5905 15.3942Z"/>
</defs>
</svg>
