<svg width="287" height="524" viewBox="0 0 287 524" version="1.1" xmlns="http://www.w3.org/2000/svg" xmlns:xlink="http://www.w3.org/1999/xlink">
<title>arvore</title>
<desc>Created using Figma</desc>
<g id="Canvas" transform="translate(2302 3721)">
<g id="arvore">
<g id="Vector">
<use xlink:href="#path0_fill" transform="translate(-2116.87 -3469.59)" fill="#FFFFFF"/>
</g>
<g id="Vector">
<use xlink:href="#path1_fill" transform="translate(-2129.39 -3225.59)" fill="#FFFFFF"/>
</g>
<g id="Group">
<g id="Vector">
<use xlink:href="#path2_fill" transform="translate(-2302 -3721)"/>
</g>
<g id="Vector">
<use xlink:href="#path3_fill" transform="translate(-2139.74 -3494.96)" fill="#E42513"/>
</g>
<g id="Vector">
<use xlink:href="#path4_fill" transform="translate(-2156.18 -3583.26)" fill="#E42513"/>
</g>
<g id="Vector">
<use xlink:href="#path5_fill" transform="translate(-2224.53 -3573.49)" fill="#E42513"/>
</g>
<g id="Vector">
<use xlink:href="#path6_fill" transform="translate(-2195.97 -3595.57)" fill="#E42513"/>
</g>
<g id="Vector">
<use xlink:href="#path7_fill" transform="translate(-2276.35 -3577.91)" fill="#E42513"/>
</g>
<g id="Vector">
<use xlink:href="#path8_fill" transform="translate(-2171.8 -3523.85)" fill="#E42513"/>
</g>
<g id="Vector">
<use xlink:href="#path9_fill" transform="translate(-2273.73 -3663.45)" fill="#E42513"/>
</g>
<g id="Vector">
<use xlink:href="#path10_fill" transform="translate(-2184.48 -3661.86)" fill="#E42513"/>
</g>
<g id="Vector">
<use xlink:href="#path11_fill" transform="translate(-2147.6 -3540.98)" fill="#E42513"/>
</g>
<g id="Vector">
<use xlink:href="#path12_fill" transform="translate(-2257.14 -3590.49)" fill="#E42513"/>
</g>
<g id="Vector">
<use xlink:href="#path13_fill" transform="translate(-2144.4 -3659.8)" fill="#E42513"/>
</g>
<g id="Vector">
<use xlink:href="#path14_fill" transform="translate(-2079.3 -3545.19)" fill="#E42513"/>
</g>
<g id="Vector">
<use xlink:href="#path15_fill" transform="translate(-2122.85 -3622.89)" fill="#E42513"/>
</g>
<g id="Vector">
<use xlink:href="#path16_fill" transform="translate(-2252.3 -3533.32)" fill="#E42513"/>
</g>
<g id="Vector">
<use xlink:href="#path17_fill" transform="translate(-2189.89 -3553.49)" fill="#E42513"/>
</g>
<g id="Vector">
<use xlink:href="#path18_fill" transform="translate(-2163.93 -3620.87)" fill="#E42513"/>
</g>
<g id="Vector">
<use xlink:href="#path19_fill" transform="translate(-2235.64 -3620.97)" fill="#E42513"/>
</g>
<g id="Vector">
<use xlink:href="#path20_fill" transform="translate(-2221.64 -3503)" fill="#E42513"/>
</g>
<g id="Vector">
<use xlink:href="#path21_fill" transform="translate(-2222.34 -3677.49)" fill="#E42513"/>
</g>
<g id="Vector">
<use xlink:href="#path22_fill" transform="translate(-2279.36 -3624.72)" fill="#E42513"/>
</g>
<g id="Vector">
<use xlink:href="#path23_fill" transform="translate(-2172.45 -3699.8)" fill="#E42513"/>
</g>
<g id="Vector">
<use xlink:href="#path24_fill" transform="translate(-2116.19 -3561.49)" fill="#E42513"/>
</g>
<g id="Vector">
<use xlink:href="#path25_fill" transform="translate(-2104.74 -3668.06)" fill="#E42513"/>
</g>
<g id="Vector">
<use xlink:href="#path26_fill" transform="translate(-2077.53 -3616.71)" fill="#E42513"/>
</g>
<g id="Vector">
<use xlink:href="#path27_fill" transform="translate(-2176.25 -3480.69)" fill="#E42513"/>
</g>
<g id="Vector">
<use xlink:href="#path28_fill" transform="translate(-2130.09 -3698.42)" fill="#E42513"/>
</g>
<g id="Vector">
<use xlink:href="#path29_fill" transform="translate(-2091.74 -3585.5)" fill="#E42513"/>
</g>
<g id="Vector">
<use xlink:href="#path30_fill" transform="translate(-2054.74 -3513.22)" fill="#E42513"/>
</g>
<g id="Vector">
<use xlink:href="#path31_fill" transform="translate(-2210.54 -3637.72)" fill="#E42513"/>
</g>
<g id="Vector">
<use xlink:href="#path32_fill" transform="translate(-2065.75 -3653.39)" fill="#E42513"/>
</g>
<g id="Vector">
<use xlink:href="#path33_fill" transform="translate(-2247.58 -3643.19)" fill="#E42513"/>
</g>
<g id="Vector">
<use xlink:href="#path34_fill" transform="translate(-2054.99 -3577.33)" fill="#E42513"/>
</g>
</g>
</g>
</g>
<defs>
<path id="path0_fill" d="M 39.3318 0.500006C 35.5318 6.50001 34.5318 13.3 34.6318 20.4C 28.5318 25.7 34.7318 34.2 28.5318 40.1C 26.7318 40.6 25.0318 39.8 23.1318 37.3C 18.8318 31.6 13.7318 26.5 9.03178 21.1C 8.03178 19.9 8.03181 17.7 6.93181 16.7C 5.23181 15.1 5.13183 12.2 1.83183 11.5C 0.631833 11.2 -0.36824 6.7 0.13176 4.4C 0.33176 3.1 3.83183 1.79999 5.83183 1.69999C 16.8318 0.899988 27.8318 0.500006 38.9318 6.10352e-06C 39.0318 6.10352e-06 39.1318 0.100006 39.3318 0.500006Z"/>
<path id="path1_fill" d="M 68.55 -2.44141e-05C 69.05 3.09998 66.45 3.80001 64.25 4.60001C 50.05 9.90001 35.25 10.5 20.25 9.9C 16.25 9.8 12.55 9.19999 8.95002 7.19999C 7.55002 6.39999 5.65 6.60001 4.05 6.10001C 2.75 5.70001 1.35005 5.20002 0.350049 4.30002C -0.149951 3.90002 -0.0500488 2.30001 0.249951 1.60001C 0.449951 1.10001 1.85 0.899976 2.55 0.999976C 4.05 1.29998 5.55 1.99998 7.05 2.49998C 9.85 3.29998 12.65 4.09999 15.45 4.69999C 18.45 5.29999 21.45 6.09998 24.45 5.99998C 30.35 5.79998 36.55 6.09999 41.85 4.19999C 44.85 3.09999 47.65 3.6 50.45 2.9C 56.45 1.4 62.35 0.899976 68.55 -2.44141e-05Z"/>
<path id="path2_fill" d="M 143.959 1.40698C 147.259 0.906983 150.559 -0.0930266 153.859 0.00697338C 160.559 0.106973 167.359 0.506973 173.959 1.50697C 176.359 1.90697 178.459 4.20697 180.659 5.70697C 181.059 5.90697 181.359 6.50697 181.659 6.50697C 187.559 6.50697 190.559 11.007 193.759 14.707C 196.859 18.407 200.659 20.007 205.059 19.807C 211.459 19.607 216.359 23.607 222.159 24.807C 226.759 25.707 229.659 28.207 232.859 31.307C 234.559 32.907 235.759 34.407 236.659 36.407C 239.559 42.707 241.959 49.307 247.059 54.407C 250.459 57.807 253.259 61.907 256.159 65.707C 260.459 71.307 264.959 76.907 268.959 82.807C 272.859 88.607 275.959 94.907 276.359 102.007C 276.459 103.607 274.959 105.607 273.659 107.007C 271.759 109.007 269.459 110.607 267.159 112.207C 264.459 114.107 264.859 115.707 266.959 118.107C 269.659 121.207 271.459 125.107 273.559 128.607C 274.159 129.507 274.559 130.707 275.359 131.307C 279.059 134.307 279.459 138.907 281.059 142.907C 281.959 145.107 281.659 146.907 278.959 148.207C 273.559 150.907 272.359 156.907 269.659 161.707C 269.359 162.207 269.859 163.407 270.259 164.107C 272.159 167.007 274.159 169.907 276.159 172.707C 276.359 173.007 276.859 173.107 276.959 173.307C 278.759 178.507 280.459 183.707 282.359 188.907C 282.859 190.307 283.959 191.507 284.159 192.807C 285.359 200.707 288.559 208.807 282.859 216.307C 281.959 217.607 281.559 219.207 280.559 220.407C 279.559 221.707 278.359 223.307 276.959 223.607C 273.659 224.307 272.359 226.007 272.459 229.207C 272.759 237.307 273.059 245.507 273.159 253.607C 273.259 259.407 270.059 263.007 265.559 266.207C 261.759 269.007 258.559 272.607 255.059 275.907C 253.859 277.107 253.059 278.807 251.659 279.807C 245.959 284.207 245.659 290.707 244.759 297.007C 244.259 300.607 244.459 304.407 244.059 308.107C 243.459 312.907 242.459 317.707 241.959 322.607C 240.559 336.007 240.159 349.307 240.959 362.807C 241.559 373.307 240.459 383.907 240.659 394.407C 240.859 403.707 241.859 413.107 242.459 422.407C 242.659 425.807 243.159 429.207 243.359 432.607C 243.959 441.707 244.459 450.707 244.859 459.807C 245.159 465.007 244.759 470.207 245.759 475.207C 246.459 478.707 248.759 481.907 250.459 485.207C 251.659 487.307 253.259 489.207 254.359 491.407C 255.659 494.207 257.359 496.207 260.359 497.307C 265.959 499.307 271.459 501.707 276.859 504.207C 278.059 504.807 279.359 506.107 279.759 507.407C 280.759 510.607 281.559 514.007 282.059 517.407C 282.759 521.707 280.459 523.307 276.359 522.207C 273.559 521.507 270.459 521.707 267.559 521.807C 261.559 522.107 255.559 523.007 249.559 523.107C 231.259 523.507 213.059 523.707 194.759 523.807C 190.959 523.807 187.059 522.707 183.259 522.507C 175.559 522.207 167.759 522.407 160.059 522.207C 152.959 522.107 145.759 522.007 138.659 521.607C 136.159 521.507 133.659 520.307 131.059 520.207C 128.259 520.107 125.459 520.707 122.659 520.807C 119.459 520.907 116.559 520.507 114.459 517.307C 112.859 514.907 110.659 512.807 108.259 511.207C 103.559 508.207 105.359 505.207 109.059 502.807C 114.259 499.407 120.159 497.907 126.259 497.007C 137.759 495.307 149.359 493.907 160.859 492.107C 162.259 491.907 164.059 490.507 164.559 489.307C 167.159 482.107 169.759 474.907 171.759 467.607C 174.059 459.407 177.459 451.507 177.659 442.607C 177.859 436.107 180.459 429.607 181.859 423.107C 183.459 415.707 184.859 408.307 186.259 400.907C 187.259 395.507 188.059 390.207 188.859 384.807C 189.559 379.907 189.659 374.907 190.859 370.207C 193.659 359.607 193.059 348.607 194.259 337.907C 194.759 333.407 193.459 328.707 192.759 324.107C 192.559 322.507 191.559 321.107 191.559 319.507C 191.659 311.107 188.159 304.307 182.259 298.607C 181.659 298.007 180.959 297.007 181.059 296.407C 182.059 292.407 178.959 290.907 176.859 288.807C 174.159 286.107 171.559 283.207 168.959 280.407C 166.359 277.707 163.359 277.007 159.559 277.607C 153.859 278.507 148.059 279.807 142.459 279.307C 136.459 278.907 130.459 276.807 124.659 275.107C 123.459 274.707 122.959 271.607 121.759 271.207C 115.959 269.507 114.259 264.207 111.759 260.007C 109.459 256.207 106.759 255.307 102.759 255.707C 100.159 256.007 97.5594 255.907 94.9594 255.707C 87.2594 255.107 80.0593 253.607 72.7593 250.307C 67.3593 247.807 64.5593 243.807 60.8593 240.107C 59.8593 239.107 60.0593 236.607 60.2593 234.807C 60.4593 232.507 59.4594 231.307 57.4594 230.707C 54.6594 229.907 51.5593 229.707 49.2593 228.207C 45.8593 226.107 42.6593 223.307 40.1593 220.307C 37.6593 217.207 35.9593 213.907 31.8593 212.207C 28.4593 210.807 25.1593 201.907 27.2593 197.307C 27.6593 196.307 28.9594 195.707 30.0594 195.107C 32.7594 193.507 35.5593 185.907 33.7593 183.507C 32.2593 181.507 29.7593 180.107 27.6593 178.507C 27.1593 178.107 26.2593 178.107 25.7593 177.607C 22.2593 174.107 18.7594 170.607 15.5594 166.907C 14.3594 165.507 13.8593 163.407 13.1593 161.607C 12.8593 160.807 12.8594 159.607 12.3594 159.207C 7.95936 156.407 8.35933 151.707 7.45933 147.607C 6.45933 143.307 8.65932 139.207 11.2593 136.207C 13.2593 133.907 12.3593 132.407 11.6593 130.807C 10.2593 127.807 8.45936 125.007 6.85936 122.107C 5.35936 119.307 4.15932 116.207 2.25932 113.807C -0.440679 110.407 -0.140679 106.807 0.259321 103.107C 0.359321 101.807 0.759333 100.407 1.45933 99.307C 4.05933 94.807 6.85936 90.407 9.35936 85.907C 10.6594 83.607 11.8593 81.107 12.6593 78.507C 13.2593 76.507 13.7593 74.107 13.2593 72.107C 11.8593 66.707 11.0594 61.507 14.0594 56.407C 14.1594 56.307 14.1593 56.207 14.1593 56.007C 13.4593 46.107 22.0594 42.107 27.0594 36.007C 30.6594 31.707 35.5593 28.507 40.1593 25.207C 47.0593 20.307 54.5593 18.107 63.1593 20.207C 67.6593 21.307 72.3594 21.307 76.9594 21.807C 80.0594 22.207 82.4594 21.207 84.4594 18.807C 87.3594 15.307 90.5594 12.207 93.0594 8.50697C 96.0594 4.00697 100.159 2.40698 105.259 2.60698C 109.959 2.70698 114.859 1.60698 118.859 5.40698C 119.259 5.80698 120.359 5.60697 120.959 5.50697C 123.259 5.00697 124.759 5.70697 125.459 8.00697C 126.159 10.307 127.659 10.307 129.559 9.50697C 132.959 8.10697 136.459 7.00697 139.759 5.50697C 141.459 4.70697 142.759 3.30698 144.259 2.10698C 144.259 1.90698 144.159 1.60698 143.959 1.40698ZM 224.459 251.907C 224.259 251.507 224.159 251.407 224.059 251.407C 213.059 251.907 202.059 252.307 190.959 253.107C 188.859 253.207 185.459 254.507 185.259 255.807C 184.759 258.107 185.859 262.607 186.959 262.907C 190.159 263.607 190.359 266.507 192.059 268.107C 193.159 269.107 193.159 271.307 194.159 272.507C 198.759 278.007 203.859 283.007 208.259 288.707C 210.159 291.207 211.859 292.007 213.659 291.507C 219.759 285.707 213.659 277.107 219.759 271.807C 219.759 264.707 220.759 257.907 224.459 251.907ZM 241.159 495.407C 234.959 496.307 228.959 496.707 223.259 498.107C 220.459 498.807 217.659 498.307 214.659 499.407C 209.359 501.307 203.059 501.107 197.259 501.207C 194.259 501.307 191.259 500.507 188.259 499.907C 185.459 499.307 182.659 498.507 179.859 497.707C 178.359 497.307 176.859 496.607 175.359 496.207C 174.659 496.007 173.259 496.307 173.059 496.807C 172.659 497.607 172.659 499.107 173.159 499.507C 174.159 500.407 175.559 500.907 176.859 501.307C 178.459 501.807 180.359 501.607 181.759 502.407C 185.259 504.507 189.059 505.007 193.059 505.107C 208.059 505.607 222.759 505.007 237.059 499.807C 239.059 499.207 241.659 498.607 241.159 495.407ZM 173.859 226.107C 171.459 226.407 168.859 226.407 166.659 227.207C 164.959 227.807 162.259 229.507 162.259 230.607C 162.359 234.507 163.159 238.507 164.259 242.307C 165.059 245.007 168.859 246.107 171.159 244.607C 173.759 242.907 175.959 240.707 178.659 239.207C 181.859 237.407 181.259 234.307 180.259 232.507C 178.859 230.007 178.759 225.407 173.859 226.107ZM 155.759 138.007C 151.859 136.907 148.159 139.407 146.459 142.607C 144.759 145.907 146.659 150.007 149.459 152.907C 150.359 153.907 151.959 155.007 153.159 154.807C 155.659 154.507 157.959 153.307 160.459 152.707C 162.859 152.107 166.059 148.207 165.859 145.907C 165.459 141.607 160.759 137.807 155.759 138.007ZM 85.1593 148.207C 83.6593 149.207 81.9593 150.007 80.8593 151.307C 79.5593 152.807 78.2593 154.507 77.6593 156.407C 76.9593 158.607 78.3594 160.207 79.5594 162.207C 82.4594 167.007 85.6593 168.107 89.8593 164.607C 90.8593 163.807 91.9593 163.007 93.1593 162.307C 96.2593 160.307 97.7593 156.507 96.1593 154.107C 93.4593 150.107 90.8593 145.807 85.1593 148.207ZM 106.359 133.407C 106.359 135.307 106.259 136.507 106.359 137.807C 106.759 140.707 107.659 143.307 110.759 144.307C 113.759 145.307 115.459 143.607 117.259 141.407C 118.159 140.307 119.959 139.907 121.259 139.007C 122.259 138.307 123.759 137.607 124.059 136.607C 125.459 131.307 123.959 129.207 119.159 126.307C 116.059 124.407 114.059 126.507 111.559 127.007C 107.759 127.607 105.159 129.407 106.359 133.407ZM 41.8593 152.907C 41.6593 147.507 37.4594 142.807 32.9594 143.007C 29.3594 143.207 25.4594 149.207 25.5594 154.107C 25.7594 158.707 29.5594 163.207 32.9594 163.007C 38.7594 162.707 42.0593 159.007 41.8593 152.907ZM 139.659 197.207C 138.459 197.207 137.159 197.307 135.959 197.207C 133.159 196.907 131.959 198.407 130.659 200.707C 128.459 204.707 134.659 212.707 139.859 212.807C 142.659 212.907 145.759 213.607 147.759 210.307C 149.959 206.707 150.059 203.207 148.259 199.407C 146.559 196.007 143.659 197.607 141.159 197.207C 140.659 197.107 140.159 197.207 139.659 197.207ZM 47.6593 72.007C 48.7593 68.307 48.1594 66.107 46.4594 63.407C 43.0594 57.707 40.6593 56.307 34.7593 58.507C 29.2593 60.707 27.2594 63.007 28.5594 67.107C 29.2594 69.307 31.3593 71.007 33.1593 73.507C 37.8593 73.107 42.7593 72.607 47.6593 72.007ZM 125.559 78.307C 127.859 76.307 129.359 74.907 130.959 73.607C 132.059 72.707 133.459 72.007 134.159 70.907C 135.559 68.807 134.259 63.007 132.359 60.707C 130.259 58.207 127.959 59.207 125.359 59.907C 121.259 60.907 116.159 67.307 117.559 70.807C 118.659 73.407 120.259 75.807 121.659 78.307C 123.459 78.307 124.959 78.307 125.559 78.307ZM 168.459 180.107C 166.359 180.107 164.459 179.807 162.659 180.207C 160.359 180.707 157.659 181.207 155.859 182.607C 153.659 184.307 153.959 191.007 156.259 193.207C 159.859 196.707 160.459 198.407 165.559 195.307C 167.259 194.307 168.959 193.407 170.859 192.607C 173.059 191.707 173.759 190.407 172.659 188.307C 171.359 185.707 169.959 182.907 168.459 180.107ZM 54.5594 130.507C 48.1594 130.707 44.8593 133.007 44.8593 136.907C 44.8593 141.207 49.9593 147.607 53.1593 147.407C 56.7593 147.207 63.2594 141.207 63.0594 138.207C 62.7594 134.207 58.5594 130.307 54.5594 130.507ZM 157.959 74.607C 160.359 75.507 162.359 76.407 164.459 77.007C 165.359 77.307 166.559 77.207 167.459 76.907C 169.259 76.207 170.859 75.107 172.659 74.307C 175.859 72.907 176.959 68.407 174.559 66.007C 174.059 65.507 173.159 65.107 173.059 64.507C 172.359 61.207 170.059 61.107 167.459 61.407C 165.059 61.607 162.659 61.007 160.259 63.207C 156.259 66.907 158.059 71.007 157.959 74.607ZM 223.459 175.807C 222.759 181.207 221.059 186.807 226.759 190.207C 228.659 191.307 232.359 191.607 233.959 190.507C 239.059 187.007 240.759 181.907 238.159 175.807C 233.459 175.807 228.659 175.807 223.459 175.807ZM 187.459 98.107C 185.759 98.507 183.359 98.407 182.459 99.507C 180.959 101.407 180.059 103.907 179.359 106.307C 178.359 109.607 184.659 116.207 188.059 115.707C 193.259 114.907 195.959 110.407 195.559 103.307C 195.259 99.907 192.859 98.507 187.459 98.107ZM 61.1593 204.607C 62.7593 201.807 64.1594 199.207 65.5594 196.707C 67.6594 193.107 65.6593 187.907 61.7593 187.607C 59.6593 187.407 57.2593 187.607 55.3593 188.407C 53.3593 189.107 50.3593 190.607 50.2593 191.907C 49.9593 195.107 47.9594 199.607 53.5594 201.007C 54.0594 201.107 54.6593 201.707 54.8593 202.207C 56.1593 205.307 58.7593 204.707 61.1593 204.607ZM 121.759 167.507C 114.359 167.807 110.959 172.007 112.459 177.807C 112.859 179.507 114.259 181.007 114.959 182.707C 117.859 190.107 121.559 183.907 124.759 183.207C 125.959 182.907 126.759 180.607 127.659 179.207C 127.759 179.107 127.359 178.807 127.359 178.607C 126.759 176.307 126.459 173.707 125.459 171.607C 124.459 169.607 122.559 168.307 121.759 167.507ZM 138.359 108.207C 138.359 109.507 138.259 110.507 138.359 111.407C 138.659 114.507 142.859 118.607 145.459 117.607C 147.359 116.907 148.659 114.807 150.259 113.407C 153.859 110.307 153.959 107.707 151.759 103.207C 149.759 99.107 147.259 99.607 144.159 101.407C 143.559 101.807 142.859 102.107 142.159 102.207C 138.659 103.007 137.559 105.107 138.359 108.207ZM 66.3593 113.007C 67.7593 113.307 69.1593 113.207 69.2593 113.707C 71.3593 118.707 74.2594 115.907 76.9594 114.607C 81.5594 112.307 82.3593 108.307 79.6593 102.407C 78.7593 100.407 74.1594 99.307 71.0594 100.407C 69.5594 100.907 68.1593 101.407 66.6593 102.007C 66.5593 103.407 66.3593 104.607 66.3593 105.807C 66.2593 108.107 66.3593 110.407 66.3593 113.007ZM 86.8593 232.807C 92.4593 232.607 96.1594 228.607 96.0594 223.007C 95.9594 219.107 93.6593 217.907 86.3593 218.007C 84.0593 218.007 80.2594 223.207 80.4594 226.307C 80.5594 231.107 82.3593 233.007 86.8593 232.807ZM 95.9594 51.707C 95.9594 47.707 93.2593 43.607 90.7593 43.607C 86.4593 43.507 79.6593 48.107 79.6593 51.007C 79.6593 53.807 85.7593 59.307 88.8593 59.307C 92.7593 59.207 95.9594 55.807 95.9594 51.707ZM 38.7593 104.507C 38.7593 99.507 35.5593 95.507 31.1593 96.407C 28.1593 97.007 24.2594 99.007 23.0594 101.507C 21.8594 103.907 23.2593 107.907 26.6593 109.807C 28.1593 110.607 29.4594 112.107 30.9594 112.307C 33.3594 112.607 38.7593 106.807 38.7593 104.507ZM 136.559 40.607C 136.759 39.307 136.859 37.907 137.059 36.507C 137.159 35.907 137.259 35.107 137.659 34.807C 140.759 32.107 142.559 28.907 142.159 24.507C 141.959 22.107 141.159 20.907 138.859 21.307C 136.659 21.807 134.559 22.907 132.359 23.307C 130.359 23.607 129.459 24.207 129.559 26.307C 129.859 31.007 130.159 35.807 130.459 40.607C 133.059 40.607 134.559 40.607 136.559 40.607ZM 185.859 172.107C 187.759 173.207 189.359 174.307 191.159 175.107C 191.959 175.507 193.159 175.607 193.859 175.307C 197.359 173.707 199.959 170.807 200.459 167.207C 200.759 165.107 199.559 161.707 197.959 160.507C 193.659 157.307 186.159 161.707 185.859 167.107C 185.859 168.807 185.859 170.407 185.859 172.107ZM 197.259 63.107C 197.959 64.807 198.259 67.207 199.559 67.907C 206.659 71.807 211.459 68.307 212.259 61.407C 212.559 58.907 208.659 55.907 206.659 53.107C 206.459 52.807 205.659 52.907 205.259 53.007C 202.459 53.707 197.759 60.007 197.259 63.107ZM 239.159 111.207C 239.059 104.207 236.759 102.807 231.659 105.507C 230.859 105.907 229.959 106.207 229.459 106.807C 227.559 108.907 223.559 110.107 224.559 113.607C 225.459 116.607 227.859 119.107 229.759 121.607C 229.959 121.907 231.959 121.407 232.459 120.707C 234.259 118.607 235.759 116.207 237.359 113.907C 238.259 112.807 238.959 111.607 239.159 111.207ZM 125.759 245.707C 125.859 249.107 129.859 254.807 132.659 254.707C 136.359 254.507 138.259 251.607 139.359 248.307C 139.559 247.607 140.059 247.007 140.359 246.307C 141.559 242.607 139.959 240.407 136.059 240.407C 134.359 240.407 132.659 240.507 130.859 240.507C 125.959 240.507 125.659 240.807 125.759 245.707ZM 179.859 38.207C 180.659 36.807 180.959 35.407 181.859 34.807C 183.659 33.707 185.959 33.207 185.359 30.507C 184.859 28.107 186.659 24.507 183.059 23.407C 180.159 22.507 176.959 21.607 174.159 24.107C 171.359 26.607 171.059 30.507 173.259 35.807C 174.659 39.107 177.359 38.307 179.859 38.207ZM 216.559 135.507C 212.859 135.407 210.459 139.007 210.259 144.807C 210.159 148.707 211.959 151.207 214.959 151.207C 218.259 151.207 224.459 145.207 224.459 142.107C 224.559 139.207 220.159 135.607 216.559 135.507ZM 247.259 209.907C 247.459 213.707 247.459 217.207 247.859 220.507C 247.959 221.407 249.059 222.907 249.859 223.007C 251.959 223.207 254.659 223.507 256.059 222.407C 259.859 219.207 260.259 215.107 258.259 210.407C 257.459 208.607 256.559 207.507 255.059 207.807C 252.459 208.207 249.959 209.107 247.259 209.907ZM 91.4594 94.507C 92.0594 94.607 92.5593 94.607 93.1593 94.707C 94.2593 96.007 95.2594 97.307 96.4594 98.507C 97.2594 99.307 98.2593 100.107 99.3593 100.307C 99.9593 100.407 100.859 99.307 101.359 98.607C 102.459 96.707 103.459 94.707 104.459 92.807C 106.059 89.607 105.359 85.007 103.259 83.907C 100.959 82.707 96.2593 84.107 94.6593 86.907C 93.1593 89.207 92.4594 91.907 91.4594 94.507ZM 239.859 67.607C 235.459 73.407 235.159 74.407 238.759 79.207C 239.759 80.607 242.059 81.507 243.859 81.707C 244.859 81.807 246.859 80.107 246.959 79.007C 247.159 76.507 247.259 73.607 246.059 71.607C 244.859 69.907 242.059 69.007 239.859 67.607ZM 56.3593 77.807C 53.5593 82.007 53.8593 86.107 56.3593 89.707C 56.9593 90.507 60.4593 90.307 61.7593 89.407C 64.8593 87.207 64.6593 82.907 61.8593 77.807C 60.1593 77.807 58.3593 77.807 56.3593 77.807ZM 256.259 148.507C 256.259 144.307 255.359 143.207 252.359 143.907C 250.859 144.307 248.759 144.707 248.159 145.807C 247.159 147.707 246.759 150.107 246.959 152.207C 247.059 153.207 249.159 154.807 250.459 154.807C 253.959 154.807 256.159 152.007 256.259 148.507Z"/>
<path id="path3_fill" d="M 11.6 0.0716212C 16.5 -0.628379 16.6 3.97165 18 6.47165C 19 8.27165 19.6 11.3716 16.4 13.1716C 13.7 14.6716 11.5 16.9716 8.9 18.5716C 6.6 20.0716 2.79998 18.8716 1.99998 16.2716C 0.899976 12.4716 0.0999756 8.47162 -2.44141e-05 4.57162C -2.44141e-05 3.47162 2.7 1.77163 4.4 1.17163C 6.6 0.371627 9.19995 0.371621 11.6 0.0716212Z"/>
<path id="path4_fill" d="M 9.94338 0.263968C 15.0434 0.0639682 19.6434 3.86396 20.0434 8.06396C 20.2434 10.464 17.0435 14.2639 14.6435 14.8639C 12.1435 15.4639 9.8434 16.6639 7.3434 16.9639C 6.2434 17.0639 4.54345 15.964 3.64345 15.064C 0.843453 12.164 -1.05655 8.16397 0.643453 4.76397C 2.24345 1.66397 5.94338 -0.836032 9.94338 0.263968Z"/>
<path id="path5_fill" d="M 7.68745 0.691994C 13.3874 -1.70801 15.9874 2.59199 18.6874 6.59199C 20.2874 8.99199 18.7874 12.792 15.6874 14.792C 14.5874 15.492 13.4874 16.292 12.3874 17.092C 8.0874 20.492 4.98747 19.392 2.08747 14.692C 0.887471 12.692 -0.512553 11.092 0.187447 8.89201C 0.787447 6.99201 1.9874 5.292 3.3874 3.792C 4.4874 2.492 6.18745 1.69199 7.68745 0.691994Z"/>
<path id="path6_fill" d="M 0.33052 7.98121C -0.96948 4.08121 1.73059 2.28121 5.53059 1.48121C 8.03059 0.981211 10.0306 -1.1188 13.1306 0.781199C 17.8306 3.6812 19.4306 5.88122 18.0306 11.0812C 17.7306 12.0812 16.2305 12.7812 15.2305 13.4812C 13.9305 14.3812 12.1305 14.6812 11.2305 15.8812C 9.43055 18.0812 7.63054 19.7812 4.73054 18.7812C 1.63054 17.7812 0.73052 15.1812 0.33052 12.2812C 0.23052 11.0812 0.33052 9.88121 0.33052 7.98121Z"/>
<path id="path7_fill" d="M 16.2072 9.81362C 16.4072 15.9136 13.2072 19.6136 7.40723 20.0136C 3.90723 20.2136 0.107206 15.6136 0.00720619 11.1136C -0.192794 6.21361 3.80723 0.213606 7.40723 0.0136062C 11.7072 -0.286394 16.0072 4.41362 16.2072 9.81362Z"/>
<path id="path8_fill" d="M 9.45598 0.0613617C 9.95598 0.0613617 10.456 -0.0386383 10.956 0.0613617C 13.456 0.461362 16.356 -1.13863 18.056 2.26137C 19.956 6.06137 19.756 9.46137 17.556 13.1614C 15.556 16.4614 12.5559 15.6614 9.65594 15.6614C 4.45594 15.5614 -1.74402 7.66136 0.455984 3.56136C 1.75598 1.26136 2.95603 -0.338638 5.75603 0.0613617C 6.95603 0.161362 8.25598 0.0613617 9.45598 0.0613617Z"/>
<path id="path9_fill" d="M 19.392 14.4522C 14.492 14.9522 9.59198 15.5522 4.99198 16.0522C 3.19198 13.5522 1.092 11.8521 0.392 9.65215C -0.908 5.55215 0.991951 3.15216 6.59195 1.05216C 12.392 -1.24784 14.792 0.152152 18.292 5.95215C 19.892 8.65215 20.492 10.7522 19.392 14.4522Z"/>
<path id="path10_fill" d="M 8.03655 19.1652C 7.33655 19.1652 5.93647 19.1652 4.33647 19.1652C 2.93647 16.6652 1.2365 14.2652 0.236497 11.6652C -1.1635 8.06517 3.93655 1.76517 8.03655 0.765172C 10.5365 0.165172 12.9365 -0.93484 15.0365 1.56516C 16.9365 3.86516 18.1365 9.66517 16.8365 11.7652C 16.1365 12.8652 14.6365 13.5652 13.6365 14.4652C 11.9365 15.7652 10.3365 17.1652 8.03655 19.1652Z"/>
<path id="path11_fill" d="M 14.0636 0.089244C 15.4636 2.88924 16.8636 5.58926 18.2636 8.38926C 19.3636 10.4893 18.6635 11.7893 16.4635 12.6892C 14.6635 13.3892 12.8636 14.2893 11.1636 15.3893C 6.06359 18.3893 5.46354 16.6893 1.86354 13.2893C -0.336462 11.0893 -0.736487 4.38925 1.46351 2.68925C 3.26351 1.28925 5.86356 0.789256 8.26356 0.289256C 10.0636 -0.210744 11.9636 0.089244 14.0636 0.089244Z"/>
<path id="path12_fill" d="M 9.70217 0.00194294C 13.7022 -0.0980571 17.9022 3.70193 18.2022 7.80193C 18.4022 10.8019 11.9021 16.8019 8.30214 17.0019C 5.10214 17.1019 0.00209549 10.8019 0.00209549 6.50194C -0.0979045 2.50194 3.30217 0.201943 9.70217 0.00194294Z"/>
<path id="path13_fill" d="M 0.358924 13.4102C 0.358924 9.81021 -1.34115 5.71021 2.65885 1.91021C 5.05885 -0.289793 7.35892 0.410204 9.85892 0.110204C 12.4589 -0.189796 14.7589 -0.0897899 15.4589 3.21021C 15.5589 3.81021 16.4589 4.21021 16.9589 4.71021C 19.3589 7.11021 18.3589 11.6102 15.0589 13.0102C 13.2589 13.8102 11.6589 14.9102 9.85892 15.6102C 8.95892 15.9102 7.75892 16.0102 6.85892 15.7102C 4.75892 15.2102 2.85892 14.3102 0.358924 13.4102Z"/>
<path id="path14_fill" d="M 0.758436 0C 5.95844 0 10.7584 0 15.4584 0C 18.0584 6.1 16.3584 11.2 11.2584 14.7C 9.65844 15.8 5.95836 15.5 4.05836 14.4C -1.54164 11 0.0584359 5.4 0.758436 0Z"/>
<path id="path15_fill" d="M 8.30633 3.05176e-06C 13.7063 0.300003 16.1063 1.8 16.3063 5.2C 16.8063 12.3 14.1063 16.8 8.80633 17.6C 5.40633 18.1 -0.893747 11.5 0.106253 8.2C 0.806253 5.8 1.70623 3.3 3.20623 1.4C 4.20623 0.299997 6.60633 0.400003 8.30633 3.05176e-06Z"/>
<path id="path16_fill" d="M 11.459 16.9241C 9.059 17.0241 6.55895 17.6241 5.15895 14.6241C 4.95895 14.1241 4.35903 13.5241 3.85903 13.4241C -1.64097 12.0241 0.258979 7.52416 0.558979 4.32416C 0.658979 2.92416 3.75895 1.52416 5.65895 0.824156C 7.65895 0.124156 9.95898 -0.0758625 12.059 0.0241375C 15.859 0.324138 17.959 5.52414 15.859 9.12414C 14.459 11.5241 13.059 14.1241 11.459 16.9241Z"/>
<path id="path17_fill" d="M 9.65386 1.2207e-05C 10.4539 0.900012 12.3539 2.20001 13.3539 4.00001C 14.4539 6.10001 14.6538 8.70001 15.2538 11C 15.3538 11.2 15.6539 11.5 15.5539 11.6C 14.6539 13 13.8539 15.4 12.6539 15.6C 9.45386 16.3 5.65393 22.5 2.85393 15.1C 2.15393 13.4 0.753934 12 0.353934 10.2C -1.14607 4.49999 2.15386 0.200012 9.65386 1.2207e-05Z"/>
<path id="path18_fill" d="M 0.287298 8.08124C -0.612702 4.98124 0.587348 2.88125 4.08735 2.18125C 4.78735 2.08125 5.48735 1.78125 6.08735 1.38125C 9.18735 -0.518755 11.6873 -0.918752 13.6873 3.18125C 15.8873 7.68125 15.7873 10.2812 12.1873 13.3812C 10.5873 14.7812 9.2874 16.8812 7.3874 17.5812C 4.7874 18.5812 0.587298 14.4812 0.287298 11.3812C 0.287298 10.3812 0.287298 9.38124 0.287298 8.08124Z"/>
<path id="path19_fill" d="M -4.88281e-05 12.977C -4.88281e-05 10.377 -4.88281e-05 8.07698 -4.88281e-05 5.77698C -4.88281e-05 4.57698 0.2 3.37697 0.3 1.97697C 1.8 1.47697 3.30002 0.876982 4.70002 0.376982C 7.80002 -0.623018 12.4 0.476982 13.3 2.37698C 16 8.27698 15.1 12.277 10.6 14.577C 8.00005 15.877 4.99998 18.677 2.89998 13.677C 2.69998 13.177 1.29995 13.277 -4.88281e-05 12.977Z"/>
<path id="path20_fill" d="M 6.50194 14.8061C 2.00194 15.0061 0.201937 13.1061 0.00193686 8.30613C -0.0980631 5.20613 3.60196 0.106144 5.90196 0.00614438C 13.202 -0.0938556 15.502 1.00614 15.602 5.00614C 15.802 10.5061 12.1019 14.6061 6.50194 14.8061Z"/>
<path id="path21_fill" d="M 16.3 8.2016C 16.3 12.3016 13.1 15.7016 9.19995 15.7016C 6.09995 15.7016 0 10.2016 0 7.40161C 0 4.50161 6.79998 -0.0983995 11.1 0.00160048C 13.7 0.1016 16.3 4.2016 16.3 8.2016Z"/>
<path id="path22_fill" d="M 16.123 8.22718C 16.123 10.6272 10.7231 16.3272 8.32312 16.0272C 6.82312 15.8272 5.52307 14.3272 4.02307 13.5272C 0.623069 11.6272 -0.776906 7.62718 0.423094 5.22718C 1.62309 2.72718 5.52307 0.727185 8.52307 0.127185C 12.9231 -0.772815 16.123 3.22718 16.123 8.22718Z"/>
<path id="path23_fill" d="M 7.00751 19.4061C 5.10751 19.4061 3.50754 19.4061 0.907536 19.4061C 0.607536 14.6061 0.307512 9.80612 0.00751196 5.10612C -0.092488 3.10612 0.807439 2.40612 2.80744 2.10612C 5.00744 1.80612 7.10744 0.606122 9.30744 0.106122C 11.6074 -0.393878 12.4075 0.906119 12.6075 3.30612C 13.0075 7.70612 11.2075 10.9061 8.10749 13.6061C 7.70749 13.9061 7.60751 14.7061 7.50751 15.3061C 7.20751 16.7061 7.10751 18.1061 7.00751 19.4061Z"/>
<path id="path24_fill" d="M 0.0443956 12.5953C 0.0443956 10.8953 -0.0556044 9.29526 0.0443956 7.69526C 0.244396 2.19526 7.84449 -2.10475 12.1445 1.09525C 13.8445 2.29525 14.9445 5.69526 14.6445 7.79526C 14.1445 11.3953 11.5444 14.2953 8.0444 15.8953C 7.3444 16.1953 6.14444 16.0953 5.34444 15.6953C 3.64444 14.7953 2.0444 13.6953 0.0443956 12.5953Z"/>
<path id="path25_fill" d="M -2.44141e-05 10.1657C 0.499976 6.96569 5.19998 0.765682 7.99998 0.0656824C 8.49998 -0.0343176 9.2 -0.0343115 9.4 0.165688C 11.4 2.86569 15.3 5.96569 15 8.46569C 14.1 15.3657 9.40002 18.8657 2.30002 14.9657C 1.00002 14.3657 0.699976 11.8657 -2.44141e-05 10.1657Z"/>
<path id="path26_fill" d="M 14.6844 6.92021C 14.4844 7.22021 13.7845 8.52022 12.9845 9.62022C 11.3845 11.9202 9.88447 14.2202 8.08447 16.4202C 7.48447 17.1202 5.5844 17.6202 5.3844 17.3202C 3.4844 14.7202 1.08445 12.2202 0.184445 9.32021C -0.915555 5.82021 3.18447 4.62021 5.08447 2.52021C 5.58447 1.92021 6.48442 1.62021 7.28442 1.22021C 12.2844 -1.37979 14.5844 0.0202055 14.6844 6.92021Z"/>
<path id="path27_fill" d="M 0.014229 5.39999C -0.085771 0.499994 0.214204 0.200006 5.1142 0.100006C 6.8142 0.100006 8.51428 5.68434e-14 10.3143 5.68434e-14C 14.1143 5.68434e-14 15.7142 2.19999 14.6142 5.89999C 14.4142 6.59999 13.9142 7.19999 13.6142 7.89999C 12.5142 11.2 10.6143 14.1 6.91425 14.3C 4.11425 14.5 0.114229 8.69999 0.014229 5.39999Z"/>
<path id="path28_fill" d="M 7.95195 15.6261C 5.45195 15.7261 2.75195 16.5261 1.45195 13.3261C -0.748049 8.0261 -0.448025 4.12609 2.35198 1.62609C 5.15198 -0.873914 8.352 0.0260893 11.252 0.926089C 14.852 2.02609 12.952 5.5261 13.552 8.0261C 14.152 10.7261 11.852 11.3261 10.052 12.3261C 9.05205 12.8261 8.75195 14.2261 7.95195 15.6261Z"/>
<path id="path29_fill" d="M 6.30398 0.0020432C 9.80398 0.102043 14.304 3.70204 14.204 6.50204C 14.204 9.60204 7.90401 15.602 4.70401 15.602C 1.70401 15.602 -0.0960642 13.102 0.00393581 9.20202C 0.203936 3.50202 2.70398 -0.0979568 6.30398 0.0020432Z"/>
<path id="path30_fill" d="M -2.44141e-05 2.12524C 2.69998 1.42524 5.10005 0.425236 7.70005 0.0252364C 9.20005 -0.174764 10.1 0.825243 10.9 2.62524C 12.9 7.32524 12.5 11.4252 8.70005 14.6252C 7.40005 15.7252 4.59998 15.4252 2.49998 15.2252C 1.69998 15.1252 0.599976 13.6252 0.499976 12.7252C 0.299976 9.32525 0.199976 5.92524 -2.44141e-05 2.12524Z"/>
<path id="path31_fill" d="M 4.88281e-05 11.2315C 1.00005 8.63145 1.80002 5.83145 3.10002 3.43145C 4.60002 0.631448 9.4 -0.768553 11.7 0.431448C 13.9 1.53145 14.5 6.13146 12.9 9.33146C 11.9 11.3315 11 13.2315 9.79998 15.1315C 9.39998 15.8315 8.39998 16.9315 7.79998 16.8315C 6.79998 16.6315 5.69995 15.8315 4.89995 15.0315C 3.69995 13.9315 2.70002 12.5315 1.60002 11.2315C 1.10002 11.3315 0.500049 11.3315 4.88281e-05 11.2315Z"/>
<path id="path32_fill" d="M 3.60704 3.05176e-06C 5.80704 1.4 8.60712 2.19999 9.80712 4.09999C 11.0071 6.09999 11.0071 9 10.7071 11.5C 10.6071 12.5 8.60704 14.3 7.60704 14.2C 5.80704 14 3.60707 13 2.50707 11.7C -1.09293 6.8 -0.892956 5.9 3.60704 3.05176e-06Z"/>
<path id="path33_fill" d="M 1.94186 0C 3.84186 0 5.74196 0 7.54196 0C 10.342 5.1 10.5419 9.40001 7.44186 11.6C 6.14186 12.5 2.54196 12.7 2.04196 11.9C -0.458043 8.29999 -0.858141 4.2 1.94186 0Z"/>
<path id="path34_fill" d="M 9.24998 4.83256C 9.24998 8.33256 6.95002 11.1325 3.55002 11.1325C 2.35002 11.1325 0.250024 9.53254 0.0500244 8.53254C -0.149976 6.43254 0.249976 4.03255 1.24998 2.13255C 1.84998 1.03255 3.95005 0.632552 5.45005 0.232552C 8.35005 -0.567448 9.24998 0.632559 9.24998 4.83256Z"/>
</defs>
</svg>
