<svg width="1209" height="369" viewBox="0 0 1209 369" version="1.1" xmlns="http://www.w3.org/2000/svg" xmlns:xlink="http://www.w3.org/1999/xlink">
<title>bg-palestrantes</title>
<desc>Created using Figma</desc>
<g id="Canvas" transform="translate(2156 1158)">
<g id="bg-palestrantes">
<g id="Rectangle 5">
<use xlink:href="#path0_fill" transform="translate(-2156 -1158)" fill="#FFFFFF"/>
</g>
<g id="Group">
<g id="Vector">
<use xlink:href="#path1_fill" transform="translate(-2156 -1114)"/>
</g>
<g id="Vector">
<use xlink:href="#path2_fill" transform="translate(-2142.1 -1087.9)" fill="#FAD723"/>
</g>
<g id="Vector">
<use xlink:href="#path3_fill" transform="translate(-2108.1 -1078.9)" fill="#FAD723"/>
</g>
<g id="Vector">
<use xlink:href="#path3_fill" transform="translate(-2070.1 -1069.9)" fill="#FAD723"/>
</g>
<g id="Vector">
<use xlink:href="#path3_fill" transform="translate(-2030.1 -1059.9)" fill="#FAD723"/>
</g>
<g id="Vector">
<use xlink:href="#path4_fill" transform="translate(-1990.1 -1049.9)" fill="#FAD723"/>
</g>
<g id="Vector">
<use xlink:href="#path4_fill" transform="translate(-1950.1 -1039.9)" fill="#FAD723"/>
</g>
<g id="Vector">
<use xlink:href="#path4_fill" transform="translate(-1909.1 -1028.9)" fill="#FAD723"/>
</g>
<g id="Vector">
<use xlink:href="#path4_fill" transform="translate(-1866.1 -1012.9)" fill="#FAD723"/>
</g>
<g id="Vector">
<use xlink:href="#path4_fill" transform="translate(-1827.1 -1002.9)" fill="#FAD723"/>
</g>
<g id="Vector">
<use xlink:href="#path4_fill" transform="translate(-1793.1 -993.9)" fill="#FAD723"/>
</g>
<g id="Vector">
<use xlink:href="#path4_fill" transform="translate(-1755.1 -984.9)" fill="#FAD723"/>
</g>
<g id="Vector">
<use xlink:href="#path4_fill" transform="translate(-1715.1 -974.9)" fill="#FAD723"/>
</g>
<g id="Vector">
<use xlink:href="#path4_fill" transform="translate(-1675.1 -964.9)" fill="#FAD723"/>
</g>
<g id="Vector">
<use xlink:href="#path5_fill" transform="translate(-1635.1 -954.9)" fill="#FAD723"/>
</g>
<g id="Vector">
<use xlink:href="#path5_fill" transform="translate(-1594.1 -943.9)" fill="#FAD723"/>
</g>
<g id="Vector">
<use xlink:href="#path6_fill" transform="translate(-1546.8 -944.8)" fill="#FAD723"/>
</g>
<g id="Vector">
<use xlink:href="#path7_fill" transform="translate(-1506.4 -955.1)" fill="#FAD723"/>
</g>
<g id="Vector">
<use xlink:href="#path8_fill" transform="translate(-1463.3 -968.2)" fill="#FAD723"/>
</g>
<g id="Vector">
<use xlink:href="#path9_fill" transform="translate(-1421.5 -978.3)" fill="#FAD723"/>
</g>
<g id="Vector">
<use xlink:href="#path10_fill" transform="translate(-1381.8 -988.4)" fill="#FAD723"/>
</g>
<g id="Vector">
<use xlink:href="#path11_fill" transform="translate(-1341.9 -998.3)" fill="#FAD723"/>
</g>
<g id="Vector">
<use xlink:href="#path12_fill" transform="translate(-1301.3 -1007.2)" fill="#FAD723"/>
</g>
<g id="Vector">
<use xlink:href="#path13_fill" transform="translate(-1261.8 -1017.4)" fill="#FAD723"/>
</g>
<g id="Vector">
<use xlink:href="#path14_fill" transform="translate(-1221.4 -1027.3)" fill="#FAD723"/>
</g>
<g id="Vector">
<use xlink:href="#path15_fill" transform="translate(-1179.1 -1038.6)" fill="#FAD723"/>
</g>
<g id="Vector">
<use xlink:href="#path16_fill" transform="translate(-1138.9 -1051)" fill="#FAD723"/>
</g>
<g id="Vector">
<use xlink:href="#path17_fill" transform="translate(-1099.2 -1061.2)" fill="#FAD723"/>
</g>
<g id="Vector">
<use xlink:href="#path18_fill" transform="translate(-1058.6 -1070.9)" fill="#FAD723"/>
</g>
<g id="Vector">
<use xlink:href="#path19_fill" transform="translate(-1018.6 -1080.9)" fill="#FAD723"/>
</g>
<g id="Vector">
<use xlink:href="#path15_fill" transform="translate(-979.1 -1091.6)" fill="#FAD723"/>
</g>
</g>
<g id="Vector">
<use xlink:href="#path20_fill" transform="translate(-1171.6 -955.9)"/>
</g>
<g id="Vector">
<use xlink:href="#path21_fill" transform="translate(-2128.67 -955.9)"/>
</g>
</g>
</g>
<defs>
<path id="path0_fill" d="M 0 0L 582 155L 1209 0L 1209 369L 0 369L 0 0Z"/>
<path id="path1_fill" d="M 0 -9.76563e-05L 584.9 161.5L 1200 -9.76563e-05L 1200 59.9999L 584.9 223.9L 0 64.7001L 0 -9.76563e-05Z"/>
<path id="path2_fill" d="M -3.8147e-07 11.7L 16.1 0L 25.1 17.5L 7.1 24.8999L -3.8147e-07 11.7Z"/>
<path id="path3_fill" d="M 1.52588e-06 11.7L 16.1 0L 25.1 17.5L 7.1 24.8999L 1.52588e-06 11.7Z"/>
<path id="path4_fill" d="M -6.10352e-06 11.7L 16.1 0L 25.1 17.5L 7.1 24.8999L -6.10352e-06 11.7Z"/>
<path id="path5_fill" d="M 2.44141e-05 11.7L 16.1 0L 25.1 17.5L 7.1 24.8999L 2.44141e-05 11.7Z"/>
<path id="path6_fill" d="M 1.2207e-05 13.2999L 9.00001 9.76563e-05L 24 12.1L 12.5 24.2L 1.2207e-05 13.2999Z"/>
<path id="path7_fill" d="M -2.44141e-05 15.0999L 8.10001 4.88281e-05L 25.4 8.89995L 13.4 23.5999L -2.44141e-05 15.0999Z"/>
<path id="path8_fill" d="M 1.2207e-05 17L 10.1 -4.88281e-05L 25.3 12.5L 11.6 26.3L 1.2207e-05 17Z"/>
<path id="path9_fill" d="M 0 16.7L 10.7 9.76563e-05L 25.5 13.0001L 11.4 26.4L 0 16.7Z"/>
<path id="path10_fill" d="M 1.2207e-05 15.8L 12.1 0L 25.7 14.3L 10.6 26.3999L 1.2207e-05 15.8Z"/>
<path id="path11_fill" d="M -2.44141e-05 14.7999L 13.2 9.76563e-05L 25.7 15.1L 9.69999 26.1L -2.44141e-05 14.7999Z"/>
<path id="path12_fill" d="M 1.2207e-05 17.1L 10 -4.88281e-05L 25.3 12.4001L 11.7 26.3L 1.2207e-05 17.1Z"/>
<path id="path13_fill" d="M 1.2207e-05 15.3999L 12.5 0L 25.7 14.6001L 10.2 26.3L 1.2207e-05 15.3999Z"/>
<path id="path14_fill" d="M -2.44141e-05 17.0001L 10.4 9.76563e-05L 25.4 12.7L 11.6 26.4L -2.44141e-05 17.0001Z"/>
<path id="path15_fill" d="M 2.44141e-05 18.9L 6.1 4.88281e-05L 23.7 8.89995L 13.5 25.4L 2.44141e-05 18.9Z"/>
<path id="path16_fill" d="M -2.44141e-05 17.9L 8.59995 -9.76563e-05L 24.8 11.1L 12.5 26.1L -2.44141e-05 17.9Z"/>
<path id="path17_fill" d="M 4.88281e-05 17.3L 9.7 -4.88281e-05L 25.2 12.1L 11.9 26.3L 4.88281e-05 17.3Z"/>
<path id="path18_fill" d="M 2.44141e-05 18.3999L 7.50002 0L 24.4 10.1001L 13 25.8999L 2.44141e-05 18.3999Z"/>
<path id="path19_fill" d="M 2.44141e-05 18.3999L 7.50002 0L 24.4 10.2L 13 25.8999L 2.44141e-05 18.3999Z"/>
<path id="path20_fill" d="M 8.00002 17.1001C 10.8 19.2001 14.5 25.7 14.5 25.7L 2.44141e-05 27.7C 2.44141e-05 27.7 2.4 33.1 5.1 35.2C 7.9 37.3 20.3 41 24.7 40C 29.1 39 35.6 44.7 38 47.2C 40.4 49.8 41.0999 54.6 42.2999 57.7C 43.4999 60.8 42.5 68.0001 40.9 77.6001C 39.3 87.3001 46.7 99.4 52.7 104C 58.7 108.5 63.6 108.7 74.1 107.3C 84.6 105.9 94.3 107.4 98.1 105.3C 101.9 103.1 109.7 93.8999 115.3 89.3999C 120.9 84.8999 130.7 75.7999 135.5 71.3999C 140.3 67.0999 151 58.6 153.9 55.7C 156.8 52.8 184.4 41.3 184.4 41.3C 187.4 29.8 150.8 33.1001 150.8 33.1001C 158.8 -2.0999 139.9 7.4 142.7 9.5C 148.5 40 112.2 54.3 112.2 54.3C 138.6 27.3 132.6 1.8 130.3 -4.54747e-13C 69.2 7 61.6 45.5 61.6 45.5C 60.4 33.7 41.9 18.2 41.9 18.2C 41.9 18.2 32 12.1001 29.3 16.6001C 26.6 21.1001 19.6 20.8 19.6 20.8C 19.6 20.8 10.9 11.3 7.89999 10.5C 4.89999 9.7 5.30002 15.0001 8.00002 17.1001ZM 123.2 20.5C 123.2 20.5 115.6 24.4001 112.3 24.1001C 109.1 23.8001 102.5 23.6001 102.5 23.6001C 102.5 23.6001 98.4 26.1001 97.6 26.6001C 96.7 27.1001 95.6 30.2 95.6 30.2C 95.6 30.2 102.8 31.4 104.4 31.3C 106 31.2 113.8 31.3999 113.8 31.3999C 113.8 31.3999 110.4 35.8 109.7 35.8C 109 35.8 103.3 37.4 102.4 37.2C 101.5 37 93.1 35.9001 92.4 35.6001C 91.7 35.3001 89.2999 34 89.2999 34C 89.2999 34 85.5 36.3999 85.1 36.8999C 84.8 37.3999 81.8 41.2 81 42.3C 80.2 43.4 78.2 45.7 78.2 45.7L 75.5 42.3C 76.5 41 84.2 33.7999 86.6 30.8999C 89.1 27.9999 95.3 23.3 96.9 21.8C 98.5 20.4 109.1 13.7 110.4 13.3C 111.7 12.8 116.5 12.6001 116.5 12.6001L 116.6 15.3L 123.2 20.5ZM 90.2999 51C 92.8999 51.3 100.1 51.5 100.1 51.5C 100.1 51.5 101.5 52.8001 97.7999 54.6001C 94.0999 56.3001 95.2 57 90.2 56.3C 85.2 55.6 80.7 55.8 79.9 55.2C 79.1 54.6 76.4 52.5 76.4 52.5L 78.6 49.6001C 80.2 49.8001 87.6999 50.7 90.2999 51ZM 110.5 40.8L 107 43.8999C 107 43.8999 101.7 44.6999 99.5 44.3999C 97.3 44.1999 88.7 42.7 88.7 42.7L 90.6 40.3C 90.6 40.3 98.1 41.1999 99.2 41.3999C 100.3 41.6999 110.5 40.8 110.5 40.8ZM 98.5 69.3999C 66.1 82.3999 67.5 56 67.5 56C 87.6 73.4 98.5 69.3999 98.5 69.3999ZM 52.5 69.1001C 54.2 72.6001 81.4 91.1001 81.4 91.1001C 81.4 91.1001 81.1 95.2 73.5 96.7C 53.1 104.3 52.5 69.1001 52.5 69.1001ZM 28.6 24.1001C 29.4 23.1001 30.9 22.9 31.9 23.7C 32.9 24.5 33.1 26 32.3 27C 31.5 28 30 28.1999 29 27.3999C 28 26.5999 27.8 25.2001 28.6 24.1001Z"/>
<path id="path21_fill" d="M 176.675 10.5C 173.675 11.3 164.975 20.8 164.975 20.8C 164.975 20.8 157.975 21.1001 155.275 16.6001C 152.575 12.1001 142.675 18.2 142.675 18.2C 142.675 18.2 124.075 33.8 122.975 45.5C 122.975 45.5 115.475 7.1 54.2748 -4.54747e-13C 51.9748 1.7 46.0748 27.3 72.3748 54.3C 72.3748 54.3 36.0748 39.9 41.8748 9.5C 44.6748 7.4 25.7748 -2.0999 33.7748 33.1001C 33.7748 33.1001 -2.82516 29.8 0.17484 41.3C 0.17484 41.3 27.7748 52.9 30.6748 55.7C 33.5748 58.6 44.3748 66.9999 49.0748 71.3999C 53.7748 75.7999 63.6748 84.8999 69.2748 89.3999C 74.8748 93.8999 82.6748 103.1 86.4748 105.3C 90.2748 107.5 99.9748 105.9 110.475 107.3C 120.975 108.7 125.975 108.6 131.875 104C 137.875 99.5 145.275 87.3001 143.675 77.6001C 142.075 67.9001 140.975 60.8 142.275 57.7C 143.475 54.6 144.175 49.7 146.575 47.2C 148.975 44.6 155.475 38.9 159.875 40C 164.275 41 176.675 37.3 179.475 35.2C 182.275 33.1 184.575 27.7 184.575 27.7L 170.075 25.7C 170.075 25.7 173.875 19.2001 176.575 17.1001C 179.375 15.0001 179.675 9.7 176.675 10.5ZM 68.0748 15.3L 68.1748 12.6001C 68.1748 12.6001 72.9748 12.8 74.2748 13.3C 75.5748 13.8 86.1748 20.4 87.7748 21.8C 89.3748 23.2 95.5748 27.8999 98.0748 30.8999C 100.575 33.7999 108.175 41 109.175 42.3L 106.475 45.7C 106.475 45.7 104.475 43.4 103.675 42.3C 102.875 41.2 99.9748 37.3999 99.5748 36.8999C 99.2748 36.3999 95.3748 34 95.3748 34C 95.3748 34 93.0748 35.3001 92.2748 35.6001C 91.5748 35.9001 83.1748 37 82.2748 37.2C 81.3748 37.4 75.6748 35.7 74.9748 35.8C 74.2748 35.8 70.8748 31.3999 70.8748 31.3999C 70.8748 31.3999 78.6748 31.2 80.2748 31.3C 81.8748 31.4 89.0748 30.2 89.0748 30.2C 89.0748 30.2 87.9748 27.2001 87.0748 26.6001C 86.1748 26.1001 82.1748 23.6001 82.1748 23.6001C 82.1748 23.6001 75.5748 23.8001 72.3748 24.1001C 69.1748 24.4001 61.4748 20.5 61.4748 20.5L 68.0748 15.3ZM 106.075 49.6001L 108.275 52.5C 108.275 52.5 105.475 54.6 104.775 55.2C 103.975 55.8 99.4748 55.6 94.4748 56.3C 89.4748 57 90.6748 56.3001 86.8748 54.6001C 83.1748 52.9001 84.5748 51.5 84.5748 51.5C 84.5748 51.5 91.6748 51.4 94.3748 51C 97.0748 50.6 104.475 49.8001 106.075 49.6001ZM 85.4748 41.5C 86.5748 41.3 94.0748 40.3999 94.0748 40.3999L 95.9748 42.8C 95.9748 42.8 87.3748 44.2 85.1748 44.5C 82.9748 44.7 77.6748 44 77.6748 44L 74.1748 40.8999C 74.1748 40.7999 84.3748 41.7 85.4748 41.5ZM 117.075 55.8999C 117.075 55.8999 118.575 82.3 86.0748 69.3C 86.1748 69.4 97.0748 73.3999 117.075 55.8999ZM 111.175 96.6001C 103.575 95.2001 103.275 91 103.275 91C 103.275 91 130.475 72.5 132.175 69C 132.175 69.1 131.475 104.3 111.175 96.6001ZM 155.575 27.3999C 154.575 28.1999 153.075 28 152.275 27C 151.475 26 151.675 24.5 152.675 23.7C 153.675 22.9 155.175 23.1001 155.975 24.1001C 156.875 25.2001 156.675 26.5999 155.575 27.3999Z"/>
</defs>
</svg>
