<svg width="420" height="205" viewBox="0 0 420 205" version="1.1" xmlns="http://www.w3.org/2000/svg" xmlns:xlink="http://www.w3.org/1999/xlink">
<title>casinha</title>
<desc>Created using Figma</desc>
<g id="Canvas" transform="translate(3799 3713)">
<g id="casinha">
<g id="Vector">
<use xlink:href="#path0_fill" transform="translate(-3783.76 -3713)"/>
</g>
<g id="Vector">
<use xlink:href="#path1_fill" transform="translate(-3763.25 -3654.34)"/>
</g>
<g id="Vector">
<use xlink:href="#path2_fill" transform="translate(-3743.5 -3692.6)" fill="#FFFFFF"/>
</g>
<g id="Vector">
<use xlink:href="#path3_fill" transform="translate(-3699.31 -3663.05)" fill="#FFFFFF"/>
</g>
<g id="Vector">
<use xlink:href="#path4_fill" transform="translate(-3735.22 -3656.5)" fill="#FFFFFF"/>
</g>
<g id="Vector">
<use xlink:href="#path5_fill" transform="translate(-3554.06 -3615.01)" fill="#FFFFFF"/>
</g>
<g id="Vector">
<use xlink:href="#path6_fill" transform="translate(-3595.81 -3665.5)" fill="#FFFFFF"/>
</g>
<g id="Vector">
<use xlink:href="#path7_fill" transform="translate(-3623.2 -3694.2)" fill="#FFFFFF"/>
</g>
<g id="Vector">
<use xlink:href="#path8_fill" transform="translate(-3582.57 -3684.96)" fill="#FFFFFF"/>
</g>
<g id="Vector">
<use xlink:href="#path9_fill" transform="translate(-3619.1 -3670.96)" fill="#FFFFFF"/>
</g>
<g id="Vector">
<use xlink:href="#path10_fill" transform="translate(-3594.9 -3673.4)" fill="#FFFFFF"/>
</g>
<g id="Vector">
<use xlink:href="#path11_fill" transform="translate(-3602.2 -3683.59)" fill="#FFFFFF"/>
</g>
<g id="Vector">
<use xlink:href="#path12_fill" transform="translate(-3744.04 -3652.31)" fill="#FFFFFF"/>
</g>
<g id="Vector">
<use xlink:href="#path13_fill" transform="translate(-3606.98 -3696.21)" fill="#FFFFFF"/>
</g>
<g id="Vector">
<use xlink:href="#path14_fill" transform="translate(-3602.1 -3676.26)" fill="#FFFFFF"/>
</g>
<g id="Vector">
<use xlink:href="#path15_fill" transform="translate(-3621.6 -3679.46)" fill="#FFFFFF"/>
</g>
<g id="Vector">
<use xlink:href="#path16_fill" transform="translate(-3610.5 -3675.53)" fill="#FFFFFF"/>
</g>
<g id="Vector">
<use xlink:href="#path17_fill" transform="translate(-3609.1 -3685.8)" fill="#FFFFFF"/>
</g>
<g id="Vector">
<use xlink:href="#path18_fill" transform="translate(-3694.9 -3679.61)" fill="#FFFFFF"/>
</g>
<g id="Vector">
<use xlink:href="#path19_fill" transform="translate(-3597 -3690.71)" fill="#FFFFFF"/>
</g>
<g id="Vector">
<use xlink:href="#path20_fill" transform="translate(-3599.5 -3614)" fill="#FFFFFF"/>
</g>
<g id="Vector">
<use xlink:href="#path21_fill" transform="translate(-3609.9 -3663.3)" fill="#FFFFFF"/>
</g>
<g id="Vector">
<use xlink:href="#path22_fill" transform="translate(-3548.8 -3644.3)" fill="#FFFFFF"/>
</g>
<g id="Vector">
<use xlink:href="#path23_fill" transform="translate(-3770.65 -3697.4)" fill="#E42513"/>
</g>
<g id="Vector">
<use xlink:href="#path24_fill" transform="translate(-3760.3 -3699.97)" fill="#E42513"/>
</g>
<g id="Vector">
<use xlink:href="#path25_fill" transform="translate(-3773.19 -3702.36)" fill="#E42513"/>
</g>
<g id="Vector">
<use xlink:href="#path26_fill" transform="translate(-3737.38 -3673.83)"/>
</g>
<g id="Vector">
<use xlink:href="#path27_fill" transform="translate(-3717.42 -3681.12)"/>
</g>
<g id="Vector">
<use xlink:href="#path28_fill" transform="translate(-3713.2 -3689.56)"/>
</g>
<g id="Vector">
<use xlink:href="#path29_fill" transform="translate(-3725.81 -3680.83)"/>
</g>
<g id="Vector">
<use xlink:href="#path30_fill" transform="translate(-3733.2 -3682.02)"/>
</g>
<g id="Group">
<g id="Vector">
<use xlink:href="#path31_fill" transform="translate(-3799 -3713)"/>
</g>
<g id="Vector">
<use xlink:href="#path32_fill" transform="translate(-3536.7 -3633.81)" fill="#FFFFFF"/>
</g>
<g id="Vector">
<use xlink:href="#path33_fill" transform="translate(-3542.7 -3666.5)" fill="#FFFFFF"/>
</g>
<g id="Vector">
<use xlink:href="#path34_fill" transform="translate(-3454.83 -3666.1)" fill="#FFFFFF"/>
</g>
<g id="Vector">
<use xlink:href="#path35_fill" transform="translate(-3408.04 -3595.5)" fill="#FFFFFF"/>
</g>
<g id="Vector">
<use xlink:href="#path36_fill" transform="translate(-3419.94 -3621.2)" fill="#FFFFFF"/>
</g>
<g id="Vector">
<use xlink:href="#path37_fill" transform="translate(-3422.7 -3645.8)" fill="#FFFFFF"/>
</g>
<g id="Vector">
<use xlink:href="#path38_fill" transform="translate(-3460.5 -3660.72)" fill="#FFFFFF"/>
</g>
<g id="Vector">
<use xlink:href="#path39_fill" transform="translate(-3436.66 -3659.6)" fill="#FFFFFF"/>
</g>
<g id="Vector">
<use xlink:href="#path40_fill" transform="translate(-3457.3 -3669.9)" fill="#FFFFFF"/>
</g>
<g id="Vector">
<use xlink:href="#path41_fill" transform="translate(-3488 -3653.9)" fill="#FFFFFF"/>
</g>
<g id="Vector">
<use xlink:href="#path42_fill" transform="translate(-3492.2 -3673.7)" fill="#FFFFFF"/>
</g>
<g id="Vector">
<use xlink:href="#path43_fill" transform="translate(-3420.5 -3627.4)" fill="#FFFFFF"/>
</g>
<g id="Vector">
<use xlink:href="#path44_fill" transform="translate(-3458.5 -3637.3)" fill="#FFFFFF"/>
</g>
<g id="Vector">
<use xlink:href="#path45_fill" transform="translate(-3435.6 -3633.5)" fill="#FFFFFF"/>
</g>
<g id="Vector">
<use xlink:href="#path46_fill" transform="translate(-3428.55 -3645.2)" fill="#FFFFFF"/>
</g>
<g id="Vector">
<use xlink:href="#path47_fill" transform="translate(-3518.44 -3605.8)"/>
</g>
<g id="Vector">
<use xlink:href="#path48_fill" transform="translate(-3479.8 -3603.3)"/>
</g>
<g id="Vector">
<use xlink:href="#path49_fill" transform="translate(-3508.4 -3597.31)" fill="#FFFFFF"/>
</g>
<g id="Vector">
<use xlink:href="#path50_fill" transform="translate(-3473.07 -3594.9)" fill="#FFFFFF"/>
</g>
<g id="Vector">
<use xlink:href="#path51_fill" transform="translate(-3505.21 -3593.1)"/>
</g>
<g id="Vector">
<use xlink:href="#path52_fill" transform="translate(-3469.2 -3591.8)"/>
</g>
</g>
</g>
</g>
<defs>
<path id="path0_fill" d="M 29.4605 -6.10352e-06C 29.9605 0.199994 30.4605 0.5 30.9605 0.6C 36.3605 0.7 38.4605 2.50001 40.7605 7.30001C 41.5605 8.90001 42.0605 10.4 41.8605 11.9C 41.6605 13.6 41.3605 15.6 40.3605 16.9C 37.6605 20.8 34.5605 24.4 31.5605 28.2C 31.3605 28.4 30.9605 28.7 30.9605 28.9C 31.4605 33.3 27.7605 36.3 27.0605 40.3C 26.2605 45 25.3605 49.7 24.7605 54.4C 24.4605 56.9 23.0605 58.4 20.2605 58.3C 20.0605 55.4 19.8605 52.5 19.5605 49.6C 19.4605 48.8 18.7605 48 18.7605 47.2C 18.6605 45.2 18.0605 42.9 20.4605 41.8C 19.1605 41 17.3605 40.5 16.9605 39.5C 16.4605 38.2 17.1605 36.5 17.2605 34.7C 14.0605 33.4 10.5605 31.8 7.96052 28.6C 4.86052 24.9 1.56048 21.3 0.360481 16.6C -0.339519 13.8 0.160481 10.6 0.360481 7.6C 0.460481 6.8 1.56051 6.09999 2.26051 5.39999C 4.66051 3.09999 7.26048 1.3 10.8605 2.1C 12.3605 2.4 13.3605 1.9 13.1605 0.1C 18.6605 0 24.0605 -6.10352e-06 29.4605 -6.10352e-06ZM 23.8605 19.4C 18.9605 19 18.8605 19 17.9605 15.4C 16.7605 15.5 15.5605 15.6 14.3605 15.8C 12.9605 16 12.8605 17 13.4605 18C 14.0605 19 14.7605 20.3 15.7605 20.8C 17.5605 21.9 17.9605 23.2 17.8605 25.1C 17.8605 25.9 18.7605 27.4 18.9605 27.3C 20.0605 27.1 21.7605 26.7 22.1605 25.9C 23.0605 24.1 23.3605 21.8 23.8605 19.4ZM 23.4605 17.1C 24.4605 17.1 25.5605 17.4 26.3605 17C 27.3605 16.5 28.0605 15.5 28.8605 14.7C 28.1605 14.2 27.5605 13.3 26.8605 13.1C 25.8605 12.8 24.6605 13 23.4605 13C 23.4605 14.6 23.4605 15.7 23.4605 17.1ZM 15.7605 10.9C 13.3605 10.5 11.6605 10.2 10.6605 12.2C 10.4605 12.6 10.6605 13.6 10.7605 13.6C 11.9605 13.7 13.2605 13.9 14.2605 13.5C 14.9605 13.3 15.1605 12 15.7605 10.9Z"/>
<path id="path1_fill" d="M 4.95258 8.03999C 0.652582 7.33999 -0.247443 6.14 0.0525575 2.14C 1.15256 1.34 2.15257 0.539991 3.25257 0.0399914C 3.65257 -0.160009 4.95258 0.439973 4.95258 0.739973C 4.95258 3.13997 4.95258 5.53999 4.95258 8.03999Z"/>
<path id="path2_fill" d="M 27.8 -1.2207e-05C 29.5 0.299988 31.2 0.899988 32.9 0.999988C 34.7 1.09999 36.5 0.900012 38.3 0.900012C 39 0.900012 39.8 1.00001 40.3 1.30001C 40.5 1.40001 40.4 2.40001 40.3 2.90001C 39.5 6.40001 38.8 9.99999 37.9 13.5C 37.3 16 36.6 18.6 35.5 21C 34.1 24.1 33.4 27 34.6 30.3C 35.3 32.3 35.2 34.7 35.4 36.9C 35.6 39 35 41.7 36 43C 38.8 46.3 36.7 50.2 38.2 53.7C 39.6 57.1 39.2 61.2 39.4 65C 39.5 66.7 40.4 69.1 37.9 69.7C 35.4 70.3 35 68 34.6 66.3C 34 63.8 33.7 61.3 33.4 58.7C 32.9 54.8 32.5 50.8 31.9 46.9C 31.8 46.2 30.9 45.7 30.4 45.2C 30.5 43.7 30.8 42.1 30.8 40.5C 30.9 35 30.8 29.6 30.8 24.1C 30.8 21.7 29.4 20.9 27.3 20.9C 25.9 20.9 24.5 20.9 22.9 20.9C 22.5 22.6 22.2 24.1 21.8 25.8C 22.6 25.9 23.2 25.8 23.7 26C 24.3 26.4 24.7 27.1 25.3 27.7C 24.7 28.1 24.1 28.9 23.5 28.9C 19.8 28.9 16.1 28.6 12.4 28.7C 8.79998 28.9 5.30002 29.6 1.70002 30C 1.20002 30.1 0.700012 30 1.2207e-05 29.9C 1.2207e-05 28.7 1.2207e-05 27.6 1.2207e-05 26.4C 1.2207e-05 26 2.44081e-05 25.3 0.200024 25.2C 4.80002 23.2 4.20001 18.3 6.00001 14.9C 10.1 7.00001 13.1 6.90001 21.2 8.40001C 25.5 9.20001 28.9 7.49999 29.1 2.99999C 29.1 2.29999 28 1.50001 27.3 0.800006C 27.7 0.600006 27.8 0.299988 27.8 -1.2207e-05ZM 11.5 22.9C 12.1 23.2 13 23.5 13 23.6C 12.6 26.1 14.6 25.5 15.8 25.6C 18.1 25.7 20.2 23.3 20 21.2C 19.8 19.7 18 19.2 15.4 19.6C 14.2 19.8 13 19.3 11.8 19.1C 11 19 10.1 18.7 9.39998 19C 7.59998 19.8 5.8 24.9 6.3 27.1C 8 26.6 9.80001 26 11.5 25.5C 11.4 24.5 11.4 23.8 11.5 22.9ZM 33.9 12.2C 33.1 12 32.9 11.8 32.6 11.8C 31.4 11.7 29.9 11.2 29 11.7C 27.2 12.8 25.8 14.5 26.1 16.9C 26.1 17.3 26.6 17.9 27 18.1C 29.2 19.1 31.6 18.4 32.8 16.2C 33.4 15 33.5 13.6 33.9 12.2ZM 36.9 3.09999C 32.5 2.59999 30.2 5.09999 30.3 8.99999C 32 9.29999 33.7 12.4 35.3 9.30001C 36.3 7.50001 36.4 5.39999 36.9 3.09999ZM 24.5 11.9C 22.5 11.9 20.9 11.5 19.9 12C 18.9 12.5 18.2 14 17.8 15.2C 17.7 15.6 18.6 16.9 19.1 16.9C 20.1 16.9 21.5 16.6 22.2 15.9C 23 15 23.5 13.6 24.5 11.9ZM 15.1 10.6C 11.9 10.5 10.2 11.8 10.2 14.4C 10.2 16.1 10.8 16.9 12.7 16.3C 14.7 15.6 15.6 13.7 15.1 10.6Z"/>
<path id="path3_fill" d="M 2.9059 20.5512C 1.9059 20.5512 1.00589 20.5512 0.20589 20.5512C -0.39411 16.9512 0.00588989 16.6512 5.70589 16.4512C 5.30589 14.5512 4.60594 12.8512 4.50594 11.0512C 4.30594 8.25124 4.40594 5.35124 4.50594 2.45124C 4.50594 1.95124 5.1059 0.951236 5.4059 0.951236C 8.6059 0.951236 11.6059 -1.04875 14.9059 0.751255C 16.5059 1.55125 17.3059 2.35124 17.6059 4.05124C 18.1059 7.75124 18.9059 11.3512 19.6059 14.9512C 20.1059 17.8512 20.6059 20.8513 21.1059 23.7513C 21.6059 26.4513 22.2059 29.0513 22.4059 31.7513C 22.6059 33.9513 22.3059 36.2512 21.9059 38.4512C 21.8059 38.9512 20.3059 39.5512 19.4059 39.5512C 17.1059 39.5512 14.7059 39.4512 12.4059 39.0512C 10.8059 38.7512 8.60589 38.8513 8.20589 36.3513C 8.10589 35.9513 7.20593 35.6513 7.30593 35.2513C 6.90593 33.0513 6.50591 30.7512 6.10591 28.5512C 6.10591 28.3512 6.00594 28.2512 6.00594 28.0512C 5.80594 24.6512 5.60593 21.2513 5.30593 17.8513C 3.10593 17.7513 3.1059 17.7512 2.9059 20.5512Z"/>
<path id="path4_fill" d="M 0.020734 15.3C -0.279266 11.1 2.82073 7.09999 0.020734 2.89999C 1.52073 2.59999 2.72071 2.29999 4.12071 1.99999C 4.22071 3.99999 5.52071 4.1 7.12071 4.1C 9.82071 4 11.1207 2.69999 11.8207 -6.10352e-06C 12.3207 1.19999 13.1207 2.40001 13.2207 3.70001C 13.5207 7.60001 13.6207 11.6 13.6207 15.6C 13.6207 17 12.7207 17.5 11.2207 17.2C 7.52075 16.4 3.92073 15.9 0.020734 15.3Z"/>
<path id="path5_fill" d="M 6.35543 12.9129C 5.85543 14.3129 5.55542 15.3129 5.15542 16.4129C 4.25542 15.6129 3.0554 14.9129 2.4554 13.9129C -0.144596 9.81293 -0.944572 5.51293 1.35543 1.01293C 1.55543 0.612932 1.95543 0.112932 2.35543 0.0129318C 2.65543 -0.0870682 3.25543 0.41295 3.35543 0.81295C 4.35543 4.81295 5.35543 8.91293 6.35543 12.9129Z"/>
<path id="path6_fill" d="M 1.31302 -6.10352e-06C 2.51302 0.499994 3.81301 0.999994 5.11301 1.49999C 6.11301 1.89999 7.11301 2.70001 8.11301 2.70001C 10.913 2.70001 11.513 4.30001 11.213 6.80001C 10.513 6.80001 9.61301 7.10001 9.11301 6.80001C 6.61301 5.00001 3.71298 4.20001 0.712982 3.80001C 0.412982 3.80001 -0.0869691 2.79999 0.0130309 2.39999C 0.213031 1.69999 0.713019 0.999994 1.31302 -6.10352e-06Z"/>
<path id="path7_fill" d="M 8.20001 6.40001C 6.50001 3.00001 3 4.2 0 3.8C 0 2.6 0 1.60001 0 1.2207e-05C 3.1 1.60001 6.40002 1.69999 8.90002 4.09999C 9.30002 4.49999 10.3 4.30001 11 4.50001C 11.9 4.70001 12.8 4.8 13.5 5.3C 13.8 5.5 13.8 6.49999 13.7 7.09999C 13.7 7.29999 13 7.60001 12.7 7.50001C 11.4 7.20001 9.90001 6.80001 8.20001 6.40001Z"/>
<path id="path8_fill" d="M 2.57122 9.35946C 1.47122 9.35946 0.87123 9.35946 0.27123 9.35946C -0.62877 3.45946 0.67123 -0.540533 4.77123 0.059467C 5.27123 1.85947 5.77118 3.85945 3.47118 4.85945C 1.37118 5.85945 2.27122 7.55946 2.57122 9.35946Z"/>
<path id="path9_fill" d="M 5.69999 3.06038C 4.09999 3.06038 2.09998 3.06038 -2.44141e-05 3.06038C -2.44141e-05 2.46038 -2.44141e-05 1.86037 -2.44141e-05 0.960374C 1.19998 0.660374 2.50001 -0.23962 3.60001 0.0603796C 4.40001 0.36038 4.89999 1.96038 5.69999 3.06038Z"/>
<path id="path10_fill" d="M 7.90001 1.39999C 5.10001 1.89999 2.59999 2.39999 -1.2207e-05 2.79999C -1.2207e-05 1.99999 -1.2207e-05 1.2 -1.2207e-05 0.5C 2.49999 0.3 4.9 0.2 7.7 5.68434e-14C 7.7 0.3 7.80001 0.899994 7.90001 1.39999Z"/>
<path id="path11_fill" d="M 0 1.08833C 2.3 0.988333 4.90001 -1.91166 6.20001 2.18834C 3.70001 3.78834 1.8 3.48833 0 1.08833Z"/>
<path id="path12_fill" d="M 0.0444567 4.10699C 0.244457 3.60699 0.444469 3.00698 0.744469 2.50698C 1.04447 2.10698 1.44444 1.80698 1.84444 1.40698C 2.44444 0.906976 3.24443 -0.0930175 3.64443 0.00698253C 4.34443 0.206983 5.34447 1.30697 5.24447 1.80697C 5.04447 2.50697 4.14444 3.40696 3.34444 3.70696C 2.34444 4.00696 1.14446 3.90699 0.0444567 4.10699C 0.0444567 4.10699 -0.0555433 4.00699 0.0444567 4.10699Z"/>
<path id="path13_fill" d="M 0.183232 4.3067C -0.416768 0.906701 0.383232 -0.093287 3.68323 0.00671297C 3.18323 2.00671 2.98323 4.2067 0.183232 4.3067Z"/>
<path id="path14_fill" d="M 4.10001 4.06012C 2.70001 3.36012 1.39998 2.76012 -2.44141e-05 2.06012C -2.44141e-05 1.76012 0.100012 1.46012 0.100012 1.06012C 1.00001 0.660123 2.29999 -0.239877 2.69999 0.0601226C 3.59999 0.660123 4.10002 1.96012 4.80002 3.06012C 4.60002 3.36012 4.40001 3.66012 4.10001 4.06012Z"/>
<path id="path15_fill" d="M -2.44141e-05 1.56277C 2.39998 -0.637232 4.30002 -0.237231 6.30002 1.06277C 4.40002 2.26277 2.39998 2.96277 -2.44141e-05 1.56277Z"/>
<path id="path16_fill" d="M 1.2207e-05 2.0265C 0.700012 1.3265 1.40002 0.0264997 2.20002 0.0264997C 3.10002 -0.0735003 5.30001 0.0265181 4.50001 1.82652C 4.10001 2.62652 2.00002 2.72651 0.700024 3.12651C 0.400024 2.72651 0.200012 2.4265 1.2207e-05 2.0265Z"/>
<path id="path17_fill" d="M -2.44141e-05 3.00001C -2.44141e-05 2.10001 -2.44141e-05 1.30001 -2.44141e-05 6.10352e-06C 1.39998 0.500006 2.49999 1 3.69999 1.4C 3.49999 1.9 3.29998 2.90001 2.99998 3.00001C 1.99998 3.20001 0.999976 3.00001 -2.44141e-05 3.00001Z"/>
<path id="path18_fill" d="M -1.2207e-05 0.409376C 2.19999 -0.790624 5.79999 0.809357 5.99999 3.10936C 3.89999 2.20936 2.09999 1.30938 -1.2207e-05 0.409376Z"/>
<path id="path19_fill" d="M 3.59999 0.911073C 2.49999 1.71107 1.80002 2.31107 1.20002 2.81107C 0.800024 2.21107 0.400012 1.61108 1.2207e-05 1.01108C 0.600012 0.611079 1.2 0.111079 1.8 0.0110794C 2.1 -0.0889206 2.59999 0.511073 3.59999 0.911073Z"/>
<path id="path20_fill" d="M 1.09999 -6.10352e-06C 1.79999 0.599994 2.50002 1.20001 3.20002 1.70001C 2.80002 2.10001 2.49999 2.59999 2.09999 2.99999C 1.39999 2.39999 0.700012 1.7 1.2207e-05 1.1C 0.400012 0.8 0.799988 0.399994 1.09999 -6.10352e-06Z"/>
<path id="path21_fill" d="M 3.99999 1.69999C 2.49999 2.39999 1.09999 2.90001 -1.2207e-05 6.10352e-06C 1.79999 0.400006 3 0.7 4.2 0.9C 4.1 1.2 3.99999 1.49999 3.99999 1.69999Z"/>
<path id="path22_fill" d="M 2.44141e-05 1.60001C 0.900024 1.10001 1.7 0.500006 2.6 6.10352e-06C 2.8 0.500006 3.2 1.4 3.1 1.4C 2.3 1.9 1.5 2.29999 0.6 2.69999C 0.5 2.29999 0.300024 2.00001 2.44141e-05 1.60001Z"/>
<path id="path23_fill" d="M 10.7481 3.79999C 10.1481 6.19999 9.94809 8.5 9.04809 10.5C 8.64809 11.3 7.04814 11.7 5.84814 11.9C 5.54814 11.9 4.64811 10.4 4.74811 9.70001C 4.84811 7.80001 4.44813 6.39999 2.64813 5.39999C 1.64813 4.79999 0.948143 3.60001 0.348143 2.60001C -0.251857 1.60001 -0.151894 0.599994 1.24811 0.399994C 2.44811 0.199994 3.64814 0.1 4.84814 0C 5.74814 3.4 5.84811 3.49999 10.7481 3.79999Z"/>
<path id="path24_fill" d="M 2.44141e-05 4.06531C 2.44141e-05 2.66531 2.44141e-05 1.56531 2.44141e-05 0.0653061C 1.20002 0.0653061 2.29999 -0.134688 3.39999 0.165312C 4.19999 0.365312 4.79999 1.16532 5.39999 1.76532C 4.59999 2.56532 3.89999 3.56531 2.89999 4.06531C 2.09999 4.36531 1.00002 4.06531 2.44141e-05 4.06531Z"/>
<path id="path25_fill" d="M 5.18559 0.260924C 4.68559 1.26092 4.38559 2.66094 3.68559 2.96094C 2.68559 3.36094 1.38559 3.16094 0.185588 3.06094C 0.0855877 3.06094 -0.114449 2.06095 0.0855511 1.66095C 0.985551 -0.339051 2.78559 -0.139076 5.18559 0.260924Z"/>
<path id="path26_fill" d="M 5.38136 4.12992C 5.38136 5.12992 5.28132 5.72992 5.28132 6.62992C 3.58132 7.12992 1.88137 7.72989 0.0813693 8.22989C -0.418631 6.02989 1.48134 1.02992 3.18134 0.129916C 3.78134 -0.170084 4.78137 0.129892 5.58137 0.229892C 6.78137 0.329892 8.08134 0.829892 9.18134 0.729892C 11.7813 0.329892 13.5813 0.829898 13.7813 2.3299C 13.9813 4.4299 11.8814 6.82989 9.58137 6.72989C 8.48137 6.62989 6.38132 7.22989 6.78132 4.72989C 6.88132 4.62989 5.98136 4.42992 5.38136 4.12992Z"/>
<path id="path27_fill" d="M 7.82028 0.718691C 7.42028 2.11869 7.32031 3.51869 6.72031 4.71869C 5.52031 6.91869 3.12032 7.61868 0.920319 6.61868C 0.520319 6.41868 0.0202944 5.8187 0.0202944 5.4187C -0.179706 3.0187 1.12032 1.31869 2.92032 0.218691C 3.82032 -0.281309 5.32029 0.218697 6.52029 0.318697C 6.72029 0.318697 7.02028 0.518691 7.82028 0.718691Z"/>
<path id="path28_fill" d="M 6.6031 0.0634521C 6.1031 2.26345 6.00313 4.46346 5.00313 6.26346C 3.40313 9.36346 1.70313 6.26345 0.00312772 5.96345C -0.0968723 2.06345 2.2031 -0.436548 6.6031 0.0634521Z"/>
<path id="path29_fill" d="M 6.807 0.130624C 5.807 1.83062 5.30697 3.2306 4.40697 4.2306C 3.70697 4.9306 2.407 5.2306 1.307 5.2306C 0.906999 5.2306 -0.0929887 3.93062 0.00701131 3.53062C 0.507011 2.33062 1.10699 0.830606 2.10699 0.330606C 3.20699 -0.269394 4.807 0.130624 6.807 0.130624Z"/>
<path id="path30_fill" d="M 4.80416 0.0188678C 5.30416 3.11887 4.40417 5.01887 2.50417 5.61887C 0.604173 6.21887 0.00417312 5.41888 0.00417312 3.71888C -0.0958269 1.21888 1.60416 -0.181132 4.80416 0.0188678Z"/>
<path id="path31_fill" d="M 300.7 -6.10352e-06C 301.9 0.199994 303.2 0.500012 304.6 0.800012C 305.7 4.20001 307.8 7.10001 311 9.20001C 313.3 10.7 313.7 13 313.1 15C 311 16.5 309.4 17.5 308.1 18.7C 307.5 19.3 307.3 20.7 307.5 21.5C 308.4 24.4 309.7 27.1 310.7 30C 311.8 33.2 312.7 36.4 313.5 39.7C 313.7 40.5 313 41.5 312.6 42.5C 317.1 43 317.3 46.7 318 50.1C 318.1 50.6 318.2 51.2 318.5 51.4C 320.6 52.3 320.6 53.4 319.1 55C 318.6 55.5 318.8 56.6 318.6 57.6C 322.4 57.4 322.4 57.4 322.6 60.8C 322.6 61.4 322.9 61.9 323 62.5C 323.5 64.3 323.9 66.2 324.6 67.9C 325 68.8 325.9 69.5 326.7 70.5C 328.6 75.4 330.7 80.7 332.7 85.9C 333 85.9 333.2 85.9 333.5 86C 333.9 85.4 334.5 84.8 334.6 84.2C 334.9 82.7 335 81.1 335.1 79.5C 335.7 72.9 336.3 66.2 336.9 59.5C 336.6 59.2 335.2 58.7 335.3 58.3C 335.5 57.1 333.8 55.5 336.4 54.7C 335.8 54.3 334.9 54 334.9 53.7C 334.8 50.3 334.6 46.9 335 43.6C 335.3 41.2 337.3 40 340.2 40.6C 340.1 40.3 340 40.1 340 39.8C 339.4 39.6 338.8 39.5 338.1 39.3C 338.1 38.1 337.6 36.3 338.2 35.7C 340.3 33.7 341.5 31.4 341.5 28.5C 341.5 28.1 341.6 27.6 341.9 27.4C 345.4 24.9 343.6 21.4 343.6 18.3C 343.6 15.6 346.1 14.2 348.4 15.5C 349.3 16 350.3 16.3 351.2 16.9C 352.1 17.5 353.1 18 353.7 18.8C 355.2 20.6 357.4 22.4 357.8 24.4C 358.3 27.1 361.3 28.7 360.5 31.9C 360.4 32.5 362.5 33.4 363.2 34.4C 364.9 37 366.3 39.9 368 42.6C 368.6 43.6 369.7 44.3 370.6 45.1C 370.9 44.9 371.1 44.8 371.4 44.6C 371.6 49.3 371.8 54 372 58.7C 372 59.5 372 60.4 372.1 61.2C 372.3 63 373.1 64 375.2 63.8C 378.4 63.6 381.6 63.7 384.8 63.7C 385.3 63.7 385.9 63.5 386.3 63.2C 388.6 61.8 390.8 59.5 393.2 59.2C 397.3 58.7 400.2 55.5 404.1 54.9C 405.3 54.7 406.5 54.2 407.6 53.7C 410.2 52.6 412 53.5 412.1 56.3C 412.2 57.8 411.5 59.4 411.3 61C 411.1 62.7 411.3 64.5 411.1 66.3C 410.7 69.9 410.1 73.5 409.6 77.1C 409.5 77.5 409.3 78.1 409.5 78.2C 412.1 80.6 411 83.7 411.1 86.5C 411.1 88 412.6 90.2 409.7 90.9C 409.6 90.9 409.6 92.2 409.8 92.7C 411.6 97.1 411.6 101.7 412.1 106.3C 412.7 111.4 413.3 116.5 413.5 121.7C 413.7 125.6 413 129.5 413.2 133.4C 413.5 140 412.9 147 415 153C 418.1 161.9 416.6 170.7 417.2 179.5C 417.2 180.1 417.1 180.8 417.3 181.2C 420 185.8 418.4 191 419 195.9C 419.3 198.2 417.5 200.5 415.6 202.4C 413.2 204.7 410.5 204.8 407.6 204.7C 399.9 204.4 392.1 204.7 384.6 203.5C 377.7 202.4 371 203.2 364.2 202.8C 357.6 202.4 351 201.4 344.4 200.8C 342 200.6 339.6 200.3 337.2 200.2C 331.9 200 326.7 199.9 321.4 199.7C 314.8 199.4 308.1 199.7 301.7 198.5C 295.7 197.3 289.9 197.9 284 197.8C 271.3 197.4 258.7 197.3 246 197.1C 243.7 197.1 241.5 195.9 240.7 194C 239.9 192 240.2 189.8 242.1 187.9C 245.9 184.2 249.5 180.3 253 176.3C 253.8 175.4 254.4 173.8 254.4 172.6C 254.3 167.5 253.9 162.4 253.6 157.3C 253.6 156.8 253.5 156.3 253.4 155.8C 252.9 147.4 252.4 139 251.8 130.6C 251.7 128.6 251.3 126.6 250.6 124.8C 249.8 122.9 249 120.8 246.3 120.5C 243.6 120.2 240.6 119.9 238.4 118.5C 235.7 116.8 233.1 116.7 230.2 116.6C 228.8 113.4 225.6 115.3 223.4 114.2C 221.1 113.1 218.9 111.9 216.5 111C 215.6 110.7 214.4 111 213.4 111.1C 211.3 111.2 209.7 110.6 210.1 107.3C 208.9 107.9 208.1 108.6 207.3 108.7C 205.9 108.9 204.3 109.1 203.1 108.7C 202.3 108.4 201.9 107 201.6 106.5C 199.9 106.1 198.3 105.8 196.8 105.4C 195.4 105.1 194.1 104.6 192.7 104.3C 186.9 102.7 181.2 101.1 175.4 99.6C 173 99 170.5 98.6 168.1 98.1C 165.1 97.4 162.2 96.7 159.2 96C 158.7 95.9 158.1 95.5 157.6 95.5C 151.6 95.6 145.8 93.9 139.6 94.8C 135.7 95.4 131.5 94.1 127.5 94C 120.1 93.8 112.7 94 105.3 94C 99.2 94 93 94.7 87.1 93.8C 82.6 93.1 77.8 91.8 74.2 88.2C 74.1 88.1 74 87.9 73.9 87.8C 69.3 85.9 65.4 82.1 60 82.9C 57.6 83.2 55.4 84.1 53 84.4C 51.4 84.6 49.8 84.2 47.5 84C 46.5 85.3 44.5 86 41.9 85.8C 39.1 85.6 36.2 85.8 33.9 85.8C 32.9 84.8 32.2 84.1 31.6 83.3C 31 84.3 30.4 85.3 29.6 86.7C 27 87.1 23.9 87.6 20.6 88.2C 20.4 87.2 20.3 86.5 20 85.6C 18.3 86.6 18.2 91.6 15.2 87.7C 10.4 89.9 5.80001 92.3 0.500012 90.7C 0.300012 90.3 0.200012 90 1.2207e-05 89.6C 2.00001 88 4.29998 86.7 5.89998 84.7C 7.49998 82.6 9.20002 83 11.2 83.4C 11.8 83.5 12.9 83.1 13 82.9C 13.3 80.6 15.2 81.3 16.5 80.7C 19.2 79.5 22.6 79.6 24.8 78C 27.3 76.2 30 76.7 32.7 75.3C 33.7 73.1 36.8 71.4 35.1 67.6C 37.4 68.1 39.2 68.5 41 68.9C 41.7 71 42.5 73 43.1 74.9C 46.6 76.7 49.8 79.9 54.2 76.1C 54.2 72.7 54.2 68.7 54.2 64.8C 55.4 64.7 56.6 64.8 57.6 64.5C 58.4 64.2 59.3 63.4 59.5 62.6C 59.6 62.1 58.6 61 57.9 60.8C 57.5 60.7 56.7 61.7 56.1 62.2C 55.7 62.5 55.3 62.9 55 63.3C 54.7 63.8 54.5 64.4 54.3 64.9C 53.9 63.4 53.5 62 53.1 60.5C 52.2 57.4 51.1 54.4 50.6 51.2C 50.3 49.3 50.8 47 51.5 45.1C 53.2 40.3 55.2 35.6 57.1 30.9C 57.7 29.5 58.6 28.6 60.1 27.8C 63.2 26.1 65.7 23.5 68.6 21.5C 73.7 18 78.9 14.8 84.1 11.4C 85.2 10.7 86.3 9.80001 87.6 9.30001C 89.5 8.60001 91.6 8.20001 93.8 7.70001C 93.8 7.00001 93.9 5.99999 93.9 4.99999C 95.3 4.89999 96.6 4.7 98.2 4.6C 98.3 5.4 98.5 6.1 98.6 7.1C 99.8 4.2 104.3 3.80001 106.4 6.30001C 109.2 9.70001 111.8 13.2 114.4 16.7C 116.5 19.5 118.7 22 121.1 24.6C 123.9 27.7 126.1 31.4 128.7 34.7C 130.8 37.4 133.1 39.9 135 42.7C 136 44.2 137 46.2 137.1 48C 137.4 53.8 137.1 59.6 137.3 65.4C 137.5 72.7 137.9 80.1 138.2 87.4C 138.3 88.9 138.8 89.8 140.6 89.8C 146.4 89.7 152 89 157.8 88.2C 163.5 87.3 169.5 88.1 175.4 88.3C 178.1 88.4 180.8 88.9 183.5 89.2C 186.8 89.6 190.1 90 193.4 90.3C 195.3 90.5 196.3 89.4 196.2 87.7C 196 83 195.7 78.3 193.8 73.9C 193.1 72.2 192.9 70.2 192.4 68C 190.7 67.4 190 65.7 189.6 63.5C 189.4 62.2 188.1 60.8 186.9 59.9C 185.1 58.4 183.1 57.3 181.2 56C 180.3 55.4 179.3 54.8 178.6 54C 176.5 51.4 173.9 50.4 170.9 50.5C 166.7 46.1 167.9 41.2 168.8 36.3C 169.3 33.4 168.7 30.9 166.9 28.5C 165.5 26.5 164.1 24.4 163.1 22.1C 161.5 18.5 162.9 14.9 166.7 12.3C 167.9 11.5 169.3 10.8 170.5 10.1C 171.5 11 172.3 11.8 173.6 13.1C 173.8 11.5 174 10.7 174.1 9.99999C 176.4 9.79999 178.7 9.39999 181 9.39999C 183.6 9.49999 186.2 10.1 188.8 10.3C 189.8 10.4 190.7 9.69999 191.7 9.49999C 193.9 9.09999 196.2 8.59999 198.5 8.39999C 200.8 8.19999 203.1 7.9 204.9 10.1C 205.6 10.9 207.1 11 208.1 11.5C 210.1 12.5 212.6 13.2 214 14.8C 215.2 16.1 216.2 16 217.5 16.3C 219.8 16.8 222 17.9 224.1 18.9C 226 19.8 227.7 20.9 229.5 21.9C 232.5 23.6 234.9 28.7 234.3 32.3C 234.1 33.5 233.9 34.9 234.3 36C 235.5 39.1 233.9 41.2 231.7 42.8C 230.1 44 228.3 45 226.4 45.8C 222.2 47.7 220.7 51.6 219.2 55.5C 218.8 56.5 218 57.3 217.3 58.1C 213.8 61.8 209 60.6 204.7 61.2C 201.6 61.6 199.9 62.4 200.3 65.6C 200.9 69.6 200.5 73.8 201.4 77.7C 202.2 81.4 204.2 84.9 205.4 88.6C 206.5 91.8 207.1 94.6 211.9 94.2C 214.2 94 216.7 96.7 219.6 95.9C 221.1 95.5 222.7 95.1 224.2 94.7C 224.5 94.6 224.8 94.5 225.2 94.5C 229.2 94 233.2 93.3 237.3 93.1C 238.8 93 240.4 93.7 241.7 94.4C 243.8 95.6 245.5 95 245.6 92.5C 245.7 90.2 245.4 87.8 245.2 85.5C 245.1 83.8 244.8 82 244.7 80.3C 244.6 76.8 245 73.3 243.4 70C 243.3 69.8 243.2 69.5 243.2 69.3C 243.7 62.5 240.9 55.7 242.6 48.9C 242.7 48.3 242.7 47.5 242.4 47C 241.2 45.3 241.4 43.9 242.5 42.2C 244.1 39.7 245.6 37 246.9 34.3C 248 32.1 248.5 29.6 249.7 27.4C 250.6 25.8 252 24.5 253.6 22.6C 253 20.2 252 16.8 253.7 13.5C 254.2 12.5 255 11.4 255.9 10.7C 256.3 10.4 257.6 10.7 258 11.1C 261.2 14.3 264.5 17.4 267.3 20.8C 270.1 24.1 272.1 28.2 275.2 31.1C 277.7 33.4 278.4 36.8 281 38.9C 281.9 39.6 281.8 41.7 281.8 43.1C 281.8 46.3 281.7 49.4 281.4 52.6C 281.3 53.8 280.8 54.9 280.3 56.5C 283.1 57.8 281.7 60.7 281.8 63.2C 281.9 67.3 281.8 71.4 281.8 75.5C 285 75.6 286.9 74.1 287.9 71.2C 288.9 68.4 290.3 65.9 291.5 63.2C 292 62.1 292.4 60.9 292.9 59.5C 293.3 59.5 294 59.7 294.5 59.5C 294.9 59.4 295.3 58.3 295.3 58.3C 292.6 56.5 294.1 54 294.5 51.9C 295.3 47.6 296.5 43.4 297.5 39.2C 297.5 39 297.4 38.8 297.5 38.7C 301.4 36.1 297.6 32.6 298.5 29.6C 298.9 28.2 298.7 26.8 300.1 25.5C 301 24.6 300.5 22.3 300.7 20.9C 299.6 20.1 298.8 19.4 297.9 18.7C 296 17.2 294 15.7 292.2 14.1C 291.4 13.4 290.2 12.3 290.4 11.8C 290.7 10.7 291.5 9.4 293.2 9.6C 293.9 9.7 294.5 9.6 295.2 9.6C 296.2 6.4 294.2 2.79999 297 -6.10352e-06C 299 -6.10351e-06 299.9 -6.10352e-06 300.7 -6.10352e-06ZM 399.3 183.1C 399.3 182.7 399.3 182.3 399.2 181.9C 395 181.6 390.9 181.2 386.7 181C 383.5 180.8 380.6 178.8 380.3 176.4C 379.9 172.2 379.5 167.9 379.3 163.7C 379 157.5 379.1 151.3 378.7 145.1C 378.4 140.2 377.7 135.4 377.3 130.5C 377 127.8 377 125.1 376.7 122.3C 376.7 121.8 376.2 121.3 376 120.7C 375.7 119.5 375.3 118.3 375.3 117.1C 375.2 112.2 375.4 107.3 375.2 102.4C 375.1 99 374.5 95.6 374.3 92.2C 374 88.5 374 84.7 373.7 80.9C 373.6 80.3 372.7 79.4 372 79.2C 371.6 79.1 370.7 80.1 370.4 80.8C 370.1 81.3 370.3 82.1 370.3 82.8C 370.4 87.4 370.6 92 370.8 96.6C 371 101 371 105.4 371.3 109.9C 371.5 112.8 371.8 115.8 372.8 118.4C 373.9 121.2 373.7 124 373.9 126.9C 374.1 130 374.5 133.2 374.9 136.3C 375.2 138.5 375.9 140.7 376.1 142.9C 376.4 147.1 376.2 151.4 376.4 155.6C 376.7 160.8 377.1 166 377.6 171.2C 377.7 171.9 378.5 172.6 378.5 173.3C 378.6 175.4 379 177.7 378.4 179.6C 377.8 181.4 376 180.5 374.6 179.9C 374.4 179.8 374.1 179.8 373.9 179.8C 369 179.6 364 179.4 359.1 179.4C 356.7 179.4 356 178.2 355.9 176.3C 355.7 172.1 355.6 167.9 355.4 163.7C 355.1 156.4 354.7 149.2 354.4 141.9C 354 131.9 353.7 121.8 353.4 111.8C 353.3 107.7 350.9 105.3 346.7 105.3C 340.4 105.3 334.2 105.6 327.9 105.3C 319.8 104.9 311.8 103.7 303.7 103.3C 295.7 103 287.7 103.2 279.6 103.3C 279 103.3 277.9 104 277.9 104.5C 277.4 111.1 276.8 117.7 276.8 124.3C 276.9 130.8 278 137.4 278.1 143.9C 278.3 150.4 277.9 157 277.7 163.5C 277.6 165.7 277.4 168 277.3 170.2C 277.3 171.4 277.2 172.8 277.6 173.9C 278.5 176.3 278 177.3 275.4 177.3C 272.2 177.3 269 177.3 265.8 177.4C 264.4 177.5 262.7 177.5 262.4 179.7C 263.2 179.9 263.9 180.2 264.6 180.2C 271.2 180.6 277.8 181 284.4 181.3C 290.8 181.6 297.1 181.7 303.5 181.9C 304 181.9 304.4 181.6 304.9 181.6C 308.4 181.4 311.8 181.1 315.3 181.1C 317.5 181.1 319.7 181.6 321.9 181.8C 328.6 182.4 335.4 180.8 342.1 182.8C 344.4 183.5 347 183.3 349.4 183.4C 358.8 183.8 368.1 184.2 377.5 184.4C 382.2 184.5 386.9 184.2 391.6 183.9C 394.1 183.8 396.7 183.4 399.3 183.1ZM 83.3 20.4C 83.2 20.7 83.2 20.9 83.1 21.2C 83.7 21.9 84.9 22.7 84.9 23.4C 84.7 27.9 81.3 29.6 77 28.8C 68.9 27.4 66 27.4 61.8 35.3C 60 38.8 60.5 43.7 56 45.6C 55.8 45.7 55.8 46.4 55.8 46.8C 55.8 47.9 55.8 49.1 55.8 50.3C 56.5 50.3 57 50.4 57.5 50.4C 61.1 50 64.6 49.3 68.2 49.1C 71.9 48.9 75.6 49.3 79.3 49.3C 79.9 49.3 80.5 48.5 81.1 48.1C 80.6 47.5 80.2 46.9 79.5 46.4C 79.1 46.1 78.4 46.2 77.6 46.2C 78 44.5 78.3 43 78.7 41.3C 80.2 41.3 81.6 41.3 83.1 41.3C 85.2 41.3 86.6 42.1 86.6 44.5C 86.6 50 86.6 55.4 86.6 60.9C 86.6 62.5 86.3 64.2 86.2 65.6C 86.7 66.1 87.6 66.7 87.7 67.3C 88.3 71.2 88.7 75.2 89.2 79.1C 89.5 81.6 89.8 84.2 90.4 86.7C 90.8 88.4 91.2 90.7 93.7 90.1C 96.1 89.5 95.2 87 95.2 85.4C 95 81.6 95.4 77.5 94 74.1C 92.6 70.6 94.6 66.7 91.8 63.4C 90.7 62.1 91.4 59.4 91.2 57.3C 91 55.1 91.1 52.7 90.4 50.7C 89.2 47.3 89.8 44.4 91.3 41.4C 92.4 39 93 36.4 93.7 33.9C 94.6 30.4 95.3 26.9 96.1 23.3C 96.2 22.8 96.4 21.8 96.1 21.7C 95.5 21.4 94.8 21.3 94.1 21.3C 92.3 21.3 90.5 21.6 88.7 21.4C 86.7 21.3 85 20.8 83.3 20.4ZM 102.6 70.5C 102.8 67.6 102.8 67.6 105 67.9C 105.2 71.3 105.4 74.7 105.7 78.1C 105.7 78.3 105.8 78.4 105.8 78.6C 106.2 80.8 106.6 83.1 107 85.3C 106.9 85.7 107.8 86 107.9 86.4C 108.3 89 110.5 88.8 112.1 89.1C 114.4 89.5 116.8 89.6 119.1 89.6C 120 89.6 121.5 89 121.6 88.5C 122 86.3 122.3 84 122.1 81.8C 121.9 79.1 121.2 76.4 120.8 73.8C 120.3 70.9 119.8 67.9 119.3 65C 118.6 61.4 117.9 57.7 117.3 54.1C 117 52.4 116.2 51.6 114.6 50.8C 111.2 49 108.2 51 105.1 51C 104.8 51 104.2 51.9 104.2 52.5C 104.1 55.4 104 58.2 104.2 61.1C 104.3 62.9 105 64.6 105.4 66.5C 99.7 66.8 99.3 67.1 99.9 70.6C 100.7 70.5 101.5 70.5 102.6 70.5ZM 256.3 49.2C 256.3 50.4 256.2 51.5 256.3 52.6C 256.8 60.2 257.3 67.7 257.7 75.3C 257.9 78.6 257.9 78.7 261.3 78.7C 262.7 78.7 264.2 78.7 265.6 78.7C 268.5 78.6 269.8 77.4 269.8 74.5C 269.8 70 269.8 65.5 269.8 60.7C 270.2 60.4 271 59.9 272 59.3C 269.3 57.6 272.5 56.7 272.2 55.6C 271 55 269.5 54.6 269.3 53.9C 268.7 51.6 268.5 49.2 268.2 46.4C 267.1 49.9 264.5 48.1 262.7 48.6C 260.9 49.2 258.8 49 256.3 49.2ZM 356.6 82.7C 355.9 79.9 356.8 78.3 359.2 77.4C 359.7 77.2 360 75.1 359.9 75.1C 357.4 73.9 359 72 358.7 70.4C 359.6 70.1 360.4 69.9 361.8 69.5C 359.1 67.9 360.3 66 361.3 65.2C 362.4 64.3 364.5 64.5 366.1 64.3C 365.4 62.2 361.6 61.6 359.1 64C 358.6 62 358.3 60.4 357.9 58.8C 357.7 58 357.5 56.7 357 56.5C 355.7 56 354.2 55.8 352.7 55.6C 351.3 55.5 350 55.6 348.6 55.5C 348.2 55.5 347.9 55 347.5 54.7C 347.8 54.4 348 53.9 348.4 53.7C 349.7 53.3 351 53 352.5 52.7C 351.5 51.2 350.5 49.8 349.6 48.4C 349.2 47.9 348.9 47.4 348.5 46.9C 348 47.4 347.6 48 347.4 48.2C 346.3 48.3 344.9 48 344.6 48.4C 343.9 49.4 344.7 50 345.8 50.1C 345.9 50.1 346 50.7 346 51C 346.1 53.9 346.2 56.8 346.2 59.7C 346.2 60.2 345.8 60.8 345.4 61.2C 343.5 63 343.5 63 346.3 64.1C 346.5 67.1 346.8 70.3 347 73.5C 347.1 75.5 347 77.5 347 79.5C 347.1 81.5 348.1 82.6 350.1 82.7C 352.2 82.8 354.2 82.7 356.6 82.7ZM 391.1 117.5C 391 118.1 390.9 118.5 390.9 118.9C 391.8 126.7 392.5 134.6 393.7 142.3C 394.5 147.5 394.7 147.4 400.7 147C 400.7 137.2 400.7 127.4 400.7 117.5C 397.6 117.5 394.5 117.5 391.1 117.5ZM 63.8 71.8C 67.7 72.4 71.4 73 75 73.6C 76.5 73.9 77.4 73.4 77.4 72C 77.4 68 77.3 64.1 77 60.1C 76.9 58.8 76.1 57.6 75.6 56.4C 74.9 59.1 73.6 60.4 70.9 60.5C 69.3 60.5 68 60.5 67.9 58.4C 66.5 58.7 65.3 59 63.8 59.3C 66.5 63.6 63.4 67.5 63.8 71.8ZM 251.3 110.9C 250.3 106.9 249.3 102.8 248.2 98.7C 248.1 98.4 247.5 97.9 247.2 97.9C 246.8 98 246.4 98.5 246.2 98.9C 243.9 103.4 244.8 107.7 247.3 111.8C 247.9 112.8 249.1 113.5 250 114.3C 250.5 113.3 250.8 112.3 251.3 110.9ZM 383.9 95.1C 385.5 95.3 387.6 95.5 389.8 95.7C 390 95.7 390.1 95.4 390.3 95.3C 391.1 95 391.9 94.4 392.8 94.4C 395.2 94.3 397.7 94.4 400.1 94.4C 400.2 94 400.2 93.5 400.3 93.1C 399.5 92.8 398.6 92.3 397.8 92.3C 394.8 92.2 391.8 92.3 388.8 92.3C 386.6 92.3 384.4 91.8 382.3 92.1C 381.1 92.3 380 93.5 379.1 94.5C 378.9 94.7 379.5 96.1 379.7 96.1C 380.8 95.8 382 95.5 383.9 95.1ZM 204.5 47.5C 203.9 48.5 203.3 49.2 203.2 49.9C 203.1 50.3 203.6 51.3 203.9 51.3C 207 51.6 209.8 52.4 212.3 54.3C 212.8 54.6 213.7 54.3 214.4 54.3C 214.7 51.7 214.1 50.2 211.3 50.2C 210.3 50.2 209.3 49.4 208.3 49C 207 48.5 205.8 48 204.5 47.5ZM 184 25.2C 185.7 25.6 187.2 26 188.6 26.2C 188.9 26.3 189.6 26 189.6 25.8C 189.7 25.2 189.7 24.2 189.4 24C 188.7 23.5 187.7 23.4 186.9 23.2C 186.2 23 185.2 23.3 184.8 22.8C 182.3 20.4 179 20.3 175.9 18.7C 175.9 20.3 175.9 21.3 175.9 22.5C 178.8 23 182.4 21.8 184 25.2ZM 219 37.4C 218.7 35.6 217.8 33.9 220 32.9C 222.2 31.9 221.8 29.9 221.3 28.1C 217.2 27.6 215.9 31.5 216.8 37.4C 217.3 37.4 217.9 37.4 219 37.4ZM 185.6 45.1C 184.8 44 184.3 42.3 183.5 42.1C 182.5 41.8 181.1 42.7 179.9 43C 179.9 43.9 179.9 44.5 179.9 45.1C 181.9 45.1 184 45.1 185.6 45.1ZM 212 41C 211.9 40.6 211.8 40 211.8 39.5C 209 39.7 206.6 39.9 204.1 40C 204.1 40.8 204.1 41.5 204.1 42.3C 206.7 41.9 209.2 41.5 212 41ZM 196.8 30.5C 198.6 33 200.5 33.3 203 31.6C 201.7 27.5 199.1 30.3 196.8 30.5ZM 379.9 71.9C 380.2 71.6 380.6 71.3 380.9 71.1C 380.2 69.8 379.6 68.5 378.9 67.2C 378 67.9 377.2 68.5 376.3 69.2C 377.5 70.1 378.7 71 379.9 71.9ZM 192.2 21.1C 195.1 21 195.3 18.8 195.7 16.8C 192.3 16.7 191.5 17.7 192.2 21.1ZM 343.4 52.3C 342.6 52.1 338.6 53.7 338.5 54.4C 338.4 54.8 338.5 55.3 338.8 55.5C 339.4 56.2 340.2 56.9 340.5 57.2C 341.4 55.8 342.4 54.1 343.4 52.3ZM 201 40.8C 201.3 40.5 201.5 40.1 201.8 39.8C 201.1 38.8 200.7 37.5 199.7 36.8C 199.3 36.5 198 37.4 197.1 37.8C 197.1 38.1 197 38.4 197 38.8C 198.3 39.5 199.7 40.1 201 40.8ZM 177.4 35.1C 179.8 36.5 181.8 35.8 183.7 34.6C 181.8 33.2 179.8 32.8 177.4 35.1ZM 188.5 39.5C 188.7 39.9 189 40.2 189.2 40.6C 190.5 40.2 192.6 40.1 193 39.3C 193.8 37.5 191.6 37.4 190.7 37.5C 189.9 37.5 189.2 38.8 188.5 39.5ZM 363.5 58.9C 363.4 56.4 364.3 55.4 366.4 55.9C 366.4 55 366.4 54.2 366.4 53.4C 362.2 55.1 361.3 56.6 363.5 58.9ZM 189.9 30.2C 190.9 30.2 191.9 30.3 192.9 30.1C 193.2 30 193.4 29.1 193.6 28.5C 192.4 28.1 191.3 27.6 189.9 27.1C 189.9 28.5 189.9 29.3 189.9 30.2ZM 104.1 33.8C 106.2 34.8 108.1 35.6 110.1 36.5C 109.9 34.2 106.3 32.6 104.1 33.8ZM 341.7 45.9C 342 46.2 342.3 46.4 342.7 46.7C 343.5 46 344.3 45.4 345 44.7C 344.4 44.2 343.8 43.7 343.2 43.1C 342.7 44.1 342.2 45 341.7 45.9ZM 205.6 23.2C 204.7 22.7 204.1 22.2 203.7 22.3C 203.1 22.4 202.5 23 201.9 23.3C 202.3 23.9 202.7 24.5 203.1 25.1C 203.8 24.6 204.5 24.1 205.6 23.2ZM 313.3 63.6C 313 61.6 312.8 60.4 312.7 59.2C 312.5 59.2 312.2 59.1 312 59.1C 311.6 60.2 311.1 61.2 311.1 62.3C 311 62.6 312.2 63.1 313.3 63.6ZM 306.8 42C 307 42.3 307.1 42.6 307.3 43C 308.2 42.8 309.2 42.8 309.9 42.3C 310.3 42 310 40.9 310 39.3C 308.5 40.5 307.6 41.3 306.8 42ZM 378.5 89C 378.7 89.2 378.8 89.4 379 89.5C 379.7 89.2 380.9 88.9 381.1 88.4C 381.4 87.6 380.9 86.6 380.8 85.6C 380.5 85.6 380.2 85.6 379.9 85.6C 379.4 86.7 378.9 87.9 378.5 89ZM 340.5 77.4C 342.3 78.3 343.5 78.9 345.3 79.8C 344.6 78.8 344.2 78.4 343.9 77.9C 343.6 77.2 343.4 76.5 343.2 75.8C 342.5 76.2 341.7 76.7 340.5 77.4ZM 363.4 84.5C 363.6 84.6 363.8 84.6 364 84.7C 364.4 83.1 364.9 81.5 365.4 79.6C 364.1 79.9 364.1 79.9 363.4 84.5ZM 200.6 99C 200.2 99.4 199.9 99.8 199.5 100.1C 200.2 100.7 200.9 101.4 201.6 102C 202 101.6 202.3 101.1 202.7 100.7C 202.1 100.2 201.4 99.6 200.6 99ZM 193.1 51.4C 193.2 51.1 193.2 50.9 193.3 50.6C 192.1 50.3 190.8 50 189.1 49.7C 190.2 52.6 191.6 52.1 193.1 51.4ZM 373.5 68.6C 373.3 68.3 373 68.1 372.8 67.8C 372 68.3 371.1 68.8 370.5 69.5C 370.3 69.8 370.7 70.7 371 72C 372.1 70.4 372.8 69.5 373.5 68.6ZM 250.2 70.3C 250.4 70.7 250.6 71 250.8 71.4C 251.6 71 252.5 70.6 253.3 70.1C 253.4 70 253 69.2 252.8 68.7C 252 69.2 251.1 69.8 250.2 70.3Z"/>
<path id="path32_fill" d="M 137 103.907C 134.4 104.207 131.8 104.607 129.2 104.707C 124.5 105.007 119.8 105.307 115.1 105.207C 105.7 105.007 96.4 104.607 87 104.207C 84.5 104.107 82 104.307 79.7 103.607C 73 101.607 66.2 103.207 59.5 102.607C 57.3 102.407 55.1 101.907 52.9 101.907C 49.4 101.907 46 102.207 42.5 102.407C 42 102.407 41.6 102.707 41.1 102.707C 34.7 102.507 28.4 102.407 22 102.107C 15.4 101.807 8.80001 101.407 2.20001 101.007C 1.50001 101.007 0.8 100.707 -1.13687e-13 100.507C 0.3 98.2069 2.00002 98.2069 3.40002 98.2069C 6.60002 98.1069 9.8 98.207 13 98.107C 15.5 98.107 16 97.1069 15.2 94.7069C 14.8 93.6069 14.9 92.2069 14.9 91.0069C 15 88.8069 15.2 86.507 15.3 84.307C 15.5 77.807 15.9 71.2069 15.7 64.7069C 15.5 58.1069 14.4 51.607 14.4 45.107C 14.3 38.507 15 31.9069 15.5 25.3069C 15.5 24.9069 16.6 24.107 17.2 24.107C 25.2 24.007 33.2 23.707 41.3 24.107C 49.4 24.407 57.4 25.607 65.5 26.107C 71.7 26.407 78 26.107 84.3 26.107C 88.5 26.107 90.9 28.507 91 32.607C 91.3 42.607 91.6 52.7069 92 62.7069C 92.3 70.0069 92.7 77.2069 93 84.5069C 93.2 88.7069 93.3 92.907 93.5 97.107C 93.6 99.107 94.3 100.307 96.7 100.207C 101.6 100.107 106.6 100.407 111.5 100.607C 111.8 100.607 112 100.607 112.2 100.707C 113.6 101.307 115.4 102.307 116 100.407C 116.6 98.507 116.3 96.207 116.1 94.107C 116.1 93.407 115.2 92.7069 115.2 92.0069C 114.7 86.8069 114.3 81.607 114 76.407C 113.8 72.207 113.9 67.9069 113.7 63.7069C 113.6 61.5069 112.8 59.307 112.5 57.107C 112.1 54.007 111.7 50.8069 111.5 47.7069C 111.3 44.9069 111.6 42.1069 110.4 39.2069C 109.4 36.6069 109.1 33.5069 108.9 30.7069C 108.6 26.3069 108.6 21.907 108.4 17.407C 108.2 12.807 108.1 8.20697 107.9 3.60697C 107.9 2.90697 107.7 2.20697 108 1.60697C 108.3 0.906968 109.2 -0.0930382 109.6 0.00696182C 110.3 0.106962 111.3 1.00694 111.3 1.70694C 111.6 5.40694 111.7 9.20696 111.9 13.007C 112.1 16.407 112.7 19.8069 112.8 23.2069C 113 28.1069 112.8 33.007 112.9 37.907C 112.9 39.107 113.3 40.307 113.6 41.507C 113.7 42.107 114.2 42.607 114.3 43.107C 114.5 45.807 114.6 48.5069 114.9 51.3069C 115.3 56.2069 116.1 61.007 116.3 65.907C 116.7 72.107 116.6 78.3069 116.9 84.5069C 117.1 88.7069 117.5 93.0069 117.9 97.2069C 118.1 99.6069 121.1 101.607 124.3 101.807C 128.5 102.007 132.6 102.407 136.8 102.707C 137 103.107 137 103.507 137 103.907ZM 54.8 99.2069C 54.4 94.7069 53.8 90.607 53.6 86.407C 53.3 79.307 53.2 72.207 53.1 65.107C 53 59.707 53.1 54.307 53.1 49.007C 53 44.207 52.9 39.307 52.5 34.507C 52.4 33.207 51.6 32.0069 51 30.7069C 50.1 31.4069 49.6 31.9069 49 32.3069C 49 32.0069 49 31.807 49 31.507C 47.5 31.107 46.1 30.507 44.6 30.407C 38.6 29.907 32.5 29.6069 26.4 29.2069C 25.9 29.2069 25.4 29.007 24.9 28.907C 22.7 28.607 20.6 28.307 18.2 28.007C 18.2 32.907 18.2 37.207 18.2 41.507C 18.2 47.107 18.1 52.7069 18.2 58.2069C 18.3 67.5069 18.5 76.807 18.7 86.107C 18.7 86.807 18.7 87.407 18.7 88.107C 19.1 91.407 19.5 94.707 19.9 98.107C 31.8 98.507 43 98.9069 54.8 99.2069ZM 57 30.507C 57 53.307 57 75.607 57 98.407C 68.3 100.107 79.5 98.707 90.7 99.307C 90.5 98.207 90.3 97.407 90.3 96.607C 90.8 85.907 89 75.407 87.3 64.807C 86.7 61.207 86.9 57.5069 86.7 53.8069C 86.4 47.0069 86 40.1069 85.7 33.3069C 85.6 31.9069 84.9 31.507 83.6 31.507C 80.2 31.507 76.7 31.507 73.3 31.407C 67.7 31.207 62.3 30.907 57 30.507Z"/>
<path id="path33_fill" d="M 0 2.70001C 2.4 2.50001 4.6 2.80001 6.5 2.20001C 8.3 1.70001 10.9 3.39999 12 -6.10352e-06C 12.4 2.79999 12.5 5.19999 13.1 7.49999C 13.3 8.19999 14.8 8.50001 16 9.20001C 16.3 10.3 13.1 11.2 15.8 12.9C 14.8 13.6 14 14.1 13.6 14.3C 13.6 19.1 13.6 23.6 13.6 28.1C 13.6 30.9 12.3 32.2 9.40002 32.3C 8.00002 32.3 6.49998 32.3 5.09998 32.3C 1.59998 32.3 1.6 32.2 1.5 28.9C 1.1 21.3 0.499976 13.8 0.0999756 6.20001C -2.44156e-05 5.00001 0 3.90001 0 2.70001Z"/>
<path id="path34_fill" d="M 12.4288 35.8C 10.0288 35.8 8.02878 35.9 6.02878 35.8C 4.12878 35.7 3.02874 34.5 2.92874 32.6C 2.82874 30.6 3.02874 28.6 2.92874 26.6C 2.72874 23.4 2.42873 20.3 2.22873 17.2C -0.571267 16.1 -0.571231 16.1 1.32877 14.3C 1.72877 13.9 2.12876 13.3 2.12876 12.8C 2.12876 9.90001 2.02874 6.99999 1.92874 4.09999C 1.92874 3.79999 1.82873 3.2 1.72873 3.2C 0.628733 3.1 -0.171219 2.49999 0.528781 1.49999C 0.828781 1.09999 2.22877 1.30001 3.32877 1.30001C 3.52877 1.10001 4.02874 0.499988 4.42874 -1.2207e-05C 4.82874 0.499988 5.22878 0.999988 5.52878 1.49999C 6.52878 2.89999 7.42875 4.30001 8.42875 5.80001C 6.92875 6.10001 5.62877 6.40001 4.32877 6.80001C 3.92877 6.90001 3.72874 7.40001 3.42874 7.80001C 3.82874 8.10001 4.12878 8.59999 4.52878 8.59999C 5.92878 8.69999 7.32876 8.6 8.62876 8.7C 10.0288 8.8 11.5288 8.99999 12.9288 9.59999C 13.4288 9.79999 13.6287 11.1 13.8287 11.9C 14.2287 13.5 14.6288 15.1 15.0288 17.1C 17.5288 14.8 21.2288 15.3 22.0288 17.4C 20.4288 17.7 18.4287 17.4 17.2287 18.3C 16.2287 19.1 15.0287 21.1 17.7287 22.6C 16.2287 23 15.5288 23.2 14.6288 23.5C 14.9288 25.1 13.3287 27.1 15.8287 28.2C 15.9287 28.3 15.6288 30.3 15.1288 30.5C 12.6288 31.4 11.7288 33 12.4288 35.8Z"/>
<path id="path35_fill" d="M 0.14147 -6.10352e-06C 3.54147 -6.10352e-06 6.64142 -6.10352e-06 9.84142 -6.10352e-06C 9.84142 9.89999 9.84142 19.7 9.84142 29.5C 3.84142 30 3.54142 30 2.84142 24.8C 1.74142 17 0.941373 9.19999 0.0413725 1.39999C -0.0586275 1.09999 0.0414702 0.699994 0.14147 -6.10352e-06Z"/>
<path id="path36_fill" d="M 4.84023 3.29586C 2.94023 3.69586 1.84028 3.99585 0.640278 4.09585C 0.440278 4.09585 -0.159698 2.69587 0.0403019 2.49587C 1.0403 1.59587 2.04025 0.295846 3.24025 0.0958458C 5.34025 -0.204154 7.54025 0.295858 9.74025 0.295858C 12.7403 0.295858 15.7403 0.195858 18.7403 0.295858C 19.6403 0.295858 20.4403 0.795846 21.2403 1.09585C 21.1403 1.49585 21.1403 1.99586 21.0403 2.39586C 18.6403 2.39586 16.1403 2.29586 13.7403 2.39586C 12.9403 2.39586 12.0403 2.99586 11.2403 3.29586C 11.0403 3.39586 10.8403 3.69585 10.7403 3.69585C 8.54025 3.69585 6.34023 3.49586 4.84023 3.29586Z"/>
<path id="path37_fill" d="M 3.59998 4.69999C 2.39998 3.79999 1.2 2.90001 0 2.00001C 0.9 1.30001 1.69998 0.700006 2.59998 6.10352e-06C 3.29998 1.30001 3.89998 2.6 4.59998 3.9C 4.29998 4.1 3.99998 4.39999 3.59998 4.69999Z"/>
<path id="path38_fill" d="M 4.89998 0.0171539C 3.89998 1.71715 2.80001 3.51715 2.00001 5.01715C 1.60001 4.61715 0.9 4.01714 0.3 3.31714C 0.1 3.01714 1.2207e-05 2.51714 1.2207e-05 2.21714C 0.100012 1.41714 4.09998 -0.182846 4.89998 0.0171539Z"/>
<path id="path39_fill" d="M 1.16213 5.49999C -1.03787 3.19999 -0.137842 1.69999 4.06216 -1.2207e-05C 4.06216 0.799988 4.06216 1.59999 4.06216 2.49999C 1.96216 1.99999 1.06213 2.99999 1.16213 5.49999Z"/>
<path id="path40_fill" d="M 2.44141e-05 2.79999C 0.500024 1.89999 1.00002 1 1.50002 0C 2.10002 0.5 2.70001 1.00001 3.30001 1.60001C 2.50001 2.30001 1.70002 2.90001 1.00002 3.60001C 0.600024 3.30001 0.300024 3.09999 2.44141e-05 2.79999Z"/>
<path id="path41_fill" d="M 2.3 4.5C 1.3 3.9 1.2207e-05 3.50001 1.2207e-05 3.20001C 0.100012 2.10001 0.599976 1 0.899976 0C 1.09998 0 1.39999 0.100006 1.59999 0.100006C 1.79999 1.30001 2 2.5 2.3 4.5Z"/>
<path id="path42_fill" d="M 0 2.69999C 0.8 1.99999 1.69998 1.20001 3.09998 1.2207e-05C 3.09998 1.60001 3.4 2.70001 3 3.00001C 2.3 3.50001 1.30002 3.49999 0.400024 3.69999C 0.300024 3.29999 0.1 2.99999 0 2.69999Z"/>
<path id="path43_fill" d="M -4.88281e-05 3.39999C 0.399951 2.29999 0.9 1.2 1.3 0C 1.6 0 1.90002 0 2.20002 0C 2.30002 0.9 2.79995 1.99999 2.49995 2.79999C 2.29995 3.29999 1.19998 3.49999 0.399976 3.89999C 0.299976 3.79999 0.0999512 3.59999 -4.88281e-05 3.39999Z"/>
<path id="path44_fill" d="M 1.2207e-05 1.69999C 1.20001 0.999988 2.00002 0.500006 2.70002 6.10352e-06C 2.90002 0.700006 3.09998 1.40001 3.39998 2.10001C 3.59998 2.60001 4.1 3.00001 4.8 4.00001C 3.1 3.20001 1.80001 2.59999 1.2207e-05 1.69999Z"/>
<path id="path45_fill" d="M -2.44141e-05 4.99999C 0.699976 0.399994 0.699976 0.399994 1.99998 -6.10352e-06C 1.49998 1.89999 1.09995 3.5 0.599951 5.1C 0.399951 5.1 0.199976 5.09999 -2.44141e-05 4.99999Z"/>
<path id="path46_fill" d="M 3.05378 0.8C 2.35378 1.7 1.65378 2.59999 0.553784 4.19999C 0.253784 2.89999 -0.146216 1.99999 0.0537844 1.69999C 0.653784 0.999994 1.55383 0.600012 2.35383 1.2207e-05C 2.55383 0.300012 2.85378 0.5 3.05378 0.8Z"/>
<path id="path47_fill" d="M 36.5444 71.2C 24.7444 70.8 13.5444 70.5 1.74444 70.1C 1.34444 66.7 0.944432 63.4 0.544432 60.1C 0.444432 59.4 0.544432 58.8 0.544432 58.1C 0.344432 48.8 0.144432 39.5 0.0444322 30.2C -0.0555678 24.6 0.0444322 19 0.0444322 13.5C 0.0444322 9.20001 0.0444322 4.90001 0.0444322 6.10352e-06C 2.44443 0.300006 4.64444 0.6 6.74444 0.9C 7.24444 1 7.74444 1.19999 8.24444 1.19999C 14.3444 1.59999 20.3445 1.9 26.4445 2.4C 27.9445 2.5 29.3444 3.10001 30.8444 3.50001C 30.8444 3.80001 30.8444 3.99999 30.8444 4.29999C 31.3444 3.79999 31.9444 3.39999 32.8444 2.69999C 33.4444 4.09999 34.2444 5.30001 34.3444 6.50001C 34.6444 11.3 34.8445 16.2 34.9445 21C 35.0445 26.4 34.9445 31.8 34.9445 37.1C 35.0445 44.2 35.1445 51.3 35.4445 58.4C 35.4445 62.6 36.0444 66.7 36.5444 71.2ZM 10.0444 35.1C 10.0444 42.2 10.0444 49.2 10.0444 56.3C 10.0444 59 11.2445 60.2 13.9445 60.2C 14.9445 60.2 15.9445 60.3 16.9445 60.4C 20.3445 60.7 23.7445 61.1 27.1445 61.2C 29.0445 61.3 29.7445 59.9 29.1445 58C 28.8445 57.2 28.5444 56.4 28.5444 55.6C 28.4444 48.4 29.0445 41.2 27.9445 33.9C 26.8445 26.7 27.0444 19.2 26.7444 11.9C 26.6444 9.3 25.1444 7.99999 22.8444 9.29999C 20.5444 10.6 18.3445 10.3 16.1445 9.79999C 11.8445 8.79999 10.1444 10.2 10.0444 14.7C 10.0444 21.3 10.0444 28.2 10.0444 35.1Z"/>
<path id="path48_fill" d="M 0.1 6.10352e-06C 5.3 0.300006 10.8 0.700006 16.3 1.00001C 19.7 1.20001 23.2 1.20001 26.6 1.10001C 28 1.10001 28.7 1.6 28.7 2.9C 29 9.7 29.4 16.5 29.7 23.4C 29.9 27.1 29.7 30.8 30.3 34.4C 32 44.9 33.8 55.4 33.3 66.2C 33.3 67 33.5 67.8 33.7 68.9C 22.5 68.3 11.3 69.7 2.44141e-05 68C 0.100024 45.2 0.1 22.8 0.1 6.10352e-06ZM 27.2 58.5C 27.3 57.9 27.4 57.4 27.4 56.9C 27.1 52.5 26.9 48.1 26.4 43.7C 25.9 40.1 25.7 36.6 25.8 32.9C 25.9 27.1 25.3 21.3 24.9 15.5C 24.9 14.8 24.4 14.2 24.1 13.5C 23.7 12.4 23.4 11.2 22.9 10.1C 22.5 9.40001 21.8 8.29999 21.2 8.29999C 17.5 8.29999 13.9 8.49999 10.2 8.69999C 8.49998 8.79999 7.10002 9.60001 7.00002 11.5C 6.90002 13.9 6.90002 16.4 7.00002 18.8C 7.30002 24.4 7.79999 30.1 7.89999 35.7C 7.99999 38.2 7.00002 40.7 7.00002 43.3C 6.90002 46.8 7.29999 50.3 7.39999 53.8C 7.49999 57.2 9.3 58.6 12.6 58.5C 17.3 58.4 22.2 58.5 27.2 58.5Z"/>
<path id="path49_fill" d="M -1.2207e-05 26.61C -1.2207e-05 19.71 -1.2207e-05 12.81 -1.2207e-05 5.91C -1.2207e-05 1.41 1.70002 0.0100024 6.10002 1.01C 8.40002 1.51 10.5 1.91 12.8 0.510002C 15 -0.789998 16.5 0.510009 16.7 3.11001C 17 10.51 16.8 17.91 17.9 25.11C 19 32.41 18.4 39.61 18.5 46.81C 18.5 47.61 18.8 48.41 19.1 49.21C 19.8 51.11 19.1 52.51 17.1 52.41C 13.7 52.31 10.3 51.91 6.90001 51.61C 5.90001 51.51 4.90001 51.41 3.90001 51.41C 1.20001 51.41 -1.2207e-05 50.21 -1.2207e-05 47.51C -1.2207e-05 40.71 -1.2207e-05 33.61 -1.2207e-05 26.61ZM 14.6 48.21C 14.6 47.11 14.6 46.21 14.6 45.31C 14.2 36.01 14.3 26.71 12.6 17.61C 12 14.31 12.2 11.01 12.1 7.61001C 12 4.41001 11.9 4.30999 8.60002 4.30999C 7.90002 4.30999 7.30002 4.20999 6.60002 4.30999C 3.70002 4.40999 2.69999 6.21 3.49999 8.91C 4.19999 11.11 4.90001 13.41 4.90001 15.61C 5.10001 20.81 4.89999 25.91 4.99999 31.11C 4.99999 33.01 5.60001 34.91 5.40001 36.81C 5.10001 39.81 4.40002 42.81 4.10002 45.91C 4.00002 46.51 4.79998 47.61 5.29998 47.71C 8.29998 47.91 11.3 48.01 14.6 48.21Z"/>
<path id="path50_fill" d="M 20.475 50.1C 15.475 50.1 10.575 50 5.67499 50.2C 2.37499 50.3 0.574976 48.9 0.474976 45.5C 0.374976 42 -0.0249878 38.5 0.0750122 35C 0.0750122 32.5 1.07498 29.9 0.974976 27.4C 0.874976 21.8 0.375012 16.1 0.0750122 10.5C -0.0249878 8.1 -0.0249878 5.60001 0.0750122 3.20001C 0.175012 1.30001 1.67502 0.499994 3.27502 0.399994C 6.97502 0.199994 10.575 0 14.275 0C 14.875 0 15.675 1.09999 15.975 1.79999C 16.575 2.79999 16.775 4.00001 17.175 5.20001C 17.475 5.90001 17.975 6.50001 17.975 7.20001C 18.375 13 18.975 18.8 18.875 24.6C 18.775 28.2 19.075 31.8 19.475 35.4C 20.075 39.8 20.175 44.2 20.475 48.6C 20.675 49 20.575 49.5 20.475 50.1ZM 3.875 3.10001C 3.875 7.80001 3.875 11.9 3.875 16.1C 3.975 22 4.07499 28 4.17499 33.9C 4.17499 36.2 4.47499 38.6 4.17499 40.9C 3.87499 43.6 4.67498 44.9 7.47498 45.3C 10.075 45.7 12.775 46.1 15.075 46.5C 15.075 42.3 15.075 38.3 15.075 34.2C 15.075 33.4 15.075 32.5 15.075 31.7C 14.875 28.8 14.775 25.9 14.575 23C 14.375 20.4 13.675 17.9 13.975 15.2C 14.275 12.5 13.875 9.7 13.475 7C 13.375 6.1 12.575 4.80001 11.875 4.60001C 9.475 3.90001 6.875 3.60001 3.875 3.10001Z"/>
<path id="path51_fill" d="M 11.4061 44C 8.10609 43.8 5.10604 43.7 2.10604 43.4C 1.60604 43.3 0.906092 42.2 0.906092 41.6C 1.20609 38.6 1.90608 35.6 2.20608 32.5C 2.40608 30.6 1.80606 28.7 1.80606 26.8C 1.70606 21.6 1.90608 16.5 1.70608 11.3C 1.60608 9.00001 0.906055 6.79999 0.306055 4.59999C -0.593945 1.89999 0.506092 0.0999878 3.40609 -1.2207e-05C 4.10609 -1.2207e-05 4.70609 -1.2207e-05 5.40609 -1.2207e-05C 8.70609 -1.2207e-05 8.80609 0.100006 8.90609 3.30001C 9.00609 6.60001 8.80609 10 9.40609 13.3C 11.1061 22.5 11.0061 31.8 11.4061 41C 11.5061 42 11.4061 42.9 11.4061 44Z"/>
<path id="path52_fill" d="M 0 6.10352e-06C 3 0.500006 5.6 0.800006 8 1.50001C 8.7 1.70001 9.39998 3 9.59998 3.9C 9.99998 6.6 10.4 9.40001 10.1 12.1C 9.79998 14.8 10.5 17.3 10.7 19.9C 10.9 22.8 11 25.7 11.2 28.6C 11.2 29.4 11.2 30.3 11.2 31.1C 11.2 35.2 11.2 39.3 11.2 43.4C 8.90001 43 6.29998 42.6 3.59998 42.2C 0.799976 41.8 -1.2219e-05 40.4 0.299988 37.8C 0.499988 35.5 0.299988 33.2 0.299988 30.8C 0.199988 24.9 0.1 18.9 0 13C -1.13687e-13 8.90001 0 4.70001 0 6.10352e-06Z"/>
</defs>
</svg>
