<svg width="296" height="73" viewBox="0 0 296 73" version="1.1" xmlns="http://www.w3.org/2000/svg" xmlns:xlink="http://www.w3.org/1999/xlink">
<title>logo-agilidade-recife</title>
<desc>Created using Figma</desc>
<g id="Canvas" transform="translate(3665 3250)">
<g id="logo-agilidade-recife">
<g id="Group">
<g id="Vector">
<use xlink:href="#path0_fill" transform="translate(-3538.1 -3233.9)" fill="#565251"/>
</g>
<g id="Vector">
<use xlink:href="#path1_fill" transform="translate(-3515.8 -3233.8)" fill="#565251"/>
</g>
<g id="Vector">
<use xlink:href="#path2_fill" transform="translate(-3488.2 -3242.5)" fill="#565251"/>
</g>
<g id="Vector">
<use xlink:href="#path3_fill" transform="translate(-3480.3 -3244.4)" fill="#565251"/>
</g>
<g id="Vector">
<use xlink:href="#path4_fill" transform="translate(-3474 -3242.5)" fill="#565251"/>
</g>
<g id="Vector">
<use xlink:href="#path5_fill" transform="translate(-3468.2 -3244.3)" fill="#565251"/>
</g>
<g id="Vector">
<use xlink:href="#path6_fill" transform="translate(-3441.4 -3233.9)" fill="#565251"/>
</g>
<g id="Vector">
<use xlink:href="#path7_fill" transform="translate(-3419.1 -3244.3)" fill="#565251"/>
</g>
<g id="Vector">
<use xlink:href="#path8_fill" transform="translate(-3392.6 -3233.7)" fill="#565251"/>
</g>
</g>
<g id="Group">
<g id="Vector">
<use xlink:href="#path9_fill" transform="translate(-3621.2 -3249.1)" fill="#FAD723"/>
</g>
<g id="Vector">
<use xlink:href="#path10_fill" transform="translate(-3664.7 -3247.8)" fill="#E42513"/>
</g>
</g>
<g id="Group">
<g id="Group">
<g id="Vector">
<use xlink:href="#path11_fill" transform="translate(-3471.1 -3202.4)" fill="#565251"/>
</g>
<g id="Vector">
<use xlink:href="#path12_fill" transform="translate(-3439.6 -3196)" fill="#565251"/>
</g>
<g id="Vector">
<use xlink:href="#path13_fill" transform="translate(-3431.5 -3196.3)" fill="#565251"/>
</g>
<g id="Vector">
<use xlink:href="#path14_fill" transform="translate(-3415.4 -3196.2)" fill="#565251"/>
</g>
<g id="Vector">
<use xlink:href="#path15_fill" transform="translate(-3400.5 -3203.1)" fill="#565251"/>
</g>
<g id="Vector">
<use xlink:href="#path16_fill" transform="translate(-3396.2 -3203.6)" fill="#565251"/>
</g>
<g id="Vector">
<use xlink:href="#path17_fill" transform="translate(-3386.9 -3196.3)" fill="#565251"/>
</g>
</g>
</g>
</g>
</g>
<defs>
<path id="path0_fill" d="M 17.8 24L 17.8 19.3L 17.7 19.3C 16.8 20.9 15.6 22.2 13.9 23.1C 12.2 24 10.4 24.5 8.4 24.5C 5.8 24.5 3.8 23.9 2.3 22.6C 0.799997 21.4 -6.10352e-06 19.8 -6.10352e-06 17.9C -6.10352e-06 13.8 3.1 11.4 9.4 10.5L 17.8 9.4C 17.8 4.4 15.6 1.9 11.2 1.9C 8.20001 1.9 5.29999 2.90001 2.49999 5.00001L 2.49999 2.50001C 3.49999 1.80001 4.9 1.2 6.6 0.700003C 8.3 0.200003 9.89999 6.10352e-06 11.5 6.10352e-06C 14.3 6.10352e-06 16.5 0.700003 18 2.2C 19.5 3.7 20.3 5.8 20.3 8.7L 20.3 23.8L 17.8 23.8L 17.8 24ZM 10.3 12.4C 7.5 12.7 5.5 13.3 4.3 14.1C 3.1 14.9 2.6 16.2 2.6 17.9C 2.6 19.3 3.10001 20.4 4.20001 21.3C 5.30001 22.2 6.80001 22.6 8.70001 22.6C 11.3 22.6 13.5 21.8 15.2 20.1C 16.9 18.4 17.8 16.3 17.8 13.7L 17.8 11.4L 10.3 12.4Z"/>
<path id="path1_fill" d="M 23.8 22.2C 23.8 26.6 22.7 29.8 20.5 31.8C 18.3 33.8 14.8 34.8 10.1 34.8C 7.49999 34.8 4.80001 34.2 2.00001 33L 2.00001 30.8C 4.90001 32.2 7.59999 32.8 10.1 32.8C 17.6 32.8 21.3 29.4 21.3 22.6L 21.3 19.6L 21.2 19.6C 19.1 22.8 15.8 24.4 11.4 24.4C 8.10001 24.4 5.29999 23.4 3.19999 21.3C 1.09999 19.2 1.2207e-05 16.3 1.2207e-05 12.6C 1.2207e-05 8.9 1.10001 5.9 3.40001 3.5C 5.70001 1.1 8.70001 -3.05176e-06 12.4 -3.05176e-06C 16.4 -3.05176e-06 19.3 1.4 21.1 4.3L 21.2 4.3L 21.2 0.600003L 23.6 0.600003L 23.6 22.2L 23.8 22.2ZM 21.4 9.6C 21.4 7.5 20.6 5.8 19 4.3C 17.4 2.8 15.3 2 12.7 2C 9.69999 2 7.30001 3.00001 5.50001 4.90001C 3.70001 6.80001 2.8 9.4 2.8 12.5C 2.8 15.7 3.6 18.2 5.3 19.9C 7 21.7 9.20001 22.5 11.9 22.5C 14.8 22.5 17.1 21.7 18.9 20.1C 20.6 18.5 21.5 16.5 21.5 14.1L 21.5 9.6L 21.4 9.6Z"/>
<path id="path2_fill" d="M 1.99999 3.5C 1.49999 3.5 0.999994 3.3 0.599994 3C 0.199994 2.7 -1.2207e-05 2.2 -1.2207e-05 1.7C -1.2207e-05 1.2 0.199994 0.8 0.599994 0.5C 0.999994 0.2 1.49999 0 1.99999 0C 2.49999 0 3.00001 0.2 3.40001 0.5C 3.80001 0.8 3.99999 1.2 3.99999 1.7C 3.99999 2.2 3.80001 2.6 3.40001 3C 3.10001 3.3 2.59999 3.5 1.99999 3.5ZM 0.800006 32.6L 0.800006 9.3L 3.2 9.3L 3.2 32.6L 0.800006 32.6Z"/>
<path id="path3_fill" d="M 1.2207e-05 34.5L 1.2207e-05 6.10352e-06L 2.40001 6.10352e-06L 2.40001 34.5L 1.2207e-05 34.5Z"/>
<path id="path4_fill" d="M 2 3.5C 1.5 3.5 1.00001 3.3 0.600006 3C 0.200006 2.7 0 2.2 0 1.7C 0 1.2 0.200006 0.8 0.600006 0.5C 1.00001 0.2 1.5 0 2 0C 2.5 0 2.99999 0.2 3.39999 0.5C 3.79999 0.8 4 1.2 4 1.7C 4 2.2 3.79999 2.6 3.39999 3C 2.99999 3.3 2.5 3.5 2 3.5ZM 0.799988 32.6L 0.799988 9.3L 3.20001 9.3L 3.20001 32.6L 0.799988 32.6Z"/>
<path id="path5_fill" d="M 21.3 34.4L 21.3 30.2L 21.2 30.2C 20.3 31.7 19 32.8 17.3 33.7C 15.6 34.6 13.6 35 11.4 35C 8.10001 35 5.3 34 3.2 31.9C 1.1 29.8 -1.2207e-05 26.9 -1.2207e-05 23.2C -1.2207e-05 19.4 1.19999 16.4 3.49999 14.1C 5.79999 11.8 8.79999 10.6 12.5 10.6C 16.6 10.6 19.5 12 21.2 14.9L 21.3 14.9L 21.3 -3.05176e-06L 23.7 -3.05176e-06L 23.7 34.5L 21.3 34.5L 21.3 34.4ZM 21.3 20.3C 21.3 18.1 20.5 16.3 18.9 14.8C 17.3 13.3 15.1 12.5 12.4 12.5C 9.60001 12.5 7.20001 13.4 5.30001 15.3C 3.40001 17.2 2.49999 19.7 2.49999 23C 2.49999 26.2 3.29999 28.7 4.99999 30.4C 6.69999 32.2 8.79999 33 11.5 33C 14.6 33 17 32.2 18.7 30.5C 20.4 28.9 21.2 26.9 21.2 24.5L 21.2 20.3L 21.3 20.3Z"/>
<path id="path6_fill" d="M 17.8 24L 17.8 19.3L 17.7 19.3C 16.8 20.9 15.6 22.2 13.9 23.1C 12.2 24 10.4 24.5 8.4 24.5C 5.8 24.5 3.79999 23.9 2.29999 22.6C 0.799994 21.4 6.10352e-06 19.8 6.10352e-06 17.9C 6.10352e-06 13.8 3.1 11.4 9.4 10.5L 17.8 9.4C 17.8 4.4 15.6 1.9 11.2 1.9C 8.19999 1.9 5.30001 2.90001 2.50001 5.00001L 2.50001 2.50001C 3.50001 1.80001 4.90001 1.2 6.60001 0.700003C 8.30001 0.200003 9.90001 6.10352e-06 11.5 6.10352e-06C 14.3 6.10352e-06 16.5 0.700003 18 2.2C 19.5 3.7 20.3 5.8 20.3 8.7L 20.3 23.8L 17.8 23.8L 17.8 24ZM 10.3 12.4C 7.49999 12.7 5.49999 13.3 4.29999 14.1C 3.09999 14.9 2.60001 16.2 2.60001 17.9C 2.60001 19.3 3.09999 20.4 4.19999 21.3C 5.29999 22.2 6.79999 22.6 8.69999 22.6C 11.3 22.6 13.5 21.8 15.2 20.1C 16.9 18.4 17.8 16.3 17.8 13.7L 17.8 11.4L 10.3 12.4Z"/>
<path id="path7_fill" d="M 21.3 34.4L 21.3 30.2L 21.2 30.2C 20.3 31.7 19 32.8 17.3 33.7C 15.6 34.6 13.6 35 11.4 35C 8.09999 35 5.30001 34 3.20001 31.9C 1.10001 29.8 -6.10352e-06 26.9 -6.10352e-06 23.2C -6.10352e-06 19.4 1.19999 16.4 3.49999 14.1C 5.79999 11.8 8.79999 10.6 12.5 10.6C 16.6 10.6 19.5 12 21.2 14.9L 21.3 14.9L 21.3 -3.05176e-06L 23.7 -3.05176e-06L 23.7 34.5L 21.3 34.5L 21.3 34.4ZM 21.3 20.3C 21.3 18.1 20.5 16.3 18.9 14.8C 17.3 13.3 15.1 12.5 12.4 12.5C 9.59999 12.5 7.20001 13.4 5.30001 15.3C 3.40001 17.2 2.49999 19.7 2.49999 23C 2.49999 26.2 3.29999 28.7 4.99999 30.4C 6.69999 32.2 8.79999 33 11.5 33C 14.6 33 17 32.2 18.7 30.5C 20.4 28.9 21.2 26.9 21.2 24.5L 21.2 20.3L 21.3 20.3Z"/>
<path id="path8_fill" d="M 2.49999 12.3C 2.49999 15.5 3.4 18 5.1 19.8C 6.8 21.6 9.20001 22.5 12.2 22.5C 15.2 22.5 18.2 21.5 21.1 19.6L 21.1 21.8C 18.3 23.5 15.1 24.4 11.7 24.4C 8.20001 24.4 5.40001 23.3 3.20001 21.2C 1.00001 19 -6.10352e-06 16 -6.10352e-06 12.1C -6.10352e-06 8.69999 1.09999 5.8 3.39999 3.5C 5.69999 1.2 8.60001 3.05176e-06 12.2 3.05176e-06C 15.6 3.05176e-06 18.2 1 20 3C 21.8 5 22.7 7.80001 22.7 11.3L 22.7 12.2L 2.49999 12.2L 2.49999 12.3ZM 20.1 10.4C 20 7.7 19.2 5.59999 17.8 4.09999C 16.4 2.59999 14.5 1.9 12 1.9C 9.49999 1.9 7.30001 2.59999 5.70001 4.09999C 4.00001 5.59999 3 7.7 2.6 10.4L 20.1 10.4Z"/>
<path id="path9_fill" d="M 3.05176e-06 -6.10352e-06L 6.5 11.4L 60.8 11.4L 33.7 58.4L 40.6 70.4L 40.8 70.4L 81.4 -6.10352e-06L 3.05176e-06 -6.10352e-06Z"/>
<path id="path10_fill" d="M 47.7 11.9L 40.9 -3.05176e-06L 40.8 -3.05176e-06L 3.05176e-06 70.4L 81.3 70.4L 74.8 59.1L 20.3 59.1L 47.7 11.9Z"/>
<path id="path11_fill" d="M 17.4 15.6C 16.5 18 14.8 19.2 12.3 19.2C 10.7 19.2 9.39999 18.7 8.39999 17.7C 7.39999 16.7 6.89999 15.3 6.89999 13.6C 6.89999 11.3 7.59999 9.4 8.89999 7.9C 10.3 6.4 12 5.6 14.2 5.6C 15 5.6 15.8 5.8 16.5 6.2C 17.2 6.6 17.6 7 17.8 7.6L 17.9 7.6C 17.9 7.3 18 6.7 18.1 5.9L 20.3 5.9C 19.7 11.4 19.5 14.3 19.5 14.4C 19.5 16.5 20.2 17.5 21.6 17.5C 22.9 17.5 23.9 16.9 24.8 15.7C 25.6 14.5 26.1 13 26.1 11.1C 26.1 8.3 25.1 6.09999 23 4.29999C 21 2.59999 18.1 1.7 14.5 1.7C 11 1.7 8.09999 2.69999 5.89999 4.79999C 3.59999 6.89999 2.49999 9.5 2.49999 12.6C 2.49999 15.7 3.60001 18.2 5.70001 20.1C 7.90001 22 10.8 22.9 14.4 22.9C 17.3 22.9 19.8 22.5 21.8 21.7L 21.8 23.6C 19.8 24.3 17.2 24.7 14.2 24.7C 9.90001 24.7 6.49999 23.6 3.89999 21.4C 1.29999 19.2 -6.10352e-06 16.3 -6.10352e-06 12.7C -6.10352e-06 9 1.4 6 4.1 3.6C 6.8 1.2 10.3 6.10352e-06 14.6 6.10352e-06C 18.6 6.10352e-06 21.9 1.00001 24.5 3.00001C 27.1 5.00001 28.4 7.7 28.4 10.9C 28.4 13.3 27.7 15.3 26.3 16.8C 24.9 18.3 23.2 19.1 21.3 19.1C 18.7 19.2 17.4 18 17.4 15.6ZM 14.2 7.4C 12.7 7.4 11.6 8 10.7 9.2C 9.80001 10.4 9.39999 11.9 9.39999 13.6C 9.39999 14.8 9.70001 15.7 10.3 16.4C 10.9 17.1 11.7 17.4 12.7 17.4C 14.2 17.4 15.3 16.8 16.2 15.5C 17 14.3 17.5 12.6 17.5 10.6C 17.4 8.5 16.3 7.4 14.2 7.4Z"/>
<path id="path12_fill" d="M 9.39999 2.60001C 8.89999 2.30001 8.20001 2.10001 7.20001 2.10001C 6.00001 2.10001 4.9 2.60001 4.1 3.60001C 3.3 4.60001 2.89999 6 2.89999 7.7L 2.89999 15.6L -6.10352e-06 15.6L -6.10352e-06 0.199997L 2.89999 0.199997L 2.89999 3.39999L 2.99999 3.39999C 3.39999 2.29999 3.99999 1.49999 4.89999 0.899994C 5.69999 0.299994 6.70001 2.84217e-14 7.70001 2.84217e-14C 8.40001 2.84217e-14 8.99999 0.0999969 9.39999 0.199997L 9.39999 2.60001Z"/>
<path id="path13_fill" d="M 15.7 8.69999L 3 8.69999C 3 10.4 3.60001 11.7 4.60001 12.7C 5.60001 13.6 6.99999 14.1 8.89999 14.1C 10.9 14.1 12.8 13.5 14.5 12.4L 14.5 14.7C 12.9 15.7 10.8 16.2 8.20001 16.2C 5.70001 16.2 3.70001 15.5 2.20001 14.1C 0.700012 12.7 -5.68434e-14 10.7 -5.68434e-14 8.19999C -5.68434e-14 5.79999 0.799994 3.8 2.39999 2.3C 3.99999 0.8 5.99999 -3.05176e-06 8.29999 -3.05176e-06C 10.7 -3.05176e-06 12.5 0.699997 13.8 2C 15.1 3.3 15.7 5.10001 15.7 7.40001L 15.7 8.69999ZM 12.8 6.6C 12.8 5.2 12.4 4.1 11.6 3.3C 10.8 2.5 9.69999 2.1 8.29999 2.1C 6.89999 2.1 5.79999 2.50001 4.79999 3.40001C 3.89999 4.20001 3.3 5.29999 3 6.69999L 12.8 6.69999L 12.8 6.6Z"/>
<path id="path14_fill" d="M 13.5 15C 12.1 15.7 10.5 16.1 8.60001 16.1C 6.00001 16.1 4 15.4 2.4 14C 0.8 12.6 6.10352e-06 10.7 6.10352e-06 8.4C 6.10352e-06 5.9 0.900006 3.80001 2.50001 2.30001C 4.20001 0.800006 6.49999 3.05176e-06 9.29999 3.05176e-06C 10.9 3.05176e-06 12.3 0.300006 13.5 0.800006L 13.5 3.30001C 12.2 2.50001 10.7 2.09999 9.19999 2.09999C 7.39999 2.09999 5.89999 2.70001 4.69999 3.80001C 3.49999 4.90001 2.9 6.40001 2.9 8.30001C 2.9 10.1 3.50001 11.5 4.60001 12.6C 5.70001 13.6 7.20001 14.2 9.10001 14.2C 10.7 14.2 12.1 13.8 13.5 12.9L 13.5 15Z"/>
<path id="path15_fill" d="M 1.79999 3.3C 1.29999 3.3 0.8 3.1 0.5 2.8C 0.1 2.5 0 2.10001 0 1.70001C 0 1.20001 0.2 0.899994 0.5 0.499994C 0.9 0.199994 1.29999 -6.10352e-06 1.79999 -6.10352e-06C 2.29999 -6.10352e-06 2.80001 0.199994 3.10001 0.499994C 3.50001 0.799994 3.70001 1.20001 3.70001 1.70001C 3.70001 2.10001 3.50001 2.5 3.10001 2.8C 2.70001 3.1 2.29999 3.3 1.79999 3.3ZM 3.20001 22.6L 0.299988 22.6L 0.299988 7.20001L 3.20001 7.20001L 3.20001 22.6Z"/>
<path id="path16_fill" d="M 10.9 2.4C 10.3 2.1 9.69999 1.99999 8.99999 1.99999C 6.99999 1.99999 5.99999 3.1 5.99999 5.3L 5.99999 7.70001L 10.2 7.70001L 10.2 9.8L 5.99999 9.8L 5.99999 23.1L 3.09999 23.1L 3.09999 9.8L -1.2207e-05 9.8L -1.2207e-05 7.70001L 3.09999 7.70001L 3.09999 5.20001C 3.09999 3.60001 3.6 2.3 4.7 1.4C 5.8 0.500003 7.10001 -6.10352e-06 8.80001 -6.10352e-06C 9.70001 -6.10352e-06 10.4 0.0999969 10.9 0.299997L 10.9 2.4Z"/>
<path id="path17_fill" d="M 15.7 8.69999L 3.00001 8.69999C 3.00001 10.4 3.60001 11.7 4.60001 12.7C 5.60001 13.6 7 14.1 8.9 14.1C 10.9 14.1 12.8 13.5 14.5 12.4L 14.5 14.7C 12.9 15.7 10.8 16.2 8.19999 16.2C 5.69999 16.2 3.69999 15.5 2.19999 14.1C 0.699988 12.7 6.10352e-06 10.7 6.10352e-06 8.19999C 6.10352e-06 5.79999 0.8 3.8 2.4 2.3C 4 0.8 5.99999 -3.05176e-06 8.29999 -3.05176e-06C 10.7 -3.05176e-06 12.5 0.699997 13.8 2C 15.1 3.3 15.7 5.10001 15.7 7.40001L 15.7 8.69999ZM 12.8 6.6C 12.8 5.2 12.4 4.1 11.6 3.3C 10.8 2.5 9.69999 2.1 8.29999 2.1C 6.89999 2.1 5.79999 2.50001 4.79999 3.40001C 3.89999 4.20001 3.30001 5.29999 3.00001 6.69999L 12.8 6.69999L 12.8 6.6Z"/>
</defs>
</svg>
