<svg width="405" height="84" viewBox="0 0 405 84" version="1.1" xmlns="http://www.w3.org/2000/svg" xmlns:xlink="http://www.w3.org/1999/xlink">
<title>programacao-titulo</title>
<desc>Created using Figma</desc>
<g id="Canvas" transform="translate(3377 -1029)">
<g id="programacao-titulo">
<g id="Group">
<g id="Vector">
<use xlink:href="#path0_fill" transform="translate(-3303.8 1029.2)" fill="#FAD723"/>
</g>
<g id="Vector">
<use xlink:href="#path1_fill" transform="translate(-3376.31 1040.92)" fill="#FAD723"/>
</g>
<g id="Vector">
<use xlink:href="#path2_fill" transform="translate(-3039.5 1043.83)" fill="#FAD723"/>
</g>
<g id="Vector">
<use xlink:href="#path3_fill" transform="translate(-3310.9 1065.3)" fill="#FAD723"/>
</g>
<g id="Vector">
<use xlink:href="#path4_fill" transform="translate(-3155.4 1093.7)" fill="#FAD723"/>
</g>
<g id="Vector">
<use xlink:href="#path5_fill" transform="translate(-3142.3 1093.5)" fill="#FAD723"/>
</g>
<g id="Vector">
<use xlink:href="#path6_fill" transform="translate(-3148.6 1093.6)" fill="#FAD723"/>
</g>
<g id="Vector">
<use xlink:href="#path7_fill" transform="translate(-3186.5 1042.31)" fill="#FAD723"/>
</g>
<g id="Vector">
<use xlink:href="#path8_fill" transform="translate(-3193.9 1042.38)" fill="#FAD723"/>
</g>
<g id="Vector">
<use xlink:href="#path9_fill" transform="translate(-3244.9 1065.71)" fill="#FAD723"/>
</g>
<g id="Vector">
<use xlink:href="#path10_fill" transform="translate(-3159.1 1094.1)" fill="#FAD723"/>
</g>
<g id="Vector">
<use xlink:href="#path11_fill" transform="translate(-3237.8 1065.58)" fill="#FAD723"/>
</g>
<g id="Vector">
<use xlink:href="#path12_fill" transform="translate(-3125.57 1093.1)" fill="#FAD723"/>
</g>
<g id="Vector">
<use xlink:href="#path13_fill" transform="translate(-3132.64 1093.17)" fill="#FAD723"/>
</g>
<g id="Vector">
<use xlink:href="#path14_fill" transform="translate(-3127.44 1093.02)" fill="#FAD723"/>
</g>
<g id="Vector">
<use xlink:href="#path15_fill" transform="translate(-3139.1 1084.12)" fill="#FAD723"/>
</g>
<g id="Vector">
<use xlink:href="#path16_fill" transform="translate(-3193.7 1065.56)" fill="#FAD723"/>
</g>
<g id="Vector">
<use xlink:href="#path17_fill" transform="translate(-3051 1076.3)" fill="#FAD723"/>
</g>
<g id="Vector">
<use xlink:href="#path18_fill" transform="translate(-3207.3 1052.64)" fill="#FAD723"/>
</g>
<g id="Vector">
<use xlink:href="#path19_fill" transform="translate(-3288.39 1064.3)" fill="#FAD723"/>
</g>
<g id="Vector">
<use xlink:href="#path20_fill" transform="translate(-3005.1 1048.6)" fill="#FAD723"/>
</g>
</g>
<g id="programa&#195;&#167;&#195;&#163;o">
<use xlink:href="#path21_fill" transform="translate(-3286.17 1032.65)"/>
</g>
</g>
</g>
<defs>
<path id="path0_fill" fill-rule="evenodd" d="M 10.4 51.9019C 7.50001 52.3019 4.50001 52.602 1.50001 53.002C 1.40001 50.202 1.1 47.6019 1.3 44.9019C 1.5 42.1019 1.00001 39.4016 1.00001 36.6016C 1.00001 33.6016 0.799994 30.6016 0.699994 27.6016C 0.599994 24.6016 0.500006 21.6016 0.400006 18.6016C 0.300006 12.8016 0.200012 7.00168 1.2207e-05 1.20168C 1.2207e-05 -0.0983199 0.699994 0.00197309 1.69999 0.00197309C 15.4 0.201973 29 0.401973 42.7 0.501973C 65 0.601973 87.4 0.601582 109.7 0.601582C 126.4 0.601582 143.2 0.601582 159.9 0.601582C 191.8 0.701582 223.7 1.10197 255.7 2.00197C 259.4 2.10197 258.9 1.70188 258.8 4.90188C 258.7 7.40188 259.1 9.90178 258 12.3018C 257.4 13.7018 258.9 15.002 258.8 16.502C 258.6 19.802 258.7 23.0018 258.7 26.3018C 258.6 39.6018 258.6 53.0018 258.6 66.3018C 258.6 68.3018 258 68.4019 256.1 67.9019C 252.4 66.8019 248.6 67.4016 244.9 67.6016C 210.3 69.7016 175.6 68.8017 140.9 67.2017C 123.3 66.4017 105.6 65.802 88 66.002C 60.1 66.302 32.1 65.6016 4.19999 64.6016C 2.29999 64.5016 1.49999 64.2018 1.69999 62.3018C 1.89999 60.2018 1.59999 58.102 1.59999 56.002C 1.59999 55.402 1.40001 54.6018 2.50001 54.8018C 5.80001 55.5018 7.90001 53.3019 10.4 51.9019Z"/>
<path id="path1_fill" fill-rule="evenodd" d="M 67.6096 25.2752C 68.2096 34.4752 68.3097 43.6748 68.3097 52.8748C 68.3097 57.0748 68.9097 61.2749 68.9097 65.4749C 68.9097 66.8749 68.6096 67.1751 67.1096 67.1751C 58.9096 67.1751 50.7097 67.1752 42.5097 67.2752C 38.0097 67.3752 33.5097 67.5751 29.0097 67.6751C 28.6097 67.6751 26.9097 68.5748 27.8097 66.8748C 27.8097 66.8748 27.5097 66.575 27.3097 66.575C 25.2097 66.575 23.0097 65.6752 21.2097 67.2752C 20.8097 67.6752 20.2097 67.9749 19.6096 67.9749C 15.9096 68.0749 12.3097 68.2748 8.60965 68.3748C 8.70965 67.3748 9.90965 67.375 10.1097 66.575C 6.40965 65.775 3.50967 68.3751 0.00967473 68.6751C -0.0903253 67.6751 0.609675 67.0749 1.00967 66.4749C 8.20967 56.3749 15.0097 46.1748 21.9097 35.8748C 22.9097 34.2748 23.1097 33.0749 21.9097 31.4749C 16.1097 23.2749 12.4097 13.8749 5.90967 5.9749C 4.50967 4.2749 3.40967 2.3748 2.00967 0.374805C 2.90967 -0.225195 3.80965 0.075 4.60965 0.075C 23.5096 0.575 42.3097 1.1751 61.2097 1.6751C 62.4097 1.6751 63.7097 1.9751 64.9097 1.6751C 67.0097 1.1751 67.1097 2.275 67.2097 3.575C 67.4097 10.375 67.6097 17.275 67.7097 24.075C 67.2097 24.675 66.5097 24.675 65.4097 24.575C 66.3097 25.075 67.1096 24.6752 67.6096 25.2752Z"/>
<path id="path2_fill" fill-rule="evenodd" d="M 65.4 3.86707C 63.6 6.36707 62 8.96707 60 11.3671C 58.4 13.2671 57.4 15.367 55.9 17.267C 54.3 19.267 52.9 21.4668 51.4 23.5668C 49.9 25.6668 48.3 27.8667 46.7 29.9667C 46 30.8667 45.5 31.867 44.2 32.267C 42.8 32.667 44.1 33.5671 43.7 34.3671C 42.5 36.4671 42.4 38.6671 44.3 40.8671C 46.8 43.8671 48.8 47.167 51.3 50.267C 52.5 51.867 52.5 52.6669 50.4 53.1669C 50.1 53.2669 49.9 53.4668 49.7 53.5668C 49.8 53.6668 49.9 53.8671 49.9 53.8671C 53.4 53.1671 55 55.0667 56.7 57.4667C 59.3 61.2667 62.1 64.8669 65.3 69.1669C 59.2 68.8669 53.7 68.5667 48.1 68.4667C 35.7 68.0667 23.3 67.7671 10.8 67.3671C 7.69999 67.2671 4.69998 67.2671 1.59998 67.3671C 0.399976 67.3671 1.13687e-13 67.1667 1.13687e-13 65.9667C 0.1 55.9667 0.199988 45.8671 0.299988 35.8671C 0.299988 34.8671 0.299988 34.1668 1.79999 34.5668C 4.29999 35.2668 6.40001 34.3667 9.20001 33.4667C 6.00001 32.8667 3.29999 31.8667 0.299988 32.9667C 0.299988 29.3667 0.199988 25.9668 0.299988 22.5668C 0.299988 15.7668 0.400024 9.06697 0.400024 2.26697C 0.400024 1.16697 0.6 0.76687 2 0.66687C 23 -0.63313 44 0.167065 65 1.36707C 66.5 1.46707 67.1 1.86677 66 3.06677C 65.2 3.56677 64.3 3.16697 63.5 3.26697C 62.5 2.96697 61.5 4.06687 60.2 3.16687C 61.5 4.06687 62.5 3.06697 63.5 3.26697C 64 3.46697 65.1 2.56707 65.4 3.86707Z"/>
<path id="path3_fill" fill-rule="evenodd" d="M 2.19999 0.900195C 1.49999 0.900195 0.700006 0.800098 6.10352e-06 0.800098C 6.10352e-06 0.700098 6.10352e-06 0.599805 6.10352e-06 0.499805C 0.800006 0.299805 1.49999 0.0998047 2.29999 -0.000195313C 2.19999 0.299805 2.19999 0.600195 2.19999 0.900195Z"/>
<path id="path4_fill" fill-rule="evenodd" d="M 6.9 0.400098C 4.6 1.2001 2.29998 0.500195 -2.44141e-05 0.500195C 2.29998 -0.299805 4.7 0.500195 6.9 0.000195313C 7 0.100195 7.09998 0.199902 6.99998 0.199902C 6.99998 0.399902 6.9 0.400098 6.9 0.400098Z"/>
<path id="path5_fill" fill-rule="evenodd" d="M 6.70002 0.299805C 4.60002 0.699805 2.40002 0.699902 0.200024 0.399902C 2.44081e-05 0.299902 1.2207e-05 0.200195 1.2207e-05 0.200195C 0.100012 0.100195 0.100024 0.100098 0.200024 0.100098C 2.40002 0.100098 4.50002 0 6.70002 0C 6.80002 0.1 6.9 0.200195 6.8 0.200195C 6.8 0.300195 6.70002 0.299805 6.70002 0.299805Z"/>
<path id="path6_fill" fill-rule="evenodd" d="M 6.50002 9.76563e-05C 6.50002 0.100098 6.50002 0.199902 6.50002 0.299902C 4.40002 0.899902 2.20002 0.5 2.44141e-05 0.4C 2.44141e-05 0.3 2.44141e-05 0.200195 2.44141e-05 0.100195C 2.20002 0.100195 4.40002 0.100098 6.50002 9.76563e-05Z"/>
<path id="path7_fill" fill-rule="evenodd" d="M 0 0.28954C 0.8 -0.11046 1.6 -0.0106549 2.5 0.0893451C 3 0.489345 3.89999 -0.010655 4.29999 0.589345C 3.19999 0.989345 2.10002 0.789443 0.900024 0.689443C 0.700024 0.489443 0.2 0.58954 0 0.28954Z"/>
<path id="path8_fill" fill-rule="evenodd" d="M 2.99998 0.119694C 2.99998 0.219694 2.99998 0.319499 2.99998 0.419499C 2.09998 0.819499 1.09998 0.919694 -2.44141e-05 0.619694C 0.999976 0.119694 1.89998 -0.180306 2.99998 0.119694Z"/>
<path id="path9_fill" fill-rule="evenodd" d="M 3.19999 0.0933596C 3.19999 0.19336 3.19999 0.293653 3.19999 0.393653C 2.29999 0.793653 1.39998 0.89375 -2.44141e-05 0.49375C 1.19998 0.29375 2.09999 -0.20664 3.19999 0.0933596Z"/>
<path id="path10_fill" fill-rule="evenodd" d="M 3.6 0.100195C 2.4 0.900195 1.20002 0.200098 2.44141e-05 9.76563e-05C 1.20002 0.100098 2.4 0.100195 3.6 0.100195Z"/>
<path id="path11_fill" fill-rule="evenodd" d="M 0.500012 0.724805C 0.300012 0.624805 0.200012 0.424902 1.2207e-05 0.324902C 0.700012 -0.175098 1.40002 0.0251953 2.20002 0.125195C 1.90002 0.925195 1.20001 0.824805 0.500012 0.724805Z"/>
<path id="path12_fill" fill-rule="evenodd" d="M 0.165661 9.76563e-05C 1.26566 9.76563e-05 2.26567 0.100195 3.36567 0.100195C 3.36567 0.200195 3.36567 0.300098 3.36567 0.500098C 2.26567 0.500098 1.26566 0.4 0.165661 0.4C -0.034339 0.3 -0.0343146 0.200195 0.0656854 0.100195C -0.0343146 0.00019531 0.065661 9.76563e-05 0.165661 9.76563e-05Z"/>
<path id="path13_fill" fill-rule="evenodd" d="M 2.04145 0.525195C 1.44145 1.0252 0.841421 0.924902 0.141421 0.724902C 0.0414214 0.624902 -0.0585542 0.525098 0.0414458 0.425098C 0.141446 0.325098 0.141397 0.325 0.241397 0.325C 0.841397 -0.175 1.44142 0.0248047 2.14142 0.124805C 2.24142 0.224805 2.3414 0.325098 2.2414 0.425098C 2.2414 0.525098 2.14145 0.525195 2.04145 0.525195Z"/>
<path id="path14_fill" fill-rule="evenodd" d="M 2.0414 0.0756906C 2.0414 0.175691 2.0414 0.275593 2.0414 0.475593C 1.4414 0.775593 0.841434 0.975398 0.141434 0.775398C 0.0414336 0.675398 -0.0586031 0.575691 0.0413969 0.575691C 0.141397 0.475691 0.141409 0.475593 0.241409 0.475593C 0.641409 -0.124407 1.3414 -0.0243094 2.0414 0.0756906Z"/>
<path id="path15_fill" fill-rule="evenodd" d="M 2.50002 0.174805C 2.50002 0.274805 2.50002 0.375098 2.50002 0.475098C 1.70002 0.475098 0.900024 0.574902 2.44141e-05 0.274902C 0.900024 -0.125098 1.70002 -0.0251953 2.50002 0.174805Z"/>
<path id="path16_fill" fill-rule="evenodd" d="M -1.2207e-05 0.541052C 0.499988 0.0410516 1.09998 -0.158851 1.29998 0.141149C 1.89998 0.741149 1.09998 0.640759 0.799976 0.740759C 0.599976 0.640759 0.399988 0.541052 -1.2207e-05 0.541052Z"/>
<path id="path17_fill" fill-rule="evenodd" d="M 0 0.400195C 0.3 0.300195 0.600024 0.0998047 0.900024 -0.000195313C 1.30002 0.199805 1.70002 0.299902 2.40002 0.599902C 1.30002 0.899902 0.6 0.800195 0 0.400195Z"/>
<path id="path18_fill" fill-rule="evenodd" d="M 1.89998 0.163598C 1.19998 0.663598 0.700012 0.363793 1.2207e-05 0.363793C 0.700012 -0.236207 1.19998 0.0635977 1.89998 0.163598Z"/>
<path id="path19_fill" fill-rule="evenodd" d="M 1.19354 0.400195C 0.993543 0.800195 0.693561 0.7 0.493561 0.7C 0.293561 0.7 -0.206433 0.700098 0.0935671 0.300098C 0.193567 0.100098 0.593555 -0.000195313 0.893555 -0.000195313C 0.993555 -0.000195313 1.09354 0.300195 1.19354 0.400195Z"/>
<path id="path20_fill" fill-rule="evenodd" d="M 1.6 9.76563e-05C 1.7 0.100098 1.79999 0.2 1.89999 0.4C 1.29999 0.9 0.700024 0.800195 2.44141e-05 0.600195C 0.500024 0.100195 1 0.100098 1.6 9.76563e-05Z"/>
<path id="path21_fill" d="M 2.784 10.024C 2.784 9.704 3.376 9.448 4.56 9.256C 5.744 9.032 6.896 8.92 8.016 8.92L 10.08 8.92C 10.496 8.92 10.88 9.016 11.232 9.208C 11.616 9.368 11.808 9.608 11.808 9.928L 12.336 24.808L 10.656 27.784L 5.376 28.312L 4.992 43L 1.68 43L 2.784 10.024ZM 8.784 24.52C 8.976 24.52 9.072 24.424 9.072 24.232L 9.072 11.8L 8.352 11.08L 5.664 11.416L 5.664 24.664L 8.784 24.52ZM 19.1996 43L 16.4156 43L 16.4156 10.888L 15.3596 10.312L 15.3596 8.92L 22.8476 8.92C 24.0636 8.92 25.0716 9.16 25.8716 9.64C 26.7036 10.088 27.1356 10.632 27.1676 11.272L 26.6876 24.568C 26.6876 25.048 26.4636 25.64 26.0156 26.344C 25.5996 27.016 24.8156 27.512 23.6636 27.832L 26.4956 33.112L 27.5036 43L 23.9996 43.144L 23.2316 33.736L 20.5916 28.072L 19.1996 28.072L 19.1996 43ZM 19.8716 24.616C 19.8716 24.712 19.9196 24.808 20.0156 24.904C 20.1436 24.968 20.2876 25 20.4476 25L 22.9916 25C 23.1836 25 23.2796 24.904 23.2796 24.712L 23.5676 12.568C 23.5676 12.12 23.3596 11.752 22.9436 11.464C 22.5596 11.144 21.7276 10.984 20.4476 10.984C 20.0636 11.112 19.8716 11.304 19.8716 11.56L 19.8716 24.616ZM 35.1998 43C 33.8878 43 32.9757 42.792 32.4637 42.376C 31.9517 41.96 31.6958 41.272 31.6958 40.312L 31.6958 10.072C 32.3997 9.688 33.3118 9.4 34.4318 9.208C 35.5838 9.016 37.1037 8.92 38.9917 8.92C 39.8557 8.92 40.5598 9.144 41.1037 9.592C 41.6478 10.008 41.9198 10.552 41.9198 11.224L 41.5838 43L 35.1998 43ZM 38.1758 40.264L 38.6077 39.832L 38.8957 12.424C 38.8957 12.264 38.7518 12.168 38.4638 12.136L 35.4877 11.992L 35.0558 12.28L 34.7677 39.976L 38.1758 40.264ZM 57.8329 29.704L 57.8329 40.216C 57.8329 41.048 57.4969 41.72 56.8249 42.232C 56.1529 42.744 55.3689 43 54.4729 43L 47.2729 43L 46.2169 11.512C 46.2489 10.744 46.4729 10.12 46.8889 9.64C 47.3369 9.16 47.8969 8.92 48.5689 8.92L 58.1689 8.92L 58.1689 10.936L 57.3049 16.168L 55.1929 16.168L 55.1929 11.56L 49.8169 12.76L 50.6329 37.624C 50.6329 37.848 50.7449 38.056 50.9689 38.248C 51.1929 38.408 51.4169 38.488 51.6409 38.488L 53.8489 38.488C 54.0729 38.488 54.2809 38.44 54.4729 38.344C 54.6969 38.216 54.8089 38.072 54.8089 37.912L 54.8089 26.536L 59.7049 27.016L 59.7049 28.888L 57.8329 29.704ZM 66.5902 43L 63.8062 43L 63.8062 10.888L 62.7503 10.312L 62.7503 8.92L 70.2382 8.92C 71.4542 8.92 72.4622 9.16 73.2622 9.64C 74.0943 10.088 74.5263 10.632 74.5583 11.272L 74.0782 24.568C 74.0782 25.048 73.8543 25.64 73.4062 26.344C 72.9903 27.016 72.2062 27.512 71.0542 27.832L 73.8863 33.112L 74.8942 43L 71.3903 43.144L 70.6223 33.736L 67.9822 28.072L 66.5902 28.072L 66.5902 43ZM 67.2622 24.616C 67.2622 24.712 67.3102 24.808 67.4062 24.904C 67.5343 24.968 67.6783 25 67.8383 25L 70.3822 25C 70.5743 25 70.6702 24.904 70.6702 24.712L 70.9582 12.568C 70.9582 12.12 70.7502 11.752 70.3342 11.464C 69.9502 11.144 69.1183 10.984 67.8383 10.984C 67.4543 11.112 67.2622 11.304 67.2622 11.56L 67.2622 24.616ZM 88.9264 43L 86.1424 43L 84.8944 29.656L 82.4464 29.656L 80.2384 43L 77.9824 43L 80.1424 8.92L 88.9264 8.92L 88.9264 43ZM 85.9024 10.744C 85.9024 10.552 85.8064 10.456 85.6144 10.456L 83.5504 10.456C 83.3584 10.456 83.2624 10.552 83.2624 10.744L 83.2624 27.16C 83.2624 27.32 83.3584 27.4 83.5504 27.4L 85.6144 27.4C 85.8064 27.4 85.9024 27.304 85.9024 27.112L 85.9024 10.744ZM 93.7125 43L 93.7125 8.92L 97.1685 8.92L 100.672 29.752L 101.056 29.752L 104.32 8.92L 107.105 8.92L 108.209 43L 105.041 43L 105.041 17.32L 104.704 17.32L 101.392 35.464L 99.8085 35.8L 96.4005 14.728L 96.2085 14.728L 96.2085 43L 93.7125 43ZM 123.403 43L 121.291 43L 119.563 30.232L 115.723 32.056L 114.667 43L 111.691 43L 113.851 8.92L 121.435 8.92L 123.403 43ZM 118.939 11.224C 118.939 11.032 118.843 10.936 118.651 10.936L 116.587 11.416C 116.395 11.512 116.299 11.672 116.299 11.896L 116.299 28.792C 116.299 28.952 116.395 29.032 116.587 29.032L 118.363 28.744C 118.555 28.744 118.651 28.648 118.651 28.456L 118.939 11.224ZM 139.081 43L 134.185 43L 133.081 45.16L 138.457 45.16L 137.305 50.104C 137.305 50.776 136.969 51.416 136.297 52.024C 135.625 52.664 134.937 52.984 134.233 52.984L 128.329 52.984L 128.329 50.2L 134.521 50.2L 135.001 47.656L 129.961 47.272L 131.161 42.952C 129.881 42.824 128.921 42.504 128.281 41.992C 127.673 41.448 127.369 40.792 127.369 40.024L 127.369 11.608C 127.369 10.84 127.705 10.2 128.377 9.688C 129.049 9.176 129.993 8.92 131.209 8.92L 139.081 8.92L 139.081 11.608L 138.313 17.608L 135.145 17.608L 134.665 12.184C 134.665 11.896 134.473 11.752 134.089 11.752L 132.073 11.752C 131.465 11.752 131.017 12.008 130.729 12.52C 130.473 13 130.345 13.544 130.345 14.152C 130.345 14.504 130.393 14.712 130.489 14.776L 131.449 38.728C 131.353 38.76 131.305 38.808 131.305 38.872C 131.305 38.968 131.449 39.016 131.737 39.016L 134.569 39.016C 134.953 39.016 135.145 38.92 135.145 38.728L 136.105 34.984L 139.081 34.984L 139.081 43ZM 146.856 -0.056C 147.656 -0.056 148.52 0.264 149.448 0.904L 151.272 2.104L 154.728 -0.2L 154.728 2.68L 153.576 3.784C 153.256 4.072 152.888 4.328 152.472 4.552C 152.088 4.776 151.752 4.888 151.464 4.888C 150.888 4.888 150.168 4.584 149.304 3.976L 147.192 2.488L 143.928 5.032L 143.784 1.72L 145.032 0.616C 145.576 0.168 146.184 -0.056 146.856 -0.056ZM 153.192 43L 150.408 43L 149.16 29.656L 146.712 29.656L 144.504 43L 142.248 43L 144.408 8.92L 153.192 8.92L 153.192 43ZM 150.168 10.744C 150.168 10.552 150.072 10.456 149.88 10.456L 147.816 10.456C 147.624 10.456 147.528 10.552 147.528 10.744L 147.528 27.16C 147.528 27.32 147.624 27.4 147.816 27.4L 149.88 27.4C 150.072 27.4 150.168 27.304 150.168 27.112L 150.168 10.744ZM 161.434 43C 160.122 43 159.21 42.792 158.698 42.376C 158.186 41.96 157.93 41.272 157.93 40.312L 157.93 10.072C 158.634 9.688 159.546 9.4 160.666 9.208C 161.818 9.016 163.338 8.92 165.226 8.92C 166.09 8.92 166.794 9.144 167.338 9.592C 167.882 10.008 168.154 10.552 168.154 11.224L 167.818 43L 161.434 43ZM 164.41 40.264L 164.842 39.832L 165.13 12.424C 165.13 12.264 164.986 12.168 164.698 12.136L 161.722 11.992L 161.29 12.28L 161.002 39.976L 164.41 40.264Z"/>
</defs>
</svg>
