<svg width="192" height="153" viewBox="0 0 192 153" version="1.1" xmlns="http://www.w3.org/2000/svg" xmlns:xlink="http://www.w3.org/1999/xlink">
<title>seja-agil-visse</title>
<desc>Created using Figma</desc>
<g id="Canvas" transform="translate(3133 3668)">
<g id="seja-agil-visse">
<g id="Group">
<g id="Vector">
<use xlink:href="#path0_fill" transform="translate(-3131.2 -3663.2)" fill="#FAD723"/>
</g>
<g id="Group">
<g id="Group">
<g id="Vector">
<use xlink:href="#path1_fill" transform="translate(-3133 -3668)" fill="#1D1D1D"/>
</g>
</g>
</g>
</g>
<g id="Group">
<g id="Group">
<g id="Group">
<g id="Group">
<g id="Vector">
<use xlink:href="#path2_fill" transform="translate(-3091.5 -3625.2)"/>
</g>
<g id="Vector">
<use xlink:href="#path3_fill" transform="translate(-3076.94 -3623.66)"/>
</g>
<g id="Vector">
<use xlink:href="#path4_fill" transform="translate(-3063.97 -3624.01)"/>
</g>
<g id="Vector">
<use xlink:href="#path5_fill" transform="translate(-3054 -3623.77)"/>
</g>
<g id="Vector">
<use xlink:href="#path6_fill" transform="translate(-3026.9 -3634.9)"/>
</g>
<g id="Vector">
<use xlink:href="#path7_fill" transform="translate(-3011.3 -3627.5)"/>
</g>
<g id="Vector">
<use xlink:href="#path8_fill" transform="translate(-2996.34 -3627.61)"/>
</g>
<g id="Vector">
<use xlink:href="#path9_fill" transform="translate(-2989.8 -3628.21)"/>
</g>
<g id="Vector">
<use xlink:href="#path10_fill" transform="translate(-2968.96 -3604.27)"/>
</g>
</g>
</g>
<g id="Group">
<g id="Group">
<g id="Vector">
<use xlink:href="#path11_fill" transform="translate(-3091 -3593.9)"/>
</g>
<g id="Vector">
<use xlink:href="#path12_fill" transform="translate(-3070.64 -3593.71)"/>
</g>
<g id="Vector">
<use xlink:href="#path13_fill" transform="translate(-3061.2 -3593.9)"/>
</g>
<g id="Vector">
<use xlink:href="#path14_fill" transform="translate(-3041.2 -3594.5)"/>
</g>
<g id="Vector">
<use xlink:href="#path15_fill" transform="translate(-3019.34 -3595.4)"/>
</g>
<g id="Vector">
<use xlink:href="#path16_fill" transform="translate(-2999.73 -3594.8)"/>
</g>
<g id="Vector">
<use xlink:href="#path17_fill" transform="translate(-2977.06 -3594.5)"/>
</g>
</g>
</g>
</g>
<g id="Vector">
<use xlink:href="#path18_fill" transform="translate(-3090.3 -3650.4)"/>
</g>
<g id="Vector">
<use xlink:href="#path19_fill" transform="translate(-3069.6 -3647.2)" fill="#FFFFFF"/>
</g>
<g id="Vector">
<use xlink:href="#path20_fill" transform="translate(-3052.7 -3639.7)" fill="#FFFFFF"/>
</g>
<g id="Vector">
<use xlink:href="#path21_fill" transform="translate(-3084.8 -3638.3)" fill="#FFFFFF"/>
</g>
<g id="Vector">
<use xlink:href="#path22_fill" transform="translate(-3096.2 -3633.9)"/>
</g>
<g id="Vector">
<use xlink:href="#path23_fill" transform="translate(-3095.3 -3630.3)"/>
</g>
<g id="Vector">
<use xlink:href="#path24_fill" transform="translate(-3093.7 -3635.5)"/>
</g>
<g id="Vector">
<use xlink:href="#path25_fill" transform="translate(-3039.9 -3633.2)"/>
</g>
<g id="Vector">
<use xlink:href="#path26_fill" transform="translate(-3039.9 -3635.1)"/>
</g>
<g id="Vector">
<use xlink:href="#path27_fill" transform="translate(-3039.1 -3629.6)"/>
</g>
</g>
</g>
</g>
<defs>
<path id="path0_fill" d="M 157 146.1L 148 124.7L 186 85.9L 175.5 24.6L 66.1 3.05176e-06L 0 36.1L 29.1 119.9L 120.3 130.3L 157 146.1Z"/>
<path id="path1_fill" d="M 99.9 128.2L 31.6 119L 36.4 122.8L 28.1 97.6L 7.70002 38.9L 4.8 46.4L 7.50001 44.9L 65.2 9.10001L 69.1 7L 67.4 7.3L 116.8 19.3L 165.8 30.3L 176.8 31.4L 175.3 29.7L 181.4 50.6L 183.1 83.4L 184.5 91.2L 185.4 88.3L 147.4 127.2L 145.9 128.8L 146.7 130.8L 155.6 152.2L 148.6 130.1L 148.3 129.1L 148.9 128.6L 190.2 93L 191.3 92.1L 191.1 90.1L 188.4 57L 183.5 28.3L 182.8 24.2L 178.7 23.2L 128.7 12L 68.9 0.300003L 67.1 0L 65.7 0.800003L 24.9 24.4L 1.09999 39.7L 1.2207e-05 40.4L 0.399976 41.4L 17 80.2L 28.6 125.6L 28.9 126.9L 30.7 127.2L 51.5 131.4L 121.8 137L 121.3 136.8L 158.6 151.3L 123.2 132.5L 123 132.4L 122.4 132.2L 104.9 128.8"/>
<path id="path2_fill" d="M 0.899976 25.2C 0.899976 24.2 0.899976 23.7 0.899976 22.7C 0.899976 22.4 1.29999 22.1 1.59999 22.2C 3.59999 22.4 4.60001 22.4 6.50001 22.5C 6.80001 22.5 7.20002 22.2 7.20002 21.9C 7.20002 21.3 6.80001 20.4 6.50001 19.8C 6.30001 19.2 5.59999 17.6 5.59999 17.5C 3.79999 13.4 2.20002 9.19999 0.200024 5.09999C 0.100024 4.59999 0.100012 4.4 1.2207e-05 3.9C 1.2207e-05 3.8 1.2207e-05 3.8 1.2207e-05 3.7C 0.100012 2.5 0.100024 1.79999 0.200024 0.599994C 0.200024 0.599994 0.500024 3.05176e-06 0.700024 3.05176e-06C 4.50002 0.700003 6.39999 0.900006 10.1 1.30001C 10.4 1.30001 10.8 1.7 10.8 2C 10.8 3.6 10.8 4.4 10.8 6C 10.6 6.2 10.5 6.3 10.4 6.4C 10.1 6.4 10 6.40001 9.70002 6.30001C 8.30002 6.10001 7.20002 5.89999 5.70002 5.59999C 5.50002 5.79999 5.4 5.8 5.3 6C 5.7 7 5.80002 7.49999 6.20002 8.59999C 7.00002 10.4 10.8 18.9 11.6 20.7C 11.7 20.8 12.3 22.5 12.5 23C 12.6 23.2 12.7 23.6 12.7 23.6C 12.7 25 12.7 25.6 12.7 27C 12.4 27.3 12.3 27.4 12 27.6C 12 27.6 11.4 27.6 11.2 27.6C 8.10002 27.3 4.79999 26.8 2.09999 26.1C 1.69999 26.2 0.899976 25.8 0.899976 25.2Z"/>
<path id="path3_fill" d="M 0.0444322 25.7585C -0.0555678 24.6585 0.0444322 19.0585 0.0444322 17.8585C 0.0444322 15.7585 0.0444322 10.2584 0.0444322 9.95843C 0.0444322 8.95843 0.244444 4.05845 0.244444 2.95845C 0.344444 1.95845 0.544469 0.358446 1.64447 0.158446C 3.54447 -0.141554 5.14444 0.0584459 7.24444 0.158446C 9.34444 0.258446 11.5444 -0.241557 11.5444 2.35844L 11.5444 2.45845C 11.5444 3.15845 11.5445 5.35846 10.6445 5.35846C 8.54447 5.55846 7.54446 5.55845 5.44446 5.65845C 4.94446 5.65845 4.94446 6.65843 4.94446 6.95843C 4.94446 8.05843 5.04444 8.75843 5.24444 9.95843C 6.04444 11.1584 9.44442 10.7585 10.3444 10.7585C 10.6444 10.7585 11.0444 11.0584 11.0444 11.4584C 11.0444 12.8584 11.0444 13.6584 11.0444 15.0584C 10.8444 15.2584 10.7444 15.3584 10.5444 15.4584C 9.94443 15.4584 7.24444 15.6584 6.74444 15.6584C 5.94444 15.7584 5.04444 15.8584 4.74444 16.6584C 4.74444 17.0584 4.74444 18.6584 4.74444 19.0584C 4.74444 20.1584 4.64443 21.6585 5.04443 22.8585C 6.54443 23.7585 9.54447 23.6584 10.6445 24.0584C 11.2445 24.2584 11.1445 25.4584 11.1445 26.0584C 11.1445 26.2584 11.1445 26.9584 11.1445 26.9584C 10.9445 27.1584 10.8445 27.2585 10.6445 27.3585C 10.6445 27.3585 8.54444 27.5584 7.74444 27.5584C 7.44444 27.5584 7.34443 27.5584 7.04443 27.5584C 6.14443 27.5584 1.94444 27.2584 1.24444 27.0584C 0.644444 27.0584 0.144432 26.3585 0.0444322 25.7585Z"/>
<path id="path4_fill" d="M 7.26531 27.0054C 4.66531 27.1054 3.26533 27.1054 0.665331 27.1054C 0.465331 26.9054 0.365306 26.8054 0.265306 26.6054C 0.265306 26.6054 0.0652939 24.4054 0.0652939 23.5054C 0.0652939 23.4054 0.0652939 23.3054 0.0652939 23.2054C 0.0652939 22.8054 -0.134669 22.2054 0.165331 22.1054C 2.16533 21.6054 3.36528 22.4054 3.86528 21.9054C 5.46528 20.1054 4.56531 7.80541 4.26531 0.805407C 4.36531 0.505407 4.46531 0.30541 4.76531 0.10541C 4.86531 0.10541 5.66531 0.00540359 5.76531 0.00540359C 7.86531 -0.0945964 7.86528 1.2054 7.86528 2.9054C 7.86528 3.3054 7.86528 3.6054 7.86528 4.0054C 7.86528 4.5054 8.06529 8.1054 8.06529 8.5054C 8.06529 8.7054 8.06529 12.0054 8.06529 13.3054C 8.06529 14.6054 8.06529 18.1054 8.06529 18.3054C 7.96529 21.4054 7.96528 22.9054 7.86528 25.9054C 7.66528 26.2054 7.36531 26.9054 7.26531 27.0054Z"/>
<path id="path5_fill" d="M 1.2207e-05 20.7669C 1.2207e-05 16.9669 0.500012 13.1669 0.500012 9.36693C 0.500012 6.86693 0.3 4.26693 0.3 1.76693C 0.3 0.866925 1.00002 0.866925 1.70002 0.766925C 2.30002 0.766925 2.60002 0.766919 3.20002 0.666919C 4.90002 0.566919 13.1 -0.233072 14.2 0.0669281C 14.6 0.166928 14.7 0.866931 14.7 1.36693C 14.7 1.46693 14.7 1.46693 14.7 1.56693C 14.7 9.56693 13.8 17.5669 14 25.5669C 14 25.8669 13.6 26.2669 13.3 26.2669C 12.2 26.3669 11.7 26.3669 10.6 26.4669C 10.5 26.3669 10.5 26.3669 10.4 26.2669C 10.3 26.1669 10.1 25.8669 10.1 25.8669C 10.1 21.8669 10.1 19.7669 10.1 15.7669C 10.1 15.7669 9.9 15.4669 9.8 15.3669C 9.7 15.2669 9.19999 14.7669 9.09999 14.7669C 8.59999 14.6669 6.39998 14.5669 5.89998 14.5669C 5.89998 14.5669 5.49998 14.5669 5.39998 14.5669C 5.19998 14.5669 4.80002 14.5669 4.70002 14.8669C 4.60002 15.3669 4.3 17.5669 4.3 17.9669C 4.3 19.1669 4.00001 25.2669 4.00001 26.5669C 3.40001 28.0669 1.2207e-05 27.9669 1.2207e-05 26.0669C 1.2207e-05 25.2669 1.2207e-05 21.5669 1.2207e-05 20.7669ZM 10.1 10.1669C 10.2 10.0669 10.2 10.0669 10.3 9.96694C 10.3 9.86694 10.5 8.56692 10.5 8.16692C 10.5 8.06692 10.5 6.46694 10.5 5.96694C 10.5 5.56694 10.5 4.56693 10.5 4.56693C 10.4 4.46693 10.4 4.46693 10.3 4.36693C 10.2 4.36693 9.19998 4.36692 8.89998 4.46692C 7.49998 4.56692 6.19998 4.66692 4.89998 4.96692C 4.69998 5.06692 4.50001 5.46692 4.50001 5.66692C 4.50001 7.66692 4.50001 8.56691 4.50001 10.5669C 6.70001 10.4669 7.89999 10.3669 10.1 10.1669Z"/>
<path id="path6_fill" d="M 4.99999 9.2C 5.09999 9.2 5.19998 9.2 5.29998 9.2C 6.69998 9.1 8.4 9.20001 13.2 9.00001C 13.4 9.10001 13.5 9.4 13.6 9.6C 13.6 9.9 13.6 11.5 13.6 11.9C 13.6 12.4 13.6 14 13.6 14.1C 13.3 20.1 12.9 28.5 12.7 34.6C 12.5 34.8 12.4 34.9 12.2 35.1C 11.2 35.2 10.7 35.2 9.7 35.3C 9 35.4 8.79998 34.4 8.79998 33.9C 8.79998 30.9 8.99999 27.9 8.99999 24.9C 8.79999 24.9 8.69999 24.9 8.49999 24.9C 6.69999 25.1 3.70002 25.5 3.10002 25.5C 2.70002 27.6 2.4 29.7 2.2 31.9C 2.2 32.2 1.99999 34.7 1.99999 35.1C 1.89999 35.7 1.50001 36.3 0.900012 36.3C 0.500012 36.3 0.199988 36.2 -1.2207e-05 35.9C -1.2207e-05 35.5 -1.2207e-05 35.4 -1.2207e-05 35C -1.2207e-05 27.1 0.8 18.9 0.2 11.6C 0.1 10.7 0.500012 9.60001 1.40001 9.50001C 2.10001 9.50001 4.49999 9.3 4.99999 9.2ZM 3.60002 6.7C 3.60002 6.7 3.5 6.3 2.7 4.7C 2.7 4.6 2.70002 4.6 2.60002 4.6C 2.50002 4.4 2.49999 4.3 2.49999 4.1C 2.49999 3.9 2.6 3.7 2.7 3.6C 5.7 2.1 7.2 1.40001 10.2 6.10352e-06C 10.6 1.10001 10.8 1.6 11.2 2.7C 11.3 2.8 11 3.2 11 3.2C 7.09999 5.2 7.80002 4.7 3.60002 6.7ZM 8.99999 13.1C 7.39999 13.3 6.59999 13.4 4.99999 13.7C 4.99999 14 5.00001 14.1 4.90001 14.4C 4.70001 16.6 4.40002 18.9 4.10002 21.1C 5.40002 20.9 7.80002 20.5 9.10002 20.3C 9.10002 20.2 9.10002 20.2 9.10002 20.1C 9.00002 17.7 8.89999 15.5 8.99999 13.1Z"/>
<path id="path7_fill" d="M 0.1 24C 0.1 22.2 0.399988 20.2 0.399988 4.3C 0.399988 2 0.5 0.7 3.1 0.5C 6.9 0.2 8.80002 0.1 12.5 0C 12.8 0 13.1 0.299997 13.2 0.699997C 13.3 2.5 13.3 3.40001 13.4 5.10001C 13.4 6.10001 13.4 6.60001 13.4 7.60001C 13.2 8.20001 13.1 8.3 12.5 8.3C 11 8.4 9.6 7.39999 9.6 5.89999C 9.6 5.49999 9.5 4.9 10.1 4.8C 10 4.7 9.90001 4.70001 9.80001 4.60001C 9.80001 4.60001 7.39999 4.4 6.39999 4.3C 6.39999 4.3 5.99999 4.3 5.89999 4.3C 4.39999 4.4 4.50001 8.29999 4.30001 9.39999C 4.10001 10.4 3.89999 15.9 3.89999 17.1C 3.89999 17.2 3.89999 18.8 3.89999 19.4C 3.89999 19.7 3.89999 21.3 3.89999 21.7C 3.89999 22.2 4.50002 22.3 5.00002 22.3C 5.80002 22.3 7.80002 22.3 8.00002 21.2C 8.10002 20.6 8.19998 17.6 8.19998 16.9C 8.19998 16.6 8.19998 16.4 8.19998 16.1C 8.19998 14.4 5.69998 15.2 5.69998 13.3C 5.69998 11.3 8.19998 11.5 9.69998 11.4C 9.79998 11.4 9.90002 11.4 10 11.4C 10.1 11.4 11 11.3 11.2 11.3C 11.4 11.3 12 11.3 12 11.3C 12.2 11.5 12.3 11.5 12.5 11.7C 12.5 11.8 12.5 12.8 12.5 13.1C 12.5 13.6 12.5 15.1 12.5 15.3C 12.4 16.9 12 24.3 11.8 25.9C 11.7 26.1 11.2 26.6 10.9 26.6C 6.79999 26.8 4.70002 26.9 0.500024 27.2C 0.300024 27 0.200024 27 2.44141e-05 26.8C 2.44141e-05 26.7 2.44141e-05 25.1 2.44141e-05 24.5C 0.100024 24.3 0.1 24.2 0.1 24Z"/>
<path id="path8_fill" d="M 0.0444689 13.5142C 0.0444689 13.2142 0.0444689 8.81423 0.0444689 7.21423C 0.0444689 6.21423 -0.0555311 1.71423 0.0444689 0.914225C 0.144469 0.514225 0.44442 0.214216 0.74442 0.0142161C 1.24442 0.0142161 1.54444 0.0142161 2.14444 0.0142161C 3.14444 0.0142161 4.24444 -0.185775 4.64444 0.914225C 4.64444 1.41423 4.64444 1.61422 4.64444 2.11422C 4.64444 10.1142 4.24443 18.4142 3.94443 26.5142C 3.94443 26.5142 3.64443 27.2142 3.44443 27.2142C 2.44443 27.2142 1.94443 27.2142 0.944432 27.2142C 0.544432 27.2142 0.34442 26.8142 0.24442 26.6142C 0.14442 21.3142 0.144469 18.7142 0.0444689 13.5142Z"/>
<path id="path9_fill" d="M 2.44141e-05 18.3054C 2.44141e-05 18.1054 2.44141e-05 14.5054 2.44141e-05 13.3054C 2.44141e-05 12.0054 2.44141e-05 8.70541 2.44141e-05 8.50541C 2.44141e-05 8.10541 0.199976 4.50541 0.199976 4.00541C 0.199976 3.60541 0.199976 3.3054 0.199976 2.9054C 0.199976 1.2054 0.200012 -0.0945934 2.30001 0.00540664C 2.50001 0.00540664 3.20001 0.105397 3.30001 0.105397C 3.50001 0.305397 3.70001 0.50541 3.80001 0.80541C 3.60001 7.30541 3.80001 13.7054 4.30001 20.2054C 4.40001 20.5054 4.70002 20.8054 5.00002 21.1054C 9.10002 22.1054 15.7 22.0054 18.5 23.0054C 18.8 23.1054 19 23.8054 19 24.2054C 19 24.3054 19 24.4054 19 24.5054C 18.9 25.4054 18.8 27.6054 18.8 27.6054C 18.6 27.8054 18.5 27.8054 18.4 28.0054C 11.4 27.1054 7.90001 27.0054 0.800012 26.9054C 0.600012 26.9054 0.300012 26.2054 0.300012 26.2054C 0.200012 22.9054 0.100024 21.4054 2.44141e-05 18.3054Z"/>
<path id="path10_fill" d="M 4.96384 0.874768C 5.96384 2.97477 4.2638 6.67477 3.8638 9.47477C 3.7638 9.57477 3.66381 9.67476 3.56381 9.67476C 3.16381 9.67476 2.66385 9.67477 2.16385 9.47477C 1.96385 9.47477 1.86383 9.37475 1.76383 9.07475C 1.56383 8.27475 1.4638 6.57476 1.3638 5.27476C 0.863801 5.17476 0.463826 4.87476 0.263826 4.27476C -0.136174 2.97476 -0.0361741 0.974756 0.263826 0.174756C 0.363826 -0.125244 4.56384 -0.125232 4.96384 0.874768Z"/>
<path id="path11_fill" d="M 1.2207e-05 0.902778C 0.800012 -0.0972222 1.49999 0.00278388 2.59999 0.00278388C 2.89999 0.00278388 3.10001 0.00278388 3.50001 0.00278388C 4.60001 0.102784 5.59999 0.102784 5.59999 1.50278C 5.59999 11.0028 6.39999 20.5028 7.09999 30.0028C 7.09999 30.1028 7.09999 30.1028 7.09999 30.2028C 7.09999 31.0028 7.19999 31.7028 8.09999 31.9028C 9.49999 32.3028 9.60001 32.2028 11 32.3028C 11.2 31.0028 11.3 30.4028 11.4 29.1028C 11.4 28.8028 11.4 28.6028 11.4 28.3028C 11.4 21.7028 11.6 7.10278 12.4 2.00278C 12.6 0.702784 14.2 0.402778 15.5 0.402778C 16.5 0.402778 17.6 0.402778 18.3 1.40278C 17.5 13.5028 16.6 25.6028 15.8 37.7028C 15.7 38.2028 15.3 38.7028 14.8 38.7028C 10.6 38.6028 8.5 38.5028 4.3 38.3028C 4.2 38.3028 3.70002 38.1028 3.70002 38.0028C 2.50002 26.5028 1.30002 14.9028 0.200024 3.40278C 2.44081e-05 2.50278 1.2207e-05 1.90278 1.2207e-05 0.902778Z"/>
<path id="path12_fill" d="M 0.04442 19.4089C 0.04442 18.9089 0.04442 12.6089 0.04442 10.3089C 0.04442 8.90887 -0.05558 2.30887 0.04442 1.30887C 0.14442 0.80887 0.64442 0.308852 1.04442 0.00885206C 1.84442 0.00885206 2.24442 0.00885206 3.04442 0.00885206C 4.44442 0.00885206 6.04446 -0.19113 6.64446 1.30887C 6.64446 2.00887 6.64446 2.40886 6.64446 3.10886C 6.44446 14.8089 6.04446 26.5089 5.64446 38.2089C 5.64446 38.2089 5.24444 39.2089 4.94444 39.2089C 3.54444 39.2089 2.84444 39.2089 1.44444 39.2089C 0.944444 39.2089 0.544444 38.6089 0.444444 38.2089C 0.244444 30.7089 0.14442 26.9089 0.04442 19.4089Z"/>
<path id="path13_fill" d="M 0.700012 32.3C 1.10001 31.9 1.30001 31.8 1.70001 31.4C 4.10001 31.4 7.80002 31.4 10.4 30.9C 11.1 30.6 11.1 30.3 11.1 29.7C 11.1 27.3 9.6 25.2 9.5 22.8C 8.4 20.6 3.00001 10.2 1.70001 8.10001C 1.60001 7.80001 0.0999756 5.80001 0.0999756 5.50001C 0.0999756 5.40001 -1.13687e-13 4.10001 -1.13687e-13 3.60001C -1.13687e-13 3.30001 -2.44156e-05 1.90001 0.0999756 1.60001C 0.199976 1.30001 0.400012 0.800012 0.700012 0.600012C 6.00001 0.700012 11.3 0.100006 16.7 6.10352e-06C 17.3 6.10352e-06 18.3 6.07967e-06 18.3 1.00001C 18.3 3.10001 18.3 4.09999 18.3 6.19999C 17.9 6.59999 17.7 6.79999 17.3 7.19999C 14.7 7.29999 13.4 7.29999 10.9 7.29999C 9.40002 7.29999 9.29999 8.60001 9.29999 9.60001C 9.29999 10.8 9.69999 11.9 10.3 13.1C 11.6 15.7 12.2 17 13.5 19.5C 13.7 19.7 15 21.8 15.5 22.4C 15.7 22.6 17.6 24.9 17.7 25.2C 17.8 25.4 18.3 27 18.4 27.1C 18.6 27.7 18.8 28 19 28.7C 19 29.2 19 31 19 31.5C 19 33.2 19.6 36.8 17.3 37.5C 13.6 37.7 11.7 37.8 7.90002 38C 5.40002 38 4.20001 38.1 1.70001 38.1C 0.400012 37.3 0.700012 35.1 0.700012 34C 0.700012 33.3 0.700012 32.9 0.700012 32.3Z"/>
<path id="path14_fill" d="M 0.700012 32.5C 1.10001 32.1 1.30001 31.9 1.70001 31.6C 4.10001 31.6 7.80002 31.5 10.4 31C 11.1 30.7 11.1 30.4 11.1 29.8C 11.1 27.4 9.6 25.3 9.5 22.9C 8.4 20.7 3.00001 10.4 1.70001 8.29999C 1.60001 7.99999 0.0999756 6.00001 0.0999756 5.70001C 0.0999756 5.60001 -1.13687e-13 4.29999 -1.13687e-13 3.79999C -1.13687e-13 3.49999 -2.44156e-05 2.09999 0.0999756 1.79999C 0.199976 1.49999 0.400012 0.999988 0.700012 0.799988C 6.00001 0.799988 11.3 0.2 16.7 0C 17.3 0 18.3 0 18.3 1C 18.3 3.1 18.3 4.10001 18.3 6.20001C 17.9 6.60001 17.7 6.80001 17.3 7.20001C 14.7 7.30001 13.4 7.29999 10.9 7.39999C 9.40002 7.39999 9.29999 8.70001 9.29999 9.70001C 9.29999 10.9 9.69999 12 10.3 13.2C 11.6 15.8 12.2 17 13.5 19.6C 13.7 19.8 15 21.9 15.5 22.5C 15.7 22.7 17.6 25 17.7 25.3C 17.8 25.5 18.3 27.1 18.4 27.2C 18.6 27.8 18.8 28.1 19 28.8C 19 29.3 19 31.1 19 31.6C 19 33.3 19.6 36.9 17.3 37.6C 13.6 37.8 11.7 38 7.90002 38.2C 5.40002 38.3 4.20001 38.3 1.70001 38.4C 0.400012 37.6 0.700012 35.5 0.700012 34.3C 0.700012 33.5 0.700012 33.2 0.700012 32.5Z"/>
<path id="path15_fill" d="M 0.0444689 37.5963C -0.0555311 35.9963 0.0444689 27.9962 0.0444689 26.2962C 0.0444689 23.2962 0.0444689 15.3962 0.0444689 14.9962C 0.0444689 13.5962 0.244457 6.49625 0.344457 4.99625C 0.444457 3.49625 0.744457 1.09623 2.34446 0.69623C 5.04446 -0.00376981 7.34446 0.196255 10.3445 0.0962546C 13.3445 -0.00374541 16.5445 -0.603745 16.5445 3.09625C 16.5445 3.19625 16.5445 3.19623 16.5445 3.19623C 16.5445 4.19623 16.5444 7.29625 15.2444 7.49625C 12.2444 7.79625 10.7444 7.99624 7.74442 8.29624C 7.04442 8.39624 7.04447 9.79623 7.04447 10.1962C 7.04447 11.6962 7.14443 12.6962 7.44443 14.3962C 8.54443 15.9962 13.5445 15.1962 14.8445 15.2962C 15.2445 15.2962 15.8445 15.7962 15.8445 16.1962C 15.8445 18.2962 15.8445 19.2962 15.8445 21.3962C 15.5445 21.6962 15.4444 21.7962 15.1444 21.9962C 14.3444 22.0962 10.4444 22.3962 9.64444 22.4962C 8.44444 22.5962 7.14442 22.9963 6.74442 24.0963C 6.74442 24.5963 6.74442 26.9962 6.74442 27.4962C 6.74442 29.0962 6.64444 31.1962 7.14444 32.8962C 9.24444 34.0962 13.6444 33.7962 15.2444 34.2962C 16.0444 34.5962 15.9444 36.2962 15.9444 37.1962C 15.9444 37.4962 15.9444 38.3963 15.9444 38.4963C 15.6444 38.7963 15.5444 38.8963 15.2444 39.0963C 15.2444 39.0963 12.2445 39.3963 11.0445 39.4963C 10.6445 39.4963 10.4445 39.4963 10.0445 39.4963C 8.74447 39.4963 2.74444 39.4962 1.64444 39.3962C 0.844444 39.3962 0.144469 38.4963 0.0444689 37.5963Z"/>
<path id="path16_fill" d="M 6.02725 19C 5.92725 19.1 5.92724 19.1 5.82724 19.1C 4.02724 19.1 3.22728 19.1 1.42728 19.1C 0.927279 18.5 0.727266 18.2 0.227266 17.6C 0.127266 17.5 -0.0727458 17 0.0272542 17C 0.0272542 10.7 0.0272542 7.6 0.0272542 1.3C 0.0272542 0.0999999 2.22728 1.2207e-05 2.92728 1.2207e-05C 3.42728 1.2207e-05 3.62725 1.2207e-05 4.02725 1.2207e-05C 6.22725 0.100012 17.1273 -0.2 18.9273 0.3C 19.5273 0.5 19.5273 0.699988 19.5273 1.09999C 19.5273 1.29999 19.5273 1.40001 19.5273 1.50001C 19.5273 2.00001 19.3273 4.39999 19.2273 26.2C 18.2273 26.3 17.3272 26.3 16.3272 26.4C 15.2272 26.4 14.6273 26.4 13.5273 26.5C 13.5273 26.5 13.3272 26.4 13.1272 26.4C 13.1272 16.8 13.3273 14.8 13.2273 7.00001C 13.0273 6.70001 12.8272 6.60001 12.6272 6.40001C 12.6272 6.40001 10.8272 6.10001 10.1272 6.00001C 8.72723 6.00001 8.02723 6.00001 6.62723 6.00001C 6.42723 6.20001 6.02725 6.70001 6.02725 7.00001C 6.02725 11.8 6.02725 14.2 6.02725 19ZM 19.6272 31C 20.2272 31.7 19.6273 37.4 19.0273 37.9C 18.6273 38.2 17.9273 38 17.4273 38C 16.2273 38 13.3272 38.8 12.8272 36.9C 12.3272 35.1 12.8272 33.1 12.8272 31.2C 12.8272 31.1 12.8272 31.1 12.8272 31C 13.4272 30.4 18.3272 29.6 19.6272 31Z"/>
<path id="path17_fill" d="M 7.15848 31.7C 7.75848 32.5 7.15851 38.1 6.55851 38.6C 6.15851 38.9 5.45847 38.7 4.95847 38.7C 3.75847 38.7 0.858494 39.4 0.358494 37.5C -0.141506 35.7 0.358494 33.7 0.358494 31.8C 0.358494 31.7 0.358494 31.7 0.358494 31.6C 0.958494 30.8 5.85848 30.2 7.15848 31.7ZM 6.55851 25.7L 6.55851 25.8C 6.55851 27.6 6.45848 28.9 3.15848 28.8C 3.05848 28.8 3.05847 28.8 2.95847 28.8C 2.65847 28.8 2.15849 28.7 1.85849 28.7C 1.45849 28.5 1.15851 28.2 1.05851 27.9C -0.841494 22.6 0.258469 8.4 0.958469 0C 3.15847 0.1 4.25847 0.0999878 6.45847 0.299988C 6.75847 0.299988 7.25852 1.10001 7.25852 1.10001C 6.95852 11 6.75851 15.9 6.55851 25.7Z"/>
<path id="path18_fill" d="M 2.44141e-05 21.8L 11.8 23.2L 25.2 22.7L 29.8 23.2L 37.5 23.2C 37.5 23.2 47.4 22.6 50.4 21.8C 50.4 21.8 47.9 14 46.6 12.3C 45.3 10.6 40.9 7 40.3 6.6C 39.7 6.2 34.6 3.4 34.6 3.4L 26.1 6.10352e-06L 15.6 4.1L 8.19998 7.9L 2.50002 13.8L 2.44141e-05 21.8Z"/>
<path id="path19_fill" d="M 6.4 3.05176e-06L 1.4 10.5L 11.6 5.7L -2.44141e-05 2.5L 8.9 12.1L 6.4 3.05176e-06Z"/>
<path id="path20_fill" d="M 4.5 3.05176e-06L 1.20001 7.7L 7.70001 3.5L 0 3.4L 6.40002 8.59999L 4.5 3.05176e-06Z"/>
<path id="path21_fill" d="M 6.1 -3.05176e-06L 0.800012 7.69999L 8.50002 4.1L 2.44141e-05 2L 7.00002 7.69999L 6.1 -3.05176e-06Z"/>
<path id="path22_fill" d="M 5.29999 2.50001L 0 6.10352e-06L 0 2.4L 5 3.29999L 5.29999 2.50001Z"/>
<path id="path23_fill" d="M 4.1 -3.05176e-06L 2.44141e-05 0.199994L 0.399988 1.40001L 4.1 0.3L 4.1 -3.05176e-06Z"/>
<path id="path24_fill" d="M 2.70001 3.3L 0 1.10001L 0.799988 0L 3 3.3L 2.70001 3.3Z"/>
<path id="path25_fill" d="M -1.2207e-05 2.09999L 0.400012 2.9L 5.29998 2.09999L 5.29998 3.05176e-06L -1.2207e-05 2.09999Z"/>
<path id="path26_fill" d="M -1.2207e-05 2.9L 3.79998 1.20001L 2.60002 -6.10352e-06L -1.2207e-05 2.9Z"/>
<path id="path27_fill" d="M -2.44141e-05 -6.10352e-06L 4.49998 0.400003L 2.99998 1.9L -2.44141e-05 0.700006L -2.44141e-05 -6.10352e-06Z"/>
</defs>
</svg>
