<svg width="159" height="162" viewBox="0 0 159 162" version="1.1" xmlns="http://www.w3.org/2000/svg" xmlns:xlink="http://www.w3.org/1999/xlink">
<title>sol</title>
<desc>Created using Figma</desc>
<g id="Canvas" transform="translate(2840 3474)">
<g id="sol">
<g id="Vector">
<use xlink:href="#path0_fill" transform="translate(-2840 -3474)"/>
</g>
<g id="Vector">
<use xlink:href="#path1_fill" transform="translate(-2794.12 -3432.76)" fill="#FAD723"/>
</g>
<g id="Vector">
<use xlink:href="#path2_fill" transform="translate(-2771.12 -3393.25)" fill="#FAD723"/>
</g>
<g id="Vector">
<use xlink:href="#path3_fill" transform="translate(-2757.82 -3462.45)" fill="#FAD723"/>
</g>
<g id="Vector">
<use xlink:href="#path4_fill" transform="translate(-2794.79 -3385.85)" fill="#FAD723"/>
</g>
<g id="Vector">
<use xlink:href="#path5_fill" transform="translate(-2754.2 -3418.08)" fill="#FAD723"/>
</g>
<g id="Vector">
<use xlink:href="#path6_fill" transform="translate(-2828.73 -3400.04)" fill="#FAD723"/>
</g>
<g id="Vector">
<use xlink:href="#path7_fill" transform="translate(-2825.76 -3426.45)" fill="#FAD723"/>
</g>
<g id="Vector">
<use xlink:href="#path8_fill" transform="translate(-2803.53 -3455.75)" fill="#FAD723"/>
</g>
<g id="Vector">
<use xlink:href="#path9_fill" transform="translate(-2771.95 -3454.58)" fill="#FAD723"/>
</g>
</g>
</g>
<defs>
<path id="path0_fill" d="M 113.077 144.947C 110.877 144.447 109.077 144.347 107.577 143.547C 105.277 142.347 102.977 140.947 100.977 139.347C 99.5769 138.247 98.4769 136.647 97.2769 135.247C 95.7769 133.647 94.2768 132.247 92.8768 130.547C 91.8768 129.347 91.0769 127.947 90.1769 126.647C 88.3769 123.847 86.5769 121.147 84.2769 118.747C 81.3769 115.647 78.6769 112.447 76.9769 108.447C 76.5769 107.447 75.2769 106.847 74.6769 105.847C 73.9769 104.747 73.5769 103.447 72.9769 102.247C 72.6769 101.747 72.3768 101.247 72.0768 100.847C 70.4768 98.5467 68.9768 96.2467 67.3768 94.0467C 66.8768 93.3467 65.9769 92.8467 65.2769 92.2467C 64.7769 92.9467 64.1769 93.6467 63.9769 94.4467C 63.3769 96.2467 63.3769 98.4467 62.2769 99.8467C 60.6769 101.947 60.8769 104.447 60.1769 106.747C 59.3769 109.147 58.7768 111.647 58.0768 114.047C 57.8768 114.847 57.8768 115.647 57.8768 116.447C 57.7768 117.747 58.2768 119.047 56.5768 119.847C 56.0768 120.047 55.7769 120.947 55.6769 121.647C 55.3769 125.047 55.2768 128.447 54.8768 131.747C 54.5768 133.947 54.0769 136.147 53.4769 138.347C 52.7769 140.947 52.0768 143.547 51.0768 145.947C 50.2768 148.147 49.0768 150.147 48.0768 152.247C 47.8768 152.547 47.3769 152.647 46.9769 152.747C 45.4769 153.247 44.9768 154.747 46.0768 156.247C 43.3768 156.247 43.6769 158.147 43.6769 159.847C 43.6769 161.447 42.8768 162.047 41.3768 161.947C 38.2768 161.847 37.1769 160.447 37.7769 157.447C 38.3769 155.047 38.1768 152.347 39.3768 150.347C 40.6768 148.247 39.9769 146.247 40.4769 144.247C 41.0769 141.847 40.5768 139.247 40.5768 136.747C 40.5768 135.247 40.6768 133.747 40.5768 132.347C 40.4768 129.247 40.7768 126.047 40.0768 123.047C 39.2768 119.947 39.9769 116.947 39.9769 113.847C 40.0769 110.547 41.2769 107.347 41.6769 104.147C 42.1769 99.8467 42.2769 95.5467 42.4769 91.2467C 42.5769 90.3467 42.5769 89.5467 42.6769 88.2467C 41.0769 88.6467 39.5768 88.9467 38.0768 89.3467C 37.2768 89.5467 36.3768 89.8467 35.5768 90.1467C 32.8768 90.9467 30.2769 91.8467 27.4769 92.5467C 25.7769 92.9467 23.8769 92.9467 22.1769 93.3467C 16.2769 94.5467 10.4768 92.9467 4.57685 93.2467C 2.17685 93.3467 0.476845 91.8467 0.0768454 89.6467C -0.323155 87.8467 0.876858 85.3467 2.77686 84.5467C 5.37686 83.4467 8.17688 82.6467 10.6769 81.3467C 13.2769 79.9467 15.6769 78.0467 18.1769 76.4467C 18.8769 76.0467 19.5768 75.6467 20.3768 75.3467C 21.4768 74.8467 22.4768 74.2467 23.5768 73.8467C 24.7768 73.4467 26.0768 73.2467 27.3768 73.1467C 28.9768 72.9467 30.4768 72.6467 31.5768 71.2467C 32.0768 70.6467 33.3769 70.5467 34.2769 70.2467C 34.8769 69.9467 35.6768 69.6467 36.0768 69.1467C 36.2768 68.9467 35.6769 67.8467 35.2769 67.6467C 32.6769 66.4467 29.8768 65.6467 27.5768 64.1467C 25.8768 63.0467 23.5769 63.0467 22.2769 61.0467C 21.5769 60.0467 19.7769 59.7467 18.4769 59.1467C 17.8769 58.8467 17.4768 58.3467 16.8768 57.9467C 16.0768 57.3467 15.2768 56.4467 14.3768 56.0467C 12.6768 55.2467 10.7769 54.7467 8.97687 54.1467C 6.17687 53.2467 4.07685 51.3467 3.07685 48.7467C 2.67685 47.6467 3.57685 45.3467 4.57685 44.5467C 5.87685 43.4467 7.87688 42.8467 9.67688 42.7467C 14.9769 42.3467 20.2769 42.5467 25.4769 41.8467C 29.4769 41.3467 32.9769 42.1467 36.7769 43.0467C 39.3769 43.6467 42.2768 43.3467 45.0768 43.5467C 45.2768 42.0467 45.2768 41.1467 43.8768 40.6467C 42.6768 40.2467 41.7769 39.3467 41.9769 37.8467C 42.0769 37.3467 41.2768 36.7467 40.8768 36.1467C 40.1768 35.0467 39.4769 33.8467 38.6769 32.7467C 37.3769 30.9467 35.7768 29.3467 34.8768 27.4467C 33.5768 24.7467 30.5768 24.0467 28.8768 21.7467C 27.0768 19.2467 26.6769 16.4467 25.9769 13.6467C 25.7769 12.8467 25.5768 12.0467 25.5768 11.3467C 25.4768 10.1467 25.1769 8.84669 26.4769 7.94669C 26.7769 7.64669 26.7768 7.04669 27.0768 6.24669C 30.8768 4.64669 33.3769 6.54669 35.9769 9.74669C 37.9769 12.1467 39.2769 15.4467 42.9769 16.0467C 43.9769 16.2467 44.6768 17.6467 45.5768 18.4467C 46.1768 19.0467 46.8769 19.6467 47.4769 20.1467C 48.2769 20.7467 49.0768 21.2467 49.8768 21.8467C 53.1768 24.7467 56.3769 27.7467 59.6769 30.7467C 60.0769 31.1467 60.5769 31.4467 61.1769 31.9467C 62.8769 27.9467 65.1768 24.3467 65.5768 19.9467C 65.6768 19.2467 65.8769 18.6467 66.2769 18.0467C 67.3769 16.2467 68.5769 14.4467 69.7769 12.7467C 69.9769 12.5467 70.2768 12.3467 70.5768 12.3467C 73.0768 11.7467 73.7768 9.84669 74.5768 7.74669C 75.0768 6.34669 75.8768 5.04669 76.5768 3.54669C 76.4768 3.54669 76.6768 3.44669 76.8768 3.44669C 80.9768 3.34669 82.7769 5.1467 82.9769 9.3467C 83.1769 13.0467 82.2768 16.4467 80.8768 19.7467C 80.4768 20.5467 80.3768 21.5467 80.3768 22.4467C 80.0768 25.6467 79.8768 28.8467 79.5768 32.0467C 79.4768 33.3467 80.0769 33.7467 81.2769 33.1467C 82.0769 32.7467 82.8769 32.3467 83.6769 32.1467C 85.4769 31.7467 86.7769 30.7467 87.9769 29.2467C 88.8769 28.1467 90.5768 27.6467 91.5768 26.5467C 92.8768 25.0467 94.8769 24.5467 96.1769 23.4467C 98.4769 21.5467 101.277 21.4467 103.677 20.2467C 106.877 18.7467 109.877 16.7467 112.977 15.0467C 114.677 14.0467 116.677 13.4467 118.277 12.2467C 120.777 10.3467 123.477 10.0467 126.377 9.94669C 127.577 9.94669 128.777 9.74669 130.177 9.54669C 130.777 8.24669 132.377 7.54669 134.177 7.24669C 135.277 7.04669 136.477 7.44669 136.977 5.94669C 136.977 5.84669 137.577 5.94669 137.777 5.74669C 139.177 5.04669 140.477 4.24669 141.877 3.54669C 143.477 2.74669 145.177 1.84669 146.877 1.24669C 149.877 0.24669 152.977 -0.653316 156.077 0.646684C 156.377 0.746684 156.977 0.846693 156.977 1.04669C 157.677 3.34669 158.277 5.64668 158.977 8.14668C 157.977 8.24668 157.477 8.34669 156.777 8.44669C 156.977 10.6467 155.077 10.8467 153.777 11.2467C 151.977 11.8467 151.177 13.6467 149.777 14.5467C 147.577 16.0467 145.077 17.1467 142.677 18.4467C 142.377 18.6467 141.677 18.7467 141.677 18.9467C 141.477 21.0467 139.577 20.8467 138.377 21.5467C 137.377 22.2467 136.377 22.9467 135.277 23.5467C 134.677 23.9467 133.977 24.2467 133.377 24.6467C 132.077 25.5467 130.677 26.3467 129.377 27.2467C 126.777 28.9467 124.077 30.5467 121.477 32.2467C 120.977 32.5467 120.577 32.8467 120.177 33.2467C 119.877 33.5467 119.677 33.9467 119.377 34.1467C 118.577 34.6467 117.677 34.9467 116.877 35.3467C 113.877 37.0467 110.877 38.8467 107.877 40.5467C 105.577 41.8467 103.277 43.3467 100.877 44.5467C 99.1768 45.4467 97.2768 45.8467 95.5768 46.6467C 94.4768 47.2467 93.3769 48.0467 92.6769 49.0467C 92.1769 49.7467 92.1769 50.9467 93.6769 51.0467C 95.6769 51.1467 97.6768 51.1467 99.5768 51.6467C 103.877 52.7467 108.177 54.0467 112.477 55.2467C 116.177 56.3467 119.777 57.4467 123.477 58.5467C 125.677 59.2467 127.777 60.0467 129.977 60.6467C 131.677 61.1467 133.477 61.2467 135.277 61.5467C 136.977 61.8467 138.377 62.6467 139.677 63.9467C 140.877 65.2467 142.677 65.9467 144.077 66.8467C 144.477 67.0467 145.077 67.4467 145.077 67.7467C 144.977 68.4467 144.877 69.6467 144.377 69.8467C 142.877 70.5467 141.277 71.1467 139.777 71.2467C 134.877 71.6467 130.077 71.7467 125.177 71.9467C 124.277 71.9467 123.277 71.6467 122.377 71.6467C 118.577 71.9467 114.777 72.4467 110.877 72.7467C 108.377 72.8467 105.777 72.6467 103.177 72.6467C 101.277 72.6467 99.3769 72.8467 97.4769 72.9467C 97.1769 72.9467 96.8768 73.1467 96.5768 73.1467C 93.0768 73.2467 89.5768 73.4467 86.0768 73.5467C 83.9768 73.6467 82.8769 75.2467 83.7769 77.1467C 84.7769 79.3467 85.6769 81.6467 86.6769 83.8467C 87.3769 85.3467 88.2768 86.7467 89.0768 88.1467C 89.7768 89.2467 90.5769 90.1467 90.2769 91.6467C 90.2769 91.8467 90.5769 92.2467 90.7769 92.4467C 91.5769 93.1467 92.6768 93.4467 92.3768 94.8467C 92.2768 95.1467 93.2769 95.5467 93.4769 95.9467C 94.1769 97.2467 94.8769 98.5467 94.4769 100.347C 94.2769 101.047 94.9769 102.347 95.6769 102.947C 97.7769 104.947 98.2769 107.647 99.2769 110.247C 100.177 112.747 101.377 115.047 102.377 117.547C 103.477 120.247 105.077 122.847 105.377 125.647C 105.677 129.147 108.577 131.547 108.477 135.147C 108.477 136.947 110.277 138.747 111.177 140.547C 112.277 141.647 112.477 143.047 113.077 144.947ZM 53.5768 46.2467C 53.4768 46.1467 53.2769 46.0467 53.1769 45.9467C 52.4769 46.6467 51.0769 47.4467 51.1769 48.0467C 51.4769 50.6467 49.4768 52.0467 48.3768 53.6467C 47.1768 55.4467 46.6768 57.3467 46.3768 59.1467C 45.8768 61.9467 46.0769 64.9467 47.2769 67.7467C 47.8769 69.0467 48.0769 70.4467 48.4769 71.8467C 49.2769 74.7467 49.9768 77.6467 51.0768 80.4467C 51.4768 81.6467 52.3768 83.0467 53.8768 83.1467C 56.8768 83.3467 59.8769 83.1467 62.7769 83.5467C 65.2769 83.8467 67.3769 83.2467 69.1769 81.5467C 70.7769 79.9467 73.2768 79.5467 74.3768 77.2467C 74.8768 76.1467 75.8768 75.2467 76.5768 74.1467C 77.6768 72.2467 78.8768 70.4467 79.5768 68.4467C 80.1768 66.7467 80.5768 64.8467 80.5768 63.0467C 80.5768 59.6467 80.4769 56.2467 79.9769 52.9467C 79.6769 51.0467 78.2768 49.3467 77.5768 47.5467C 75.8768 43.3467 72.7769 41.1467 68.1769 41.2467C 65.0769 41.2467 61.9769 41.6467 59.2769 41.8467C 57.8769 43.8467 55.9769 44.2467 53.9769 44.7467C 53.6769 45.1467 53.6768 45.6467 53.5768 46.2467ZM 68.8768 85.9467C 69.4768 87.9467 69.6768 89.3467 70.3768 90.4467C 71.6768 92.6467 73.2769 94.7467 74.7769 96.9467C 76.6769 99.6467 78.7769 102.347 80.6769 105.047C 81.1769 105.747 81.5769 106.647 82.1769 107.347C 85.5769 111.647 89.1768 115.747 92.5768 120.047C 93.6768 121.447 94.8769 122.747 95.4769 124.347C 96.1769 125.947 96.8769 127.347 98.4769 128.147C 98.7769 128.247 98.8768 128.747 99.0768 129.047C 99.6768 130.447 100.677 130.747 102.177 130.147C 101.777 128.747 101.477 127.247 100.977 125.847C 100.077 123.647 98.8768 121.547 97.8768 119.447C 96.1768 115.647 94.5769 111.747 92.9769 107.847C 92.1769 105.947 91.6769 104.047 90.9769 102.147C 90.2769 100.047 89.6769 97.8467 88.7769 95.7467C 87.4769 92.6467 86.1768 89.5467 84.5768 86.6467C 83.5768 84.6467 82.1769 82.8467 80.7769 80.7467C 77.2769 83.6467 74.4768 87.1467 68.8768 85.9467ZM 104.877 28.1467C 103.577 28.9467 102.677 29.8467 101.577 30.2467C 98.0768 31.4467 94.5768 32.5467 91.0768 33.6467C 90.8768 33.7467 90.6768 33.7467 90.5768 33.9467C 88.9768 35.7467 86.4769 36.0467 84.4769 36.4467C 82.1769 36.8467 81.8769 38.1467 82.1769 39.5467C 82.6769 42.1467 83.7769 44.5467 84.6769 47.5467C 85.8769 46.9467 87.0769 46.3467 88.1769 45.6467C 90.6769 44.0467 92.9769 42.0467 95.6769 40.6467C 98.6769 39.0467 101.977 37.8467 105.077 36.3467C 107.077 35.4467 108.977 34.4467 110.777 33.2467C 113.077 31.6467 115.277 29.8467 117.477 28.1467C 117.677 27.9467 117.977 27.7467 118.277 27.7467C 121.077 27.9467 122.477 25.6467 124.477 24.5467C 126.077 23.6467 127.677 22.8467 129.277 21.9467C 129.677 21.7467 130.077 21.4467 130.477 21.1467C 131.077 20.5467 131.577 19.9467 132.277 19.4467C 135.777 17.0467 139.377 14.6467 143.077 12.1467C 142.677 11.8467 142.477 11.6467 142.377 11.6467C 139.677 12.3467 137.077 12.9467 134.377 13.8467C 132.377 14.5467 130.277 15.1467 128.377 16.3467C 126.577 17.5467 124.277 18.1467 122.377 19.1467C 120.777 20.0467 119.377 21.2467 117.777 22.3467C 117.677 22.4467 117.377 22.4467 117.277 22.4467C 116.177 22.5467 115.377 22.8467 114.277 23.6467C 112.177 25.1467 109.477 25.8467 106.977 26.6467C 105.877 26.9467 104.577 26.8467 104.877 28.1467ZM 47.9769 88.1467C 47.8769 89.6467 47.7768 91.2467 47.5768 92.8467C 47.1768 95.9467 46.3769 99.0467 46.1769 102.147C 45.7769 107.247 45.3769 112.347 45.4769 117.347C 45.5769 121.747 44.4769 126.247 45.6769 130.647C 45.7769 131.147 45.4769 131.847 45.4769 132.447C 45.3769 133.047 45.1768 133.747 45.3768 134.047C 45.6768 134.547 46.3768 134.947 47.0768 135.147C 47.2768 135.247 47.6768 134.447 48.0768 134.047C 49.3768 132.447 49.9769 130.547 49.6769 128.447C 49.6769 128.347 49.7768 128.147 49.8768 128.147C 51.7768 127.947 50.8769 126.547 50.9769 125.547C 51.0769 124.947 50.9768 124.247 51.0768 123.747C 52.2768 118.847 53.5769 114.047 54.7769 109.247C 55.3769 106.947 55.7768 104.547 56.3768 102.247C 57.0768 99.7467 58.1769 97.2467 58.7769 94.7467C 59.0769 93.3467 59.2769 91.6467 57.7769 90.6467C 55.5769 89.1467 53.1769 88.1467 50.4769 88.2467C 49.8769 88.4467 49.1769 88.2467 47.9769 88.1467ZM 132.377 65.2467C 128.177 64.1467 123.877 63.0467 119.677 62.0467C 116.977 61.3467 114.277 60.5467 111.477 59.8467C 108.377 59.1467 105.477 58.1467 102.277 57.8467C 97.7769 57.3467 93.2769 56.1467 88.6769 56.0467C 87.6769 56.0467 87.3769 56.2467 87.2769 57.1467C 86.8769 60.0467 86.1769 62.9467 85.9769 65.9467C 85.7769 68.6467 85.7769 68.8467 88.4769 68.5467C 89.0769 68.4467 89.5769 68.5467 90.1769 68.5467C 97.0769 68.0467 103.977 67.5467 110.877 67.1467C 112.877 67.0467 114.877 67.5467 116.877 67.4467C 121.277 67.3467 125.577 66.9467 129.977 66.7467C 131.277 66.6467 132.177 66.4467 132.377 65.2467ZM 42.3768 81.0467C 41.7768 79.5467 41.0769 78.0467 40.6769 76.5467C 40.1769 74.7467 38.9768 74.4467 37.3768 74.1467C 35.2768 73.6467 34.1769 75.4467 32.4769 75.8467C 31.0769 76.2467 29.8768 77.1467 28.5768 77.8467C 28.2768 77.9467 27.9769 77.8467 27.6769 77.9467C 25.9769 78.4467 24.1769 78.9467 22.4769 79.5467C 21.1769 80.0467 19.9769 80.8467 18.6769 81.3467C 17.3769 81.8467 15.3769 81.8467 14.7769 82.8467C 13.9769 84.0467 13.2768 84.2467 12.0768 84.3467C 11.7768 84.3467 11.2769 85.2467 11.2769 85.3467C 11.9769 86.2467 12.6769 87.5467 13.4769 87.6467C 16.7769 88.0467 20.1769 88.0467 23.4769 88.0467C 24.6769 88.0467 25.8768 87.5467 27.0768 87.4467C 29.3768 87.2467 31.8769 88.1467 33.7769 86.0467C 33.9769 85.8467 34.3769 85.9467 34.6769 85.8467C 35.9769 85.6467 37.3769 85.4467 38.6769 85.1467C 40.6769 84.6467 41.9768 83.1467 42.3768 81.0467ZM 14.2769 47.5467C 13.2769 52.1467 31.1768 61.1467 39.5768 59.3467C 40.2768 57.2467 41.0769 55.2467 41.7769 53.1467C 42.4769 51.0467 42.0769 50.0467 39.9769 49.4467C 38.0769 48.9467 36.0768 48.4467 34.0768 48.3467C 28.2768 47.9467 22.4769 47.7467 16.6769 47.5467C 15.8769 47.4467 15.1769 47.5467 14.2769 47.5467ZM 38.9769 25.5467C 38.4769 27.2467 39.9769 27.7467 41.1769 28.4467C 42.0769 29.0467 42.9769 29.6467 43.6769 30.4467C 44.6769 31.5467 45.3769 32.9467 46.2769 34.1467C 47.3769 35.4467 48.9768 36.2467 49.5768 38.0467C 49.6768 38.4467 50.9769 38.8467 51.6769 38.7467C 52.5769 38.6467 53.3769 37.9467 54.2769 37.6467C 56.1769 37.0467 56.7768 35.3467 55.5768 33.7467C 55.1768 33.2467 54.7769 32.7467 54.2769 32.3467C 51.7769 30.1467 49.2768 27.9467 46.8768 25.6467C 44.9768 23.8467 43.2768 21.8467 41.3768 20.0467C 40.4768 19.1467 39.1768 18.7467 38.3768 18.2467C 35.4768 21.0467 35.9769 23.3467 38.9769 25.5467ZM 75.4769 19.5467C 73.0769 19.2467 72.2769 19.4467 72.4769 20.7467C 73.0769 24.0467 70.7768 26.1467 69.8768 28.8467C 69.4768 29.9467 67.4768 30.4467 68.3768 31.8467C 68.8768 32.6467 70.3769 32.9467 71.4769 33.4467C 72.7769 34.0467 73.4769 33.7467 73.6769 32.2467C 74.1769 27.9467 74.8769 23.7467 75.4769 19.5467Z"/>
<path id="path1_fill" d="M 7.69999 5.00326C 7.79999 4.50326 7.8 3.90326 7.9 3.50326C 9.9 3.10326 11.8 2.70327 13.2 0.60327C 16 0.40327 19 0.00326396 22.1 0.00326396C 26.7 -0.096736 29.8 2.10327 31.5 6.30327C 32.2 8.10327 33.6 9.80326 33.9 11.7033C 34.4 15.0033 34.5 18.4033 34.5 21.8033C 34.5 23.6033 34.2 25.5033 33.5 27.2033C 32.7 29.2033 31.5 31.0033 30.5 32.9033C 29.9 34.0033 28.8 34.9033 28.3 36.0033C 27.2 38.3033 24.7 38.7033 23.1 40.3033C 21.3 42.1033 19.3 42.6033 16.7 42.3033C 13.7 42.0033 10.7 42.1033 7.80002 41.9033C 6.30002 41.8033 5.39998 40.4033 4.99998 39.2033C 3.99998 36.4033 3.3 33.4033 2.4 30.6033C 2 29.2033 1.69999 27.8033 1.19999 26.5033C -1.22786e-05 23.7033 -0.299976 20.7033 0.300024 17.9033C 0.600024 16.1033 1.10002 14.2033 2.30002 12.4033C 3.40002 10.8033 5.40001 9.40327 5.10001 6.80327C 5.00001 6.20327 6.40001 5.40326 7.10001 4.70326C 7.40001 4.70326 7.49999 4.90326 7.69999 5.00326Z"/>
<path id="path2_fill" d="M -2.44141e-05 5.2C 5.59998 6.3 8.40001 2.9 12.1 0C 13.4 2 14.8 3.89999 15.9 5.89999C 17.4 8.89999 18.8 11.9 20.1 15C 21 17.1 21.6 19.3 22.3 21.4C 22.9 23.3 23.5 25.3 24.3 27.1C 25.9 31 27.5 34.9 29.2 38.7C 30.1 40.9 31.3 42.9 32.3 45.1C 32.9 46.4 33.1 47.9 33.5 49.4C 32 50 31 49.6 30.4 48.3C 30.3 48 30.1 47.6 29.8 47.4C 28.2 46.6 27.5 45.2 26.8 43.6C 26.2 42 24.9 40.6 23.9 39.3C 20.5 35 17 30.8 13.5 26.6C 12.9 25.9 12.6 25 12 24.3C 9.99998 21.6 8.00001 19 6.10001 16.2C 4.60001 14.1 2.99999 12 1.69999 9.7C 0.899988 8.6 0.599976 7.2 -2.44141e-05 5.2Z"/>
<path id="path3_fill" d="M 22.6968 16.6C 22.3968 15.3 23.6968 15.4 24.8968 15C 27.3968 14.2 30.0968 13.5 32.1968 12C 33.2968 11.2 34.0968 10.9 35.1968 10.8C 35.3968 10.8 35.5968 10.8 35.6968 10.7C 37.1968 9.6 38.6968 8.4 40.2968 7.5C 42.1968 6.4 44.3968 5.9 46.2968 4.7C 48.1968 3.5 50.1968 2.9 52.2968 2.2C 54.8968 1.3 57.5968 0.700003 60.2968 3.05176e-06C 60.3968 3.05176e-06 60.5968 0.200003 60.9968 0.500003C 57.2968 3 53.6968 5.40001 50.1968 7.80001C 49.4968 8.30001 48.9968 9 48.3968 9.5C 47.9968 9.8 47.5968 10.1 47.1968 10.3C 45.5968 11.2 43.8968 12 42.3968 12.9C 40.3968 14.1 38.9968 16.4 36.1968 16.1C 35.8968 16.1 35.5968 16.3 35.3968 16.5C 33.1968 18.2 30.9968 20 28.6968 21.6C 26.8968 22.8 24.9968 23.8 22.9968 24.7C 19.8968 26.2 16.5968 27.3 13.5968 29C 10.9968 30.4 8.59681 32.4 6.09681 34C 4.99681 34.7 3.79681 35.2 2.59681 35.9C 1.69681 33 0.596814 30.5 0.0968136 27.9C -0.203186 26.5 0.0968015 25.2 2.3968 24.8C 4.4968 24.4 6.89684 24.1 8.49684 22.3C 8.59684 22.2 8.79684 22.1 8.99684 22C 12.4968 20.9 16.0968 19.8 19.4968 18.6C 20.4968 18.3 21.3968 17.4 22.6968 16.6Z"/>
<path id="path4_fill" d="M 2.76507 -6.10352e-06C 3.96507 0.0999939 4.66505 0.200006 5.36505 0.200006C 8.06505 0.100006 10.465 1.1 12.665 2.6C 14.165 3.6 13.965 5.30001 13.665 6.70001C 13.065 9.20001 11.9651 11.7 11.2651 14.2C 10.6651 16.5 10.265 18.9 9.66504 21.2C 8.46504 26.1 7.16508 30.9 5.96508 35.7C 5.86508 36.3 5.96505 36.9 5.86505 37.5C 5.66505 38.4 6.66507 39.9 4.76507 40.1C 4.66507 40.1 4.56506 40.3 4.56506 40.4C 4.86506 42.5 4.26508 44.3 2.96508 46C 2.66508 46.4 2.16508 47.2 1.96508 47.1C 1.36508 46.9 0.665072 46.5 0.265072 46C 0.0650723 45.6 0.265048 44.9 0.365048 44.4C 0.465048 43.8 0.76506 43.1 0.56506 42.6C -0.63494 38.2 0.465048 33.7 0.365048 29.3C 0.265048 24.2 0.66506 19.1 1.06506 14.1C 1.26506 11 2.06508 7.9 2.46508 4.8C 2.56508 3.1 2.56507 1.49999 2.76507 -6.10352e-06Z"/>
<path id="path5_fill" d="M 46.5764 9.32307C 46.3764 10.4231 45.4764 10.7231 44.0764 10.7231C 39.6764 10.8231 35.3764 11.2231 30.9764 11.4231C 28.9764 11.5231 26.9764 11.0231 24.9764 11.1231C 18.0764 11.5231 11.1764 12.0231 4.27641 12.5231C 3.67641 12.5231 3.1764 12.5231 2.5764 12.5231C -0.123603 12.8231 -0.123603 12.6231 0.0763971 9.92307C 0.376397 7.02307 0.976446 4.02307 1.37645 1.12307C 1.47645 0.123069 1.77641 -0.0769374 2.77641 0.0230626C 7.37641 0.223063 11.7764 1.32307 16.3764 1.82307C 19.5764 2.22307 22.5764 3.12307 25.5764 3.82307C 28.2764 4.52307 30.9764 5.32306 33.7764 6.02306C 38.0764 7.22306 42.3764 8.32307 46.5764 9.32307Z"/>
<path id="path6_fill" d="M 31.1111 7.08704C 30.7111 9.18704 29.4111 10.687 27.4111 11.087C 26.1111 11.387 24.7111 11.587 23.4111 11.787C 23.1111 11.887 22.7111 11.787 22.5111 11.987C 20.6111 14.187 18.1111 13.187 15.8111 13.387C 14.6111 13.487 13.4111 13.987 12.2111 13.987C 8.81112 13.987 5.51112 13.987 2.21112 13.587C 1.41112 13.487 0.71111 12.087 0.0111098 11.287C -0.0888902 11.187 0.511098 10.387 0.811098 10.287C 2.0111 10.187 2.71111 9.98703 3.51111 8.78703C 4.11111 7.88703 6.11113 7.88703 7.41113 7.28703C 8.71113 6.78703 9.91112 5.98703 11.2111 5.48703C 12.9111 4.88703 14.7111 4.38704 16.4111 3.88704C 16.7111 3.78704 17.0111 3.88703 17.3111 3.78703C 18.6111 3.08703 19.8111 2.18703 21.2111 1.78703C 22.9111 1.38703 24.0111 -0.412963 26.1111 0.0870373C 27.7111 0.387037 28.9111 0.687031 29.4111 2.48703C 29.8111 4.08703 30.6111 5.58704 31.1111 7.08704Z"/>
<path id="path7_fill" d="M 0.0400149 3.05176e-06C 0.840015 3.05176e-06 1.64 3.05176e-06 2.34 3.05176e-06C 8.14 0.300003 13.94 0.500006 19.74 0.800006C 21.74 0.900006 23.74 1.4 25.64 1.9C 27.74 2.5 28.14 3.49999 27.44 5.59999C 26.74 7.69999 26.04 9.70001 25.24 11.8C 17.04 13.6 -0.959985 4.5 0.0400149 3.05176e-06Z"/>
<path id="path8_fill" d="M 2.50736 7.3C -0.492642 5.1 -0.892655 2.8 1.80735 0C 2.60735 0.5 3.90735 1 4.80735 1.8C 6.70735 3.6 8.40735 5.59999 10.3073 7.39999C 12.7073 9.69999 15.3074 11.8 17.7074 14.1C 18.2074 14.5 18.6074 15 19.0074 15.5C 20.3074 17.1 19.6074 18.9 17.7074 19.4C 16.8074 19.7 16.0073 20.3 15.1073 20.5C 14.4073 20.6 13.2074 20.2 13.0074 19.8C 12.4074 18 10.8074 17.2 9.70737 15.9C 8.70737 14.8 8.00733 13.4 7.10733 12.2C 6.40733 11.4 5.50733 10.8 4.60733 10.2C 3.40733 9.5 2.00736 9 2.50736 7.3Z"/>
<path id="path9_fill" d="M 7.43038 0.122058C 6.83038 4.32206 6.13035 8.52205 5.53035 12.8221C 5.33035 14.3221 4.63034 14.6221 3.33034 14.0221C 2.23034 13.5221 0.830365 13.2221 0.230365 12.4221C -0.669635 11.1221 1.33037 10.5221 1.73037 9.42206C 2.63037 6.72206 5.03034 4.62205 4.33034 1.32205C 4.23034 0.0220548 4.93038 -0.177942 7.43038 0.122058Z"/>
</defs>
</svg>
