<svg width="1201" height="57" viewBox="0 0 1201 57" version="1.1" xmlns="http://www.w3.org/2000/svg" xmlns:xlink="http://www.w3.org/1999/xlink">
<title>varal</title>
<desc>Created using Figma</desc>
<g id="Canvas" transform="translate(3773 543)">
<g id="varal">
<g id="Vector">
<use xlink:href="#path0_fill" transform="translate(-3773 -524.5)"/>
</g>
<g id="Vector">
<use xlink:href="#path1_fill" transform="translate(-3334.5 -542.6)"/>
</g>
<g id="Vector">
<use xlink:href="#path2_fill" transform="translate(-3045.5 -542.6)"/>
</g>
</g>
</g>
<defs>
<path id="path0_fill" d="M 0 3.3999L 1200 0L 1200.6 8.6001L 0 9.80005L 0 3.3999Z"/>
<path id="path1_fill" d="M 0 -9.76563e-05L 14.1 55.9L 25.1 55.9L 38.5 -9.76563e-05L 26.7 -9.76563e-05L 19.2 19.4L 7 -9.76563e-05L 0 -9.76563e-05Z"/>
<path id="path2_fill" d="M 0 -9.76563e-05L 14.1 55.9L 25.1 55.9L 38.5 -9.76563e-05L 26.7 -9.76563e-05L 19.2 19.4L 7 -9.76563e-05L 0 -9.76563e-05Z"/>
</defs>
</svg>
